<?xml version="1.0" encoding="utf-8"?>
<!-- Generator: Adobe Illustrator 24.0.3, SVG Export Plug-In . SVG Version: 6.00 Build 0)  -->
<svg version="1.1" id="レイヤー_1" xmlns="http://www.w3.org/2000/svg" xmlns:xlink="http://www.w3.org/1999/xlink" x="0px"
	 y="0px" viewBox="0 0 791.6 62.9" style="enable-background:new 0 0 791.6 62.9;" xml:space="preserve">
<style type="text/css">
	.st0{fill-rule:evenodd;clip-rule:evenodd;fill:#FFFFFF;}
	.st1{fill-rule:evenodd;clip-rule:evenodd;fill:#C2D0D7;}
	.st2{fill-rule:evenodd;clip-rule:evenodd;fill:#E1E6E9;}
	.st3{fill-rule:evenodd;clip-rule:evenodd;fill:#A5BAC5;}
	.st4{fill-rule:evenodd;clip-rule:evenodd;fill:#666666;}
	.st5{fill-rule:evenodd;clip-rule:evenodd;fill:#6D7840;}
	.st6{fill-rule:evenodd;clip-rule:evenodd;fill:#E3E8E9;}
	.st7{fill-rule:evenodd;clip-rule:evenodd;fill:#357581;}
	.st8{fill-rule:evenodd;clip-rule:evenodd;fill:#525758;}
	.st9{fill-rule:evenodd;clip-rule:evenodd;fill:#71797B;}
	.st10{fill-rule:evenodd;clip-rule:evenodd;fill:#C3C3C3;}
	.st11{fill-rule:evenodd;clip-rule:evenodd;fill:#CFA73D;}
	.st12{fill-rule:evenodd;clip-rule:evenodd;fill:#3A3A3A;}
	.st13{fill-rule:evenodd;clip-rule:evenodd;fill:#707070;}
	.st14{fill-rule:evenodd;clip-rule:evenodd;fill:#404525;}
	.st15{fill-rule:evenodd;clip-rule:evenodd;fill:#7B621A;}
	.st16{fill-rule:evenodd;clip-rule:evenodd;fill:#535A30;}
	.st17{fill-rule:evenodd;clip-rule:evenodd;fill:#909090;}
	.st18{fill-rule:evenodd;clip-rule:evenodd;fill:#9E8023;}
	.st19{fill-rule:evenodd;clip-rule:evenodd;fill:#61A1B9;}
	.st20{fill-rule:evenodd;clip-rule:evenodd;fill:#5C5C5D;}
	.st21{fill-rule:evenodd;clip-rule:evenodd;fill-opacity:0.3098;}
	.st22{fill-rule:evenodd;clip-rule:evenodd;fill:#808080;}
	.st23{fill-rule:evenodd;clip-rule:evenodd;fill:#9C9C9C;}
	.st24{fill-rule:evenodd;clip-rule:evenodd;fill:#6A6A6A;}
	.st25{fill-rule:evenodd;clip-rule:evenodd;fill:#99A467;}
</style>
<g>
	<path class="st0" d="M138.1,53.3l3.2-32.9c0.2,5.6,5.9,8.2,17.3,7.8L759.2,9.5l-1.3,3.5l-15.3,40.3h-6.2l-443.9,0
		c-0.8,0-1.5,0-2.3,0H138.1z"/>
	<polygon class="st1" points="742.5,53.3 757.8,13 763.6,13 742.5,56.9 734.9,56.9 	"/>
	<path class="st2" d="M742.5,56.9L763.6,13l28,0.1l-19,24.4l2.4,19.4H742.5z M759.2,9.5L158.6,28.2c-11.4,0.4-17.1-2.2-17.3-7.8
		c0-0.8,0.1-1.6,0.2-2.5l0.8-8.4H759.2z"/>
	<polygon class="st3" points="742.5,53.3 734.9,56.9 736.3,53.3 	"/>
	<path class="st4" d="M141.3,20.4l-3.2,32.9L120.9,30l21.5-20.5l-0.8,8.4C141.3,18.8,141.3,19.6,141.3,20.4z M137.3,51l3.8-38.8
		l-19,17.8L137.3,51z"/>
</g>
<g>
	<path class="st5" d="M23,28c-1-0.4-1.8-1-2.3-1.7c-0.8,0.5-1.8,0.8-3,1l-9.4,1.4c-1.4,0.3-2.1,1-2.2,2.1c-0.1,1.4-0.3,2.8-0.3,4.2
		c0,0.4,0,0.8,0,1.2c0,0.4,0,0.8,0,1.1c0,0,0,0.1,0,0.1c0,0,0,0.1,0,0.1c0,0.1,0,0.2,0,0.3c26.3,0.6,51.7-0.1,76.1-2.3l-5.3-5.3
		l47.3-1.9c0-0.3,0.1-0.6,0.1-0.9c0-0.3,0-0.6,0-0.9c0-2.6-0.1-5-0.2-7.2c-0.3-5.1-0.9-9.4-1.9-13C120.5,2.1,118,0,114.1,0
		c-3.3,0-5.8,2.1-7.5,6.2c-0.1,0.3-0.2,0.5-0.3,0.8c0,0,0,0,0,0c-0.6,1.7-1.3,3.3-1.9,4.6c-0.2,0.4-0.3,0.7-0.5,1
		c-0.9,1.8-1.9,3.3-2.9,4.5c-1.8,2.2-4.2,3.3-7.2,3.6l-60.5-2.6c-0.4,0-0.8,0-1.1,0l0.2,2l0.3,3.7h3.2l0.4,1.9l0.5,2.3L33,28.2
		l-0.9,0.1l-3.5,0.3l-1.3,0.1l-0.3,0c-0.3,0-0.5,0-0.8,0C24.9,28.5,23.9,28.3,23,28z"/>
	<path class="st6" d="M28.7,23.7h3.1l0.1,2.1l-0.6,0c-1,0-2,0.9-2.8,2.7l-1.3,0.1L28.7,23.7z M35.9,23.7l0.4,1.9l-3.5,0.2l-0.2-2
		H35.9z M31.7,23h-2.2c-0.9,0-1.7-0.2-2.4-0.4l0.1-0.2c1-1.3,2.4-2,4.3-2.4L31.7,23z M28.1,23.7l-1.9,4.9c-1.2-0.1-2.3-0.3-3.2-0.6
		c0.1-0.1,0.2-0.2,0.3-0.4l3.3-4.2C27,23.5,27.5,23.6,28.1,23.7z"/>
	<path class="st7" d="M25.2,21.3c1.4-1.8,3.4-2.9,6.2-3.1l0.1,2c-1.8,0.3-3.3,1.1-4.3,2.4l-0.1,0.2C26.2,22.4,25.5,21.9,25.2,21.3
		L25.2,21.3z M22.1,24.9l2.5-3c0.4,0.7,1.1,1.1,2,1.4l-3.3,4.2c-0.1,0.1-0.2,0.3-0.3,0.4c-1-0.4-1.8-1-2.3-1.7
		C21.2,25.9,21.7,25.5,22.1,24.9z M28.6,28.5c0.9-1.7,1.8-2.6,2.8-2.7l0.6,0l0.2,2.4L28.6,28.5z M32.8,25.8l3.5-0.2l0.5,2.3L33,28.2
		L32.8,25.8z"/>
	<path class="st8" d="M31.5,20.1l-0.1-2c0.2,0,0.5,0,0.8-0.1l0.2,2C32,20.1,31.8,20.1,31.5,20.1z M25.1,21.3c0.4,0.6,1.1,1.1,2,1.4
		l-0.6,0.7c-0.9-0.3-1.6-0.8-2-1.4L25.1,21.3z M32.8,25.8l0.2,2.4l-0.9,0.1l-0.2-2.4L32.8,25.8z"/>
	<path class="st9" d="M32.6,23.7L32.3,20c-0.3,0-0.5,0.1-0.8,0.1l0.2,2.9h-2.2c-0.9,0-1.7-0.2-2.4-0.4l-0.6,0.7
		c0.4,0.1,0.9,0.2,1.5,0.3l-1.9,4.9c0.3,0,0.5,0,0.8,0l0.3,0l1.5-4.9h3.1l0.1,2.1l0.9,0L32.6,23.7z"/>
	<path class="st10" d="M123.7,28.2l-47.3,1.9l5.3,5.3c-24.4,2.2-49.8,2.9-76.1,2.3c0,0.5,0,1.1,0.1,1.6c27.8,0.4,54.5-0.6,80.1-3
		l-4.6-4.6l42.2-2.4c0-0.1,0.1-0.2,0.1-0.4C123.6,28.8,123.6,28.5,123.7,28.2z"/>
	<path class="st11" d="M123.4,29.4l-42.2,2.4l4.6,4.6c-25.6,2.4-52.3,3.4-80.1,3c0,0,0,0.1,0,0.1v0c0,0.1,0,0.1,0,0.2l0,0.2
		c0,0.1,0,0.1,0,0.2c0,0,0,0,0,0.1c0.1,1.4,0.2,2.7,0.3,4.1c0.1,1.1,0.8,1.8,1.9,2c3.4,0.7,7.3,1.2,11.7,1.6c4.6,0.4,9,0.6,13.4,0.8
		c4.5,0.2,8.9,0.2,13.2,0.2c4.5,0,8.8-0.2,13.1-0.5c23.7-1.5,44-6.7,60.8-15.4C121.7,32.2,122.8,31,123.4,29.4z"/>
	<g>
		<path class="st12" d="M21.4,58.2c0.1,1.3,0.6,2.4,1.5,3.3c1,0.9,2.1,1.4,3.4,1.4c1.3,0,2.4-0.5,3.3-1.4c0.9-0.9,1.3-2,1.3-3.3
			c0-1.3-0.6-2.4-1.5-3.4c-1-0.9-2.1-1.4-3.4-1.4c-1.3,0-2.4,0.5-3.3,1.4C21.8,55.8,21.4,56.9,21.4,58.2z M24.6,59.9
			c-0.5-0.5-0.7-1-0.8-1.7c0-0.7,0.2-1.2,0.6-1.7c0.4-0.5,1-0.7,1.7-0.7c0.7,0,1.2,0.2,1.7,0.7c0.5,0.5,0.7,1,0.8,1.7
			c0,0.7-0.2,1.2-0.6,1.7c-0.4,0.5-1,0.7-1.6,0.7C25.6,60.6,25.1,60.3,24.6,59.9z"/>
		<path class="st13" d="M26.3,60.6c-0.7,0-1.2-0.2-1.7-0.7c-0.5-0.5-0.7-1-0.8-1.7c0-0.7,0.2-1.2,0.6-1.7c0.4-0.5,1-0.7,1.7-0.7
			c0.7,0,1.2,0.2,1.7,0.7c0.5,0.5,0.7,1,0.8,1.7c0,0.7-0.2,1.2-0.6,1.7C27.5,60.3,26.9,60.6,26.3,60.6z"/>
	</g>
	<g>
		<path class="st12" d="M108.1,41.2c-0.9,0-1.7,0.3-2.4,1c-0.6,0.7-0.9,1.5-0.9,2.4c0,0.9,0.4,1.7,1.1,2.4c0.7,0.7,1.5,1,2.5,1
			c0.9,0,1.7-0.3,2.4-1c0.6-0.7,0.9-1.5,0.9-2.4c0-0.9-0.4-1.8-1.1-2.4C109.9,41.5,109.1,41.2,108.1,41.2z M109.4,43.4
			c0.3,0.3,0.5,0.7,0.5,1.2c0,0.5-0.1,0.9-0.5,1.2c-0.3,0.3-0.7,0.5-1.2,0.5c-0.5,0-0.9-0.2-1.2-0.5c-0.3-0.3-0.5-0.7-0.5-1.2
			c0-0.5,0.1-0.9,0.5-1.2c0.3-0.3,0.7-0.5,1.2-0.5C108.7,42.9,109.1,43.1,109.4,43.4z"/>
		<path class="st13" d="M108.2,42.9c0.5,0,0.9,0.2,1.2,0.5c0.3,0.3,0.5,0.7,0.5,1.2c0,0.5-0.1,0.9-0.5,1.2c-0.3,0.3-0.7,0.5-1.2,0.5
			c-0.5,0-0.9-0.2-1.2-0.5c-0.3-0.3-0.5-0.7-0.5-1.2c0-0.5,0.1-0.9,0.5-1.2C107.3,43.1,107.7,42.9,108.2,42.9z"/>
	</g>
	<g>
		<path class="st14" d="M123.7,28.2c0.1-0.6,0.1-1.1,0.1-1.8c0,0.6-0.2,1.2-0.4,1.8L123.7,28.2z"/>
		<path class="st15" d="M122.6,29.4c-0.6,0.7-1.3,1.3-2.2,1.9c-11.2,5.6-24.1,9.6-38.7,11.9c-0.3,0.1-0.7,0.1-1,0.2
			c-3.5,0.5-6.3-0.3-8.5-2.4c-6.2,0.7-12.6,1.2-19.3,1.4c1.3,1.4,2.4,2.5,3.3,3.3c-11.9,0.5-24.8,0.1-38.5-1.1l-8.7-1.1
			c-1.5-0.3-2.4-0.7-2.7-1.4c-0.3-0.6-0.5-1.4-0.6-2.4c0.1,1.4,0.2,2.9,0.3,4.3c0.1,1.1,0.8,1.8,1.9,2c3.4,0.7,7.3,1.2,11.7,1.6
			c4.6,0.4,9,0.6,13.4,0.8c9.2,0.4,17.9,0.3,26.2-0.3c23.7-1.5,44-6.7,60.8-15.4c1.7-0.7,2.8-1.9,3.3-3.5L122.6,29.4z"/>
		<path class="st4" d="M123.7,28.2l-0.4,0c-0.2,0.4-0.4,0.8-0.7,1.2l0.8,0C123.5,29,123.6,28.6,123.7,28.2z"/>
	</g>
	<g>
		<path class="st16" d="M122.4,24.9c0.2-1.9,0.2-4.2,0-7.1c-0.3-4.4-0.9-8.3-1.8-11.8c-1-3.5-3.1-5.2-6.4-5.2c-3,0-5.3,1.8-6.9,5.3
			c-0.1,0.3-0.2,0.5-0.3,0.8c-0.1,0.2-0.1,0.4-0.2,0.6c-0.5,1.5-1.1,2.8-1.6,4.1c-0.1,0.3-0.3,0.7-0.4,1c-0.9,2.2-1.9,4-2.8,5.6
			c-1.6,2.8-4.4,4.3-8.4,4.6l-38-1.8l12.9,15.5c-6.5,0.4-13,0.8-19.6,1L34,20c-0.1,0-0.2,0-0.3,0c-0.5,0-0.9,0-1.4,0l-0.2-2
			c0.4,0,0.7,0,1.1,0l60.5,2.6c3-0.2,5.4-1.4,7.2-3.6c1-1.1,1.9-2.6,2.9-4.5c0.2-0.3,0.3-0.7,0.5-1c0.6-1.4,1.3-2.9,1.9-4.6
			c0,0,0,0,0,0c0.1-0.3,0.2-0.5,0.3-0.8c1.7-4.1,4.2-6.1,7.5-6.2c3.9,0,6.4,2.1,7.6,6.3c1,3.6,1.6,7.9,1.9,13
			c0.1,2.3,0.2,4.7,0.2,7.2c0,0.6-0.2,1.2-0.4,1.8l-2.3,0.1C121.7,27.5,122.2,26.3,122.4,24.9z M5.6,37.5c0-0.1,0-0.1,0-0.2
			c0-0.4,0-0.8,0-1.1c0-0.4,0-0.8,0-1.2c0.1-1.4,0.2-2.8,0.3-4.2c0.1-1.1,0.9-1.8,2.2-2.1l9.4-1.4c1.2-0.2,2.2-0.6,3-1
			C21.2,27,22,27.6,23,28c-0.9,1.1-2,1.7-3.4,2L8.9,31.3c-1.4,0.3-2.1,1-2.2,2.1c-0.1,1-0.2,1.8-0.2,2.4c0,0.7,0,1.1,0,1.3
			c0,0.1,0,0.3,0,0.7c-0.3,0-0.6,0-0.9,0C5.6,37.7,5.6,37.6,5.6,37.5z"/>
		<path class="st17" d="M68.2,36.5l1,1.2c-6.5,0.4-13,0.8-19.6,1.1l-1.1-1.3C55.2,37.3,61.8,37,68.2,36.5z M122.6,29.5l-3.1,0.2
			c0.6-0.3,1.2-0.8,1.6-1.3l2.3-0.1C123.1,28.7,122.9,29.1,122.6,29.5z M5.6,37.8c0.3,0,0.6,0,0.9,0c0,0.4,0,0.9,0.1,1.6
			c-0.3,0-0.6,0-0.9,0C5.6,38.9,5.6,38.3,5.6,37.8z"/>
		<path class="st18" d="M69.2,37.7c-6.5,0.4-13,0.8-19.6,1.1l3.1,3.7c-13.2,0.5-27.3,0.2-42.5-1c-2.4-0.1-3.7-0.8-3.8-2.2
			c-0.3,0-0.6,0-0.9,0c0,0,0,0.1,0,0.1v0c0,0.1,0,0.1,0,0.2l0,0.2c0.1,1,0.3,1.8,0.6,2.4c0.3,0.7,1.2,1.1,2.7,1.4l8.7,1.1
			c13.7,1.2,26.6,1.5,38.5,1.1c-0.9-0.8-2-1.9-3.3-3.3c6.7-0.3,13.1-0.7,19.3-1.4c2.2,2,5,2.8,8.5,2.4c0.3-0.1,0.7-0.1,1-0.2
			c14.6-2.4,27.6-6.4,38.7-11.9c0.9-0.6,1.7-1.2,2.2-1.9l-3.1,0.2c-0.2,0.1-0.4,0.2-0.6,0.3c-11.9,4.8-25.3,8.3-40.3,10.4
			c-2.1,0.3-4.3,0.6-6.4,0.8L69.2,37.7z"/>
	</g>
	<g>
		<path class="st7" d="M38.9,32.5c0.5,0.5,1,0.7,1.7,0.7c0.7,0,1.2-0.2,1.7-0.7c0.5-0.5,0.7-1,0.7-1.7h-4.8
			C38.2,31.5,38.4,32.1,38.9,32.5z M46.5,30.9c0,0.6,0.2,1.2,0.7,1.7c0.5,0.5,1,0.7,1.7,0.7c0.7,0,1.2-0.2,1.7-0.7
			c0.5-0.5,0.7-1,0.7-1.7H46.5z M55.5,32.5c0.5,0.5,1,0.7,1.7,0.7c0.7,0,1.2-0.2,1.7-0.7c0.5-0.5,0.7-1,0.7-1.7h-4.8
			C54.8,31.5,55,32.1,55.5,32.5z M66.4,32.5c0.5,0.5,1,0.7,1.7,0.7c0.7,0,1.2-0.2,1.7-0.7c0.5-0.5,0.7-1,0.7-1.7h-4.8
			C65.7,31.5,66,32.1,66.4,32.5z"/>
		<path class="st6" d="M43,30.8C43,30.8,43,30.8,43,30.8l-1.9-2.3c-0.2,0-0.3,0-0.5-0.1c-0.7,0-1.2,0.2-1.7,0.7
			c-0.5,0.5-0.7,1-0.7,1.7c0,0,0,0,0,0L43,30.8C43,30.9,43,30.8,43,30.8z M70.5,30.8c0-0.7-0.2-1.2-0.7-1.7c-0.5-0.5-1-0.7-1.7-0.7
			c-0.7,0-1.2,0.2-1.7,0.7c-0.5,0.5-0.7,1-0.7,1.7c0,0,0,0,0,0L70.5,30.8C70.5,30.9,70.5,30.8,70.5,30.8z"/>
		<path class="st19" d="M42.3,29.1c-0.3-0.3-0.7-0.6-1.2-0.7l1.9,2.3C43,30.1,42.7,29.6,42.3,29.1z M51.3,30.8
			c0-0.7-0.2-1.2-0.7-1.7c-0.5-0.5-1-0.7-1.7-0.7c-0.7,0-1.2,0.2-1.7,0.7c-0.5,0.5-0.7,1-0.7,1.7c0,0,0,0,0,0L51.3,30.8
			C51.3,30.9,51.3,30.8,51.3,30.8z M59.6,30.8c0-0.7-0.2-1.2-0.7-1.7c-0.5-0.5-1-0.7-1.7-0.7c-0.7,0-1.2,0.2-1.7,0.7
			c-0.5,0.5-0.7,1-0.7,1.7c0,0,0,0,0,0L59.6,30.8C59.6,30.9,59.6,30.8,59.6,30.8z"/>
	</g>
	<g>
		<path class="st16" d="M122.5,20.1c-0.8-1.1-1.7-2.2-2.6-3.4c-2.5,0.6-4.7,1-6.6,1.3c-2.7,0.4-4.8,0.6-6.3,0.5
			c-0.5,0-1-0.1-1.4-0.2c3.3,4.1,5.6,7.6,7.2,10.5l8.3-0.3c0.7-0.9,1.2-2,1.4-3.4C122.5,23.5,122.5,21.9,122.5,20.1z"/>
		<path class="st14" d="M123.7,28.2c0.1-0.6,0.1-1.2,0.1-1.8c0-1.6,0-3.2-0.1-4.7c-0.4-0.5-0.8-1.1-1.2-1.7c0.1,1.9,0,3.5-0.1,4.8
			c-0.2,1.4-0.7,2.6-1.4,3.4L123.7,28.2z"/>
		<path class="st17" d="M112.7,28.7c0.2,0.4,0.4,0.9,0.6,1.3l6.1-0.3c0.6-0.3,1.2-0.8,1.6-1.3L112.7,28.7z"/>
		<path class="st4" d="M123.7,28.2l-2.7,0.1c-0.4,0.5-1,1-1.6,1.3l4-0.2C123.5,29,123.6,28.6,123.7,28.2z"/>
		<path class="st18" d="M119.4,29.6l-6.1,0.3c0.3,0.6,0.5,1.2,0.7,1.7c1.6-0.6,3.2-1.2,4.8-1.8C119,29.8,119.2,29.7,119.4,29.6z"/>
		<path class="st15" d="M114,31.7c0.3,0.9,0.5,1.6,0.6,2.3c0.1,0.6,0,1.1-0.1,1.5c1.9-0.9,3.7-1.8,5.5-2.7c1.7-0.7,2.8-1.9,3.3-3.5
			l-4,0.2c-0.2,0.1-0.4,0.2-0.6,0.3C117.3,30.5,115.7,31.1,114,31.7z"/>
	</g>
	<g>
		<path class="st20" d="M3.1,38.9c0-0.4,0.1-0.8,0.1-1.2c0,0.4,0.1,0.8,0.1,1.2c1,9.2,1,13.7-0.1,13.6C2.1,52.7,2.1,48.1,3.1,38.9z"
			/>
	</g>
	<g>
		<path class="st21" d="M117.4,0.6c0.2,0.1,0.3,0.2,0.5,0.2v5.6c0,0.1,0,0.1-0.1,0.2c0,0-0.1,0.1-0.2,0.1h-2.5v5.5h2.5
			c0.1,0,0.1,0,0.2,0.1c0,0,0.1,0.1,0.1,0.2V34c-0.2,0.1-0.3,0.2-0.5,0.2V12.6h-2.5c-0.1,0-0.1,0-0.2-0.1c0,0-0.1-0.1-0.1-0.2v-6
			c0-0.1,0-0.1,0.1-0.2c0,0,0.1-0.1,0.2-0.1h2.5V0.6z"/>
	</g>
	<g>
		<path class="st17" d="M54.8,21l-19.2-0.9c-0.1-1.6-0.1-3.3,0-4.9c0.1-1.7,1.2-2.5,3.2-2.5c4.5-0.1,8.9,0.5,13.2,1.8
			c1.5,0.5,2.4,1.4,2.5,2.9L54.8,21z"/>
		<path class="st5" d="M54.8,21l-0.3-3.5c-0.1-1.5-1-2.5-2.5-2.9c-4.3-1.3-8.7-1.8-13.2-1.8c-2,0-3.1,0.8-3.2,2.5
			c-0.1,1.6-0.1,3.2,0,4.9L34.2,20c0,0-0.1,0-0.1,0c-0.2-2.1-0.2-4.1-0.1-6.2c0.1-1.8,1.3-2.8,3.6-2.7c5-0.1,9.8,0.6,14.6,2
			c1.7,0.5,2.6,1.6,2.8,3.2l0.4,4.7L54.8,21z"/>
	</g>
	<g>
		<path class="st21" d="M50.8,48.7c0.2,0,0.3,0,0.5,0l-0.5-9.4c-0.2,0-0.3-0.1-0.5-0.1L50.8,48.7z M49.3,20.7l0.5,0l-0.4-8.3
			c-0.2,0-0.3-0.1-0.5-0.1L49.3,20.7z"/>
	</g>
	<g>
		<path class="st21" d="M71.1,26.6C71.1,26.6,71.1,26.6,71.1,26.6c0.7,0.2,1.2,0.5,1.6,0.9c0,0,0,0,0,0l0,0c0.4,0.4,0.6,0.9,0.6,1.5
			c0,0,0,0,0,0c0.4,3.5,0.4,7.3,0,11.4c0,0,0,0,0,0c0,0.6-0.2,1.1-0.6,1.5l0,0c-0.4,0.4-1,0.7-1.8,0.8c0,0,0,0,0,0
			C69.9,43,69,43,68.1,43h0c0,0,0,0,0,0c0,0,0,0,0,0c0,0,0,0,0,0c-0.9,0-1.8,0-2.7-0.1c0,0,0,0,0,0c-0.8-0.1-1.4-0.4-1.8-0.8l0,0
			c-0.4-0.4-0.6-0.9-0.6-1.5c0,0,0,0,0,0c-0.4-4.1-0.4-7.9,0-11.4c0,0,0,0,0,0c0-0.6,0.2-1.1,0.6-1.5c0,0,0,0,0,0
			c0.4-0.4,0.9-0.7,1.5-0.9c0,0,0,0,0,0c0.9-0.2,1.9-0.4,3-0.4h0C69.2,26.3,70.2,26.4,71.1,26.6z M65,26.1C65,26.1,65,26.1,65,26.1
			c-0.8,0.2-1.4,0.6-1.8,1c0,0,0,0,0,0c-0.4,0.5-0.7,1.1-0.7,1.8c-0.4,3.5-0.4,7.3,0,11.5c0,0.7,0.2,1.4,0.7,1.9l0,0
			c0.4,0.5,1.1,0.8,2.1,1c0,0,0,0,0,0h0c0.9,0.1,1.8,0.1,2.7,0.1h0c0,0,0,0,0,0c0,0,0,0,0,0c0.9,0,1.8,0,2.7-0.1h0c0,0,0,0,0,0
			c1-0.1,1.7-0.5,2.1-1l0,0c0.5-0.5,0.7-1.1,0.7-1.9c0.4-4.1,0.4-8,0-11.5c0-0.7-0.3-1.3-0.7-1.8c0,0,0,0,0,0l0,0
			c-0.4-0.5-1-0.8-1.8-1c0,0,0,0,0,0c-0.9-0.3-2-0.4-3.1-0.4h0C66.9,25.8,65.9,25.9,65,26.1z"/>
	</g>
	<g>
		<polygon class="st17" points="27.2,57.2 26.3,59.3 25.3,58.9 26.3,56.5 42.9,17.4 44.3,17.4 		"/>
		<path class="st13" d="M26.4,49.2l-1.1-0.1l0,9.7l1-2.4L26.4,49.2z M37.4,50l-1.8-0.1l-8.4,7.4l-0.9,2.1L37.4,50z"/>
		<path class="st16" d="M26.4,49.2l1,0.1l0.6-1c-1.3-0.1-2.5-0.1-3.8-0.2l0.4,1l0.7,0.1L26.4,49.2z M38.2,50l0.9-1.3
			c-1.4,0-2.9-0.1-4.3-0.1l0.4,1.2l0.4,0l1.8,0.1L38.2,50z"/>
	</g>
	<g>
		<path class="st16" d="M102.6,41.4l-0.5,0.2l-1.2-0.7c1.4-0.4,2.7-0.9,4.1-1.4l-0.3,1.2l-0.5,0.2L102.6,41.4z"/>
		<path class="st17" d="M102.6,41.4l1.6-0.6c0.5,1.6,2.1,2.7,4.8,3.3l-0.5,1.6C105.3,45,103.3,43.5,102.6,41.4z"/>
	</g>
	<g>
		<path class="st17" d="M64.3,45.3v2.8c0,0.3,0.1,0.6,0.2,0.8c0,0,0,0,0,0c0.2,0.2,0.5,0.3,1,0.4c0,0,0,0,0,0
			c1.6,0.3,3.3,0.2,5.1-0.1c0.7-0.1,1-0.5,1.1-1v-3.6c0.4,0,0.7-0.1,1.1-0.1v3.7c0,1.1-0.6,1.7-1.9,2c-1.9,0.4-3.8,0.4-5.5,0.1
			c-0.7-0.1-1.2-0.4-1.6-0.7h0c-0.4-0.4-0.6-0.9-0.6-1.5v-2.7C63.6,45.4,64,45.4,64.3,45.3z"/>
	</g>
	<g>
		<path class="st4" d="M0,37.3h5.6c0,0.1,0,0.1,0,0.2c0,0.7,0,1.4,0.1,2v0c-1.2-0.1-2.2-0.3-3.2-0.6C0.9,38.5,0,37.9,0,37.3z"/>
		<path class="st22" d="M5.6,36.1c-1.2,0.1-2.2,0.1-3.1,0.3C0.9,36.6,0,36.9,0,37.2c0-0.7,0.8-1.2,2.5-1.7c0.9-0.3,2-0.5,3.2-0.6
			C5.7,35.3,5.6,35.7,5.6,36.1z"/>
		<path class="st23" d="M5.6,37.3H0c0,0,0,0,0,0v0c0,0,0,0,0,0c0-0.3,0.9-0.6,2.5-0.8c0.9-0.1,2-0.2,3.1-0.3
			C5.6,36.5,5.6,36.9,5.6,37.3z"/>
	</g>
	<g>
		<path class="st20" d="M3.1,35.5c-1-9.2-1-13.7,0.1-13.6c1.1-0.1,1.1,4.4,0.1,13.6c0,0.4-0.1,0.8-0.1,1.2
			C3.2,36.3,3.1,35.9,3.1,35.5z"/>
	</g>
	<g>
		<path class="st17" d="M113.2,17.9c-2.7,0.4-4.8,0.6-6.3,0.5c-0.5,0-1-0.1-1.4-0.2c-0.6-0.2-1.1-0.4-1.3-0.7
			c-1.2-1.5,3.8-2.1,15-1.7l0.6,0.9C117.4,17.2,115.2,17.6,113.2,17.9z"/>
		<path class="st24" d="M113.2,17.9c-0.1,0.9-0.6,1.5-1.6,1.6l2.1,5.6H113l-2.6-4.3c-0.4-0.7-1.1-1.1-2-1.2
			c-0.9-0.1-1.4-0.6-1.5-1.3C108.4,18.5,110.5,18.3,113.2,17.9z"/>
	</g>
	<g>
		<path class="st17" d="M45.6,28.1l0.2,10.4c-1.4-0.1-2.8-0.1-4.2,0c0.2-2.5,0.3-5.1,0.4-7.7c0.1-1.9,0.2-3.9,0.2-5.9L45.6,28.1z"/>
		<path class="st24" d="M45.6,28.1l-3.3-3.2c0-0.4,0-0.8,0-1.1c0-1.3,0.1-2.6,0.1-3.9c0.1-1.3-0.8-2.3-2.7-3.1c1-1,3.7-0.8,8.3,0.6
			c-1.9,0.4-2.8,1.2-2.7,2.5L45.6,28.1z"/>
	</g>
	<g>
		<path class="st17" d="M57.3,48.4c-7,0.4-14.2,0.5-21.8,0.2c-0.5-1.5-0.7-3-0.6-4.8c0.1-1.9,0.9-3,2.4-3.4
			c4.9-1.2,9.8-1.1,14.8,0.2C54.5,41.5,56.2,44,57.3,48.4z"/>
		<path class="st14" d="M57.3,48.4c-1-4.4-2.8-6.9-5.2-7.6c-5-1.3-9.9-1.4-14.8-0.2c-1.5,0.4-2.3,1.5-2.4,3.4
			c-0.1,1.7,0.1,3.3,0.6,4.8c-0.4,0-0.9,0-1.3,0c-0.6-1.7-0.9-3.6-0.8-5.6c0.1-2,1-3.3,2.6-3.7c1.1-0.3,2.2-0.5,3.3-0.6
			c2.8-0.4,5.6-0.4,8.5,0c1.4,0.2,2.9,0.5,4.4,0.9c2.7,0.8,4.6,3.7,5.7,8.8C57.6,48.4,57.5,48.4,57.3,48.4z"/>
	</g>
	<g>
		<path class="st25" d="M7.3,37.8c0.2,0,0.5,0,0.7,0c0-0.4,0-0.8,0-1.3c0-0.9,0-1.8-0.1-2.4c-0.1-0.7-0.2-1-0.3-1
			c-0.1,0-0.2,0.3-0.3,1c-0.1,0.7-0.1,1.5-0.1,2.4C7.3,37,7.3,37.4,7.3,37.8z"/>
		<path class="st11" d="M7.9,39.4c-0.1,0-0.3,0-0.4,0C7.5,39.8,7.6,40,7.6,40C7.7,40,7.8,39.8,7.9,39.4z"/>
		<path class="st0" d="M8,37.8c-0.2,0-0.5,0-0.7,0c0,0.4,0,0.8,0.1,1.2c0,0.2,0,0.3,0.1,0.4c0.1,0,0.3,0,0.4,0c0-0.1,0-0.3,0.1-0.5
			C8,38.6,8,38.3,8,37.8z"/>
	</g>
</g>
</svg>
