<?xml version="1.0" encoding="utf-8"?>
<!-- Generator: Adobe Illustrator 24.0.3, SVG Export Plug-In . SVG Version: 6.00 Build 0)  -->
<svg version="1.1" id="レイヤー_1" xmlns="http://www.w3.org/2000/svg" xmlns:xlink="http://www.w3.org/1999/xlink" x="0px"
	 y="0px" viewBox="0 0 800.9 54.2" style="enable-background:new 0 0 800.9 54.2;" xml:space="preserve">
<style type="text/css">
	.st0{fill-rule:evenodd;clip-rule:evenodd;fill:#FFFFFF;}
	.st1{fill-rule:evenodd;clip-rule:evenodd;fill:#C2D0D7;}
	.st2{fill-rule:evenodd;clip-rule:evenodd;fill:#E1E6E9;}
	.st3{fill-rule:evenodd;clip-rule:evenodd;fill:#A5BAC5;}
	.st4{fill-rule:evenodd;clip-rule:evenodd;fill:#666666;}
	.st5{fill-rule:evenodd;clip-rule:evenodd;fill:#71797B;}
	.st6{fill-rule:evenodd;clip-rule:evenodd;fill:#E3E8E9;}
	.st7{fill-rule:evenodd;clip-rule:evenodd;fill:#357581;}
	.st8{fill-rule:evenodd;clip-rule:evenodd;fill:#66B358;}
	.st9{fill-rule:evenodd;clip-rule:evenodd;fill:#A6B7C0;}
	.st10{fill-rule:evenodd;clip-rule:evenodd;fill:#387430;}
	.st11{fill-rule:evenodd;clip-rule:evenodd;fill:#D6DDE1;}
	.st12{fill-rule:evenodd;clip-rule:evenodd;fill:#46863A;}
	.st13{fill-rule:evenodd;clip-rule:evenodd;fill-opacity:0.3098;}
	.st14{fill-rule:evenodd;clip-rule:evenodd;fill:#C3C3C3;}
	.st15{fill-rule:evenodd;clip-rule:evenodd;fill:#88A0AA;}
	.st16{fill-rule:evenodd;clip-rule:evenodd;fill:#A6B8C0;}
	.st17{fill-rule:evenodd;clip-rule:evenodd;fill:#909090;}
	.st18{fill-rule:evenodd;clip-rule:evenodd;fill:#7A7A7A;}
	.st19{fill-rule:evenodd;clip-rule:evenodd;fill:#555555;}
	.st20{fill-rule:evenodd;clip-rule:evenodd;fill:#B1B1B1;}
	.st21{fill-rule:evenodd;clip-rule:evenodd;fill:#C8C8C8;}
	.st22{fill-rule:evenodd;clip-rule:evenodd;fill:#9CCF93;}
</style>
<g>
	<path class="st0" d="M147.3,50.6l3.2-32.9c0.2,5.6,5.9,8.2,17.3,7.8L768.5,6.8l-1.3,3.5l-15.3,40.3h-6.2l-443.9,0
		c-0.8,0-1.5,0-2.3,0H147.3z"/>
	<polygon class="st1" points="751.8,50.6 767.1,10.3 772.9,10.3 751.8,54.2 744.2,54.2 	"/>
	<path class="st2" d="M751.8,54.2l21.1-43.9l28,0.1l-19,24.4l2.4,19.4H751.8z M768.5,6.8L167.9,25.5c-11.4,0.4-17.1-2.2-17.3-7.8
		c0-0.8,0.1-1.6,0.2-2.5l0.8-8.4H768.5z"/>
	<polygon class="st3" points="751.8,50.6 744.2,54.2 745.6,50.6 	"/>
	<path class="st4" d="M150.6,17.7l-3.2,32.9l-17.2-20.1l21.5-23.7l-0.8,8.4C150.6,16.1,150.6,16.9,150.6,17.7z M146.6,48.3l3.8-38.8
		l-19,21L146.6,48.3z"/>
	<g>
		<path class="st5" d="M13.1,29.8l2.2-2.2c0.2,0.1,0.3,0.2,0.5,0.2l-2,2.2C13.5,30,13.3,29.9,13.1,29.8z M15.5,30.6
			C15.5,30.6,15.5,30.6,15.5,30.6l1.5-2.4c0.2,0.1,0.4,0.1,0.6,0.2l-1.7,2.7L15.5,30.6z"/>
		<path class="st6" d="M13.1,29.8c-0.2-0.1-0.5-0.2-0.7-0.3c0.3-0.2,0.5-0.4,0.8-0.7l1.6-1.5c0.1,0.1,0.3,0.2,0.5,0.2L13.1,29.8z
			 M17,28.3l-1.5,2.3c-0.6-0.2-1.1-0.4-1.7-0.6l2-2.2C16.2,28,16.6,28.1,17,28.3z M20.6,29.2l-0.4,1.4c-1.4-0.2-2.5,0.3-3.3,1.4
			h-0.5l-0.5-0.8l1.7-2.7C18.5,28.8,19.5,29,20.6,29.2z"/>
		<path class="st7" d="M14.8,27.4l-1.6,1.5c-0.2,0.2-0.5,0.4-0.8,0.7c-0.6-0.2-1.1-0.5-1.6-0.7l2.7-2.2
			C13.9,26.9,14.4,27.1,14.8,27.4z M19.8,32h-2.9c0.8-1.1,1.9-1.6,3.3-1.4L19.8,32z"/>
		<path class="st0" d="M138.1,4.5l1.5-3.9c-2.9-0.5-5.9-0.7-9-0.5l-16,19.2c-0.7,0.9-1.5,1.5-2.4,2c-0.9,0.5-2,0.8-3.1,0.8
			c-2.1,0.1-3.9,0.9-5.3,2.3h0c-23.5-1.3-46.9-1.8-70.4-1.4c-1.1,0-2.3,0-3.4,0.1c-1.4,0-2.8,0-4.2,0.1c-0.9,0-1.8,0-2.7,0.1
			c-4.2,0.3-7.4,1.4-9.5,3.4l0,0c0.4,0.3,0.8,0.5,1.3,0.8c0.1,0.1,0.3,0.2,0.5,0.2c0.2,0.1,0.3,0.2,0.5,0.2c0.4,0.2,0.8,0.3,1.2,0.4
			c0.2,0.1,0.4,0.1,0.6,0.2c0.9,0.3,1.9,0.5,3,0.7l-0.4,1.4L19.8,32h-2.9h-0.5l-0.5-0.8l-0.4-0.6c0,0,0,0-0.1,0
			c-0.6-0.2-1.1-0.4-1.7-0.6c-0.2-0.1-0.4-0.2-0.7-0.2c-0.2-0.1-0.5-0.2-0.7-0.3c-0.6-0.2-1.1-0.5-1.6-0.7L10.7,29
			c-0.9,0.7-1.9,1.4-3,2.1c-1.2,0.7-2.4,1.3-3.8,1.9c-1,0.4-1.8,1-2.4,1.6c-0.1,0.1-0.2,0.2-0.3,0.3l-0.1,0.2
			c-0.3,0.4-0.6,0.9-0.7,1.4C0,37.1,0,37.7,0,38.4c0.2,2,2.7,3.6,7.6,4.6c0.1,0,0.1,0,0.2,0c0.9,0.2,1.8,0.4,2.8,0.5
			c0,0,0.1,0,0.1,0c0.9,0.1,1.8,0.3,2.6,0.4c2.3-2.3,5.2-4.5,8.8-6.5c10.2-5.9,22.6-8.8,37.1-8.8c14.5,0,26.8,2.9,37.1,8.8
			c1.5,0.9,2.9,1.8,4.2,2.7c0.5-0.1,1-0.2,1.5-0.3c11.6-2.6,23.3-6,35.2-10.1c2.2-0.8,3.3-1.4,3.5-1.9c0-0.1,0-0.2-0.1-0.3
			c-0.2-0.3-0.8-0.5-1.8-0.6c-3.1-0.3-6.2-0.5-9.3-0.8l2-4.9c-0.8-0.4-1.6-1-2.3-1.7c-1.8-1.8-2.7-3.9-2.7-6.4
			c0-2.5,0.9-4.6,2.7-6.4c1.8-1.8,3.9-2.6,6.4-2.6C136.5,4.2,137.3,4.3,138.1,4.5z"/>
		<path class="st8" d="M129.2,19.5c-1.8-1.8-2.7-3.9-2.7-6.4c0-2.5,0.9-4.6,2.7-6.4c1.8-1.8,3.9-2.6,6.4-2.6c0.9,0,1.7,0.1,2.6,0.3
			l-6.6,16.8C130.7,20.8,129.9,20.3,129.2,19.5z M22.2,37.5c10.2-5.9,22.6-8.8,37.1-8.8c14.5,0,26.8,2.9,37.1,8.8
			c1.5,0.9,2.9,1.8,4.2,2.7c-25.7,5.6-50.6,7.4-74.7,5.3c-4.2-0.4-8.3-0.8-12.4-1.4C15.7,41.7,18.7,39.5,22.2,37.5z"/>
		<g>
			<path class="st9" d="M13.4,44c-0.9-0.1-1.8-0.3-2.8-0.4c-1-0.2-2-0.3-2.8-0.5c-0.1,0-0.1,0-0.2,0c-4.9-1.1-7.5-2.6-7.6-4.6
				c-0.1-0.7,0-1.3,0.2-1.8c0.2-0.5,0.4-1,0.7-1.4c-0.8,1.2-0.5,2.3,1,3.3c1.3,0.8,3.2,1.5,5.8,2.1c0.7,0.2,1.5,0.3,2.3,0.5
				c0.2,0,0.4,0.1,0.7,0.1c1.7,0.3,3.3,0.5,5,0.8C14.8,42.6,14.1,43.3,13.4,44z M100.5,38.7c13.1-2.7,26.5-6.3,40.2-10.9
				c-0.1,0.5-1.3,1.1-3.5,1.9c-11.9,4.2-23.6,7.6-35.2,10.1c-0.5,0.1-1,0.2-1.5,0.3h0c-0.5-0.4-1.1-0.8-1.6-1.1
				C99.5,39,100,38.8,100.5,38.7z"/>
			<path class="st10" d="M98.9,39.1C69.8,44.8,42,45.8,15.6,42c-0.8,0.7-1.5,1.3-2.2,2c28,4,57.1,2.8,87.1-3.8
				C100,39.8,99.5,39.4,98.9,39.1z"/>
		</g>
		<g>
			<path class="st11" d="M15.6,42c-1.7-0.2-3.3-0.5-5-0.8c-0.2,0-0.5-0.1-0.7-0.1c-0.8-0.1-1.6-0.3-2.3-0.5
				c-2.6-0.6-4.5-1.3-5.8-2.1c-1.5-1.1-1.8-2.2-1-3.3l0.1-0.2c0.1-0.1,0.2-0.2,0.3-0.3C2,34,2.8,33.5,3.8,33
				c1.4-0.6,2.7-1.3,3.8-1.9c1.1-0.7,2.1-1.4,3-2.1l0.2-0.2c0.5,0.3,1,0.5,1.6,0.7c-1.3,1-2.9,2-4.8,2.9c0,0-0.1,0-0.1,0.1
				c-2.4,1.1-3.1,2.4-2.1,3.9c0.3,0.6,1.1,1.1,2.3,1.5c1.2,0.5,2.7,0.9,4.7,1.3c1.4,0.3,3,0.5,4.8,0.7c0.3,0,0.7,0.1,1,0.1
				C17.3,40.6,16.5,41.3,15.6,42z M138.3,1.5c-2.3-0.4-4.8-0.5-7.5-0.4l-15.6,19c-0.1,0.1-0.2,0.2-0.3,0.4c-0.3,0.3-0.6,0.6-0.9,0.8
				c-1.1,0.9-2.4,1.4-3.9,1.5c-1.8,0.1-3.3,0.7-4.5,1.8c3.1,0.2,6.2,0.4,9.3,0.6c4.8,0.3,9.5,0.7,14.3,1.1l1.9-5.1
				c0.1,0.1,0.3,0.2,0.4,0.2l-2,4.9c3.1,0.3,6.2,0.5,9.3,0.8c1,0.1,1.6,0.3,1.8,0.6c0.1,0.1,0.1,0.2,0.1,0.3
				c-13.7,4.6-27.1,8.2-40.2,10.9c-0.5,0.1-1.1,0.2-1.6,0.3c-0.7-0.5-1.5-0.9-2.3-1.4c0.6-0.1,1.2-0.2,1.8-0.3
				c11.2-2,22.8-4.6,34.8-7.9c3.8-1.1,4.4-1.7,1.6-2c-34.4-2.4-68.9-3.4-103.3-3c-2.6,0-5.3,0.1-7.9,0.1c-4,0.2-6.7,1-8.2,2.3
				l-0.6,0.5c-0.5-0.2-0.9-0.5-1.3-0.8l0,0c2.1-2,5.3-3.1,9.5-3.4c2.3-0.1,4.6-0.1,7-0.1c1.1,0,2.3,0,3.4-0.1
				c23.5-0.3,46.9,0.1,70.4,1.4h0c1.4-1.4,3.1-2.2,5.3-2.3c1.1-0.1,2.1-0.3,3.1-0.8c0.9-0.5,1.7-1.1,2.4-2l16-19.2
				c3.2-0.2,6.2,0,9,0.5l-1.5,3.9c-0.3-0.1-0.6-0.1-0.9-0.2L138.3,1.5z"/>
			<path class="st12" d="M138.1,4.5l-6.6,16.8c-0.1-0.1-0.3-0.1-0.4-0.2l6.2-16.7C137.6,4.3,137.9,4.4,138.1,4.5z M15.6,42
				c0.8-0.7,1.7-1.3,2.6-2c6.5,0.7,13,1.3,19.5,1.6c18.2,1,37.8-0.3,58.9-3.9c0.8,0.5,1.6,0.9,2.3,1.4C69.8,44.8,42,45.8,15.6,42z"
				/>
		</g>
		<g>
			<path class="st13" d="M103.4,29.6c-0.2-0.2-0.4-0.3-0.6-0.4c-0.3-0.1-0.6-0.1-1-0.1h0c-0.4,0-0.7,0-1,0.1
				c-0.3,0.1-0.5,0.2-0.6,0.3c0,0,0,0,0,0c-0.2,0.2-0.3,0.4-0.3,0.7c0,0.4-0.1,0.8-0.1,1.3c0,0.7,0,1.4,0.1,2.2
				c0,0.3,0.1,0.5,0.3,0.7l0,0c0.2,0.2,0.4,0.3,0.8,0.4c0,0,0,0,0,0c0.3,0,0.5,0,0.6,0h0c0.1,0,0.2,0,0.2,0h0c0,0,0,0,0,0
				c0.3,0,0.5,0,0.6,0c0.1,0,0.2,0,0.2,0c0,0,0,0,0,0c0.3-0.1,0.6-0.2,0.8-0.4v0c0.2-0.2,0.3-0.4,0.3-0.7c0.1-0.8,0.1-1.5,0.1-2.2
				c0-0.4,0-0.8-0.1-1.3C103.6,30,103.5,29.8,103.4,29.6L103.4,29.6z M103,29.9c0.1,0.1,0.1,0.2,0.1,0.3c0,0,0,0,0,0
				c0,0.4,0.1,0.8,0.1,1.2c0,0.7,0,1.4-0.1,2.1c0,0,0,0,0,0c0,0.1,0,0.2-0.1,0.3l0,0c-0.1,0.1-0.2,0.1-0.4,0.2c0,0-0.1,0-0.2,0
				c-0.1,0-0.3,0-0.6,0c0,0,0,0,0,0c0,0,0,0,0,0c0,0-0.1,0-0.2,0h0c-0.1,0-0.3,0-0.5,0c-0.2,0-0.3-0.1-0.4-0.2l0,0
				c-0.1-0.1-0.1-0.2-0.1-0.3c0,0,0,0,0,0c-0.1-0.7-0.1-1.5-0.1-2.1c0-0.4,0-0.8,0.1-1.2c0,0,0,0,0,0c0-0.1,0-0.2,0.1-0.3
				c0,0,0,0,0,0c0.1-0.1,0.2-0.2,0.4-0.2c0.2-0.1,0.5-0.1,0.8-0.1h0c0.3,0,0.6,0,0.8,0.1C102.7,29.8,102.9,29.8,103,29.9L103,29.9z
				 M25.9,31.5c0,0.7,0,1.4-0.1,2.1c0,0,0,0,0,0c0,0.1,0,0.2-0.1,0.3l0,0c-0.1,0.1-0.2,0.1-0.4,0.2c0,0-0.1,0-0.2,0
				c-0.1,0-0.3,0-0.6,0c0,0,0,0,0,0c0,0,0,0,0,0c0,0-0.1,0-0.2,0h0c-0.1,0-0.3,0-0.5,0c-0.2,0-0.3-0.1-0.4-0.2l0,0
				c-0.1-0.1-0.1-0.2-0.1-0.3c0,0,0,0,0,0c-0.1-1.2-0.1-2.3,0-3.3c0,0,0,0,0,0c0-0.1,0-0.2,0.1-0.3c0,0,0,0,0,0
				c0.1-0.1,0.2-0.2,0.4-0.2c0.2-0.1,0.5-0.1,0.8-0.1h0c0.3,0,0.6,0,0.8,0.1c0.2,0,0.3,0.1,0.4,0.2l0,0c0.1,0.1,0.1,0.2,0.1,0.3
				c0,0,0,0,0,0C25.9,30.7,25.9,31.1,25.9,31.5z M22.9,34.3L22.9,34.3c0.2,0.2,0.4,0.3,0.8,0.4c0,0,0,0,0,0c0.3,0,0.5,0,0.6,0h0
				c0.1,0,0.2,0,0.2,0h0c0,0,0,0,0,0c0.3,0,0.5,0,0.6,0c0.1,0,0.2,0,0.2,0c0,0,0,0,0,0c0.3-0.1,0.6-0.2,0.7-0.4l0,0
				c0.2-0.2,0.3-0.4,0.3-0.7v0c0.1-0.8,0.1-1.5,0.1-2.2c0-0.4,0-0.8-0.1-1.3c0-0.3-0.1-0.5-0.3-0.7l0,0c-0.1-0.2-0.4-0.3-0.6-0.4
				c-0.3-0.1-0.6-0.1-1-0.1h0c-0.4,0-0.7,0-1,0.1c-0.3,0.1-0.5,0.2-0.6,0.3c0,0,0,0,0,0c-0.2,0.2-0.3,0.4-0.3,0.7
				c-0.1,1-0.1,2.2,0,3.4C22.7,33.9,22.8,34.1,22.9,34.3z M45.7,29.1L45.7,29.1c-0.4,0-0.7,0-1,0.1c-0.3,0.1-0.5,0.2-0.6,0.3
				c0,0,0,0,0,0c-0.2,0.2-0.3,0.4-0.3,0.7c0,0.4-0.1,0.8-0.1,1.3c0,0.7,0,1.4,0.1,2.2c0,0.3,0.1,0.5,0.3,0.7l0,0
				c0.1,0.2,0.4,0.3,0.8,0.4c0,0,0,0,0,0c0.3,0,0.5,0,0.6,0h0c0.1,0,0.2,0,0.2,0h0c0,0,0,0,0,0c0.3,0,0.5,0,0.6,0c0.1,0,0.2,0,0.2,0
				c0,0,0,0,0,0c0.4-0.1,0.6-0.2,0.8-0.4v0c0.2-0.2,0.3-0.4,0.3-0.7c0.1-0.8,0.1-1.5,0.1-2.2c0-0.4,0-0.8-0.1-1.3
				c0-0.3-0.1-0.5-0.3-0.7l0,0c-0.2-0.2-0.4-0.3-0.6-0.4C46.4,29.1,46.1,29.1,45.7,29.1z M46.9,29.9c0.1,0.1,0.1,0.2,0.1,0.3
				c0,0,0,0,0,0c0,0.4,0.1,0.8,0.1,1.2c0,0.7,0,1.4-0.1,2.1c0,0,0,0,0,0c0,0.1,0,0.2-0.1,0.3l0,0c-0.1,0.1-0.2,0.1-0.4,0.2
				c0,0-0.1,0-0.2,0c-0.1,0-0.3,0-0.6,0c0,0,0,0,0,0c0,0,0,0,0,0c0,0-0.1,0-0.2,0h0c-0.1,0-0.3,0-0.5,0c-0.2,0-0.3-0.1-0.4-0.2l0,0
				c-0.1-0.1-0.1-0.2-0.1-0.3c0,0,0,0,0,0c-0.1-0.7-0.1-1.5-0.1-2.1c0-0.4,0-0.8,0.1-1.2c0,0,0,0,0,0c0-0.1,0-0.2,0.1-0.3
				c0,0,0,0,0,0c0.1-0.1,0.2-0.2,0.4-0.2c0.2-0.1,0.5-0.1,0.8-0.1h0c0.3,0,0.6,0,0.8,0.1C46.7,29.8,46.8,29.8,46.9,29.9L46.9,29.9z"
				/>
			<path class="st7" d="M61.1,31.8c0,0.2,0.1,0.3,0.2,0.4c0.1,0.1,0.2,0.2,0.4,0.2c0.2,0,0.3-0.1,0.4-0.2c0.1-0.1,0.2-0.2,0.2-0.4
				v-0.3h-1.1V31.8z M63.8,31.5v0.3c0,0.2,0.1,0.3,0.2,0.4c0.1,0.1,0.2,0.2,0.4,0.2c0.2,0,0.3-0.1,0.4-0.2c0.1-0.1,0.2-0.2,0.2-0.4
				v-0.3H63.8z M58.4,31.8c0,0.2,0.1,0.3,0.2,0.4c0.1,0.1,0.2,0.2,0.4,0.2c0.2,0,0.3-0.1,0.4-0.2c0.1-0.1,0.2-0.2,0.2-0.4v-0.3h-1.1
				V31.8z M55.8,31.5v0.3c0,0.2,0.1,0.3,0.2,0.4c0.1,0.1,0.2,0.2,0.4,0.2c0.2,0,0.3-0.1,0.4-0.2c0.1-0.1,0.2-0.2,0.2-0.4v-0.3H55.8z
				 M69.1,31.8c0,0.2,0.1,0.3,0.2,0.4c0.1,0.1,0.2,0.2,0.4,0.2c0.2,0,0.3-0.1,0.4-0.2c0.1-0.1,0.2-0.2,0.2-0.4v-0.3h-1.1V31.8z
				 M71.8,31.8c0,0.2,0.1,0.3,0.2,0.4c0.1,0.1,0.2,0.2,0.4,0.2c0.2,0,0.3-0.1,0.4-0.2c0.1-0.1,0.2-0.2,0.2-0.4v-0.3h-1.1V31.8z
				 M66.4,31.8c0,0.2,0.1,0.3,0.2,0.4c0.1,0.1,0.2,0.2,0.4,0.2c0.2,0,0.3-0.1,0.4-0.2c0.1-0.1,0.2-0.2,0.2-0.4v-0.3h-1.1V31.8z
				 M77.1,31.8c0,0.2,0.1,0.3,0.2,0.4c0.1,0.1,0.2,0.2,0.4,0.2c0.2,0,0.3-0.1,0.4-0.2c0.1-0.1,0.2-0.2,0.2-0.4v-0.3h-1.1V31.8z
				 M79.8,31.8c0,0.2,0.1,0.3,0.2,0.4c0.1,0.1,0.2,0.2,0.4,0.2c0.2,0,0.3-0.1,0.4-0.2c0.1-0.1,0.2-0.2,0.2-0.4v-0.3h-1.1V31.8z
				 M74.4,31.5v0.3c0,0.2,0.1,0.3,0.2,0.4c0.1,0.1,0.2,0.2,0.4,0.2c0.2,0,0.3-0.1,0.4-0.2c0.1-0.1,0.2-0.2,0.2-0.4v-0.3H74.4z
				 M87.8,31.8c0,0.2,0.1,0.3,0.2,0.4c0.1,0.1,0.2,0.2,0.4,0.2c0.2,0,0.3-0.1,0.4-0.2c0.1-0.1,0.2-0.2,0.2-0.4v-0.3h-1.1V31.8z
				 M85.1,31.5v0.3c0,0.2,0.1,0.3,0.2,0.4c0.1,0.1,0.2,0.2,0.4,0.2c0.2,0,0.3-0.1,0.4-0.2c0.1-0.1,0.2-0.2,0.2-0.4v-0.3H85.1z
				 M93.1,31.8c0,0.2,0.1,0.3,0.2,0.4c0.1,0.1,0.2,0.2,0.4,0.2c0.2,0,0.3-0.1,0.4-0.2c0.1-0.1,0.2-0.2,0.2-0.4v-0.3h-1.1V31.8z
				 M82.5,31.5v0.3c0,0.2,0.1,0.3,0.2,0.4c0.1,0.1,0.2,0.2,0.4,0.2c0.2,0,0.3-0.1,0.4-0.2c0.1-0.1,0.2-0.2,0.2-0.4v-0.3H82.5z
				 M90.5,31.8c0,0.2,0.1,0.3,0.2,0.4c0.1,0.1,0.2,0.2,0.4,0.2c0.2,0,0.3-0.1,0.4-0.2c0.1-0.1,0.2-0.2,0.2-0.4v-0.3h-1.1V31.8z
				 M95.8,31.5v0.3c0,0.2,0.1,0.3,0.2,0.4c0.1,0.1,0.2,0.2,0.4,0.2c0.2,0,0.3-0.1,0.4-0.2c0.1-0.1,0.2-0.2,0.2-0.4v-0.3H95.8z
				 M101.1,31.5v0.3c0,0.2,0.1,0.3,0.2,0.4c0.1,0.1,0.2,0.2,0.4,0.2c0.2,0,0.3-0.1,0.4-0.2c0.1-0.1,0.2-0.2,0.2-0.4v-0.3H101.1z
				 M23.9,31.8c0,0.2,0.1,0.3,0.2,0.4c0.1,0.1,0.2,0.2,0.4,0.2c0.2,0,0.3-0.1,0.4-0.2c0.1-0.1,0.2-0.2,0.2-0.4v-0.3h-1.1V31.8z
				 M34.5,31.8c0,0.2,0.1,0.3,0.2,0.4c0.1,0.1,0.2,0.2,0.4,0.2c0.2,0,0.3-0.1,0.4-0.2c0.1-0.1,0.2-0.2,0.2-0.4v-0.3h-1.1V31.8z
				 M31.9,31.8c0,0.2,0.1,0.3,0.2,0.4c0.1,0.1,0.2,0.2,0.4,0.2c0.2,0,0.3-0.1,0.4-0.2C33,32.1,33,32,33,31.8v-0.3h-1.1V31.8z
				 M37.2,31.5v0.3c0,0.2,0.1,0.3,0.2,0.4c0.1,0.1,0.2,0.2,0.4,0.2c0.2,0,0.3-0.1,0.4-0.2c0.1-0.1,0.2-0.2,0.2-0.4v-0.3H37.2z
				 M45.1,31.5v0.3c0,0.2,0.1,0.3,0.2,0.4c0.1,0.1,0.2,0.2,0.4,0.2c0.2,0,0.3-0.1,0.4-0.2c0.1-0.1,0.2-0.2,0.2-0.4v-0.3H45.1z
				 M39.8,31.5v0.3c0,0.2,0.1,0.3,0.2,0.4c0.1,0.1,0.2,0.2,0.4,0.2c0.2,0,0.3-0.1,0.4-0.2c0.1-0.1,0.2-0.2,0.2-0.4v-0.3H39.8z
				 M50.4,31.8c0,0.2,0.1,0.3,0.2,0.4c0.1,0.1,0.2,0.2,0.4,0.2c0.2,0,0.3-0.1,0.4-0.2c0.1-0.1,0.2-0.2,0.2-0.4v-0.3h-1.1V31.8z
				 M53.1,31.5v0.3c0,0.2,0.1,0.3,0.2,0.4c0.1,0.1,0.2,0.2,0.4,0.2c0.2,0,0.3-0.1,0.4-0.2c0.1-0.1,0.2-0.2,0.2-0.4v-0.3H53.1z"/>
			<path class="st6" d="M64.9,31.2c0-0.2-0.1-0.3-0.2-0.4c-0.1-0.1-0.2-0.2-0.4-0.2c-0.2,0-0.3,0.1-0.4,0.2
				c-0.1,0.1-0.2,0.2-0.2,0.4v0.3h1.1V31.2z M62.2,31.5v-0.3c0-0.2-0.1-0.3-0.2-0.4c-0.1-0.1-0.2-0.2-0.4-0.2
				c-0.2,0-0.3,0.1-0.4,0.2c-0.1,0.1-0.2,0.2-0.2,0.4v0.3H62.2z M56.9,31.2c0-0.2-0.1-0.3-0.2-0.4c-0.1-0.1-0.2-0.2-0.4-0.2
				c-0.2,0-0.3,0.1-0.4,0.2c-0.1,0.1-0.2,0.2-0.2,0.4v0.3h1.1V31.2z M59.6,31.5v-0.3c0-0.2-0.1-0.3-0.2-0.4
				c-0.1-0.1-0.2-0.2-0.4-0.2c-0.2,0-0.3,0.1-0.4,0.2c-0.1,0.1-0.2,0.2-0.2,0.4v0.3H59.6z M70.2,31.5v-0.3c0-0.2-0.1-0.3-0.2-0.4
				c-0.1-0.1-0.2-0.2-0.4-0.2c-0.2,0-0.3,0.1-0.4,0.2c-0.1,0.1-0.2,0.2-0.2,0.4v0.3H70.2z M72.9,31.5v-0.3c0-0.2-0.1-0.3-0.2-0.4
				c-0.1-0.1-0.2-0.2-0.4-0.2c-0.2,0-0.3,0.1-0.4,0.2c-0.1,0.1-0.2,0.2-0.2,0.4v0.3H72.9z M67.6,31.5v-0.3c0-0.2-0.1-0.3-0.2-0.4
				c-0.1-0.1-0.2-0.2-0.4-0.2c-0.2,0-0.3,0.1-0.4,0.2c-0.1,0.1-0.2,0.2-0.2,0.4v0.3H67.6z M78.3,31.5v-0.3c0-0.2-0.1-0.3-0.2-0.4
				c-0.1-0.1-0.2-0.2-0.4-0.2c-0.2,0-0.3,0.1-0.4,0.2c-0.1,0.1-0.2,0.2-0.2,0.4v0.3H78.3z M75.6,31.2c0-0.2-0.1-0.3-0.2-0.4
				c-0.1-0.1-0.2-0.2-0.4-0.2c-0.2,0-0.3,0.1-0.4,0.2c-0.1,0.1-0.2,0.2-0.2,0.4v0.3h1.1V31.2z M80.9,31.5v-0.3
				c0-0.2-0.1-0.3-0.2-0.4c-0.1-0.1-0.2-0.2-0.4-0.2c-0.2,0-0.3,0.1-0.4,0.2c-0.1,0.1-0.2,0.2-0.2,0.4v0.3H80.9z M86.3,31.2
				c0-0.2-0.1-0.3-0.2-0.4c-0.1-0.1-0.2-0.2-0.4-0.2c-0.2,0-0.3,0.1-0.4,0.2c-0.1,0.1-0.2,0.2-0.2,0.4v0.3h1.1V31.2z M83.6,31.2
				c0-0.2-0.1-0.3-0.2-0.4c-0.1-0.1-0.2-0.2-0.4-0.2c-0.2,0-0.3,0.1-0.4,0.2c-0.1,0.1-0.2,0.2-0.2,0.4v0.3h1.1V31.2z M88.9,31.5
				v-0.3c0-0.2-0.1-0.3-0.2-0.4c-0.1-0.1-0.2-0.2-0.4-0.2c-0.2,0-0.3,0.1-0.4,0.2c-0.1,0.1-0.2,0.2-0.2,0.4v0.3H88.9z M96.9,31.2
				c0-0.2-0.1-0.3-0.2-0.4c-0.1-0.1-0.2-0.2-0.4-0.2c-0.2,0-0.3,0.1-0.4,0.2c-0.1,0.1-0.2,0.2-0.2,0.4v0.3h1.1V31.2z M94.3,31.5
				v-0.3c0-0.2-0.1-0.3-0.2-0.4c-0.1-0.1-0.2-0.2-0.4-0.2c-0.2,0-0.3,0.1-0.4,0.2c-0.1,0.1-0.2,0.2-0.2,0.4v0.3H94.3z M91.6,31.5
				v-0.3c0-0.2-0.1-0.3-0.2-0.4c-0.1-0.1-0.2-0.2-0.4-0.2c-0.2,0-0.3,0.1-0.4,0.2c-0.1,0.1-0.2,0.2-0.2,0.4v0.3H91.6z M102.3,31.2
				c0-0.2-0.1-0.3-0.2-0.4c-0.1-0.1-0.2-0.2-0.4-0.2c-0.2,0-0.3,0.1-0.4,0.2c-0.1,0.1-0.2,0.2-0.2,0.4v0.3h1.1V31.2z M25.1,31.5
				v-0.3c0-0.2-0.1-0.3-0.2-0.4c-0.1-0.1-0.2-0.2-0.4-0.2c-0.2,0-0.3,0.1-0.4,0.2c-0.1,0.1-0.2,0.2-0.2,0.4v0.3H25.1z M38.3,31.2
				c0-0.2-0.1-0.3-0.2-0.4c-0.1-0.1-0.2-0.2-0.4-0.2c-0.2,0-0.3,0.1-0.4,0.2c-0.1,0.1-0.2,0.2-0.2,0.4v0.3h1.1V31.2z M35.7,31.5
				v-0.3c0-0.2-0.1-0.3-0.2-0.4c-0.1-0.1-0.2-0.2-0.4-0.2c-0.2,0-0.3,0.1-0.4,0.2c-0.1,0.1-0.2,0.2-0.2,0.4v0.3H35.7z M33,31.5v-0.3
				c0-0.2-0.1-0.3-0.2-0.4c-0.1-0.1-0.2-0.2-0.4-0.2c-0.2,0-0.3,0.1-0.4,0.2c-0.1,0.1-0.2,0.2-0.2,0.4v0.3H33z M46.3,31.2
				c0-0.2-0.1-0.3-0.2-0.4c-0.1-0.1-0.2-0.2-0.4-0.2c-0.2,0-0.3,0.1-0.4,0.2c-0.1,0.1-0.2,0.2-0.2,0.4v0.3h1.1V31.2z M41,31.2
				c0-0.2-0.1-0.3-0.2-0.4c-0.1-0.1-0.2-0.2-0.4-0.2c-0.2,0-0.3,0.1-0.4,0.2c-0.1,0.1-0.2,0.2-0.2,0.4v0.3H41V31.2z M54.2,31.2
				c0-0.2-0.1-0.3-0.2-0.4c-0.1-0.1-0.2-0.2-0.4-0.2c-0.2,0-0.3,0.1-0.4,0.2c-0.1,0.1-0.2,0.2-0.2,0.4v0.3h1.1V31.2z M51.6,31.5
				v-0.3c0-0.2-0.1-0.3-0.2-0.4c-0.1-0.1-0.2-0.2-0.4-0.2c-0.2,0-0.3,0.1-0.4,0.2c-0.1,0.1-0.2,0.2-0.2,0.4v0.3H51.6z"/>
			<path class="st6" d="M29.2,31.5v-0.3c0-0.2,0.1-0.3,0.2-0.4c0.1-0.1,0.2-0.2,0.4-0.2c0.2,0,0.3,0.1,0.4,0.2
				c0.1,0.1,0.2,0.2,0.2,0.4v0.3H29.2z"/>
			<path class="st7" d="M29.2,31.5h1.1v0.3c0,0.2-0.1,0.3-0.2,0.4c-0.1,0.1-0.2,0.2-0.4,0.2c-0.2,0-0.3-0.1-0.4-0.2
				c-0.1-0.1-0.2-0.2-0.2-0.4V31.5z"/>
		</g>
		<g>
			<path class="st13" d="M123,25.7c-0.2,0-0.4,0-0.6,0l13.2-25.5c0.2,0,0.4,0,0.6,0L123,25.7z"/>
		</g>
		<g>
			<path class="st14" d="M126.2,26c-5.7,0.3-8.3,1-7.8,2.1c0,0.1,0.1,0.2,0.1,0.2c0.9,1.1,3.9,1.3,9,0.4c0.8-0.1,1.7-0.3,2.6-0.5
				c2.8-0.6,6.1-1.4,9.9-2.4C134.3,25.8,129.7,25.8,126.2,26z"/>
			<path class="st11" d="M127.6,28.9c-8.8,1.9-14.3,2.3-16.7,1.2l3.6,4c4.8-1.1,9.7-2.3,14.7-3.6L127.6,28.9z"/>
			<path class="st9" d="M129.2,30.5c-5,1.3-9.9,2.5-14.7,3.6l1.9,2.2c4.7-1.3,9.4-2.7,14.2-4.3L129.2,30.5z"/>
			<path class="st15" d="M110.9,30c2.4,1.2,8,0.8,16.7-1.2c0.8-0.2,1.7-0.4,2.6-0.6c-0.9,0.2-1.8,0.4-2.6,0.5c-5,0.8-8,0.7-9-0.4
				c-0.1-0.1-0.1-0.2-0.1-0.2l-8.7,0.7c0,0.2,0.1,0.4,0.3,0.5C110.2,29.6,110.5,29.9,110.9,30z"/>
			<path class="st16" d="M109.7,28.8l8.7-0.7c-0.5-1.1,2.1-1.8,7.8-2.1C115,26.3,109.5,27.2,109.7,28.8z"/>
		</g>
		<g>
			<path class="st14" d="M42.4,42.8c-1.5,0.2-2.4,0.5-2.8,1l0.3,2c0.5-0.2,1.4-0.3,2.8-0.4L42.4,42.8z"/>
			<path class="st17" d="M59.4,39l26.1-5.6c2.9-0.9,5.3-2.4,7.3-4.5l2.2-0.6c-2.1,3.1-4.9,5.2-8.5,6.3l-27.7,7.9
				c-0.3-0.1-0.6-0.1-0.9-0.2c0.6-0.3,1.3-0.7,1.9-1.3c0.4-0.4,0.7-0.8,1.1-1.2l-4.6,0.4C57,39.7,58.1,39.3,59.4,39z M39.5,43
				c-0.3-1.2,0.6-2,2.7-2.3l0.2,2.2c-1.5,0.2-2.4,0.5-2.8,1L39.5,43z M39.8,45.8c0.5-0.2,1.4-0.3,2.8-0.4l0.4,3.9
				c-1.3,0-2.2-0.1-2.8-0.3L39.8,45.8z"/>
			<path class="st18" d="M43.3,51.9c-1.2-0.1-2.1-0.2-2.7-0.4c0.3,1.4,1.3,2.2,2.9,2.2L43.3,51.9z"/>
			<path class="st19" d="M54.8,41.6c-1.2-0.2-2.4-0.4-3.6-0.6c-0.3,0-0.6-0.1-0.9-0.1c0,0-0.1,0-0.1,0c-0.3,0-0.6-0.1-0.9-0.1l7-0.6
				l4.6-0.4c-0.4,0.5-0.7,0.9-1.1,1.2c-0.6,0.6-1.2,1-1.9,1.3C56.8,42.1,55.8,41.8,54.8,41.6z M40.6,51.2L40.3,49
				c0.6,0.1,1.5,0.2,2.8,0.3l0.3,2.6c-1.2-0.1-2.1-0.2-2.7-0.4C40.6,51.4,40.6,51.3,40.6,51.2z"/>
			<path class="st20" d="M97.8,21.7L97.8,21.7L97.8,21.7l-2.4,2.9L94,26.3c-1.6,1.9-3.7,3.2-6.4,4c-0.3,0.1-0.5,0.2-0.8,0.2
				l-31.3,6.5c-1.4,0.3-2.6,0.5-3.5,0.7C51,38,50,38.3,49,38.8c-1,0.4-1.4,1.1-1.3,1.9c0.5,0,1.1,0.1,1.6,0.2l7-0.6
				c0.8-0.5,1.8-0.9,3.2-1.2l26.1-5.6c2.9-0.9,5.3-2.4,7.3-4.5c0.6-0.7,1.2-1.5,1.8-2.3L97.8,21.7z"/>
			<path class="st21" d="M43.5,40.5c0.3,0,0.6,0,0.9,0c0.6,0,1.3,0,2.1,0c0.4,0,0.8,0,1.2,0.1c-0.1-0.8,0.4-1.4,1.3-1.9
				c1-0.4,1.9-0.8,2.9-1c0.9-0.2,2.1-0.5,3.5-0.7l31.3-6.5c0.3-0.1,0.6-0.1,0.8-0.2c2.7-0.8,4.8-2.1,6.4-4l1.4-1.8L94,26.2
				c-1.6,1.9-3.7,3.2-6.4,3.9c-0.3,0.1-0.5,0.1-0.8,0.2l-31.3,5.9c-2,0.4-3.7,0.8-5.2,1.1C46.1,38.4,43.8,39.5,43.5,40.5z"/>
			<path class="st8" d="M43.5,40.5c0.3,0,0.6,0,0.9,0c0.6,0,1.3,0,2.1,0c0.4,0,0.8,0,1.2,0.1c0.5,0,1.1,0.1,1.6,0.2
				c0.3,0,0.6,0.1,0.9,0.1c0,0,0.1,0,0.1,0c0.3,0,0.6,0.1,0.9,0.1c1.1,0.2,2.3,0.4,3.6,0.6c1,0.2,2.1,0.4,3.1,0.7
				c0.3,0.1,0.6,0.1,0.9,0.2c0.3,0.1,0.6,0.2,0.9,0.2c1.9,0.5,4,1.1,6.1,1.7c0,0.4,0,0.9-0.1,1.3c-2.1-0.5-4.1-0.9-6.1-1.3
				c-3.1-0.6-6-1.1-8.6-1.3c-0.3,0-0.7-0.1-1-0.1c-1.3-0.1-2.5-0.2-3.7-0.3c-1.7-0.1-3.1,0-4.1,0.1l-0.2-2.2
				C42.6,40.6,43,40.6,43.5,40.5z M42.6,45.4c1,0,2.3-0.1,3.9,0c1.2,0,2.4,0.1,3.7,0.1c0.3,0,0.7,0,1,0.1c2.6,0.2,5.5,0.4,8.6,0.7
				c1.9,0.2,3.9,0.4,5.9,0.7c0,0.3-0.1,0.5-0.1,0.8c-2,0.2-4,0.5-5.8,0.6c-3.1,0.3-6,0.6-8.6,0.7c-0.3,0-0.7,0-1,0.1
				c-1.3,0.1-2.5,0.1-3.7,0.1c-1.4,0-2.5,0-3.5,0L42.6,45.4z"/>
			<path class="st12" d="M43.3,51.9l0.2,1.8c0,0,0,0,0.1,0c2.3,0.1,4.5,0,6.6-0.3c0.3,0,0.7-0.1,1-0.1c3-0.4,5.8-1,8.6-1.9
				c1.9-0.6,3.7-1.3,5.5-2.2c0-0.1,0-0.1,0.1-0.2c-1.9,0.4-3.8,0.8-5.5,1.2c-3.1,0.6-6,1.1-8.6,1.3c-0.3,0-0.7,0.1-1,0.1
				c-1.3,0.1-2.5,0.2-3.7,0.3C45.3,51.9,44.2,51.9,43.3,51.9z"/>
			<path class="st10" d="M65.6,47.7c-2,0.2-4,0.5-5.8,0.6c-3.1,0.3-6,0.6-8.6,0.7c-0.3,0-0.7,0-1,0.1c-1.3,0.1-2.5,0.1-3.7,0.1
				c-1.4,0-2.5,0-3.5,0l0.3,2.6c0.9,0,2,0,3.2,0c1.2,0,2.4-0.1,3.7-0.3c0.3,0,0.7-0.1,1-0.1c2.6-0.3,5.5-0.7,8.6-1.3
				c1.8-0.3,3.6-0.7,5.5-1.2C65.4,48.6,65.5,48.2,65.6,47.7z"/>
			<path class="st22" d="M94.6,26.5l3.1-4.8h1.4l-3.7,6.1c-0.1,0.2-0.2,0.4-0.3,0.5l-2.2,0.6C93.5,28.1,94.1,27.4,94.6,26.5z
				 M46.5,42.8c1.2,0,2.4,0.1,3.7,0.3c0.3,0,0.7,0.1,1,0.1c2.6,0.3,5.5,0.7,8.6,1.3c1.9,0.4,3.9,0.8,6.1,1.3c0,0.4-0.1,0.8-0.1,1.1
				c-2.1-0.3-4.1-0.5-5.9-0.7c-3.1-0.3-6-0.6-8.6-0.7c-0.3,0-0.7,0-1-0.1c-1.3-0.1-2.5-0.1-3.7-0.1c-1.5,0-2.8,0-3.9,0l-0.3-2.6
				C43.5,42.7,44.8,42.7,46.5,42.8z"/>
		</g>
		<g>
			<path class="st0" d="M34,20.8l-1.1-0.6l-2.9,2.9c1.1,0,2.3,0,3.4-0.1L34,20.8z"/>
		</g>
		<g>
			<path class="st8" d="M35.7,27.4c0,0,0,0.1,0,0.1c0,0,0,0.1,0,0.1c0,0,0,0,0.1,0c0,0,0,0,0.1,0c0,0,0.1,0,0.1,0c0-0.1,0-0.1,0-0.2
				c0-0.1,0-0.1,0-0.2L35.7,27.4C35.7,27.3,35.7,27.4,35.7,27.4z M36.6,27.4C36.6,27.4,36.6,27.4,36.6,27.4c0,0.1,0,0.1,0,0.2v0
				c0,0,0,0,0,0c0,0,0,0,0,0v0c0,0,0,0,0,0c0,0,0,0,0,0c0,0,0,0.1,0,0.1c0,0.1,0,0.1,0,0.1c0,0,0,0.1,0,0.1c0,0.1,0,0.1,0,0.2
				c0,0.1,0,0.1,0,0.1v0l0,0l-0.1,0h0c0,0,0,0,0,0c0,0,0,0-0.1,0c-0.1,0-0.1,0-0.2,0c-0.1,0-0.1,0-0.2,0h0l0-0.1c0,0,0-0.1,0-0.1
				c0-0.1,0-0.1,0-0.2c0-0.1,0-0.1,0-0.1h0c-0.1,0.1-0.1,0.2-0.2,0.2c0,0.1-0.1,0.1-0.1,0.2c0,0-0.1,0.1-0.1,0.1l0,0
				c0,0-0.1,0-0.1,0c0,0-0.1,0-0.1-0.1c0,0-0.1,0-0.1,0c0,0,0,0,0,0c0,0,0,0,0,0c0,0,0,0,0,0c0,0,0,0,0,0c0,0,0,0,0-0.1
				c0,0,0-0.1,0.1-0.1c0,0,0.1-0.1,0.1-0.1c0,0,0.1-0.1,0.1-0.1c0,0,0,0-0.1,0c0,0-0.1-0.1-0.1-0.1c0-0.1,0-0.1,0-0.2
				c0-0.1,0-0.2,0-0.2s0.1-0.1,0.2-0.1c0.1,0,0.2-0.1,0.4-0.1c0.2,0,0.4,0,0.7,0c0,0,0,0,0.1,0c0,0,0,0,0.1,0c0,0,0,0,0,0v0
				c0,0,0,0,0,0c0,0,0,0,0,0.1C36.6,27.2,36.6,27.3,36.6,27.4C36.6,27.3,36.6,27.3,36.6,27.4z M38.5,27.4c0,0.1,0,0.1,0,0.1v0.1
				c0,0,0,0,0,0c0,0,0,0,0,0.1c0,0,0,0,0,0c0,0.1,0,0.1,0,0.2c0,0.1,0,0.2,0,0.2c0,0.1,0,0.1-0.1,0.2c0,0.1-0.1,0.1-0.1,0.1
				c-0.1,0-0.1,0-0.2,0c-0.1,0-0.1,0-0.2,0c0,0,0,0-0.1,0c0,0-0.1,0-0.1,0c0,0-0.1,0-0.1,0c0,0,0,0-0.1,0c0,0,0,0-0.1,0c0,0,0,0,0,0
				c0,0,0,0,0,0c0,0,0,0,0,0c0,0-0.1,0-0.1,0c0,0-0.1,0-0.1,0c-0.1,0-0.1,0-0.2,0c-0.1,0-0.1,0-0.2,0l0,0l0,0c0,0,0,0,0,0
				c0,0,0,0,0,0c0,0,0,0,0,0c0-0.2,0-0.4,0-0.7c0-0.2,0-0.4,0-0.7c0,0,0,0,0,0l0,0v0h0l0.3,0c0,0,0,0,0.1,0c0,0,0.1,0,0.1,0
				c0,0,0.1,0,0.1,0c0,0,0.1,0,0.1,0v0h0c0,0,0,0,0,0c0,0,0,0,0,0c0,0,0,0.1,0,0.1c0,0,0,0.1,0,0.1v0.8c0,0,0,0,0,0c0,0,0.1,0,0.1,0
				c0,0,0.1,0,0.1,0c0,0,0,0,0,0c0,0,0,0,0-0.1c0,0,0,0,0,0s0,0,0-0.1c0,0,0-0.1,0-0.2c0-0.1,0-0.1,0-0.2c0-0.1,0-0.1,0-0.2v0
				c0,0,0-0.1,0-0.1c0,0,0-0.1,0-0.1c0-0.1,0-0.1,0-0.1c0,0,0,0,0.1,0c0,0,0.1,0,0.1,0h0.4c0,0,0,0,0,0c0,0,0,0,0,0c0,0,0,0,0,0
				c0,0,0,0,0,0c0,0,0,0.1,0,0.1C38.5,27.3,38.5,27.4,38.5,27.4z M39.5,27.4c0,0,0,0.1,0,0.1c0,0,0,0.1,0,0.1v0c0,0,0,0.1,0,0.1
				c0,0.1,0,0.1,0,0.2c0,0.1,0,0.1,0,0.2c0,0.1,0,0.1,0,0.2c0,0,0,0.1,0,0.1h0c0,0,0,0,0,0l0-0.1c0,0,0,0,0-0.1c0,0,0-0.1,0-0.1
				s0-0.1,0-0.1c0,0,0-0.1,0-0.1v0l0-0.4c0-0.1,0-0.1,0-0.1c0,0,0,0,0,0C39.6,27.3,39.6,27.3,39.5,27.4
				C39.6,27.4,39.6,27.4,39.5,27.4z M40.4,28c0,0.1-0.1,0.2-0.1,0.2c0,0.1-0.1,0.1-0.2,0.2c0,0,0,0-0.1,0c0,0,0,0,0,0c0,0,0,0,0,0h0
				c0,0-0.1,0-0.1,0c0,0-0.1,0-0.1,0c0,0,0,0-0.1,0c0,0,0,0,0,0c-0.1,0-0.2,0-0.3,0c-0.1,0-0.2,0-0.3-0.1c-0.1,0-0.1-0.1-0.2-0.2h0
				c0,0,0,0,0,0c0,0,0,0,0,0c0-0.1-0.1-0.1-0.1-0.2c0-0.1,0-0.2,0-0.2c0-0.1,0-0.2,0-0.3c0-0.1,0.1-0.2,0.1-0.2
				c0.1-0.1,0.1-0.1,0.2-0.2c0.1,0,0.1,0,0.1,0c0.1,0,0.1,0,0.2,0s0.1,0,0.2,0h0c0,0,0,0,0,0c0,0,0,0,0,0c0.1,0,0.2,0,0.3,0.1
				c0.1,0.1,0.2,0.1,0.2,0.2c0.1,0.1,0.1,0.2,0.1,0.3c0,0.1,0,0.2,0,0.3C40.5,27.9,40.5,28,40.4,28z M42.4,26.9
				C42.4,26.9,42.4,26.9,42.4,26.9c0.1,0,0.1,0.1,0.1,0.1c0,0,0,0,0,0c0,0,0,0,0,0.1c0,0,0,0.1,0,0.1c0,0,0,0.1,0,0.1
				c0,0,0,0.1,0,0.1c0,0.1-0.1,0.1-0.1,0.2c0,0.1-0.1,0.1-0.1,0.2c0,0.1-0.1,0.1-0.1,0.2v0c0,0,0,0,0,0c0,0,0,0,0,0.1c0,0,0,0,0,0
				c0,0,0,0,0,0c0,0,0,0,0,0.1c0,0,0,0.1,0,0.1c0,0,0,0,0,0.1c0,0,0,0.1,0,0.1c0,0,0,0.1,0,0.1c0,0,0,0,0,0c0,0-0.1,0-0.1,0
				c-0.1,0-0.1,0-0.1,0c0,0-0.1,0-0.1,0c0,0,0,0,0,0c0,0,0,0,0,0c0,0,0,0-0.1,0c0,0-0.1,0-0.1,0l0,0h0v0h0c0,0,0,0,0,0
				c-0.1-0.1-0.1-0.2-0.2-0.3c0-0.1-0.1-0.2-0.1-0.3c0,0,0,0,0,0c-0.1-0.2-0.1-0.3-0.2-0.5c-0.1-0.2-0.1-0.3-0.2-0.5c0,0,0,0,0,0
				c0,0,0-0.1,0-0.1c0,0,0.1-0.1,0.1-0.1c0.1,0,0.1,0,0.2-0.1c0.1,0,0.1,0,0.2,0c0.1,0,0.1,0,0.2,0c0,0,0,0,0,0c0,0,0,0,0,0
				c0,0,0,0.1,0,0.1c0,0.1,0,0.1,0.1,0.1c0,0.1,0,0.1,0.1,0.1c0,0,0,0,0,0c0,0,0,0,0,0c0,0,0-0.1,0.1-0.1c0,0,0.1-0.1,0.1-0.1
				c0,0,0,0,0,0c0,0,0,0,0-0.1c0,0,0-0.1,0-0.1c0,0,0,0,0.1,0h0c0,0,0.1,0,0.1,0c0,0,0.1,0,0.1,0c0,0,0.1,0,0.1,0c0,0,0,0,0.1,0
				C42.3,26.9,42.4,26.9,42.4,26.9z M28,27.3C28,27.4,28,27.4,28,27.3c0,0.1,0,0.2,0,0.2c0,0,0,0.1,0,0.1v0c0,0,0,0.1,0,0.1
				c0,0.1,0,0.1,0,0.2c0,0.1,0,0.1,0,0.2c0,0.1,0,0.1,0,0.2c0,0,0,0.1,0,0.1h0c0,0,0,0,0,0l0-0.1c0,0,0,0,0-0.1c0,0,0-0.1,0-0.1
				s0-0.1,0-0.1c0,0,0-0.1,0-0.1v0l0-0.4C28.1,27.4,28.1,27.4,28,27.3C28,27.3,28,27.3,28,27.3C28,27.3,28,27.3,28,27.3z M28.8,28
				c0,0.1-0.1,0.2-0.1,0.2c0,0.1-0.1,0.1-0.2,0.2c0,0,0,0-0.1,0c0,0,0,0,0,0c0,0,0,0,0,0h0c0,0-0.1,0-0.1,0c0,0-0.1,0-0.1,0
				c0,0,0,0-0.1,0c0,0,0,0,0,0c-0.1,0-0.2,0-0.3,0c-0.1,0-0.2,0-0.3-0.1c-0.1,0-0.1-0.1-0.2-0.2h0c0,0,0,0,0,0c0,0,0,0,0,0
				c0-0.1-0.1-0.1-0.1-0.2c0-0.1,0-0.2,0-0.2c0-0.1,0-0.2,0-0.3c0-0.1,0.1-0.2,0.1-0.2c0.1-0.1,0.1-0.1,0.2-0.2c0.1,0,0.1,0,0.1,0
				c0.1,0,0.1,0,0.2,0c0.1,0,0.1,0,0.2,0h0c0,0,0,0,0,0c0,0,0,0,0,0c0.1,0,0.2,0,0.3,0.1c0.1,0.1,0.2,0.1,0.2,0.2
				c0.1,0.1,0.1,0.2,0.1,0.3c0,0.1,0,0.2,0,0.3C28.9,27.9,28.9,28,28.8,28z M30.6,28.2c0,0.1-0.1,0.2-0.2,0.2
				c-0.1,0.1-0.1,0.1-0.2,0.1c-0.1,0-0.2,0-0.2,0c-0.1,0-0.1,0-0.2,0c-0.1,0-0.1,0-0.1-0.1c0,0-0.1-0.1-0.1-0.1c0,0.1,0,0.1,0,0.1
				c0,0,0,0.1,0,0.1h0c0,0,0,0,0,0h-0.2c0,0,0,0,0,0h0c0,0,0,0,0,0c0,0,0,0,0,0c0,0,0-0.1,0-0.1s0-0.1,0-0.2v0c0,0,0,0,0,0v-0.2
				c0,0,0-0.1,0-0.1v0c0,0,0,0,0,0v-0.1h0.1c0,0,0,0,0,0h0.1c0,0,0,0,0,0c0,0,0,0,0.1,0c0,0,0,0,0,0s0,0,0,0c0,0,0,0,0,0
				c0,0,0,0,0,0c0,0,0,0,0,0h0c0,0,0,0,0,0v0.1c0,0,0,0.1,0,0.1c0,0,0,0.1,0,0.1c0,0,0.1,0,0.1,0c0,0,0,0,0.1,0c0.1,0,0.1,0,0.1-0.1
				c0-0.1,0.1-0.1,0.1-0.2c0-0.1,0-0.2,0-0.2c0,0-0.1-0.1-0.1-0.1c-0.1,0-0.1,0-0.2,0s-0.1,0-0.2,0c-0.1,0-0.1,0-0.2,0l-0.1-0.4
				c0.1-0.1,0.2-0.1,0.3-0.1c0.1,0,0.2,0,0.3,0c0.2,0,0.3,0,0.5,0.1c0.1,0.1,0.2,0.1,0.3,0.3c0.1,0.1,0.1,0.3,0.1,0.4
				C30.7,27.9,30.7,28.1,30.6,28.2z M31.6,27.4c0,0,0,0.1,0,0.1c0,0,0,0.1,0,0.1v0c0,0,0,0.1,0,0.1c0,0.1,0,0.1,0,0.2
				c0,0.1,0,0.1,0,0.2c0,0.1,0,0.1,0,0.2c0,0,0,0.1,0,0.1h0c0,0,0,0,0,0l0-0.1c0,0,0,0,0-0.1c0,0,0-0.1,0-0.1s0-0.1,0-0.1
				c0,0,0-0.1,0-0.1v0l0-0.4c0-0.1,0-0.1,0-0.1c0,0,0,0,0,0C31.7,27.3,31.7,27.3,31.6,27.4C31.7,27.4,31.6,27.4,31.6,27.4z M32.5,28
				c0,0.1-0.1,0.2-0.1,0.2c0,0.1-0.1,0.1-0.2,0.2c0,0,0,0-0.1,0c0,0,0,0,0,0c0,0,0,0,0,0h0c0,0-0.1,0-0.1,0c0,0-0.1,0-0.1,0
				c0,0,0,0-0.1,0c0,0,0,0,0,0c-0.1,0-0.2,0-0.3,0c-0.1,0-0.2,0-0.3-0.1c-0.1,0-0.1-0.1-0.2-0.2h0c0,0,0,0,0,0c0,0,0,0,0,0
				c0-0.1-0.1-0.1-0.1-0.2c0-0.1,0-0.2,0-0.2c0-0.1,0-0.2,0-0.3c0-0.1,0.1-0.2,0.1-0.2c0.1-0.1,0.1-0.1,0.2-0.2c0.1,0,0.1,0,0.1,0
				c0.1,0,0.1,0,0.2,0c0.1,0,0.1,0,0.2,0h0c0,0,0,0,0,0c0,0,0,0,0,0c0.1,0,0.2,0,0.3,0.1c0.1,0.1,0.2,0.1,0.2,0.2
				c0.1,0.1,0.1,0.2,0.1,0.3c0,0.1,0,0.2,0,0.3C32.6,27.9,32.5,28,32.5,28z M33.8,26.8c0.1,0,0.1,0,0.2,0c0,0,0.1,0,0.1,0
				c0,0,0,0,0,0.1c0,0,0,0.1,0,0.1c0,0.1,0,0.1,0,0.2c0,0.1,0,0.2,0,0.3c0,0.1,0,0.2,0,0.3v0.6c0,0,0,0,0,0c0,0,0,0,0,0
				c-0.1,0-0.2,0-0.2,0c-0.1,0-0.2,0-0.2,0c-0.1,0-0.2,0-0.2,0h-0.4c-0.1,0-0.1,0-0.1,0c0,0,0,0,0,0c0,0,0,0,0,0V28c0,0,0,0,0,0
				c0,0,0,0,0,0c0.1,0,0.1,0,0.2,0c0.1,0,0.1,0,0.2,0c0,0,0.1,0,0.1,0c0,0,0,0,0,0c0-0.1,0-0.2,0-0.3c0-0.1,0-0.2,0-0.3v0
				c0,0,0,0,0-0.1c0,0,0,0,0,0c0,0,0,0,0,0c0,0,0,0,0,0c0,0,0,0,0,0c0,0,0-0.1,0-0.1c0,0,0,0,0.1,0c0,0,0.1,0,0.1,0
				c0.1,0,0.1,0,0.2,0S33.7,26.8,33.8,26.8z"/>
		</g>
	</g>
</g>
</svg>
