<?xml version="1.0" encoding="utf-8"?>
<!-- Generator: Adobe Illustrator 24.0.3, SVG Export Plug-In . SVG Version: 6.00 Build 0)  -->
<svg version="1.1" id="レイヤー_1" xmlns="http://www.w3.org/2000/svg" xmlns:xlink="http://www.w3.org/1999/xlink" x="0px"
	 y="0px" viewBox="0 0 352.5 76" style="enable-background:new 0 0 352.5 76;" xml:space="preserve">
<style type="text/css">
	.st0{clip-path:url(#SVGID_2_);}
	.st1{fill-rule:evenodd;clip-rule:evenodd;fill:#FFFFFF;}
	.st2{fill-rule:evenodd;clip-rule:evenodd;fill:#666666;}
	.st3{fill-rule:evenodd;clip-rule:evenodd;fill:#EAEFF2;}
	.st4{fill-rule:evenodd;clip-rule:evenodd;fill:#80A1B3;}
	.st5{fill-rule:evenodd;clip-rule:evenodd;fill:#CCD9DF;}
	.st6{fill-rule:evenodd;clip-rule:evenodd;fill:#BEBEBE;}
	.st7{fill-rule:evenodd;clip-rule:evenodd;fill:#61A9C1;}
	.st8{fill-rule:evenodd;clip-rule:evenodd;fill:#357589;}
	.st9{fill-rule:evenodd;clip-rule:evenodd;fill:#DBDBDB;}
	.st10{fill-rule:evenodd;clip-rule:evenodd;fill:#E53333;}
	.st11{fill-rule:evenodd;clip-rule:evenodd;fill:#BF2323;}
	.st12{fill-rule:evenodd;clip-rule:evenodd;fill-opacity:0.3098;}
	.st13{fill-rule:evenodd;clip-rule:evenodd;fill:#9E9E9E;}
	.st14{fill-rule:evenodd;clip-rule:evenodd;fill:#971D1D;}
	.st15{fill-rule:evenodd;clip-rule:evenodd;fill:#525252;}
	.st16{fill-rule:evenodd;clip-rule:evenodd;fill:#A1A1A1;}
	.st17{fill-rule:evenodd;clip-rule:evenodd;fill:#808080;}
	.st18{fill-rule:evenodd;clip-rule:evenodd;fill:#656565;}
	.st19{fill:#BF2323;}
</style>
<g>
	<defs>
		<polyline id="SVGID_1_" points="0,0 352.5,0 352.5,76 0,76 		"/>
	</defs>
	<clipPath id="SVGID_2_">
		<use xlink:href="#SVGID_1_"  style="overflow:visible;"/>
	</clipPath>
	<g class="st0">
		<path class="st1" d="M369,18.8l-18.2,36.1H156.2l4.2-43c0.1-1.8,0.3-3.6,0.5-5.6l26.7,27.3L356,18L369,18.8z"/>
		<path class="st2" d="M161,6.2c-0.3,2-0.5,3.8-0.5,5.6l-4.2,43l-0.3,2.7l-19.6-23h-13.3l0.6-1.2h12.8L161,6.2z M137.3,34l17.8,20.9
			l4.4-45.4L137.3,34z"/>
		<path class="st3" d="M409,6.9l1.1-3.3L467.5,2l-57.6,19.2l2.7-11.1L409,6.9z M373.1,10.7l30.2-0.4l4.6-0.1l-7.7,23.2l-35.5,10.2
			l9-24.5l-3.8-2.1L373.1,10.7z M356,18L187.6,33.5L161,6.2L356,18z"/>
		<path class="st5" d="M405.6,3.7l4.5-0.1L409,6.9L405.6,3.7z M407.9,10.2l4.7-0.1l-2.7,11.1l-2.5,10.1l-7.2,2.1L407.9,10.2z
			 M364.7,43.5l-4.2,11.3h-9.7L369,18.8l4.7,0.3L364.7,43.5z M373.1,10.7l-3.1,6.2l-10.7-6L373.1,10.7z"/>
		<g>
			<path class="st1" d="M44.1,24.5c0.5,0.4,1,0.8,1.6,1.2c0.1,0.1,0.3,0.1,0.4,0.2c0.6,0.2,1.2-0.1,1.8-0.7l2.2-2.6
				c0.5-0.6,0.6-1,0.3-1.2l-0.5-0.3l-1.2-0.7c1.2-0.8,3-1.3,5.6-1.4c2.3,0,4.7,0,7.1,0.1c0.7,0,1.3,0.1,2,0.1
				c7.8,0.4,15.8,1.5,24,3.1c8.4,0.4,14.8,0.4,19.4-0.1c0,0,0.1,0,0.1,0c1.1-0.1,2.1-0.3,3-0.6c3.1-0.8,5.5-2.4,7.2-4.6l9-11.7
				l10.8,0.8l-11.1,28.3l0.1,0c0.3,0.1,0.4,0.2,0.6,0.4c0.3,0.2,0.3,0.4,0,0.6c-0.1,0.1-0.4,0.2-0.7,0.2c-4.1,0.9-8.2,1.8-12.2,2.6
				c-1.3,0.3-2.6,0.5-3.8,0.7c-8.3,1.6-16.2,2.9-23.7,3.9c-1.1,0.1-2.2,0.3-3.2,0.4c-5.5,0.7-10.8,1.2-15.8,1.6
				c-5.8,0.4-11.3,0.6-16.5,0.6c-0.3,0-0.7,0-1,0c-18.3-0.2-33-3-44.1-8.5c-1.1-0.5-1.5-1.1-1.2-1.7c0.2-0.3,0.6-0.7,1.2-1
				c8.8-4.4,19.8-7.1,33.2-8.1c0.6,0,1.2-0.1,1.8-0.1l0.1,0C41.8,25.8,42.9,25.3,44.1,24.5z M50.9,28.4h0.9c0.4,0,0.8,0,1.1,0
				c1.7-0.1,3.2-0.8,4.6-2c0.5-0.5,1-1,1.4-1.5c0.2-0.2,0.4-0.5,0.6-0.7c0.2-0.2,0.4-0.5,0.6-0.7c0,0,0,0,0-0.1l0.1-0.1
				c0,0,0-0.1,0.1-0.1c0.6-0.9,0.2-1.3-1-1.4c-0.1,0-0.3,0-0.4,0c-1.6,0-3.2,0-4.8,0c-1.1-0.1-2,0.2-2.5,0.6c0,0-0.1,0.1-0.1,0.1
				L48.7,26c-1,1.4-0.9,2.1,0.4,2.3H50.9z M64,24.4l-1.7,3c-0.1,0.1-0.1,0.3-0.1,0.4c0,0.2,0.1,0.3,0.2,0.4c0.1,0.1,0.3,0.1,0.4,0.1
				h5.3c0.1,0,0.2,0,0.3-0.1c0.1-0.1,0.2-0.1,0.2-0.2l1.8-3.2l0.8-1.4c0-0.1,0.1-0.1,0.1-0.2c0-0.1,0-0.2,0-0.3
				c0-0.1-0.1-0.3-0.2-0.4c-0.1-0.1-0.2-0.2-0.4-0.2c-1.7-0.2-3.4-0.3-5.1-0.4c-0.1,0-0.2,0-0.4,0.1c-0.1,0.1-0.2,0.1-0.3,0.2
				L64,24.4z M72.3,25l-1.4,2.4c-0.1,0.1-0.1,0.3-0.1,0.4c0,0.2,0.1,0.3,0.2,0.4c0.1,0.1,0.3,0.1,0.4,0.1h5.3c0.1,0,0.2,0,0.3-0.1
				c0.1-0.1,0.2-0.1,0.2-0.2l1.4-2.5l0.7-1.2c0.1-0.1,0.1-0.3,0.1-0.4c0-0.1-0.1-0.3-0.2-0.4c-0.1-0.1-0.2-0.2-0.4-0.2
				c-0.3,0-0.6-0.1-0.9-0.1c-1.4-0.2-2.8-0.4-4.1-0.5c-0.1,0-0.2,0-0.4,0.1c-0.1,0.1-0.2,0.1-0.3,0.3L72.3,25z M80.5,25.7l-1,1.7
				c-0.1,0.1-0.1,0.3-0.1,0.4c0,0.2,0.1,0.3,0.2,0.4c0.1,0.1,0.3,0.1,0.4,0.1h5.3c0.1,0,0.2,0,0.3-0.1c0.1-0.1,0.2-0.1,0.2-0.2
				l1-1.7l0.4-0.7c0.1-0.1,0.1-0.3,0.1-0.4c0-0.1-0.1-0.3-0.2-0.4c-0.1-0.1-0.2-0.2-0.4-0.2c-1.6-0.3-3.2-0.6-4.9-0.8
				c-0.1,0-0.3,0-0.4,0.1c-0.1,0.1-0.2,0.1-0.3,0.3L80.5,25.7z M88.6,26.6l-0.5,0.8c-0.1,0.1-0.1,0.3-0.1,0.4c0,0.2,0.1,0.3,0.2,0.4
				c0.1,0.1,0.3,0.1,0.4,0.1H94c0.1,0,0.2,0,0.3-0.1c0.1-0.1,0.2-0.1,0.2-0.2l0.4-0.7l0.1-0.1c0.1-0.1,0.1-0.3,0.1-0.4
				c0-0.1-0.1-0.3-0.2-0.4c-0.1-0.1-0.2-0.2-0.3-0.2c-1.6-0.4-3.2-0.7-4.7-1c-0.1,0-0.3,0-0.4,0c-0.1,0.1-0.2,0.1-0.3,0.3L88.6,26.6
				z"/>
			<path class="st6" d="M61.2,19.2l5.6-6.7l0.9-0.1l-4.6,6.9C62.5,19.3,61.9,19.2,61.2,19.2z"/>
			<path class="st7" d="M45.7,25.7c0.4-0.3,0.8-0.7,1.1-1.2l2.6-3c0.1-0.1,0.3-0.3,0.4-0.4l0.5,0.3c0.3,0.2,0.3,0.6-0.3,1.2
				l-2.2,2.6c-0.6,0.6-1.2,0.9-1.8,0.7C46,25.8,45.8,25.8,45.7,25.7z M59.5,24.2c-1.1,0-2.3-0.1-3.4-0.1c-1.5,0-2.7,0.6-3.6,1.9
				l-1.6,2.4H49c-1.2-0.2-1.4-1-0.4-2.3l2.8-3.5c0,0,0.1-0.1,0.1-0.1c0.5-0.5,1.3-0.7,2.5-0.6c1.6,0,3.2,0,4.8,0c0.1,0,0.3,0,0.4,0
				c1.2,0.1,1.6,0.6,1,1.4c0,0,0,0.1-0.1,0.1l-0.1,0.1c0,0,0,0,0,0.1C59.9,23.7,59.7,24,59.5,24.2z M88.6,26.6l0.6-1
				c0.1-0.1,0.2-0.2,0.3-0.3c0.1-0.1,0.3-0.1,0.4,0c1.6,0.3,3.2,0.7,4.7,1c0.1,0,0.2,0.1,0.3,0.2c0.1,0.1,0.1,0.2,0.2,0.4
				c0,0.1,0,0.3-0.1,0.4L95,27.4C92.9,27.1,90.8,26.8,88.6,26.6z M70.6,24.8c-2.2-0.2-4.4-0.3-6.6-0.4l1.2-2
				c0.1-0.1,0.1-0.2,0.3-0.2c0.1-0.1,0.2-0.1,0.4-0.1c1.7,0.1,3.4,0.2,5.1,0.4c0.1,0,0.3,0.1,0.4,0.2c0.1,0.1,0.2,0.2,0.2,0.4
				c0,0.1,0,0.2,0,0.3c0,0.1,0,0.1-0.1,0.2L70.6,24.8z M80.5,25.7l0.9-1.5c0.1-0.1,0.2-0.2,0.3-0.3c0.1-0.1,0.3-0.1,0.4-0.1
				c1.6,0.3,3.2,0.5,4.9,0.8c0.1,0,0.3,0.1,0.4,0.2c0.1,0.1,0.2,0.2,0.2,0.4c0,0.1,0,0.3-0.1,0.4L87,26.4
				C84.8,26.1,82.7,25.9,80.5,25.7z M78.8,25.5c-2.2-0.2-4.3-0.4-6.5-0.5l1.1-1.9c0.1-0.1,0.1-0.2,0.3-0.3c0.1-0.1,0.2-0.1,0.4-0.1
				c1.4,0.1,2.8,0.3,4.1,0.5c0.3,0,0.6,0.1,0.9,0.1c0.1,0,0.3,0.1,0.4,0.2c0.1,0.1,0.2,0.2,0.2,0.4c0,0.1,0,0.3-0.1,0.4L78.8,25.5z"
				/>
			<path class="st8" d="M49.8,21.2c-0.1,0.1-0.3,0.3-0.4,0.4l-2.6,3c-0.4,0.4-0.8,0.8-1.1,1.2c-0.6-0.3-1.2-0.7-1.6-1.2
				c0.1,0,0.1-0.1,0.2-0.1l3.9-3.6c0.1-0.1,0.2-0.2,0.4-0.3L49.8,21.2z M50.9,28.4l1.6-2.4c0.9-1.3,2.1-2,3.6-1.9
				c1.1,0,2.3,0.1,3.4,0.1c-0.2,0.2-0.4,0.5-0.6,0.7c-0.4,0.5-0.9,1-1.4,1.5c-1.4,1.2-2.9,1.9-4.6,2c-0.4,0-0.8,0-1.1,0H50.9z
				 M70.6,24.8L68.8,28c-0.1,0.1-0.1,0.2-0.2,0.2c-0.1,0.1-0.2,0.1-0.3,0.1h-5.3c-0.2,0-0.3,0-0.4-0.1c-0.1-0.1-0.2-0.2-0.2-0.4
				c0-0.2,0-0.3,0.1-0.4l1.7-3C66.2,24.5,68.4,24.7,70.6,24.8z M88.6,26.6c2.1,0.3,4.2,0.5,6.3,0.8l-0.4,0.7
				c-0.1,0.1-0.1,0.2-0.2,0.2c-0.1,0.1-0.2,0.1-0.3,0.1h-5.3c-0.2,0-0.3,0-0.4-0.1c-0.1-0.1-0.2-0.2-0.2-0.4c0-0.2,0-0.3,0.1-0.4
				L88.6,26.6z M78.8,25.5L77.4,28c-0.1,0.1-0.1,0.2-0.2,0.2c-0.1,0.1-0.2,0.1-0.3,0.1h-5.3c-0.2,0-0.3,0-0.4-0.1
				c-0.1-0.1-0.2-0.2-0.2-0.4c0-0.2,0-0.3,0.1-0.4l1.4-2.4C74.5,25.1,76.7,25.3,78.8,25.5z M80.5,25.7c2.2,0.2,4.3,0.4,6.4,0.7
				L86,28c-0.1,0.1-0.1,0.2-0.2,0.2c-0.1,0.1-0.2,0.1-0.3,0.1h-5.3c-0.2,0-0.3,0-0.4-0.1c-0.1-0.1-0.2-0.2-0.2-0.4
				c0-0.2,0-0.3,0.1-0.4L80.5,25.7z"/>
			<g>
				<path class="st6" d="M126.4,34.9c0.3,0.2,0.3,0.4,0,0.6c-0.1,0.1-0.4,0.2-0.7,0.2c-4.1,0.9-8.2,1.8-12.1,2.6
					c-1.3,0.3-2.6,0.5-3.8,0.7c-8.3,1.6-16.2,2.9-23.7,3.9c-1.1,0.1-2.2,0.3-3.2,0.4c-5.5,0.7-10.8,1.2-15.8,1.6
					c-5.8,0.4-11.3,0.6-16.5,0.6c-0.3,0-0.7,0-1,0c-18.3-0.2-33-3-44.1-8.5c-1.1-0.5-1.5-1.1-1.2-1.7c-0.2,0.4,0.2,0.8,1.2,1.1
					c8.7,2.7,19.8,4.4,33.1,5c12.7,0.6,27.4,0.2,44.2-1.1c1.1-0.1,2.1-0.2,3.2-0.3c7.5-0.6,15.4-1.4,23.7-2.4
					c1.3-0.2,2.5-0.3,3.8-0.5c3.7-0.5,7.6-1,11.5-1.5l0.1,0c1.3-0.2,1.5-0.5,0.7-0.9C126.1,34.6,126.3,34.8,126.4,34.9z"/>
			</g>
			<g>
				<path class="st9" d="M126,5.4l10.8,0.8l-11.1,28.3l0.1,0c0.8,0.4,0.6,0.8-0.7,0.9l-0.1,0c-3.9,0.5-7.7,1-11.5,1.5
					c-1.3,0.2-2.6,0.3-3.8,0.5c-8.3,1-16.2,1.8-23.7,2.4c-1.1,0.1-2.2,0.2-3.2,0.3c-16.8,1.3-31.6,1.7-44.2,1.1
					c-13.4-0.6-24.4-2.3-33.1-5c-1-0.3-1.4-0.7-1.2-1.1c0.2-0.3,0.6-0.7,1.2-1c8.8-4.4,19.8-7.1,33.2-8.1c0.6,0,1.2-0.1,1.8-0.1
					l0.1,0c1.3-0.1,2.4-0.6,3.6-1.3c0.5,0.4,1,0.8,1.6,1.2c-1.3,1.2-2.6,1.9-3.7,2c-1.5,0.2-2.3,0.2-2.4,0.2c-0.3,0-0.6,0-1,0.1
					c-13.4,0.8-24.5,3.1-33.2,6.7c-1,0.5-1,0.8,0,1c0.1,0,0.3,0,0.4,0c8.7,0.6,19.6,1,32.8,1.1c12.7,0.1,27.4,0,44.2-0.3
					c1.1,0,2.1,0,3.2-0.1c7.5-0.2,15.4-0.4,23.7-0.6c1.3,0,2.5-0.1,3.8-0.1c3.4-0.1,6.8-0.2,10.3-0.3c1.4-0.1,1.6-0.4,0.9-0.8
					c-0.1-0.1-0.2-0.1-0.3-0.2c-0.3-0.1-0.6-0.3-0.9-0.4c0,0,0,0,0,0c-2.2-1-5.5-2.2-9.9-3.6c-1.2-0.4-2.5-0.8-3.8-1.2
					c-2-0.6-4.1-1.3-6.4-1.9c-1.1-0.3-2.3-0.7-3.5-1c-3.9-1.1-7.8-2.1-11.7-2.9c-0.1,0-0.1,0-0.2,0c0,0,0,0,0,0
					c-11.3-2.4-22.7-3.5-33.9-3.3c-1.8,0-3.2,0.4-4.2,1.2l-1.2-0.7c1.2-0.8,3-1.3,5.6-1.4c2.3,0,4.7,0,7.1,0.1c0.7,0,1.3,0.1,2,0.1
					c7.8,0.4,15.8,1.5,24,3.1c8.4,0.4,14.8,0.4,19.4-0.1c0,0,0.1,0,0.1,0c1.1-0.1,2.1-0.3,3-0.6c3.1-0.8,5.5-2.4,7.2-4.6L126,5.4z
					 M135.7,7l-8.9-0.6l-9,11.6c-1.9,2.4-4.5,4-8,4.8c-0.7,0.2-1.4,0.3-2.2,0.4c-0.3,0-0.6,0.1-1,0.1c-0.2,0-0.4,0-0.6,0.1
					c-3.6,0.3-8.3,0.4-13.9,0.2c3.9,0.9,7.8,1.9,11.8,3.1c2,0.6,4,1.2,6,1.9c1.3,0.4,2.5,0.9,3.8,1.3c3.8,1.3,7.6,2.8,11.4,4.3
					L135.7,7z"/>
			</g>
			<g>
				<path class="st10" d="M128.1,26l-3.2,8.1c-3.8-1.6-7.6-3-11.4-4.3c-1.3-0.4-2.5-0.9-3.8-1.3c-2-0.7-4-1.3-6-1.9l2.2-3.3
					c0.2,0,0.4,0,0.6-0.1c0.3,0,0.7-0.1,1-0.1c0.8-0.1,1.5-0.2,2.2-0.4c3.5-0.8,6.2-2.4,8-4.8l9-11.6l8.9,0.6l-6.4,16.3l-16.7,1.4
					l-0.7,0.7L128.1,26z M103.3,27.3c2.3,0.7,4.5,1.3,6.4,1.9c1.4,0.4,2.6,0.8,3.8,1.2c4.4,1.4,7.7,2.6,9.9,3.6l-86.3-0.9l0.6-0.6
					l58.7-1.8c3.3-0.1,5.3-0.9,6-2.2L103.3,27.3z"/>
				<path class="st11" d="M105.9,23.3l0.7-1c0,0,0.1,0,0.1,0c1.1-0.1,2.1-0.3,3-0.6c3.1-0.8,5.5-2.4,7.2-4.6l9-11.7l10.8,0.8
					l-6.7,17l-0.9,0.1L135.6,7l-8.9-0.6l-9,11.6c-1.9,2.4-4.5,4-8,4.8c-0.7,0.2-1.4,0.3-2.2,0.4c-0.3,0-0.6,0.1-1,0.1
					C106.3,23.3,106.1,23.3,105.9,23.3z M123.4,34c-2.2-1-5.5-2.2-9.9-3.6c-1.2-0.4-2.5-0.8-3.8-1.2c-2-0.6-4.1-1.3-6.4-1.9l0.4-0.7
					c2,0.6,4,1.2,6,1.9c1.3,0.4,2.5,0.9,3.8,1.3c3.8,1.3,7.6,2.8,11.4,4.3l3.2-8.1l0.9,0l-3.3,8.4c-0.3-0.1-0.5-0.2-0.8-0.3
					L123.4,34C123.5,34,123.5,34,123.4,34z"/>
			</g>
			<g>
				<path class="st12" d="M130.3,5.8l0.6,0l-2.8,5l0.7,0.8c0,0,0.1,0.1,0.1,0.2c0,0.1,0,0.1,0,0.2l-10.6,17.5l7.9,3.9l-0.2,0.5
					l-8.2-4.1c0,0-0.1-0.1-0.1-0.1c0,0,0-0.1,0-0.1c0-0.1,0-0.1,0-0.1l10.7-17.6l-0.7-0.8c0,0-0.1-0.1-0.1-0.1c0-0.1,0-0.1,0-0.2
					L130.3,5.8z"/>
			</g>
			<g>
				<path class="st6" d="M123.4,35.7c-5.1,0.7-10,1.3-14.9,1.9l-1.6-2.1c2.6,0.5,7.7,0,15.3-1.6L123.4,35.7z"/>
				<path class="st13" d="M108.5,37.5c4.8-0.6,9.8-1.2,14.9-1.9l0.3,0.4c-4.8,1-9.5,2-14,2.9L108.5,37.5z"/>
				<path class="st14" d="M122.3,33.9c-7.6,1.5-12.7,2.1-15.3,1.6c-0.9-0.2-1.5-0.5-1.8-0.9C103.9,33,109.6,32.8,122.3,33.9z"/>
			</g>
			<g>
				<path class="st15" d="M30.6,39.7c-0.1-0.4-0.1-0.8-0.1-1.3c-1.1-9.6-1-14.4,0.1-14.3c1.1-0.1,1.2,4.6,0.1,14.2
					C30.7,38.8,30.7,39.3,30.6,39.7z"/>
			</g>
			<g>
				<path class="st16" d="M33.7,40.9l0,0.2h-8.6c0,0,0,0,0,0v0c0-0.4,1.1-0.8,3.3-1.1c1.3-0.2,2.8-0.3,4.5-0.4c0.2,0,0.4,0,0.7,0
					L33.7,40.9z"/>
				<path class="st17" d="M33.4,37.9l0.1,0.9l0,0.6c-0.2,0-0.4,0-0.7,0c-1.7,0.1-3.2,0.2-4.5,0.4c-2.2,0.3-3.2,0.7-3.3,1.1
					c0,0,0,0,0,0c0-0.9,1.1-1.6,3.3-2.2c1.3-0.4,2.8-0.6,4.5-0.8C33.1,38,33.2,38,33.4,37.9z"/>
				<path class="st18" d="M33.7,41.1l0.3,3c-0.4,0-0.7,0-1.1-0.1c-1.7-0.1-3.2-0.4-4.5-0.8c-2.1-0.6-3.2-1.3-3.2-2.2H33.7z"/>
				<path class="st10" d="M33.7,40.9l-0.1-1.3l0-0.6c0.2-0.7,0.9-1,1.9-1c17-1.2,31.4,0.8,43.2,5.9h0c-11.8-3.1-26.2-4.2-43.2-3.4
					C34.6,40.4,34,40.6,33.7,40.9z"/>
				<path class="st11" d="M33.5,38.9l-0.1-0.9l0-0.3c0-1.3,0.7-1.9,2.1-1.9c17-1.4,31.1,0.6,42.2,6.1c1.2,0.7,1.5,1.4,1,2
					c-11.8-5.1-26.2-7.1-43.2-5.9C34.4,37.9,33.8,38.2,33.5,38.9z M33.7,40.9c0.3-0.3,0.9-0.4,1.8-0.4c17-0.8,31.4,0.3,43.2,3.4
					c-7.2,1.3-14.1,2.2-20.8,2.8c-3.4-0.3-5.8-0.7-7.4-1.3c-0.7-0.3-1.3-0.6-1.8-1l2.1,2.7c-4.4,0.2-8.8,0.3-13,0.1
					c-2.2-0.2-3.5-0.8-3.7-1.7L34,44.1l-0.3-3L33.7,40.9z"/>
				<path class="st14" d="M34.1,45.5c0.3,0.9,1.5,1.5,3.7,1.7c4.2,0.1,8.6,0.1,13-0.1l-2.1-2.7c0.5,0.4,1.1,0.8,1.8,1
					c1.6,0.6,4,1,7.4,1.3c6.7-0.6,13.6-1.5,20.8-2.8c-0.4,0.6-1.6,1.1-3.5,1.6c-7.5,1.9-15,3.2-22.7,3.8c-4.8,0.4-9.6,0.5-14.5,0.3
					c-2.4-0.3-3.6-1.1-3.8-2.5L34.1,45.5z"/>
			</g>
			<g>
				<path class="st15" d="M30.6,42.4c0,0.4,0.1,0.9,0.1,1.3c1.1,9.6,1,14.4-0.1,14.2c-1.1,0.1-1.2-4.6-0.1-14.3
					C30.5,43.2,30.6,42.8,30.6,42.4z"/>
			</g>
			<g>
				<path class="st9" d="M49.5,40.3c-1.7,1.2,0.2,2.4,5.8,3.8c-0.7,0.3-0.8,0.8-0.4,1.3c0.4,0.6,1.3,1,2.6,1.2
					c0.4,0.1,0.8,0.1,1.2,0.2c-5.4-0.4-8.6-1.1-9.8-2.2c-0.2-0.2-0.4-0.3-0.5-0.5c-0.1-0.1-0.1-0.2-0.2-0.2c0,0,0,0,0,0
					c-0.6-1-0.4-2,0.7-3.1C49.1,40.5,49.3,40.4,49.5,40.3z"/>
				<path class="st1" d="M55.3,44c-5.6-1.3-7.5-2.6-5.8-3.8c1.9-1.1,6.1-1.4,12.7-0.9c6.4,0.5,12.3,2.2,17.6,4.9
					C65.7,43,57.5,43,55.3,44z"/>
				<path class="st6" d="M55.3,44c2.2-1.1,10.4-1,24.5,0.3c-9,1.8-15.6,2.7-19.8,2.5c-0.5,0-0.9,0-1.3-0.1c-0.4,0-0.8-0.1-1.2-0.2
					c-1.3-0.2-2.1-0.7-2.6-1.2C54.5,44.8,54.6,44.4,55.3,44z"/>
			</g>
		</g>
	</g>
</g>
<g>
	<path class="st19" d="M201.4,28.4c-0.2,0.4-0.2,0.8-0.3,1.6c-0.1,2.7-0.3,6.4-0.6,8c-0.6,4.2-1.5,5.1-4.3,5.1c-0.9,0-1.7-0.1-3-0.3
		c0-1.5-0.1-2-0.6-3.1c1.4,0.4,2.4,0.6,3.2,0.6c1,0,1.4-0.5,1.8-2.6c0.3-1.7,0.5-4.9,0.5-7.7l-5.6,0c-0.3,3-0.8,4.8-1.9,6.9
		c-1.3,2.5-3.5,4.7-6.5,6.6c-0.8-1.3-1.2-1.7-2.2-2.5c3-1.6,5-3.5,6.2-6c0.6-1.3,1-2.5,1.2-4.2c0-0.3,0.1-0.6,0.1-0.7l-4,0
		c-1.5,0-1.8,0-2.6,0.1l0-3c0.8,0.1,1.5,0.2,2.7,0.2l4.2,0c0.1-0.9,0.1-2.3,0.1-3v-0.6c0-0.3,0-0.5-0.1-0.9l3.2,0.1
		c0,0.3-0.1,0.4-0.1,0.7c0,0.1,0,0.3,0,0.5c0,0.5,0,0.5-0.1,1.8c0,0.5,0,0.7-0.1,1.5l5.3,0c1.1,0,1.3,0,1.9-0.2L201.4,28.4z"/>
	<path class="st19" d="M205.9,31.8c1.1,0.1,1.5,0.2,3.9,0.2h12.8c2.4,0,2.8,0,3.9-0.2v3.3c-1-0.1-1.2-0.1-3.9-0.1h-12.7
		c-2.7,0-3,0-3.9,0.1V31.8z"/>
	<path class="st19" d="M234.2,43.7c0.1-0.7,0.1-1.3,0.1-2.7V25.6c0-1.4,0-1.9-0.1-2.4h3.3c-0.1,0.6-0.1,1.1-0.1,2.5v4.5
		c2.8,0.9,7.1,2.9,10.9,5.1l-1.7,2.8c-1.7-1.2-5.1-3-8.5-4.6c-0.6-0.3-0.6-0.3-0.8-0.4c0.1,0.7,0.1,1.1,0.1,1.6V41
		c0,1.3,0,2,0.1,2.7H234.2z M244.1,24.4c1.1,1.1,1.7,2,2.5,3.5l-1.7,0.9c-0.8-1.5-1.5-2.4-2.5-3.6L244.1,24.4z M247.8,27.3
		c-0.7-1.3-1.5-2.4-2.4-3.5L247,23c1.1,1.1,1.8,2,2.5,3.4L247.8,27.3z"/>
	<path class="st19" d="M254.6,28.6c1.7,1,2.6,1.6,4.3,3l-1.5,2.2c-1.6-1.5-2.6-2.2-4.3-3.3L254.6,28.6z M258.8,36.7
		c-0.9,2.7-1.5,4.2-2.6,6.3c-0.2,0.3-0.7,1.2-0.7,1.3l-2.3-2c1.3-1.6,2.3-3.6,3.6-7.2L258.8,36.7z M255.6,22.6
		c1.7,1,2.6,1.7,4.2,3.2l-1.7,2.2c-1.5-1.6-2.3-2.2-4.2-3.4L255.6,22.6z M268.1,35.2c1.4,3.1,3.8,5.2,7.3,6.7
		c-0.6,0.8-0.9,1.4-1.4,2.7c-3.6-1.8-6.3-4.5-7.5-7.5c-1.2,3.4-3.2,5.7-7,7.7c-0.4-1-0.8-1.5-1.7-2.4c3.8-1.6,5.8-3.7,6.6-7.2h-2.3
		c-1.1,0-2,0-2.7,0.1v-2.9c0.7,0.1,1.6,0.1,2.7,0.1h2.7c0.1-1.4,0.2-2.8,0.2-4.1h-2c-1,0-1.9,0-2.5,0.1v-2.7
		c0.7,0.1,1.5,0.1,2.5,0.1h2v-1.3c0-1.1,0-1.6-0.2-2.3h2.9c-0.1,0.7-0.2,1.1-0.2,2.2V26h3.7c1.1,0,1.7,0,2.2-0.1
		c-0.1,0.5-0.1,1-0.1,1.9v4.8c1,0,1,0,2-0.1v2.9c-0.8-0.1-1.6-0.1-2.7-0.1H268.1z M270.8,32.6v-4.1h-3.3c0,1.9-0.1,2.9-0.2,4.1
		H270.8z"/>
	<path class="st19" d="M278.6,28.5c1.6,0.9,2.7,1.7,4,2.8c2.5-0.2,4.5-0.7,6.3-1.4c-1.3-1-2.4-2-3.2-3.2c-1.1,0-1.5,0-2.1,0.1v-0.9
		l-1.6,1.8c-1.3-1.3-2.1-2-4-3.2l1.7-1.9c1.5,0.9,2.5,1.7,3.9,2.9v-1.2c0.6,0.1,1.3,0.1,2.4,0.1h3.6v-0.3c0-0.7,0-1.2-0.1-1.7h2.8
		c-0.1,0.5-0.1,1-0.1,1.7v0.3h4.5c1.2,0,1.9,0,2.5-0.1v2.5c-0.6-0.1-1.2-0.1-2.3-0.1h-0.6c-0.7,1.1-1.7,2.2-3,3.2
		c2,0.8,3.9,1.2,6.4,1.5c-0.6,0.8-0.8,1.3-1.1,2.4c-1-0.2-1.3-0.2-2.1-0.4v8.5c0,1.2,0,2,0.1,2.7H294c0.1-0.8,0.1-1.6,0.1-2.8V40
		h-7.3c-0.6,2-1.5,3.2-3.2,4.6c-0.6-0.8-1.1-1.3-2.1-1.9c2.8-2.2,3.5-4,3.6-9.4c-0.6,0.1-0.9,0.2-1.8,0.3c-0.2-0.8-0.3-1.2-0.7-1.9
		l-1.4,2c-1.5-1.5-2.1-2-4.2-3.2L278.6,28.5z M282.8,36.5c-0.8,2.6-1.4,4.2-2.5,6.2c-0.1,0.2-0.4,0.8-0.9,1.7l-2.3-2
		c0.5-0.6,0.6-0.7,1-1.3c1-1.7,1.8-3.7,2.6-6.2L282.8,36.5z M287.6,36c0,0.8-0.1,1.1-0.2,1.8h6.8V36H287.6z M294.2,32.6
		c-1.1-0.4-1.9-0.7-3-1.3c-1.2,0.7-2.2,1-3.5,1.4c0,0.5,0,0.5,0,1.1h6.5V32.6z M288.5,26.6c0.6,0.8,1.3,1.4,2.5,2.1
		c1.2-0.8,1.8-1.3,2.3-2.1H288.5z"/>
	<path class="st19" d="M304.6,25.9c-1.1,0-2,0-3,0.1v-2.7c0.9,0.1,1.8,0.1,2.9,0.1h15.7c1.1,0,2.1,0,3-0.1V26
		c-0.8-0.1-1.6-0.1-2.7-0.1v15.9c0,2.3-0.6,2.7-4.1,2.7c-0.7,0-1.6,0-2.6-0.1c-0.1-0.9-0.3-1.8-0.7-2.7c1.4,0.2,2.6,0.3,3.6,0.3
		c0.9,0,1.1-0.1,1.1-0.7V25.9H304.6z M314.5,36.5c0,0.7,0,1.3,0.1,1.9c-0.4,0-0.5,0-0.9-0.1c-0.2,0-0.4,0-0.6,0c-0.3,0-0.5,0-0.6,0
		h-5.6v2h-2.8c0.1-0.8,0.1-1.4,0.1-2.2v-7.6c0-0.9,0-1.5-0.1-2.2c0.6,0.1,1.3,0.1,2.2,0.1h6c1,0,1.6,0,2.3-0.1
		c-0.1,0.6-0.1,1.1-0.1,2V36.5z M306.8,36h5.2v-5.2h-5.2V36z"/>
</g>
</svg>
