<?xml version="1.0" encoding="utf-8"?>
<!-- Generator: Adobe Illustrator 24.0.3, SVG Export Plug-In . SVG Version: 6.00 Build 0)  -->
<svg version="1.1" id="レイヤー_1" xmlns="http://www.w3.org/2000/svg" xmlns:xlink="http://www.w3.org/1999/xlink" x="0px"
	 y="0px" viewBox="0 0 844.4 94.8" style="enable-background:new 0 0 844.4 94.8;" xml:space="preserve">
<style type="text/css">
	.st0{fill:#00ABFF;}
</style>
<g>
	<path class="st0" d="M29.2,12.9c0.4-1.3,0.8-2.8,1-4H7.5c-0.2,4-1.8,6.2-1.8,6.2L0,12.4c0,0,4-3.1,4-7.8V4.2l3.2,0
		c0.1,0.4,0.2,0.9,0.2,1.3H16v-4h5.5v4h10l2-1.8l4.6,3l-1.7,1.4l-3.7,5.3L29.2,12.9z M34.4,37.4H1.9l-1.2-3.3H16v-6H4.7l-1.2-3.3h25
		l2.8-2.4l3.5,3l-3.2,2.7h-10v6h9.7l2.8-2.4l3.5,3L34.4,37.4z M1.1,21c7.6-2.1,10.2-5.2,10.8-10.8l5.4,0.7
		C16.1,17.4,12.4,22,2.9,23.4L1.1,21z M34.8,14.2c0,0.5,0,0.9,0,1.3c0,1.8,0.4,2.5,1.2,3.4c-0.5,1.4-2.3,2.3-3.4,2.5
		c-1.3,0.2-3.2,0.3-5.1,0.3c-4,0-7.3,0-7.3-4.2v-0.1l0.1-6.9h4.8l-0.1,6c0,1.2,0.8,1.3,2.6,1.3c2.9,0,4,0,4.3-3.8L34.8,14.2z"/>
	<path class="st0" d="M72.9,28.4v-2.3h-8.8v12.6h-5.3V26.1h-8.6v2.4h-5V7.3L50.4,9h8.4V1.5h5.3V9h9.2l1.4-1.5l4.6,2L78,11.1v17.3
		H72.9z M58.8,12.4h-8.6v10.4h8.6V12.4z M72.9,12.4h-8.8v10.4h8.8V12.4z"/>
	<path d="M89.7,24.8V7.6l-2.6-0.8l0.8-2.2H95l0,20.1H89.7z M90.1,34.1c14.8-1.2,18-8.6,18-17.4c0-0.2,0-0.4,0-0.5
		c0-1.5-0.1-6-0.1-9.2l-2.6-0.8l0.8-2.2h7.2c0,13.1,0,13.1,0,13.1c0,0.1,0,0.2,0,0.4c0,10.4-5.2,18.4-21.8,19.7L90.1,34.1z"/>
	<path d="M126,33.8c13.2-2.4,20.8-13,22.7-23.5h-22.8L124.6,7H150l1.5-1.5l5.9,2.4c0,0-1.9,1.6-2,2.4c-2.1,13.2-12.6,24.3-27.6,26.6
		L126,33.8z"/>
	<path d="M180.7,21.8c-3.5,7.1-9.3,11.7-15,14.2l-1.8-2.3c5.8-3.1,10.4-8.5,12.8-14h-10.2l-1-2.9h15.2l0-2.3l-2.2-0.6l0.8-2h5.6
		l0.1,5h0.9l1.9-1.6l2.9,2.2l-2.4,2.2h-3.2l0.2,11.2c0,0.9,0.1,1.7,0.1,2.5c0,2.1-0.5,3.6-3.8,4.2c-1.3-1.6-2.5-2.1-5.8-2.5v-2.4
		c1.5,0.1,2.6,0.1,3.4,0.1c1.8,0,1.9-0.2,1.9-0.6L180.7,21.8z"/>
	<path d="M202.7,22l-1.4-4h32.2v4H202.7z"/>
	<path d="M267,37.1c-0.3-1.6-0.9-3.6-1.8-5.8c-8.8,2.7-17.7,4.2-25.4,5.4l-2.1-5.7c1.8,0,3.9-0.1,6-0.2c2.2-6.1,5-15.3,6.6-22.4
		l-2.2-0.6l0.8-2.2h9c-0.9,2.8-6.6,17-11,25c5.6-0.4,11.8-1.2,17.1-2c-1.8-3.9-4-7.9-5.8-10.2l2.4-1.4c5.3,4.6,10.7,13,12.3,16.4
		L267,37.1z"/>
	<path d="M293.9,34c10.4-1.1,14.2-7.7,14.2-14.6c0-5.8-3.6-11.5-11.7-11.5c-11.5,0-14.2,9.3-14.2,13.5c0,3.5,1.9,6.2,4.1,7.4
		c0,0,5.7-7.7,6.7-16.1l-2.2-1l0.8-1.7l3.4,0.2l3.6,0.2c-0.6,10.8-9.4,23.8-9.8,24.3c-5.2-0.8-10.8-5.7-10.8-12.7
		c0-7.3,6.3-17.4,18.7-17.4c8.6,0,17,5.3,17,15c0,7-3.9,15.8-18.7,17.2L293.9,34z"/>
	<path class="st0" d="M321.3,33.8c13.2-2.4,20.8-13,22.7-23.5h-22.8L320,7h25.4l0.8-0.8c-0.1-0.4-0.2-0.8-0.2-1.3
		c0-2.7,2.2-4.9,4.9-4.9s4.8,2.2,4.8,4.9c0,2.6-2,4.7-4.6,4.8c-0.2,0.2-0.3,0.4-0.3,0.6c-2.1,13.2-12.6,24.3-27.6,26.6L321.3,33.8z
		 M350.8,2.2c-1.5,0-2.6,1.2-2.6,2.7c0,1.5,1.2,2.6,2.6,2.6s2.6-1.1,2.6-2.6C353.4,3.4,352.2,2.2,350.8,2.2z"/>
	<path class="st0" d="M387.6,36.6v-3.1h-18v3.1h-5.4V9.7l-2.1-0.6l0.8-2.2h6.6v1.3h18.3l1.4-1.5l5.1,2.1l-1.3,1.5v26.2H387.6z
		 M387.6,11.6h-18V30h18V11.6z"/>
	<path d="M405,33.8c13.2-2.4,20.8-13,22.7-23.5h-22.8L403.7,7H429l1.5-1.5l5.9,2.4c0,0-1.9,1.6-2,2.4c-2.1,13.2-12.6,24.3-27.6,26.6
		L405,33.8z"/>
	<path d="M468.1,35.7h-23.7l-1.1-3h11.2V18.5h-8.1l-1.1-2.9h18.1l2.3-1.9l3.1,2.5l-2.8,2.3h-6.8v14.2h6.2l2.3-1.9l3.2,2.5
		L468.1,35.7z"/>
	<path d="M484.2,25.8c0-0.1,0-0.2,0-0.2c0-3.6-1.8-7.9-2.7-9.7l2.3-1c1.7,1.9,4.6,6.1,5.2,8L484.2,25.8z M483.4,34.8
		c11.9-3.1,16-9.7,17.2-18.4l-2-0.6l0.8-2h6.4c-1,11.4-6.2,20.6-21.1,23.6L483.4,34.8z M491.5,24.4c0-4.4-1.8-8.4-2.8-10.2l2.3-1
		c1.7,1.9,4.7,5.8,5.4,8.2L491.5,24.4z"/>
	<path d="M526.4,23.1c-2.6-3.4-7.9-5.9-10.3-6.8l1.5-2.5c3.2,0.4,9,1.9,11.6,3.5L526.4,23.1z M518.4,30.7l2-1.5l3.2,1.9
		c11.2-2.7,20.2-11.4,24.4-20.2l3.2,1.7C547,22.8,538.7,33.1,523.2,37L518.4,30.7z M531,13.8c-2.6-3.4-7.8-5.9-10.2-6.8l1.4-2.6
		c3.2,0.4,9.1,2,11.6,3.5L531,13.8z"/>
	<path d="M579.2,37.3v-1.4H562l-1.1-3.1h18.3v-6.4H563l-1.1-3.1h17.3v-5.4h-16.8l-1.1-3.1h18.8l1-1l4,1.7l-1.4,1.6v20.2H579.2z"/>
	<path d="M628.1,17.2h-11.3c-0.2,11.9-7.6,17.7-18.1,20.5l-1.8-2.9c8.3-2.6,13.7-7.2,14.2-17.6H596l-1.2-3.3h16.3c0-2-0.1-4.8-0.1-7
		l-2.6-0.8l0.8-2.2h7.6c0,1.3,0,6.5-0.1,10h8.3l2.4-2.1l3.5,2.7L628.1,17.2z"/>
	<path d="M632.8,35.4c8.6-5.2,9.6-14.4,9.6-23.3c0-0.2,0-0.4,0-0.5V9l-2.3-0.7l0.8-2.2h6.5V12c0,11-2.3,20.9-12.6,25.6L632.8,35.4z
		 M651.7,8.5l-2.2-0.6l0.8-2.2h6.4V29c3-0.8,8.4-4.8,10.7-12.1l3,1.3c-4,16.3-17.7,17.7-18.3,17.7c-0.4,0-0.4,0-0.4-0.8V8.5z"/>
	<path d="M714.4,35.1c0,0-2.6,0.9-3.9,3c-2.5,0.1-5.2,0.2-7.6,0.2c-10.2,0-15.5-1.2-18-7.1c-1.4,2.8-3.2,5.6-4.9,7.4l-4.4-4.6
		c2-1,4.2-2.5,6.2-4.2v-9.4h-4l-1.2-3.1h5.5l1.2-1.3l4.4,2l-1.1,1.3v9.5c1.5,3.4,4.5,5,12.2,5c4.2,0,10.3-0.4,16-1L714.4,35.1z
		 M682.3,13.6c-0.8-3-2.4-6.7-4.2-9.1l2.1-1.6c2.4,1.6,5.1,4.1,7.1,6.4L682.3,13.6z M710.7,29.2h-8.2v3.5h-4.8v-3.5h-8.6l-1.1-2.8
		h9.7v-2h-6.8l-1.1-2.6h7.9v-2h-8.2l-1.1-2.7h6.5c-0.6-1.3-1.4-2.3-2.4-3.4l1.2-0.8h-5l-1.1-2.8h10.2V7.7h-7.9l-1.1-2.8h9V1.6h4.8
		v3.2h3.9l2.4-1.7l3.1,2.5l-3,2h-6.4V10h5.6l2.4-1.7l3,2.6l-2.8,2H704l4.1,1.4c-1.3,1-2.7,2-4.2,2.8h3.6l2.4-1.7l3.1,2.5l-3,1.9
		h-7.5v2h3.6l2.4-1.7l3.1,2.4l-3,1.9h-6.1v2h5.6l2.4-1.7l3,2.6L710.7,29.2z M695.1,12.8c1.4,0.6,3.1,1.5,4.4,2.5l-2.9,1.7h4
		c1-1.2,2-2.7,2.6-4.2H695.1z"/>
	<path d="M732.6,31.8c1.6,0.6,3,0.9,4.3,0.9c2.7,0,5.9-1.6,5.9-12.1c0-6.3-1.9-6.4-5.1-6.4c-0.6,0-1.4,0-2.3,0
		c-2.3,7.8-5.2,15.9-8.6,22.5l-5.7-0.9c3.6-6.2,6.7-13.9,9-21.4c-3.4,0.1-6.6,0.2-7.2,0.2l-0.8-3.4c0.8,0,4.9-0.2,8.9-0.3
		c0.4-1.6,0.8-3.2,1.2-4.8l-2.3-0.7l0.9-1.9h7.4c-0.6,2.3-1.2,4.8-2,7.2c1.4,0,2.4,0,3.1,0c6.5,0,8.4,3.4,8.4,10.6
		c0,4.1-0.7,8.4-1.9,10.8c-1.4,3.1-4.2,4.4-7.2,4.4c-2.3,0-4.8-0.7-7-2L732.6,31.8z M753,23.5c0-4.4-3.6-11.5-6.7-14.7l2.6-1.4
		c3.7,2.6,8.9,8.9,9.9,12.6L753,23.5z M752.5,8.9c-1.4-1.7-3.6-3.8-5.3-4.8l1.7-1.6c1.5,0.5,4.6,2.1,6,3.2L752.5,8.9z M756.9,6
		c-1.4-1.6-3.5-3.4-5.2-4.4l1.6-1.5c1.4,0.3,4.4,1.4,5.8,2.5L756.9,6z"/>
	<path d="M775.2,37c7-4.3,8.2-9.3,8.3-16.7c-1.1,3-2.6,6.1-4.3,8.5l-3.8-3.5c2.5-1.9,4.7-4.6,6.3-7.2l1.8,0.9v-4.6l-3.9,2.4
		c-0.2-1.9-0.5-4-1-5.9l-1.9,2h-2.4v5.8c1.3-0.5,2.6-1.1,3.9-1.7l0.5,2.4c-1.3,0.9-2.8,1.9-4.4,2.8v9l0.1,3v0.4
		c0,1.2-0.4,3.4-4.5,4.1c-1.2-2-2.6-2.6-4.5-2.9v-2.2c1.1,0.1,2,0.2,2.6,0.2c1.4,0,1.8-0.4,1.8-1.2v-8c-1.2,0.6-2.4,1.1-3.6,1.6
		l-2-4.4c1.9-0.4,3.7-0.9,5.6-1.5v-7.4h-3.6L765,9.8h4.7V1.7h4.5v8.2h0.3l1.6-1.6l2.2,2c-0.3-1.2-0.7-2.3-1.2-3.3l2.1-1
		c1.8,2.2,3.1,4.6,4.1,6.8c0-3.7,0-8.5-0.1-10.9h4.4v15.7c0,11.4-1.6,16.6-10.6,21.4L775.2,37z M801.6,29.1c0,0.8,0,1.5,0,2.2
		c0,2.4,0.2,3.5,0.8,4.5c-0.8,2.2-3,2.6-7.2,2.6c-3.7,0-5.5-0.4-5.5-4.8V1.8h4.4v12.6c1.2-2.8,2-6.1,2.4-8.9l4.9,1.6
		c-1.5,3.2-3.1,6.2-5.2,8.6l-2-1V19l1.7-1.1c2.1,2,4.3,4.6,5.7,6.9l-4.4,3.7c-0.6-3-1.6-6.4-3-8.8v13c0,1.3,0.4,1.4,2,1.4
		c2,0,2.6-0.2,2.9-5.2L801.6,29.1z"/>
	<path d="M838.4,21c1.4,2.6,2.2,5.4,2.2,7.8c0,4-2.2,7.3-7.6,8.5c-2,0.4-4.3,0.7-6.7,0.7c-6.5,0-12.5-2.1-12.5-6.5
		c0-1,0.3-2,0.8-3.2c-2.1-0.2-5.4-1.7-5.4-6.4c0-4.8,3.1-7.5,6.3-7.5c0.8,0,1.6,0.2,2.2,0.5l0-3.2H811l-1.1-3.2h7.9V6.2L815,5.4
		l0.8-2.2h7c0,1.4-0.1,3.2-0.2,5.2h2.5l2.7-2l3.1,2.8l-3,2.4h-5.3c-0.2,3.5-0.4,7.1-0.4,9.6c0,4.3-3.3,7.3-3.3,9.4
		c0,2.7,7.4,2.9,7.4,2.9c10.1,0,10.1-4.9,10.1-6.1c0-1.7-0.6-3.6-1.3-5.5L838.4,21z M817.2,21.2c0-1.4-0.2-4-2.1-4
		c-0.2,0-2.4,0-2.4,4.2c0,2.1,0.9,3.6,2.4,3.6C816.8,25,817.2,22.9,817.2,21.2z M841.2,18.6c-2.6-3.7-6.4-6-9-7.2l1.3-2.4
		c4.2,0.4,9.3,2.4,11,4.2L841.2,18.6z"/>
	<path d="M80.5,94.6c0-2.9,0.3-6.8,0.5-9.2c-1.9,2.8-4.4,5.2-7.1,7.3L72,91c3-2.9,5.6-7,7-10.8h-4.9L73,77.4h7.8v-2.8h-7.1l-1.1-3
		h12L83,70.9c1.1-1.7,1.8-4,2.1-6l5.4,1.4c-1.5,2-3.4,4-5.2,5.3h2.8l2.1-1.7l3.2,2.2l-2.8,2.5h-5.3v2.8h2.4l2.2-1.8l3,2.5l-2.8,2.2
		h-4.8V81c2.2,0.8,4.9,2.2,6.4,3.6l-3.2,4.2c-0.8-2.1-2-3.9-3.2-5.2v11H80.5z M90.3,64.6h-16l-1.1-2.9h7.2v-4.1h5.2v4.1h2l2.2-1.8
		l3.3,2.4L90.3,64.6z M78.1,71.4c-0.2-1.9-1-4.1-1.8-5.6l2.2-1c1.6,1.2,3.2,2.9,4.4,4.4L78.1,71.4z M101.5,94.6V73h-2.8
		c-0.2,9.1-1.5,15.9-8,21.6l-2.4-1.4C93.6,86.7,94,80,94,72.6v-2c0-3.5-0.2-7.4-0.3-9.4l3.7,0.8c3.3-0.9,6.2-2.6,8.6-4.3l3.5,4.6
		c-3.2,1.1-7.1,1.8-10.7,2.2v5.2h6.6l2.2-1.8l3.2,2.6l-3,2.4h-1.5v21.6H101.5z"/>
	<path d="M151.3,84.6c-0.1,1.2-0.2,2.2-0.2,3c0,1.7,0.2,2.9,0.8,3.8c-0.4,1.5-2.8,2.4-3.9,2.5c-1.4,0.2-3,0.2-4.5,0.2
		c-1.6,0-3.1-0.1-4.6-0.2c-2.2-0.2-3.5-2.2-3.5-4.4l0-7H131c-1,6.2-4.2,10.2-13.5,12.1l-1.6-2.2c6.1-2,9.2-4.6,10.3-10h-8.4l-1.2-3
		h9.9c0-0.3,0-0.6,0-1v-4.5H125l-0.4-0.9c-2.5,2.1-5.4,3.9-8.4,5.2l-1.9-1.9c6.7-3.4,11.5-9.5,13.4-14h-8.8l-1.2-2.9h11.2l1.2-1.2
		l3.4,1.8c-0.2-0.6-0.5-1.2-0.7-1.9l2.7-0.9c0.8,1.9,1.8,3.7,2.9,5.4c1.5-1.5,3-3.7,3.7-5.3l4.8,2.8c-2.2,1.7-4.8,3.4-7.1,4.4
		c0.8,1,1.8,1.9,2.8,2.8c1.9-1.5,3.7-3.8,4.6-5.7l4.9,2.9c-2.3,1.8-5,3.4-7.4,4.4c2.4,1.6,5.2,2.8,8.6,3.7l-0.8,2c0,0-2.9,0-5,1.8
		c-1.7-0.9-3.3-2-4.8-3.2l-1,0.8h-1l0,5.4h4.5l2.6-1.8l3.3,2.5l-3.2,2.3h-7.2l0,5.8c0,1.6,1,1.6,2.7,1.6c3.8,0,4.8-0.2,5.2-5.8
		L151.3,84.6z M121,70.6c-1.2-2.5-3-4.6-4.6-5.8l1.4-1.7c2,0.5,4.9,1.7,6.7,2.8L121,70.6z M139.6,70.6c-2.3-2.6-4.2-5.7-5.7-9.2
		c-0.4,0.4-0.8,0.8-0.8,0.9c-1.4,3.2-3.6,6.3-6.3,9h12L139.6,70.6z M135.6,74.2h-4.3c0,1.4,0,3.4,0,4.3c0,0.4,0,0.8,0,1.2h4.3
		L135.6,74.2z"/>
	<path d="M158.1,89.2c2.6-1.2,5.7-4.4,6.8-6.4l2.5,1.2c-0.8,3.3-2.7,6.9-4.9,9.4L158.1,89.2z M166.6,80.7c0-2.8,0.2-6.5,0.4-9.2
		c-1.7,2.9-4,5.5-6.5,7.7l-2-1.4c3-3.4,5.5-7.6,6.9-11.5h-4.6l-1.1-3h7.2v-5.4h4.3v5.4h0.9l2.2-1.7l3,2.6l-2.6,2.2h-3.5v1.4
		c2.2,1.1,4.4,2.6,5.8,4.1l-3.2,4c-0.6-1.9-1.5-3.8-2.7-5.5v10.5H166.6z M187.1,86c0,0.5,0,1,0,1.4c0,3,0.9,3.6,1.4,4.4
		c-0.6,1-1.7,2.7-10.4,2.7c-6,0-9.5-0.6-9.5-4.2v-0.1l0.1-8.1h4.7l-0.1,6.7c0,1.6,2.4,1.6,4.8,1.6c1,0,2,0,3.1-0.2
		c2.8-0.4,2.4-1.8,2.8-4.4L187.1,86z M180.3,88.3c-1.4-2.4-3.8-4.4-5.9-5.7l1.6-2c2.3,0.5,5.7,2.1,7.6,3.4L180.3,88.3z M188.6,80.7
		v-1.3h-6.9v1.1h-4.3V58.2l4.6,1.4h6.8l1.5-1.5l3.9,2l-1.2,1.4v19.2H188.6z M188.6,62.3h-6.9v2.8h6.9V62.3z M188.6,67.9h-6.9v2.8
		h6.9V67.9z M188.6,73.5h-6.9v3h6.9V73.5z M192.2,92.3c-1.2-3.1-4-6.7-6-8.4l2-1.7c3,1.2,6.4,3.8,8.4,6.1L192.2,92.3z"/>
	<path class="st0" d="M204.6,89.8c13.2-2.4,20.8-13,22.7-23.5h-22.8l-1.2-3.4h25.4l0.8-0.8c-0.1-0.4-0.2-0.8-0.2-1.3
		c0-2.7,2.2-4.9,4.9-4.9s4.8,2.2,4.8,4.9c0,2.6-2,4.7-4.6,4.8c-0.2,0.2-0.3,0.4-0.3,0.6c-2.1,13.2-12.6,24.3-27.6,26.6L204.6,89.8z
		 M234,58.2c-1.5,0-2.6,1.2-2.6,2.7c0,1.5,1.2,2.6,2.6,2.6c1.5,0,2.6-1.1,2.6-2.6C236.7,59.4,235.5,58.2,234,58.2z"/>
	<path class="st0" d="M270.9,92.6v-3.1h-18v3.1h-5.4V65.7l-2.1-0.6l0.8-2.2h6.6v1.3h18.3l1.4-1.5l5.1,2.1l-1.3,1.5v26.2H270.9z
		 M270.9,67.6h-18V86h18V67.6z"/>
	<path d="M295.8,79.1c-2.6-3.4-7.9-5.9-10.3-6.8l1.5-2.5c3.2,0.4,9,1.9,11.6,3.5L295.8,79.1z M287.7,86.7l2-1.5l3.2,1.9
		C304,84.4,313,75.7,317.2,67l3.2,1.7C316.3,78.8,308,89.1,292.5,93L287.7,86.7z M300.4,69.8c-2.6-3.4-7.8-5.9-10.2-6.8l1.4-2.6
		c3.2,0.4,9.1,2,11.6,3.5L300.4,69.8z M315,66.5c-1-2-3-4.7-4.6-6l2-1.3c1.6,0.8,4.5,2.8,5.7,4.4L315,66.5z M320,63.9
		c-1.2-1.9-3-4.1-4.5-5.4l1.9-1.2c1.4,0.6,4.4,2.3,5.6,3.6L320,63.9z"/>
	<path d="M353.2,91.7h-23.7l-1.1-3h11.2V74.5h-8.1l-1.1-2.9h18.1l2.3-1.9l3.1,2.5l-2.8,2.3h-6.8v14.2h6.2l2.3-1.9l3.2,2.5
		L353.2,91.7z"/>
	<path d="M365.9,90.6c12.6-2.6,21.4-12.2,24.1-23.6h-11.2c-3.2,5-7.5,9.6-13.5,12.8l-2-2.4c5.6-4,9.4-10,11.5-15l-2-0.6l1.2-2.2h8.7
		c-0.6,1.4-1.3,2.8-2,4.1h10.9l1.3-1.4c1.4,0.4,5.2,2,5.2,2c-0.6,0.7-1.6,1.5-1.7,2c-3.6,15.7-14.5,24.8-28.8,27.4L365.9,90.6z"/>
	<path d="M432.9,83.1c-5.2-4.8-12-7.4-17.4-8.6v18.8H410v-30l-2.6-0.8l0.8-2.2h7.2v11c7.2,0.5,16,2.7,19.4,4.4L432.9,83.1z"/>
	<path d="M449.5,90.2c0-2,1.7-3.8,3.6-3.8c2,0,3.7,1.8,3.7,3.8c0,2.1-1.8,3.9-3.7,3.9C451.2,94.2,449.5,92.3,449.5,90.2z
		 M451.4,83.6l-1.2-13.7V59.4h5.8v10.4l-1.2,13.8H451.4z"/>
	<path d="M484.2,91.5V57.4h11.4v3h-8v31.1H484.2z"/>
	<path class="st0" d="M531.4,68.9c0.4-1.3,0.8-2.8,1-4h-22.7c-0.2,4-1.8,6.2-1.8,6.2l-5.7-2.6c0,0,4-3.1,4-7.8v-0.4l3.2,0
		c0.1,0.4,0.2,0.9,0.2,1.3h8.6v-4h5.5v4h10l2-1.8l4.6,3l-1.7,1.4l-3.7,5.3L531.4,68.9z M536.6,93.4h-32.5l-1.2-3.3h15.4v-6h-11.4
		l-1.2-3.3h25l2.8-2.4l3.5,3l-3.2,2.7h-10v6h9.7l2.8-2.4l3.5,3L536.6,93.4z M503.4,77c7.6-2.1,10.2-5.2,10.8-10.8l5.4,0.7
		c-1.1,6.5-4.8,11.1-14.3,12.6L503.4,77z M537,70.2c0,0.5,0,0.9,0,1.3c0,1.8,0.4,2.5,1.2,3.4c-0.5,1.4-2.3,2.3-3.4,2.5
		c-1.3,0.2-3.2,0.3-5.1,0.3c-4,0-7.3,0-7.3-4.2v-0.1l0.1-6.9h4.8l-0.1,6c0,1.2,0.8,1.3,2.6,1.3c2.9,0,4,0,4.3-3.8L537,70.2z"/>
	<path class="st0" d="M549,89.8c13.2-2.4,20.8-13,22.7-23.5h-22.8l-1.2-3.4h25.4l0.8-0.8c-0.1-0.4-0.2-0.8-0.2-1.3
		c0-2.7,2.2-4.9,4.9-4.9s4.8,2.2,4.8,4.9c0,2.6-2,4.7-4.6,4.8c-0.2,0.2-0.3,0.4-0.3,0.6c-2.1,13.2-12.6,24.3-27.6,26.6L549,89.8z
		 M578.5,58.2c-1.5,0-2.6,1.2-2.6,2.7c0,1.5,1.2,2.6,2.6,2.6s2.6-1.1,2.6-2.6C581.1,59.4,580,58.2,578.5,58.2z"/>
	<path class="st0" d="M615.3,92.6v-3.1h-18v3.1h-5.4V65.7l-2.1-0.6l0.8-2.2h6.6v1.3h18.3l1.4-1.5l5.1,2.1l-1.3,1.5v26.2H615.3z
		 M615.3,67.6h-18V86h18V67.6z"/>
	<path d="M631.9,94.4v-3h8V60.2h3.3v34.1H631.9z"/>
	<path d="M669.5,90.4c-0.8-1.4-1.7-2.8-2.8-4c-2,3-4.9,5.4-8.8,7.8l-2.2-2c3.8-2.4,6.3-5.2,8-8.6c-0.7-0.6-1.4-1-2.2-1.4l-0.3,1.2
		l-4.4-0.2c1-4.7,2-10,2.8-15.2h-3.2l-0.9-3.2h4.5c0.3-2.4,0.6-4.8,0.8-7h4.7c-0.2,2.2-0.6,4.6-0.9,7h2.8l0.9-1l4.4,1.9l-1,1.4
		c-0.4,6.5-1.1,11.4-2.8,15.3c1.6,0.9,3.1,1.9,4.2,3L669.5,90.4z M664,68c-0.6,3.9-1.3,7.9-2.1,11.6c0.9,0.2,1.9,0.6,2.9,1
		c1.2-3.5,1.6-7.6,2-12.6H664z M688.3,76.1c-0.2-1.2-0.6-2.5-1-3.8c-4.6,1.4-10.1,2.6-14.4,3.3l-1.6-4.8c1.1,0,2.1,0,3.2-0.1
		c1.6-4.2,2.7-9,3.1-13.1l6.2,1.2c-1.8,4.4-4.1,8.4-6.4,11.8c3.1-0.2,6-0.5,8.9-0.9c-0.8-1.8-1.7-3.5-2.7-5l2.3-1.3
		c2.7,2.4,5.7,6,7.6,9.3L688.3,76.1z M685.8,94.4v-1.8h-7.5v2h-4.6V77.1l5,1.4h7.7l1.3-1.3l4.1,1.9l-1.3,1.4v14H685.8z M685.8,81.4
		h-7.5v8.2h7.5V81.4z"/>
	<path d="M722.6,89.6c1.3,0.2,2.3,0.4,3.2,0.4c3.2,0,4.6-1,4.6-17.1c0-1.1,0-2.1,0-3.1h-2.8c-0.4,9.4-1.9,18.1-9.8,25l-2.2-1.3
		c0.8-0.9,1.6-1.9,2.3-2.9c-4.5,1.3-13.8,3.1-17.6,3.6l-1.8-4.6c2.9,0,6.1-0.2,9.2-0.5v-2.4H700l-1-2.6h8.6v-2.6h-2.8v1.2h-4V68
		l4.4,0.9h2.4V67h-7.9l-1-2.6h8.8v-1.8c-2.4,0.2-4.8,0.2-7,0.3l-0.7-2.4c5.2-0.4,11.8-1.5,15.5-2.9l2.9,4.1c-2,0.2-4.2,0.5-6.6,0.7
		v2.1h3.5l2.2-1.6l2.8,2.3l-2.7,2h-5.8v1.9h3.3l1.1-1l3.5,1.8l-1.2,1.1v11.4h-3.9v-0.8h-2.8v2.6h3l2.2-1.6l2.8,2.3l-2.7,2h-5.3v2
		c2.5-0.3,4.9-0.6,7.1-1l0,1.1c2.9-5.4,3.9-12,4.1-18.8h-2.8l-1.1-3.2h4c0-6.7-0.2-8.8-0.2-9.1l4.9,0c0,1.2-0.1,4.1-0.1,5.6
		c0,1.2,0,2.4,0,3.5h3.1l1-1.1l4.4,1.9l-1.2,1.5c0,1.4,0,3.2,0,5c0,13.2-0.5,20.4-8.3,20.6c-0.9-1.3-2.4-2.1-4.3-2.6L722.6,89.6z
		 M707.8,71.3h-2.9v2.3h2.9V71.3z M707.8,76h-2.9v2.8h2.9V76z M714.7,71.3h-3v2.3h3V71.3z M714.7,76h-3v2.8h3V76z"/>
	<path d="M749.5,90.2c0-2,1.7-3.8,3.6-3.8c2,0,3.7,1.8,3.7,3.8c0,2.1-1.8,3.9-3.7,3.9C751.2,94.2,749.5,92.3,749.5,90.2z
		 M751.4,83.6l-1.2-13.7V59.4h5.8v10.4l-1.2,13.8H751.4z"/>
</g>
</svg>
