<?xml version="1.0" encoding="utf-8"?>
<!-- Generator: Adobe Illustrator 24.0.3, SVG Export Plug-In . SVG Version: 6.00 Build 0)  -->
<svg version="1.1" id="レイヤー_1" xmlns="http://www.w3.org/2000/svg" xmlns:xlink="http://www.w3.org/1999/xlink" x="0px"
	 y="0px" viewBox="0 0 762.1 66.1" style="enable-background:new 0 0 762.1 66.1;" xml:space="preserve">
<style type="text/css">
	.st0{stroke:#FFFFFF;stroke-width:7;stroke-linecap:round;stroke-linejoin:round;stroke-miterlimit:10;}
	.st1{fill:#0071BB;}
</style>
<g>
	<path class="st0" d="M14.1,16.2c-0.1,0-0.1,0-1.7,0.1c-2.3,0.1-3.3,0.2-3.7,0.3l-0.3-2.1c0.5,0,0.6,0,1,0c0.8,0,1.3,0,1.7,0
		c0.5-0.7,0.7-1.2,1.1-1.8H8c-0.2,2.8-0.3,4.4-0.7,6.3c-0.4,2-0.9,3.2-1.8,4.9c-0.6-0.8-1.1-1.3-2-2c0.8-1.4,1.3-2.5,1.6-4.3
		c0.5-2.4,0.7-5.6,0.7-10.8c0-1.1,0-1.8-0.1-2.5c0.8,0.1,1.5,0.1,2.9,0.1h12.1c1.1,0,1.7,0,2.4-0.1C23,4.9,23,5.2,23,6v2.1
		c0,0.7,0,1,0.1,1.6c-0.8,0-1.4-0.1-2.4-0.1H8.1l0,1.2h12.9c1.4,0,1.9,0,2.6-0.1v2.1c-0.7-0.1-1.2-0.1-2.3-0.1h-1.4
		c0.8,0.8,1.8,1.8,3.3,3.4l-2,1.1l-1.1-1.4c-1.2,0.1-1.2,0.1-3.5,0.3v1.8h3.9c1.4,0,1.7,0,2.2-0.1v2.1c-0.7-0.1-1.3-0.1-2.2-0.1
		h-3.9v1.6h4.8c1.5,0,2.1,0,2.7-0.1v2.2c-0.7-0.1-1.5-0.1-2.9-0.1H9.8c-1.3,0-2.1,0-2.8,0.1v-2.2c0.5,0.1,1.2,0.1,2.6,0.1h4.5v-1.6
		h-3.3c-1,0-1.6,0-2.3,0.1v-2.1c0.6,0.1,1,0.1,2.3,0.1h3.2V16.2z M20.7,7.7V6.3H8.1v1.4H20.7z M14.5,12.7c-0.4,0.8-0.7,1.2-1.1,1.8
		c1.8-0.1,2.9-0.1,3.3-0.1c0.2,0,0.7,0,1.7-0.1c-0.4-0.4-0.6-0.6-1.2-1.1l1-0.5H14.5z"/>
	<path class="st0" d="M31.5,9.9c0.2,0.5,0.4,0.9,0.9,1.7c0.5,0.9,0.9,1.4,1.8,2.3c-0.6,0.6-1,1.1-1.4,1.8c-0.7-1-1-1.6-1.5-2.8
		c0.1,0.7,0.1,1.8,0.1,3.2v5.3c0,1.1,0,2,0.1,2.7h-2.6c0.1-0.7,0.1-1.6,0.1-2.7v-4c0-0.9,0-1.8,0.1-3.1c-0.6,1.8-1.3,3.2-2.3,4.6
		c-0.6-1.3-0.6-1.3-1.3-2.1c1.5-1.8,2.6-4.2,3.3-6.8h-1.1c-0.5,0-1,0-1.5,0.1V7.7c0.4,0.1,0.8,0.1,1.5,0.1H29V5.9
		c0-1.2,0-1.7-0.1-2.3h2.5c-0.1,0.6-0.1,1.2-0.1,2.3v1.8h0.9c0.6,0,1,0,1.3-0.1V10c-0.5-0.1-0.9-0.1-1.3-0.1H31.5z M45.9,16
		c-1.2,1.1-2.3,1.9-3.4,2.6c1.2,1.4,2.2,2.2,4,3.1c-0.8,0.8-1.2,1.4-1.7,2.2c-1.6-1.1-2-1.4-2.9-2.4c-1.9-2-3-4.1-3.7-7.1h-1.6v6.3
		c1.8-0.4,2.2-0.5,3.6-0.9l0.1,2.1c-3.5,1.1-4.3,1.3-6.4,1.8c-0.7,0.1-0.8,0.2-1.2,0.3l-0.4-2.5c0.6,0,1.1-0.1,2-0.3V6.8
		c0-1,0-1.6-0.1-2.3c0.7,0.1,1.3,0.1,2.3,0.1h5.9c1.1,0,1.8,0,2.3-0.1c-0.1,0.6-0.1,1.1-0.1,2.4v5.2c0,1.3,0,1.7,0.1,2.3
		c-0.3,0-0.3,0-0.5,0L45.9,16z M42.3,8.6V6.7h-5.7v1.9H42.3z M36.7,12.4h5.7v-1.9h-5.7V12.4z M40.5,14.4c0.3,1.1,0.4,1.4,0.9,2.4
		c1-0.6,1.9-1.4,2.8-2.4c-0.5,0-0.8,0-1.4,0H40.5z"/>
	<path class="st0" d="M60.6,13.8c0,1.5-1.2,2.6-2.6,2.6s-2.6-1.2-2.6-2.6c0-1.5,1.2-2.6,2.6-2.6S60.6,12.4,60.6,13.8z"/>
	<path class="st0" d="M75.1,11.6c1,0.8,1.7,1.4,2.4,2.2c0.7-1.6,1-2.9,1.4-5.2h-3.2c-1,2.6-2.3,4.7-4.2,6.8c-0.4-1-0.7-1.3-1.5-2.1
		c1.8-1.8,3.1-4.1,4-6.8c0.3-0.9,0.6-2.2,0.6-2.9L77.2,4c-0.2,0.4-0.2,0.7-0.4,1.3c-0.2,0.5-0.2,0.8-0.4,1.2h3.2
		c0.8,0,1.3,0,1.8-0.1C81.3,7,81.3,7,81.2,8c0.6,1.3,1,1.9,2.2,3.2V6.3c0-1.1,0-1.7-0.2-2.5h2.7c-0.1,0.8-0.2,1.4-0.2,2.5v7.2
		c0.6,0.4,1,0.7,2.1,1.3c1.6,0.9,1.9,1.1,3,1.5c-0.5,0.7-0.9,1.5-1.3,2.4c-1.8-0.9-2.5-1.4-3.8-2.3v4.8c0,1.3,0,2,0.2,2.9h-2.7
		c0.1-0.9,0.2-1.7,0.2-2.9v-6.8c-1.3-1.3-1.9-2-2.6-3.2c-0.6,2.9-1.6,5.3-3,7.3c-1.3,2-3.2,3.9-5.5,5.5c-0.5-0.9-1.1-1.5-1.7-2
		c1.1-0.7,1.5-1,2.6-1.9c1.6-1.5,2.4-2.5,3.3-4c-0.8-1-1.6-1.7-2.7-2.6L75.1,11.6z"/>
	<path class="st0" d="M100.9,17.4c0-0.5,0-0.9-0.1-1.2c-0.7,0-0.7,0-1.1,0H97c-0.9,0-1.3,0-1.9,0.1c0-0.5,0.1-0.9,0.1-1.8v-1.7
		c0-0.4,0-0.6,0-0.9c-0.4,1.8-0.9,3.1-1.9,4.4c-0.5-0.8-0.9-1.4-1.6-1.9c1.3-1.7,1.8-4,1.8-8.3c0-0.8,0-1.2-0.1-1.7
		c0.5,0,1.1,0.1,2,0.1h4.1c0.8,0,1.5,0,1.9-0.1c-0.1,0.4-0.1,0.9-0.1,1.7v2c0,0.9,0,1.3,0,1.7c-0.3,0-0.9,0-1.7,0h-4.2
		c-0.1,0.8-0.1,0.8-0.1,1.2c0.4,0,0.7,0,1.3,0h2.9c1.1,0,1.5,0,1.9-0.1c0,0.5,0,0.7,0,1.8v2c0,0.9,0,1.2,0,1.5h2
		c-0.1,0.4-0.1,0.7-0.1,1.3v0.2h4.6c1.2,0,1.6,0,2.3-0.1v2.2c-0.7-0.1-1.2-0.1-2.3-0.1h-4.6v1.8h6c1.2,0,1.9,0,2.5-0.1v2.3
		c-0.8-0.1-1.6-0.1-2.7-0.1H94.8c-1.1,0-1.9,0-2.7,0.1v-2.3c0.7,0.1,1.4,0.1,2.6,0.1h6.1v-1.8h-4.5c-1,0-1.5,0-2.3,0.1v-2.2
		c0.6,0.1,1.1,0.1,2.3,0.1h4.5V17.4z M99.1,7.8V6.2h-3.5v0.5c0,0.4,0,0.6-0.1,1.1H99.1z M97,14.3h2.4v-1.8H97V14.3z M105.5,5
		c0-0.6,0-0.9-0.1-1.3h2.4c-0.1,0.3-0.1,0.7-0.1,1.3v0.2h1.7c0.8,0,1.5,0,2-0.1v2.1c-0.4-0.1-0.6-0.1-1.3-0.1
		c-0.4,1.1-0.5,1.6-0.9,2.2h0.9c0.8,0,1.3,0,1.8-0.1v2.1c-0.6-0.1-1-0.1-1.9-0.1h-2.3v1.5h1.9c0.9,0,1.1,0,1.7-0.1v2.1
		c-0.6-0.1-0.9-0.1-1.7-0.1h-1.9v0.2c0,0.9,0,1.4,0.1,1.9h-2.5c0.1-0.6,0.1-1.1,0.1-1.9v-0.2h-1.6c-0.7,0-1.1,0-1.7,0.1v-2.1
		c0.6,0.1,0.9,0.1,1.7,0.1h1.6v-1.5h-2c-0.7,0-1.3,0-1.8,0.1V9.2c0.5,0.1,0.9,0.1,1.7,0.1h0.6c-0.2-0.7-0.4-1.2-0.9-2.2
		c-0.5,0-0.7,0-1.1,0.1V5.1c0.5,0.1,1.2,0.1,2,0.1h1.5V5z M107.3,9.3c0.3-0.8,0.5-1.3,0.7-2.2h-2.7c0.4,0.9,0.6,1.4,0.8,2.2H107.3z"
		/>
	<path class="st0" d="M126.6,13.8c0,1.5-1.2,2.6-2.6,2.6s-2.6-1.2-2.6-2.6c0-1.5,1.2-2.6,2.6-2.6S126.6,12.4,126.6,13.8z"/>
	<path class="st0" d="M138.8,6.8c-1.3,0-1.9,0-2.7,0.1V4.4c0.8,0.1,1.5,0.1,2.7,0.1h14.5c1.2,0,1.9,0,2.7-0.1v2.5
		c-0.9-0.1-1.6-0.1-2.7-0.1H147v1.9h6c0.9,0,1.5,0,2.1-0.1c-0.1,0.6-0.1,1.1-0.1,2v10.7c0,2-0.6,2.5-3.1,2.5c-0.7,0-1.3,0-2.1-0.1
		c-0.1-1.1-0.2-1.5-0.6-2.4c0.9,0.2,1.9,0.3,2.6,0.3c0.7,0,0.9-0.1,0.9-0.6V10.8H147v10.1c0,1.2,0,1.9,0.2,2.8h-2.6
		c0.1-0.9,0.1-1.6,0.1-2.8V10.8h-5.3v10.3c0,1.2,0,1.9,0.1,2.7h-2.6c0.1-1,0.2-1.7,0.2-2.7V10.6c0-0.8,0-1.5-0.1-2
		c0.7,0.1,1.3,0.1,2.2,0.1h5.5V6.8H138.8z M140.9,16c1.6,1.2,2,1.5,3.4,2.8l-1.5,1.8c-1.1-1.3-1.8-2-3.3-3L140.9,16z M141.3,11.4
		c1.4,1,2,1.4,3.1,2.5l-1.5,1.7c-1.1-1.2-1.9-1.8-3.2-2.7L141.3,11.4z M148.6,15.7c1.9,1.3,2.5,1.8,3.6,2.8l-1.5,1.7
		c-1.1-1.2-1.6-1.6-3.4-3L148.6,15.7z M148.8,11.4c1.5,1,2.3,1.5,3.5,2.7l-1.4,1.6c-0.8-0.9-0.9-0.9-3.5-2.9L148.8,11.4z"/>
	<path class="st0" d="M162.4,21.7c0,0.9,0,1.7,0.1,2.4h-2.4c0.1-0.7,0.1-1.7,0.1-2.7v-4c0-1.6,0.1-2.7,0.1-3.4
		c-0.6,2.3-0.9,3.1-1.7,4.6c-0.9-1.4-0.9-1.5-1.4-1.9c1.3-1.8,2.2-4.4,2.8-6.8h-0.6c-0.7,0-1.1,0-1.5,0.1V7.7
		c0.4,0.1,0.8,0.1,1.5,0.1h0.8V6c0-1.1,0-1.7-0.1-2.3h2.4c-0.1,0.6-0.1,1.3-0.1,2.3v1.8h0.5c0.5,0,0.9,0,1.3-0.1V10
		c-0.4-0.1-0.7-0.1-1.3-0.1h-0.3c0.6,1.1,1,1.6,2.1,2.6c-0.4,0.4-0.5,0.5-0.7,0.7c0.2,0,0.3,0,0.5,0h1.1c0.6,0,0.9,0,1.2-0.1
		c-0.1,0.7-0.1,1.2-0.1,2.3v4.2c0.6,1.3,2.1,1.7,6.1,1.7c2,0,3.5-0.1,5.5-0.3c-0.3,0.9-0.4,1.4-0.5,2.4c-1.3,0.1-2.7,0.1-3.7,0.1
		c-2.3,0-4.4-0.1-5.3-0.3c-1.4-0.3-2.4-0.9-3.2-1.8c-0.4,0.5-0.6,0.8-1,1.2c-0.1,0.1-0.1,0.1-0.7,0.7c-0.1,0.2-0.1,0.2-0.3,0.4
		L162.4,21.7z M162.4,21.7c0.7-0.4,1.5-1.2,2.2-2.1v-4.3h-0.5c-0.3,0-0.5,0-0.9,0.1v-1.4c-0.4-0.6-0.7-1-0.9-1.5
		c0,1.7,0.1,2.2,0.1,3v6.1V21.7z M165,4.7c1.1,1.5,1.8,2.6,2.6,4.3l-1.8,1.2c-0.7-1.8-1.5-3.1-2.6-4.5L165,4.7z M169.8,16.9v1.5
		c0,1.1,0,1.6,0.1,2h-2.2c0.1-0.5,0.1-1.2,0.1-2.2v-7.6c0-1,0-1.4-0.1-1.9c0.5,0.1,1,0.1,1.8,0.1h1.1c-0.7-0.5-0.9-0.7-1.8-1.2
		l1.4-1.2c0.9,0.6,1.2,0.8,2.1,1.5c0.9-0.6,1.2-0.9,1.8-1.6h-4.5c-1.1,0-1.6,0-2.2,0.1V4.3c0.6,0.1,1.3,0.1,2.4,0.1h4.6
		c1.2,0,1.6,0,2.1-0.1l1,1.1c-0.2,0.1-0.2,0.1-0.9,0.9c-0.7,0.8-1.9,1.8-2.6,2.3h1.2c1.1,0,1.7,0,2.2-0.1c0,0.6-0.1,1.3-0.1,2.3v7.5
		c0,1.5-0.5,1.9-2.5,1.9c-0.2,0-0.4,0-0.7,0c0-0.7-0.1-1-0.4-1.9c0.6,0.1,0.8,0.1,1.1,0.1c0.4,0,0.5-0.1,0.5-0.5v-1.3h-1.9v1.3
		c0,0.9,0,1.5,0.1,2.1h-2.1c0.1-0.5,0.1-1.3,0.1-2.3v-1.1H169.8z M169.8,10.6V12h1.8v-1.5H169.8z M171.6,13.7h-1.8v1.5h1.8V13.7z
		 M173.5,12h1.9v-1.5h-1.9V12z M175.4,15.2v-1.5h-1.9v1.5H175.4z"/>
	<path class="st0" d="M192.6,13.8c0,1.5-1.2,2.6-2.6,2.6s-2.6-1.2-2.6-2.6c0-1.5,1.2-2.6,2.6-2.6S192.6,12.4,192.6,13.8z"/>
	<path class="st0" d="M220.5,7.4c-0.2,0.4-0.3,0.5-0.4,1c-1.1,4.2-2.4,6.8-4.5,9.2c-2.2,2.4-4.5,4-8.2,5.6c-0.6-1.2-0.9-1.6-1.9-2.6
		c1.9-0.6,3.2-1.2,4.8-2.2c3.4-2.2,5.6-5.3,6.7-9.6h-10.5c-1.5,0-2,0-2.8,0.1V6c0.9,0.1,1.3,0.2,2.8,0.2h10.1c1.2,0,1.7,0,2.4-0.2
		L220.5,7.4z"/>
	<path class="st0" d="M235.2,20.2h4.5c1,0,1.4,0,2-0.1v2.5c-0.6-0.1-1.1-0.1-2-0.1h-11.3c-1,0-1.4,0-2,0.1v-2.5c0.6,0.1,1,0.1,2,0.1
		h4.3v-7.1h-2.9c-0.8,0-1.3,0-2,0.1v-2.5c0.6,0.1,1.1,0.2,2,0.2h8.6c0.9,0,1.4,0,2-0.2v2.5c-0.6-0.1-0.9-0.1-2-0.1h-3.1V20.2z"/>
	<path class="st0" d="M247.6,19.6c1.9-0.1,4.5-0.7,6.5-1.6c2.8-1.2,4.8-2.9,6.5-5.4c1-1.4,1.6-2.6,2.2-4.4c0.9,1,1.2,1.4,2.3,2.2
		c-1.9,4-4,6.6-7,8.6c-2.2,1.5-5,2.6-8.4,3.3c-0.9,0.2-0.9,0.2-1.5,0.4L247.6,19.6z M249.5,5.9c2.6,1.6,4,2.6,5.7,4.2l-1.9,2.4
		c-1.8-1.9-3.6-3.3-5.6-4.5L249.5,5.9z"/>
	<path class="st0" d="M285.4,22.9c-1.8-2.2-4.4-4.7-6.8-6.5c-2.5,2.8-5,4.7-8.4,6.4c-0.6-1.1-0.9-1.5-1.8-2.4
		c1.7-0.7,2.8-1.3,4.4-2.4c3.3-2.3,6-5.5,7.4-9l0.2-0.6c-0.4,0-0.4,0-7.3,0.1c-1.1,0-1.7,0.1-2.4,0.2l-0.1-2.8
		c0.6,0.1,1,0.1,1.9,0.1c0.1,0,0.3,0,0.5,0l7.7-0.1c1.2,0,1.4,0,2-0.2l1.5,1.5c-0.3,0.3-0.5,0.6-0.7,1.2c-1,2.4-2.1,4.3-3.4,6.1
		c1.4,0.9,2.6,1.8,4.1,3.2c0.6,0.5,0.6,0.5,3.2,3.1L285.4,22.9z"/>
	<path class="st0" d="M302.6,13.8c0,1.5-1.2,2.6-2.6,2.6s-2.6-1.2-2.6-2.6c0-1.5,1.2-2.6,2.6-2.6S302.6,12.4,302.6,13.8z"/>
	<path class="st0" d="M328.7,16.4c-0.5,0.6-1,1.2-1.5,2.1c-2.3-1.5-4.2-3.5-5.3-5.6c-0.3,0.8-0.6,1.4-1.1,2.1
		c-1,1.6-2.2,2.6-4.2,3.9c-0.3-0.6-0.8-1.2-1.4-1.8v4.3c0,1.4,0,2,0.1,2.6h-2.7c0.1-0.7,0.2-1.6,0.2-2.7V8.7c0-0.9,0-1.5-0.1-2.1
		c0.8,0.1,1.4,0.1,2.6,0.1h5.4c0-0.5,0-0.8,0-1.2c0-0.9,0-1.4-0.1-1.9h2.8c-0.1,0.4-0.1,0.6-0.1,1.1c0,0.3,0,0.3-0.1,1.2
		c0,0.5,0,0.5,0,0.8h5.6c1.2,0,1.8,0,2.5-0.1c-0.1,0.6-0.1,1.2-0.1,2.1v12.6c0,0.9-0.1,1.3-0.3,1.6c-0.5,0.6-1.3,0.8-3.3,0.8
		c-0.6,0-1.3,0-2.1-0.1c-0.2-1.1-0.3-1.7-0.7-2.5c1.1,0.2,2,0.2,2.9,0.2c1.1,0,1.2-0.1,1.2-0.7V16.4z M315.3,16.8
		c1.8-1.1,2.8-2,3.7-3.3c0.8-1.2,1.3-2.7,1.6-4.6h-5.2V16.8z M322.9,8.9c-0.1,0.5-0.1,0.7-0.2,1.1c0.6,1.4,1.5,2.6,2.5,3.7
		c0.9,1,2,1.7,3.5,2.6V8.9H322.9z"/>
	<path class="st0" d="M343.4,16.5c-0.4,0.4-0.7,0.6-1.3,1.1v3.5c1.5-0.3,3.1-0.6,4-0.9v2.1c-2.9,0.7-5.9,1.3-9,1.7l-0.4-2.3
		c0.4,0,0.4,0,0.9,0c0.4,0,1.3-0.1,2.2-0.2v-2.3c-1.5,0.9-3,1.6-4.9,2.3c-0.3-0.8-0.6-1.3-1.2-2.1c2.9-0.7,4.9-1.6,6.9-2.9h-4.1
		c-1.1,0-1.7,0-2.4,0.1v-2.3c0.7,0.1,1.4,0.1,2.5,0.1h6.3v-0.4c0-0.5,0-0.9-0.1-1.3h2.5c-0.1,0.4-0.1,0.7-0.1,1.3v0.3h6.3
		c1,0,1.8,0,2.4-0.1v2.3c-0.7-0.1-1.4-0.1-2.4-0.1h-5.2c0.4,0.8,0.8,1.3,1.7,2.1c1.2-0.8,1.7-1.2,2.4-2l2,1.1
		c-1.2,1-1.8,1.5-2.7,2.1c1.5,0.9,3,1.5,4.9,1.9c-0.5,0.6-0.8,1.2-1.3,2.3c-3-1-5-2.1-6.7-3.7c-1.3-1.1-2-2.2-2.6-3.8H343.4z
		 M338.8,11c-0.9,0.4-1.6,0.7-2.9,1.3c-0.7,0.2-0.7,0.3-1.2,0.5l-0.7-2.3c1.5-0.3,2.7-0.6,4.9-1.6V5.6c0-0.8,0-1.3-0.1-1.8h2.5
		c-0.1,0.5-0.1,0.9-0.1,1.8v5.8c0,1.2,0,1.5,0.1,2h-2.5c0.1-0.6,0.1-1.1,0.1-2V11z M335.8,4.3c1.2,1.1,1.6,1.5,2.6,2.9l-1.7,1.5
		c-0.9-1.3-1.3-1.8-2.6-3L335.8,4.3z M344,8.1c-0.9,0-1.6,0-2.2,0.1V5.9C342.4,6,343,6,344,6h2.2V5.5c0-0.8,0-1.2-0.1-1.7h2.6
		c-0.1,0.5-0.1,0.9-0.1,1.7V6h3.1c1,0,1.6,0,2.2-0.1v2.3c-0.6-0.1-1.2-0.1-2.2-0.1h-3.1v2.2h2.4c1,0,1.5,0,2.1-0.1v2.3
		c-0.5-0.1-1-0.1-2-0.1h-6.6c-0.8,0-1.6,0-2.2,0.1v-2.2c0.5,0.1,1.1,0.1,2,0.1h1.9V8.1H344z"/>
	<path class="st0" d="M365.4,17.1c-1.3,2.8-2.7,4.1-4.5,4.1c-2.5,0-4.3-2.6-4.3-6.1c0-2.4,0.9-4.7,2.4-6.4c1.8-2,4.4-3.1,7.6-3.1
		c5.3,0,8.7,3.2,8.7,8.2c0,3.8-2,6.8-5.3,8.2c-1.1,0.4-1.9,0.7-3.5,0.9c-0.4-1.2-0.6-1.7-1.3-2.6c2-0.3,3.3-0.6,4.4-1.2
		c1.9-1.1,3.1-3.1,3.1-5.5c0-2.1-0.9-3.8-2.7-4.9c-0.7-0.4-1.3-0.6-2.2-0.7C367.3,11.6,366.5,14.6,365.4,17.1z M362.2,9.2
		c-1.8,1.3-3,3.6-3,5.9c0,1.8,0.8,3.2,1.7,3.2c0.7,0,1.5-0.9,2.3-2.8c0.8-2,1.6-5,1.8-7.4C363.9,8.3,363.1,8.6,362.2,9.2z"/>
	<path class="st0" d="M379.9,15.1c0-1.1,0-1.6,0.1-2.6c-0.5,1.1-0.8,1.5-1.5,2.4c-0.3-1.1-0.6-1.9-1.1-2.6c2-2.2,3.8-5.9,4.2-8.7
		l2.5,0.6c-0.1,0.4-0.1,0.4-0.3,1c-0.5,1.4-0.9,2.6-1.7,4.1v12.1c0,1.1,0,1.8,0.1,2.6h-2.4c0.1-0.9,0.1-1.5,0.1-2.6V15.1z
		 M398.1,7.6c-0.6-0.1-1.1-0.1-1.9-0.1c-0.8,1.5-1.6,2.5-2.7,3.5c1.5,0.8,2.8,1.1,5.2,1.5c-0.4,0.8-0.7,1.4-0.9,2.3
		c-2.8-0.7-4.5-1.4-6.1-2.4c-1.4,0.9-2.7,1.4-4.9,2c-0.3-0.8-0.5-1.3-1-1.9c1.8-0.4,2.9-0.8,4.2-1.5c-0.8-0.7-1.1-1.1-1.8-2.1
		c-0.6,0.7-0.9,1-1.8,1.7c-0.4-0.4-0.5-0.5-1.1-1v8.9c0,1.2,0,1.7,0.1,2.2h-2.4c0.1-0.6,0.1-1.1,0.1-2.3v-9c0-1.1,0-1.4-0.1-2h2.3
		c0,0.4-0.1,0.6-0.1,1.2c1.7-1.5,2.9-3.2,3.4-5.1l2.4,0.5c-0.4,0.7-0.5,1-0.7,1.5h5.1c1.2,0,1.8,0,2.5-0.1V7.6z M398.2,18.2
		c-0.3,0.2-0.5,0.4-0.9,0.7c-3.2,2.8-5.9,4.1-11,5.1c-0.4-0.8-0.6-1.2-1.1-2c3.5-0.6,6-1.4,8.3-2.8c1.3-0.8,2.2-1.5,2.8-2.4
		L398.2,18.2z M393.3,14.4c-0.2,0.1-0.2,0.1-0.8,0.5c-1.3,0.9-2.9,1.6-5.5,2.4c-0.3-0.7-0.4-0.9-1.1-1.7c2.8-0.6,4.7-1.3,5.8-2.4
		L393.3,14.4z M395.7,16.2c-3,2.4-4.8,3.3-8.6,4.3c-0.2-0.7-0.5-1.2-1.1-1.8c3.3-0.6,6.7-2.2,7.8-3.7L395.7,16.2z M389.6,7.5
		c0.7,1.1,1.2,1.6,2.1,2.4c0.9-0.8,1.5-1.4,2-2.4H389.6z"/>
	<path class="st0" d="M401.5,6.9c-0.7,0-1.1,0-1.7,0.1V4.7c0.5,0.1,1.1,0.1,2,0.1h3.1c0.9,0,1.4,0,2-0.1V7c-0.5-0.1-1-0.1-1.6-0.1
		h-0.7v4.3h0.5c0.6,0,0.9,0,1.4-0.1v2.2c-0.4-0.1-0.9-0.1-1.4-0.1h-0.5v4.3c0.9-0.4,1.2-0.5,2.2-1l0.1,2.3c-1.9,0.9-2.8,1.3-6.2,2.7
		c-0.1,0-0.2,0.1-0.4,0.2l-0.6-2.5c0.7-0.2,1.2-0.3,2.7-0.8v-5.2h-0.7c-0.6,0-1,0-1.5,0.1v-2.3c0.5,0.1,0.9,0.1,1.5,0.1h0.7V6.9
		H401.5z M412.2,18.9h-2.4c-1.3,0-1.7,0-2.3,0.1v-2.2c0.5,0.1,1,0.1,2.3,0.1h2.5v-1.8h-2.1c-1.5,0-2,0-2.6,0.1c0-0.5,0-0.5,0.1-2.7
		v-5c0-1.5,0-2.2-0.1-2.9c0.8,0.1,1.5,0.1,3,0.1h6.1c1.6,0,2.3,0,2.8-0.1c-0.1,0.6-0.1,1.7-0.1,3v4.7c0,1.5,0,2.3,0.1,2.9
		c-0.7-0.1-1.1-0.1-2.4-0.1h-2.5v1.8h2.8c1.2,0,1.7,0,2.3-0.1V19c-0.6-0.1-1.2-0.1-2.3-0.1h-2.8v2.3h3.5c1.2,0,1.7,0,2.3-0.1v2.4
		c-0.7-0.1-1.3-0.1-2.5-0.1h-9.3c-1.2,0-1.7,0-2.5,0.1v-2.4c0.6,0.1,1.1,0.1,2.2,0.1h3.9V18.9z M409.7,6.7v2.2h2.4V6.7H409.7z
		 M409.7,10.8V13h2.4v-2.2H409.7z M414.4,8.9h2.6V6.7h-2.6V8.9z M414.4,13h2.6v-2.2h-2.6V13z"/>
	<path class="st0" d="M430.8,8.4c0.6-0.2,1-0.2,1.9-0.4c0-0.4,0-0.4,0-1.2c0-1.9,0-2.1-0.1-2.6h2.8c-0.1,0.7-0.1,0.7-0.1,3.5
		c0.5,0,0.8-0.1,1.3-0.1c3.1,0,5.1,1.8,5.1,4.5c0,1.5-0.7,2.9-1.8,3.8c-1,0.9-2.4,1.3-4.1,1.3c-1.1,0-2.2-0.2-3.4-0.6
		c0-1.1-0.1-1.5-0.4-2.7c1.3,0.6,2.4,0.9,3.5,0.9c0.9,0,1.8-0.3,2.5-0.7c0.6-0.4,0.9-1.1,0.9-1.9c0-1.4-1.1-2.2-2.9-2.2
		c-1.6,0-2.9,0.3-6.6,1.4c1.4,4.8,1.5,5.2,2.8,10.7c0.1,0.5,0.2,0.6,0.3,1.1l-2.9,0.7c-0.1-1.8-1.3-7-2.7-11.7
		c-0.3,0.1-0.3,0.1-1.1,0.4c-0.8,0.2-2.3,0.8-2.8,1.1L422,11c0.6-0.1,0.9-0.2,2-0.6c0.9-0.3,1.1-0.4,2.1-0.7
		c-0.7-2.2-1.1-3.3-1.5-4.1l2.7-0.8c0.1,0.7,0.1,0.7,0.8,2.6c0.2,0.6,0.3,0.8,0.5,1.6L430.8,8.4z"/>
	<path class="st0" d="M445.6,17.2c2,1.5,3.3,2.8,5,4.8l-2,1.9c-1.6-2.2-2.9-3.5-4.8-5L445.6,17.2z"/>
	<path class="st0" d="M477.2,12.1c-0.1,0.4-0.1,0.8-0.1,1.3c0,2.7,1.1,4.6,3.5,6.2c1.5,0.9,2.9,1.5,5.3,2c-0.6,0.9-0.8,1.4-1.2,2.5
		c-2.9-1-4.3-1.7-5.8-2.8c-1.5-1.1-2.3-2.1-3-3.7c-0.7,1.9-1.4,3-2.9,4c-1.5,1.2-3.2,1.9-6,2.5c-0.3-0.9-0.6-1.5-1.2-2.4
		c2.9-0.5,4.6-1.1,6.1-2.3c1.8-1.5,2.8-3.6,2.8-6c0-0.5,0-0.9-0.1-1.4H477.2z M472.4,4.6c-1.4,1.9-1.6,2.1-2.8,3.3
		c1.1,1,2.1,2,3.1,3.3l-2.2,1.3c-1.2-1.9-2-2.8-3.8-4.5c1.6-1.6,2.6-2.9,3.2-4.2L472.4,4.6z M472.2,13.9c-0.9,2.2-1.6,3.2-3,4.9
		l-2.2-1.3c1.5-1.6,2.1-2.4,2.9-4.4L472.2,13.9z M478.3,4.6c-1.1,1.5-1.7,2.2-2.7,3.2c1.6,1.4,1.6,1.5,2.9,2.9l-2.2,1.2
		c-1-1.5-2-2.6-3.5-4.1c1.6-1.7,2.4-2.7,3.1-4.1L478.3,4.6z M484.3,4.5c-0.3,0.4-0.3,0.4-1.2,1.6c-0.5,0.7-0.8,1.1-1.4,1.6
		c1.4,1.2,1.9,1.7,3.2,3.2l-2.1,1.3c-2.1-2.7-2.4-3-4-4.5c1.7-1.8,2.4-2.8,3.1-4.2L484.3,4.5z M484.4,14.1c-1.2,1.8-1.8,2.6-3.5,4.1
		l-2-1.4c1.5-1.2,2.3-2.2,3.3-3.8L484.4,14.1z"/>
	<path class="st0" d="M502.7,8.8c1,0,1.5,0,1.9-0.1v2c-0.5-0.1-1.1-0.1-1.9-0.1H499v1h4.9c1.1,0,1.5,0,1.9-0.1v2
		c-0.6-0.1-1.1-0.1-1.9-0.1H499v1h6.5c1,0,1.6,0,2.2-0.1v2.2c-0.6-0.1-1.2-0.1-2.2-0.1h-15c-1,0-1.6,0-2.2,0.1v-2.2
		c0.6,0.1,1.2,0.1,2.2,0.1h6.2v-1h-4.5c-0.8,0-1.4,0-2,0.1v-2c0.5,0.1,0.9,0.1,2,0.1h4.5v-1h-3.3c-0.8,0-1.4,0-2,0.1v-2
		c0.5,0.1,0.9,0.1,2,0.1h3.3c0-0.5,0-0.7-0.1-1.1h2.5C499,8.1,499,8.3,499,8.8H502.7z M496.6,5c0-0.5,0-0.9-0.1-1.4h2.7
		c-0.1,0.5-0.1,0.8-0.1,1.4v0.3h6c1.1,0,1.7,0,2.4-0.1c-0.1,0.5-0.1,0.9-0.1,1.6v1.5c0,0.7,0,1.2,0.1,1.7h-2.4V7.3h-14.3V10h-2.4
		c0.1-0.5,0.1-0.9,0.1-1.7V6.8c0-0.7,0-1.1-0.1-1.6c0.7,0.1,1.3,0.1,2.4,0.1h5.7V5z M492.9,24h-2.4c0.1-0.9,0.1-1.4,0.1-2v-2.7
		c0-0.7,0-1.3-0.1-1.9c0.5,0.1,0.9,0.1,1.7,0.1h11.6c0.9,0,1.3,0,1.8-0.1c-0.1,0.6-0.1,1-0.1,1.9V22c0,0.8,0,1.4,0.1,2h-2.4v-0.9
		h-10.2V24z M492.9,21.1h10.2v-1.8h-10.2V21.1z"/>
	<path class="st0" d="M512.1,22.9c0-0.4,0-0.5-0.1-1c-0.4-2.7-0.6-4.4-0.6-6.6c0-2.8,0.3-5.3,0.9-8.6c0.2-1.2,0.3-1.5,0.3-2l2.9,0.3
		c-0.5,1.3-1,3.8-1.4,6.6c-0.2,1.7-0.3,2.9-0.3,4.9c0,0.5,0,0.7,0,1.2c0.2-0.8,0.3-0.9,1.1-2.9l1.8,0.8c-1.2,2.6-2,5.1-2,6.7
		c0,0.1,0,0.3,0,0.6L512.1,22.9z M521.5,14.2c-1.1,1.3-1.6,2.2-1.6,3.2c0,1.3,1.2,1.9,3.5,1.9c1.9,0,3.9-0.3,5.2-0.8l0.2,2.8
		c-0.3,0-0.4,0-0.9,0.1c-1.8,0.3-3.1,0.4-4.6,0.4c-2.7,0-4.5-0.6-5.5-1.9c-0.4-0.5-0.7-1.4-0.7-2.2c0-1.4,0.7-2.9,2-4.5L521.5,14.2z
		 M517.9,6.9c1,0.3,2.2,0.4,4.1,0.4c2.4,0,4.5-0.2,6-0.6l0.1,2.7c-0.2,0-0.5,0.1-1.6,0.2c-1.4,0.2-3.1,0.3-4.7,0.3
		c-1.6,0-1.6,0-4-0.2L517.9,6.9z"/>
	<path class="st0" d="M539.8,11.2c0,2.9-0.2,5.4-0.4,7.2c-0.3,2.4-0.8,3.8-1.8,5.4c-0.4-0.6-1-1.2-1.6-1.7c0,0.8,0,1.1,0.1,1.9h-2.5
		c0.1-0.9,0.1-1.5,0.1-2.6v-6.1c0-0.8,0-1.6,0.1-2.9c-0.4,0.9-0.9,1.6-1.5,2.4c-0.4-1.4-0.4-1.4-1-2.6c1.2-1.4,2.2-3,3-4.9
		c0.6-1.4,0.9-2.6,1.1-3.6l2.4,0.6c-0.1,0.3-0.2,0.7-0.4,1.1c-0.4,1.4-0.7,2.2-1.4,3.6v12.8c0.6-1,0.8-1.6,1.1-2.9
		c0.3-1.7,0.5-3.9,0.5-7.3c0-0.8,0-1.5-0.1-2.2c0.7,0.1,1.2,0.1,2.3,0.1h9.9c1.2,0,1.7,0,2.4-0.1v2.2c-0.6-0.1-1.3-0.1-2.1-0.1
		H539.8z M540.8,5c0-0.7,0-1-0.1-1.3h2.4C543.1,4,543,4.4,543,5v0.5h3V5c0-0.7,0-1-0.1-1.3h2.4c-0.1,0.4-0.1,0.7-0.1,1.3v0.5h1.4
		c0.9,0,1.8,0,2.2-0.1v2.2c-0.6-0.1-1.2-0.1-2.2-0.1h-1.4v0.2c0,0.5,0,0.8,0.1,1.1H546c0-0.3,0.1-0.7,0.1-1.1V7.5h-3v0.2
		c0,0.5,0,0.8,0.1,1.1h-2.4c0-0.4,0.1-0.7,0.1-1.1V7.5h-0.9c-1.2,0-1.6,0-2.2,0.1V5.4c0.6,0.1,1.4,0.1,2.2,0.1h0.9V5z M542.3,20.2
		v1.3c0,1.4,0,1.9,0.1,2.4h-2.3c0.1-0.6,0.1-1.2,0.1-2.4v-7c0-1.2,0-1.6-0.1-2.4c0.7,0,1.1,0.1,2.3,0.1h6.7c1.1,0,1.5,0,2.1-0.1
		c-0.1,0.5-0.1,1.2-0.1,2.4V22c0,1.5-0.5,1.8-2.5,1.8c-0.2,0-0.2,0-1,0c-0.1-0.9-0.2-1.2-0.4-1.9c0.5,0.1,0.9,0.1,1.3,0.1
		c0.4,0,0.5-0.1,0.5-0.5v-1.3h-2.4v1c0,1.3,0,1.9,0.1,2.4h-2.2c0.1-0.7,0.1-1.3,0.1-2.4v-1H542.3z M544.7,14.1h-2.4v1.2h2.4V14.1z
		 M544.7,17.1h-2.4v1.2h2.4V17.1z M549.1,15.4v-1.2h-2.4v1.2H549.1z M549.1,18.4v-1.2h-2.4v1.2H549.1z"/>
	<path class="st0" d="M556.6,9.9c0.6,0.1,0.8,0.1,1.3,0.1c2.1,0,5.1-0.2,7.8-0.5c1-0.1,1.4-0.2,1.8-0.4L569,11
		c-0.4,0.3-0.9,0.7-1.9,1.7c-1.2,1.1-3.1,2.8-3.8,3.4c0.6-0.2,0.8-0.3,1.3-0.3c0.8,0,1.4,0.3,1.8,0.9c0.3,0.5,0.4,0.8,0.5,2
		c0.2,1.7,0.4,2,1.9,2c1.5,0,3.2-0.3,4.3-0.8l0.3,2.7c-0.4,0-0.5,0-1.9,0.3c-1.3,0.2-2.1,0.3-3.1,0.3c-1.6,0-2.4-0.2-3.1-0.8
		c-0.6-0.6-0.8-1.1-0.9-2.8c0-0.8-0.1-1.1-0.2-1.4c-0.2-0.3-0.5-0.5-0.9-0.5c-1,0-2,0.6-3.8,2.3c-1.1,1.1-2.3,2.4-3.1,3.3l-2-2.3
		c1-0.7,1-0.7,5.1-4.4c0.5-0.5,0.9-0.8,2.6-2.4c0.6-0.6,1.5-1.4,2.6-2.4c-1.3,0.2-1.8,0.3-2.9,0.4c-0.3,0-0.3,0-2.2,0.2
		c-0.4,0-0.4,0-1.1,0.1c-0.8,0.1-1,0.1-1.7,0.2L556.6,9.9z M559.4,4.2c2.5,0.8,5.3,1.2,8.8,1.2l-0.4,2.5c-4.4-0.3-6.1-0.5-9.1-1.3
		L559.4,4.2z"/>
	<path class="st0" d="M583.7,13.1c2-0.8,3-1,4.6-1c3.8,0,6.2,1.9,6.2,5c0,2.1-1,3.8-3,4.9c-1.4,0.8-3.3,1.3-5.3,1.3
		c-1.8,0-3.4-0.4-4.3-1c-0.8-0.6-1.3-1.5-1.3-2.5c0-1.8,1.6-3.1,3.8-3.1c1.5,0,2.9,0.6,3.8,1.8c0.4,0.5,0.7,1,1,2
		c1.8-0.7,2.6-1.6,2.6-3.2c0-1.7-1.7-2.8-4.4-2.8c-3.2,0-6.4,1.3-9.1,3.7l-1.5-2.4c0.8-0.4,1.7-1,3.1-2.1c2-1.6,4.9-4,6.6-5.7
		c0,0,0.3-0.3,0.4-0.4l0,0c-0.8,0.1-2.2,0.2-6.2,0.4c-0.5,0-0.6,0-1.1,0.1l-0.1-2.6c0.7,0.1,1.4,0.1,2.6,0.1c1.9,0,4.6-0.1,6.7-0.3
		c0.8-0.1,1-0.1,1.4-0.3l1.4,1.9c-0.4,0.2-0.5,0.3-1.1,0.9c-1.1,1-2.7,2.4-3.5,3.1c-0.4,0.3-2,1.5-2.4,1.8
		C584,12.9,584,12.9,583.7,13.1L583.7,13.1z M584.3,18.6c-0.8,0-1.3,0.4-1.3,1c0,0.9,1,1.4,2.6,1.4c0.4,0,0.5,0,1.1-0.1
		C586.4,19.4,585.6,18.6,584.3,18.6z"/>
	<path class="st0" d="M604.5,4.9c-0.1,0.6-0.1,0.8-0.1,2v6.1c0,1.1,0,1.4,0.1,1.9h-3c0.1-0.5,0.1-1.2,0.1-2V6.8c0-1.1,0-1.4-0.1-2
		L604.5,4.9z M614.4,4.9c-0.1,0.6-0.1,0.8-0.1,2v3c0,3.4-0.2,5.3-0.6,6.7c-0.6,2.2-2,3.9-4.3,5.1c-1.2,0.7-2.3,1.1-4.3,1.7
		c-0.4-1.1-0.6-1.5-1.5-2.6c2.2-0.4,3.4-0.9,4.8-1.8c2.1-1.4,2.8-2.7,3-5.6c0.1-0.9,0.1-1.9,0.1-3.7V7c0-1.1,0-1.6-0.1-2.1H614.4z"
		/>
	<path class="st0" d="M638.5,7.4c-0.2,0.4-0.3,0.5-0.4,1c-1.1,4.2-2.4,6.8-4.5,9.2c-2.2,2.4-4.5,4-8.2,5.6c-0.6-1.2-0.9-1.6-1.9-2.6
		c1.9-0.6,3.2-1.2,4.8-2.2c3.4-2.2,5.6-5.3,6.7-9.6h-10.5c-1.5,0-2,0-2.8,0.1V6c0.9,0.1,1.3,0.2,2.8,0.2h10.1c1.2,0,1.7,0,2.4-0.2
		L638.5,7.4z"/>
	<path class="st0" d="M646.7,13.3c-0.9,0-1.4,0-2,0.1V11c0.6,0.1,1,0.1,2,0.1h6.4V9.8c0-0.8,0-1.3-0.1-1.7h2.6
		c-0.1,0.5-0.1,0.7-0.1,1.7l0,1.5h1.9c1,0,1.4,0,2-0.1v2.4c-0.6-0.1-1-0.1-2-0.1h-1.9l0.1,8.4c0,0.9,0,1.3,0.1,1.9h-2.7
		c0.1-0.5,0.1-1,0.1-1.8l0-5.5c0-0.2,0-1.1,0-1.4c-0.3,0.6-0.4,0.8-0.7,1.2c-1.5,2.1-4,4.1-7.1,5.8c-0.5-0.9-0.8-1.3-1.6-2.1
		c1.8-0.8,3.3-1.8,4.7-3c1.3-1.1,2.5-2.5,3.2-3.6H646.7z"/>
	<path class="st0" d="M664.5,12.2c1,0.1,1.4,0.2,3.6,0.2h11.7c2.2,0,2.6,0,3.6-0.2v3.1c-0.9-0.1-1.1-0.1-3.6-0.1h-11.7
		c-2.5,0-2.7,0-3.6,0.1V12.2z"/>
	<path class="st0" d="M696.8,5c-0.2,0.5-0.3,0.5-0.6,1.6c-1.7,5.5-2.9,9.2-4.4,12.5c3.5-0.3,7.3-0.7,9.2-1.1c-0.2-0.5-0.5-1-1-2
		c-1-1.8-1.4-2.5-2.1-3.5l2.5-1c2,3,4,6.7,5.3,10.2l-2.7,1.4c-0.3-0.9-0.3-0.9-1.1-2.7c-0.3,0.1-0.3,0.1-0.8,0.2
		c-2.2,0.5-5.9,0.9-12.5,1.6c-1.2,0.1-1.6,0.2-2,0.3l-0.4-3c0.3,0,0.3,0,0.6,0c0.4,0,1,0,1.9-0.1c1.2-2.8,2-5.3,3.2-8.9
		c1-3.2,1.5-4.8,1.6-6.1L696.8,5z"/>
	<path class="st0" d="M716.5,4.2c-0.1,0.4-0.1,0.4-0.4,1.5c-0.1,0.5-0.2,1-0.5,1.9c1.5-0.2,2.7-0.4,3.5-0.6l0.1,2.5
		c-0.2,0-0.3,0-0.7,0.1c-0.8,0.1-2.1,0.3-3.5,0.4c-0.6,2.2-1.4,4.3-2.4,6.4c-0.5,1.1-0.7,1.5-1.5,3c-0.3,0.5-0.3,0.5-0.4,0.8
		l-2.5-1.4c0.8-1,1.4-2,2.1-3.5c0.9-1.8,1.2-2.7,2.1-5.2c-1,0-1.1,0-1.4,0c-0.3,0-0.4,0-0.9,0l-1.2,0V7.6c0.8,0.2,1.6,0.2,3,0.2
		c0.3,0,0.6,0,1.1,0c0.4-1.6,0.6-2.9,0.7-3.8L716.5,4.2z M726.5,22.1c-0.8-0.9-2.1-2-3.4-2.7c0,0.2,0,0.4,0,0.4
		c0,0.8-0.4,1.8-0.9,2.3c-0.8,0.8-2.1,1.2-3.7,1.2c-2.9,0-4.8-1.5-4.8-3.7c0-2.2,2-3.8,4.8-3.8c0.7,0,1.1,0,2,0.2
		c-0.1-1-0.1-1.9-0.1-2.5c0-0.9,0-1.5,0.2-2.2l2.6,0.1c-0.2,0.8-0.3,1.3-0.3,2.2c0,0.9,0,1.8,0.2,3c1.6,0.7,1.8,0.8,3.5,2
		c0.3,0.2,0.4,0.3,0.8,0.6c0.2,0.2,0.2,0.2,0.3,0.3L726.5,22.1z M718.7,18c-1.4,0-2.4,0.6-2.4,1.5c0,0.9,0.8,1.4,2.2,1.4
		c1.5,0,2.2-0.6,2.2-1.8c0-0.2,0-0.7,0-0.7C719.9,18.1,719.3,18,718.7,18z M726.6,11.9c-1.9-1.3-3.9-2.2-6.3-3.1l1.3-2.1
		c2.6,1,4.2,1.8,6.2,2.9L726.6,11.9z"/>
	<path class="st0" d="M736.3,8.6c-0.3,1.2-0.7,3.3-1,5.4c0,0.3,0,0.3-0.1,0.6l0,0c1.3-1.2,4-2.1,6.7-2.1c3.7,0,6.2,1.8,6.2,4.7
		c0,1.6-0.9,3.2-2.3,4.2c-1.4,1-3.3,1.5-5.8,1.5c-1.9,0-3.1-0.2-5.6-0.8c0-1.4-0.1-1.8-0.3-2.8c2.2,0.7,4,1.1,5.9,1.1
		c3.1,0,5.3-1.3,5.3-3.2c0-1.5-1.4-2.4-3.7-2.4c-2,0-4,0.6-5.5,1.6c-0.4,0.3-0.5,0.4-1,0.9l-2.8-0.1c0.1-0.4,0.1-0.5,0.2-1.3
		c0.2-1.4,0.5-3.8,0.9-6.4c0.1-0.5,0.1-0.8,0.1-1.3L736.3,8.6z M736.6,4.2c1.5,0.8,5.7,2.1,8.2,2.4l-0.9,2.5
		c-3.8-0.9-6.1-1.6-8.6-2.8L736.6,4.2z"/>
	<path class="st0" d="M753.6,17.2c2,1.5,3.3,2.8,5,4.8l-2,1.9c-1.6-2.2-2.9-3.5-4.8-5L753.6,17.2z"/>
	<path class="st0" d="M129.2,52.5c-1.2,1.2-1.6,1.6-3.2,2.8c-0.5-1-0.8-1.4-1.5-2.1c1.5-0.9,2.5-1.8,3.7-3c1.1-1.1,1.8-2,2.6-3.5
		h-3.1c-1.1,0-1.9,0-2.6,0.1v-2.4c0.8,0.1,1.5,0.1,2.6,0.1h4.1c0.4-0.9,0.6-1.7,0.6-2.4l2.8,0.3c-0.2,0.3-0.2,0.4-0.5,1.2
		c-0.1,0.3-0.1,0.4-0.3,0.8h7.9c1.1,0,1.8,0,2.6-0.1v2.4c-0.7-0.1-1.5-0.1-2.6-0.1h-8.8c-0.4,0.7-0.7,1.2-1.1,1.8h7.5
		c1.1,0,1.7,0,2.3-0.1c-0.1,0.7-0.1,1.4-0.1,2.5v9.2c0,0.9-0.3,1.4-0.8,1.8c-0.4,0.2-1.2,0.4-2.6,0.4c-0.5,0-0.9,0-2-0.1
		c-0.1-1-0.2-1.5-0.6-2.3c1.2,0.2,1.9,0.2,2.6,0.2c1,0,1.1-0.1,1.1-0.6v-1.7h-8.2v1.9c0,1.2,0,2,0.1,2.8H129
		c0.1-0.8,0.1-1.7,0.1-2.8V52.5z M139.7,50.6h-8.2v1.6h8.2V50.6z M131.5,54.2v1.6h8.2v-1.6H131.5z"/>
	<path class="st0" d="M155.7,45.6c-0.6,0.7-1.2,1.2-2.1,1.8c-0.5-0.7-0.9-1.1-1.5-1.5c1.7-1.1,3-2.6,3.5-4l2.3,0.4
		c-0.1,0.2-0.1,0.2-0.4,0.6c-0.1,0.2-0.2,0.4-0.5,0.7h6.4c0.9,0,1.4,0,1.8-0.1l1.3,1c-0.2,0.2-0.2,0.3-0.5,0.7
		c-0.7,1-1.1,1.4-1.9,2.3c-0.7-0.4-1.2-0.6-2-0.8c0.7-0.5,1-0.7,1.5-1.3h-3.4c0.7,2.2,2.9,3.3,7,3.6c-0.5,0.8-0.7,1.3-0.9,2.2
		c-0.9-0.2-1.2-0.2-2-0.4c0,0.6,0,1.2,0,1.9v4.1c0,1,0,1.9,0.1,2.3c-0.5,0-1.4-0.1-2.3-0.1h-1c1.7,0.8,3.3,1.2,6.1,1.5
		c-0.5,0.7-0.8,1-1.4,2c-3.3-0.5-4.8-1.1-7.2-2.5l1.3-1h-6l1.3,1c-2.3,1.4-3.8,1.9-7,2.5c-0.5-0.9-0.7-1.2-1.3-2
		c2.9-0.4,4.4-0.7,5.9-1.5h-0.9c-1,0-1.8,0-2.3,0.1c0-0.4,0.1-1.3,0.1-2.2v-4.3c0-1,0-1.7-0.1-2.3c0.5,0,1.2,0.1,2.2,0.1h1.1
		c-0.3-0.6-0.5-0.9-0.9-1.4c-1.3,0.6-1.5,0.7-3.2,1.4c-0.3,0.1-0.5,0.2-1,0.4l-0.9-2.3c1.5-0.3,3.4-1,5.4-2l0.7,1.9l-0.8,0.4
		c1.6-0.2,2.5-0.4,3.3-0.8c1.4-0.6,2-1.3,2.3-2.5H155.7z M151.1,46.3c-1.3-1-2.1-1.5-3.5-2.2l1.4-1.7c1.6,0.7,2.3,1.1,3.6,2
		L151.1,46.3z M151.9,52.8H162V52h-10.1V52.8z M151.9,55.2H162v-0.9h-10.1V55.2z M151.9,57.4H162v-0.8h-10.1V57.4z M162.2,50.4
		c0.3,0,0.4,0,0.7,0c-1.8-0.7-2.9-1.5-3.7-2.9c-0.6,0.9-1.1,1.4-2,2c-0.7,0.4-1.4,0.7-2.5,0.9H162.2z"/>
	<path class="st0" d="M176.6,55c-0.3-0.7-0.5-0.9-0.9-1.4c-0.1,0.2-0.1,0.2-0.2,0.4c-0.7-1.3-0.8-1.3-1.3-2.5c0.1,1,0.1,1.8,0.1,2.9
		v5.5c0,1.2,0,2,0.1,2.7h-2.5c0.1-0.7,0.1-1.6,0.1-2.7v-4.5c0.1-1.9,0.1-1.9,0.2-2.9c-0.8,2.5-1.1,3.3-2,4.8c-0.5-1-0.8-1.4-1.4-2
		c1.3-1.9,2.4-4.5,3-6.9h-0.8c-0.7,0-1.1,0-1.6,0.1v-2.3c0.4,0.1,0.9,0.1,1.6,0.1h1v-1.8c0-1.1,0-1.7-0.1-2.3h2.5
		c-0.1,0.6-0.1,1.2-0.1,2.3v1.8h0.6c0.5,0,0.9,0,1.3-0.1v1.6c1.7-1.7,3-3.9,3.4-5.7l2.4,0.4c-0.1,0.2-0.2,0.4-0.4,0.9
		c0,0.2-0.1,0.3-0.2,0.5h3.1c1,0,1.5,0,1.9-0.1l1.3,1.4c-0.2,0.3-0.3,0.4-0.6,1c-0.9,1.6-1.9,2.8-3,4c2,1.2,3.6,1.9,5.6,2.4
		c-0.6,0.8-0.9,1.4-1.2,2.3l-1-0.4c0,0.3,0,0.4,0,0.9v4.8c0,1,0,1.7,0.1,2.2h-2.5v-1.1h-5.6v1.1h-2.4c0.1-0.6,0.1-1.1,0.1-2.2v-4.9
		c0-0.3,0-0.4,0-0.8L176.6,55z M174.3,48.4c0.6,1.4,1.3,2.5,2.4,3.8c-0.2,0.2-0.3,0.3-0.4,0.4c1.6-0.6,2.9-1.3,4.3-2.4
		c-0.7-0.7-1.1-1.1-1.8-2.1c-0.7,0.8-1,1.2-1.7,1.8c-0.4-0.6-0.9-1.2-1.4-1.6c-0.4,0-0.5,0-0.8,0H174.3z M185.9,54.1
		c0.3,0,0.3,0,0.5,0c-1.3-0.6-2.6-1.4-3.9-2.3c-1.3,1-1.9,1.4-3.8,2.3H185.9z M179.6,59.2h5.6v-3.1h-5.6V59.2z M180.3,46.1
		c-0.1,0.2-0.1,0.2-0.2,0.4c0.9,1.3,1.4,1.7,2.3,2.5c1.1-1,1.6-1.7,2.2-2.9H180.3z"/>
	<path class="st0" d="M193.6,45.8c-1,0-1.7,0-2.3,0.1v-2.2c0.7,0.1,1.3,0.1,2.4,0.1h6.1c0-0.7,0-1.1-0.1-1.7h2.6
		c-0.1,0.5-0.1,1-0.1,1.7h6.5c1.1,0,1.7,0,2.4-0.1v2.2c-0.7-0.1-1.3-0.1-2.3-0.1H202v1h4.9c1.1,0,1.5,0,2.1-0.1
		c-0.1,0.7-0.1,1-0.1,1.8v4.3c0,0.7,0,1.1,0.1,1.8c-0.7-0.1-1.1-0.1-2.2-0.1v1h1.7c1.1,0,1.7,0,2.4-0.1v2.3
		c-0.7-0.1-1.5-0.1-2.3-0.1h-1.7v2.9c0,0.8-0.2,1.2-0.7,1.5c-0.5,0.3-1.3,0.4-2.9,0.4c-0.3,0-0.8,0-1.5,0c-0.2-1-0.4-1.6-0.7-2.2
		c1,0.1,1.7,0.2,2.5,0.2c0.8,0,0.9-0.1,0.9-0.5v-2.2h-10.9c-0.8,0-1.6,0-2.3,0.1v-2.3c0.7,0.1,1.3,0.1,2.4,0.1h10.8v-1h-9.3
		c-1,0-1.5,0-2.1,0.1c0.1-0.7,0.1-1.1,0.1-1.8v-4.3c0-0.7,0-1.1-0.1-1.8c0.6,0.1,1,0.1,2.1,0.1h4.5v-1H193.6z M198.2,62
		c-1.2-1.5-1.8-2-3.1-2.9l1.8-1.4c1.5,0.9,2.3,1.7,3.2,2.7L198.2,62z M195.4,48.6v1.1h4.2v-1.1H195.4z M195.4,51.5v1.2h4.2v-1.2
		H195.4z M202,49.8h4.6v-1.1H202V49.8z M202,52.7h4.6v-1.2H202V52.7z"/>
	<path class="st0" d="M216.2,59.7c0,1.3,0,2.1,0.1,2.7h-2.6c0.1-0.7,0.1-1.5,0.1-2.7V45.3c0-1.2,0-1.8-0.1-2.5
		c0.6,0.1,1.1,0.1,2.2,0.1h3.9c1.1,0,1.7,0,2.2-0.1c0,0.6-0.1,1.2-0.1,2v4.3c0,1,0,1.5,0.1,2c-0.5,0-1.3,0-2,0h-3.9V59.7z
		 M216.2,46.2h3.7v-1.4h-3.7V46.2z M216.2,49.3h3.7v-1.4h-3.7V49.3z M232.1,59.7c0,2.1-0.6,2.5-3.8,2.5c-0.4,0-0.9,0-1.8,0
		c-0.1-1.1-0.3-1.7-0.6-2.4c1.1,0.1,2,0.2,3,0.2c0.7,0,0.8-0.1,0.8-0.6v-8.3h-4.1c-0.8,0-1.6,0-2,0.1c0-0.5,0.1-1.1,0.1-2v-4.3
		c0-0.7,0-1.4-0.1-2c0.6,0.1,1.1,0.1,2.2,0.1h4.1c1.1,0,1.6,0,2.3-0.1c-0.1,0.8-0.1,1.4-0.1,2.5V59.7z M225.9,46.2h3.9v-1.4h-3.9
		V46.2z M225.9,49.3h3.9v-1.4h-3.9V49.3z"/>
	<path class="st0" d="M236.9,48.4c-0.5,0-0.9,0-1.7,0.1v-2.4c0.5,0.1,1,0.1,1.7,0.1h0.9v-1.8c0-1,0-1.6-0.1-2.2h2.6
		c-0.1,0.7-0.1,1.3-0.1,2.2v1.8h0.4c0.5,0,0.9,0,1.3-0.1v2.3c-0.5-0.1-0.9-0.1-1.3-0.1h-0.3v3.4c0.7-0.2,0.9-0.3,1.8-0.7v2.2
		c-1.1,0.4-1.1,0.4-1.8,0.7v6.2c0,1.8-0.6,2.2-2.9,2.2c-0.5,0-0.9,0-1.6-0.1c-0.1-0.9-0.2-1.5-0.5-2.3c0.6,0.1,1.3,0.2,1.8,0.2
		c0.7,0,0.9-0.1,0.9-0.7v-4.7c-0.3,0.1-0.5,0.2-0.6,0.2c-0.4,0.2-0.4,0.2-0.7,0.2c-0.3,0.1-0.7,0.2-0.9,0.4l-0.5-2.4
		c0.8-0.1,1.2-0.2,2.8-0.7v-4.2H236.9z M246.9,47.3h-2.1c-1,0-1.9,0-2.5,0.1V45c0.6,0.1,1.4,0.1,2.5,0.1h2.1v-0.7
		c0-1.1,0-1.5-0.1-2.2h2.6c-0.1,0.7-0.1,1.2-0.1,2.2v0.7h3.1c1,0,1.8,0,2.5-0.1v2.4c-0.7-0.1-1.7-0.1-2.5-0.1h-3.1v2.8h2.1
		c0.7,0,1.2,0,1.6-0.1l1.2,1.3c-0.2,0.3-0.3,0.5-0.7,1.3c-1,1.9-2,3.3-3.4,4.8c1.6,1.2,3.2,2,5.5,2.7c-0.7,0.9-1.1,1.6-1.4,2.4
		c-2.4-1-4.2-2-5.9-3.5c-2.1,1.7-4.1,2.8-6.4,3.5c-0.3-0.8-0.7-1.6-1.2-2.3c2.4-0.7,4.1-1.5,6-2.8c-1.4-1.6-2.3-3-3.1-5.1
		c-0.4,0-0.5,0-0.9,0.1V50c0.6,0.1,1.4,0.1,2.2,0.1h2.1V47.3z M245.9,52.3c0.5,1.3,1.4,2.7,2.4,3.7c1.3-1.2,2-2.1,2.8-3.7H245.9z"/>
	<path class="st0" d="M265.8,44.7c0-1.1,0-1.7-0.1-2.4h2.5c-0.1,0.7-0.1,1.3-0.1,2.4v1.8h1c1,0,1.4,0,2-0.1v1.8c0.4,0,0.6,0,1.1,0
		h3.3c0.9,0,1.3,0,1.8-0.1v2.4c-0.5-0.1-0.8-0.1-1.9-0.1v9.4c0,1.2-0.3,1.8-1,2c-0.4,0.1-1.2,0.2-2.3,0.2c-0.4,0-0.7,0-1.8,0
		c-0.1-0.9-0.2-1.6-0.5-2.3c1,0.1,1.7,0.2,2.6,0.2c0.5,0,0.7-0.1,0.7-0.5v-9h-1c-0.7,0-1,0-1.4,0.1v-1.8c-0.4,0-0.7,0-1.2,0H268v11
		c0,1.3,0,1.8,0.1,2.6h-2.5c0.1-0.8,0.1-1.4,0.1-2.6v-11h-1.9c-0.6,0-0.9,0-1.4,0.1c-0.6,1-1.1,1.7-1.5,2.3v8.8c0,1.2,0,1.8,0.1,2.5
		h-2.5c0.1-0.7,0.1-1.3,0.1-2.6v-4.1c0-0.9,0-0.9,0-2.4c-0.4,0.5-0.9,1.1-1.5,1.5c-0.3-1.2-0.4-1.6-0.9-2.4c1.3-0.9,2.3-2,3.3-3.5
		c0.5-0.8,0.9-1.5,1.1-2l1.6,0.9v-1.5c0.6,0.1,1,0.1,2,0.1h1.4V44.7z M262.7,43.3c-0.1,0.1-0.5,0.6-1.1,1.4c-1,1.3-2.1,2.3-3.9,3.5
		c-0.3-0.8-0.5-1.3-1.1-2.1c1.8-1.1,3.3-2.7,4-4.1L262.7,43.3z M264.9,50.4c-0.3,5-0.7,7.4-1.5,9.8c-0.6-0.4-1-0.6-2-1.1
		c0.6-1.3,0.9-2.3,1.1-3.7c0.2-1.3,0.4-3.4,0.4-5.3L264.9,50.4z M269.9,46.2c-0.6-1.3-0.8-1.6-1.8-2.8l1.7-1
		c0.7,0.8,1.1,1.3,1.6,2.2v-1.3c0.5,0.1,1,0.1,1.7,0.1h2c0.8,0,1.3,0,1.7-0.1v2.5c-0.5-0.1-1-0.1-1.7-0.1h-2c-0.7,0-1.2,0-1.7,0.1
		v-0.6L269.9,46.2z M270.3,50.1c0.7,2.4,1.2,4.9,1.6,7.7l-2,0.7c-0.4-3.4-0.8-5.8-1.4-8L270.3,50.1z"/>
	<path class="st0" d="M281.8,50.6c-1.1,0-1.9,0-2.6,0.1v-2.4c0.6,0.1,1.4,0.1,2.7,0.1h5v-1.9h-3.3c-1.2,0-1.9,0-2.5,0.1v-2.3
		c0.6,0.1,1.4,0.1,2.6,0.1h3.2v-0.4c0-0.9,0-1.3-0.1-1.9h2.7c-0.1,0.6-0.1,1-0.1,1.9v0.4h1.6c1.1,0,1.8,0,2.5-0.1v1.9
		c1.2-1.2,2.1-2.4,2.6-3.3l2.2,1.4c-0.2,0.2-0.5,0.5-1,1.1c-0.9,1-1.8,2-3,3h2.3c1.1,0,1.8,0,2.5-0.1v2.4c-0.7-0.1-1.6-0.1-2.7-0.1
		h-4.7c-0.8,0.6-1.4,1-2.4,1.6c0.5,0,1.2,0,1.8,0h3.2c1.1,0,1.7,0,2.3-0.1c-0.1,0.6-0.1,1.2-0.1,2.4V60c0,1.1,0,1.9,0.1,2.5h-2.6
		v-0.9h-8v0.9h-2.6c0.1-0.7,0.1-1.5,0.1-2.5v-3.4c0-0.4,0-0.8,0-1.2c-1.3,0.7-1.8,0.9-3.5,1.5c-0.4-0.9-0.7-1.4-1.3-2.2
		c3.3-1,6.2-2.3,9.1-4H281.8z M285.8,55.8h8v-1.6h-8V55.8z M285.8,59.4h8v-1.7h-8V59.4z M290.8,48.5c0.8-0.6,1.4-1.1,2.1-1.8
		c-0.6,0-1-0.1-1.8-0.1h-1.8v1.9H290.8z"/>
	<path class="st0" d="M312.7,52.4h5.2c1,0,1.6,0,2.1-0.1v1.9c-0.6-0.1-1.1-0.1-2.1-0.1h-5.8v1.2h6.2c1.3,0,1.9,0,2.5-0.1v2.2
		c-0.7-0.1-1.4-0.1-2.5-0.1H314c1.7,1.2,4.5,2.3,7.3,2.8c-0.4,0.6-0.6,0.9-0.8,1.3c0,0-0.1,0.2-0.2,0.5c0,0.1-0.1,0.2-0.2,0.4
		c-1.7-0.5-3-0.9-4.4-1.6c-1.5-0.8-2.5-1.4-3.6-2.5c0,0.6,0.1,1.2,0.1,1.5v1.3c0,0.8,0,1.1,0.1,1.6h-2.6c0.1-0.5,0.1-0.8,0.1-1.6
		v-1.3c0-0.5,0-0.9,0.1-1.5c-1.1,1.1-2.2,1.9-4,2.7c-1.2,0.6-2.4,1-3.9,1.4c-0.4-0.8-0.7-1.5-1.2-2.2c1.9-0.3,3.2-0.7,4.8-1.4
		c1.1-0.5,1.7-0.9,2.4-1.4h-4.2c-1.1,0-1.8,0-2.5,0.1v-2.2c0.6,0.1,1.1,0.1,2.5,0.1h6.2v-1.2h-4.4c-0.9,0-1.3,0-1.9,0.1
		c0.1-0.5,0.1-1.1,0.1-1.8v-2.7c0-0.7,0-1.3,0.1-1.9c-0.6,0.7-1.1,1.2-2,1.9c-0.4-0.9-0.6-1.5-1.1-2.2c1.7-1.2,2.9-2.5,4-4.2
		c0.3-0.5,0.5-1,0.7-1.4l2.6,0.4c-0.8,1.3-0.8,1.3-1.2,1.8h3.9c0.5-0.8,0.9-1.4,1.1-2.2l2.5,0.3c-0.5,1-0.8,1.4-1.1,1.9h4.7
		c1,0,1.6,0,2.2-0.1v2c-0.5-0.1-1-0.1-1.8-0.1h-5.3V47h4.2c1.1,0,1.4,0,2.1-0.1v1.8c-0.7-0.1-0.9-0.1-2.1-0.1h-4.2v1.1h4.2
		c1.1,0,1.4,0,2.1-0.1v1.8c-0.6-0.1-0.9-0.1-2.1-0.1h-4.2V52.4z M310.4,46h-4.5V47h4.5V46z M310.4,48.6h-4.5v1.1h4.5V48.6z
		 M305.9,51.3v1.1h4.5v-1.1H305.9z"/>
	<path class="st0" d="M323.5,62.5c0.1-0.7,0.1-1.5,0.1-2.9v-14c0-1,0-1.8-0.1-2.6c0.8,0.1,1.5,0.1,2.6,0.1h13.7c1.1,0,1.8,0,2.6-0.1
		c-0.1,0.9-0.1,1.5-0.1,2.6v14c0,1.3,0,2.2,0.1,2.8H340v-1.2H326v1.2H323.5z M326,59.1h13.9V45.2H326V59.1z M334.5,47.3
		c0-0.8,0-1.1-0.1-1.6h2.5c-0.1,0.4-0.1,0.8-0.1,1.6v0.8h0.6c0.7,0,1.4,0,1.8-0.1v2.3c-0.4-0.1-1.1-0.1-1.8-0.1h-0.6v6.2
		c0,1.8-0.6,2.2-3,2.2c-0.6,0-0.7,0-2.1-0.1c-0.1-1.1-0.2-1.4-0.6-2.2c1.2,0.2,2,0.2,2.7,0.2c0.5,0,0.7-0.1,0.7-0.6v-5.7H329
		c-0.9,0-1.5,0-2,0.1V48c0.6,0.1,1,0.1,2,0.1h5.5V47.3z M330.8,55.9c-0.9-1.9-1.5-2.8-2.6-4.2l1.8-1.2c1.3,1.6,1.8,2.3,2.8,4.1
		L330.8,55.9z"/>
	<path class="st0" d="M358.6,53.7V42h6.6v2.4h-4v9.2H358.6z"/>
	<path class="st0" d="M371.5,56.3c-1.2,0-1.9,0-2.5,0.1v-2.5c0.7,0.1,1.3,0.1,2.3,0.1h11.2c1,0,1.9,0,2.6-0.1v2.5
		c-0.7-0.1-1.5-0.1-2.6-0.1h-4.4v3.2h6.1c1.1,0,2.1,0,2.7-0.1v2.4c-0.7-0.1-1.6-0.1-2.7-0.1h-14.3c-1.1,0-2,0-2.7,0.1v-2.4
		c0.5,0.1,1.8,0.1,2.7,0.1h5.7v-3.2H371.5z M375.6,43.6c0-0.6,0-0.9-0.1-1.4h2.7c-0.1,0.4-0.1,0.9-0.1,1.4v0.7h6.1
		c1,0,1.7,0,2.4-0.1c-0.1,0.5-0.1,0.9-0.1,1.7v1.2c0,0.6,0,1.1,0.1,1.7h-2.4v-2.3h-4.2v3.3c0,0.4,0.2,0.5,0.9,0.5c0.2,0,0.4,0,0.8,0
		c0.1,0,0.1,0,0.1,0c0.7,0,1.6-0.1,1.8-0.2c0.3-0.1,0.4-0.4,0.4-1.2c0.8,0.4,1.3,0.5,2.2,0.7c-0.1,1.3-0.3,1.9-0.8,2.2
		c-0.6,0.4-1.5,0.5-4.1,0.5c-2.9,0-3.5-0.3-3.5-1.7v-4.2h-1.9c-0.1,1.8-0.6,3.1-1.5,4.2c-0.7,0.8-1.8,1.5-3.1,2.1
		c-0.6,0.3-1.2,0.5-2.4,0.8c-0.4-0.7-0.8-1.4-1.4-2.1c2.2-0.4,3.3-0.9,4.4-1.7c1.2-0.9,1.5-1.6,1.7-3.4h-3.5v2.9h-2.4
		c0.1-0.6,0.1-1.1,0.1-1.8v-1.7c0-0.7,0-1.1-0.1-1.7c0.8,0.1,1.4,0.1,2.4,0.1h5.7V43.6z"/>
	<path class="st0" d="M403.3,44.7c0.7,0,0.9,0,1.3,0c0-1.4,1.1-2.6,2.5-2.6s2.6,1.1,2.6,2.5c0,1.4-1.1,2.6-2.6,2.6
		c-0.1,0-0.3,0-0.4,0c-1.8,7.2-5.7,11.7-12.6,14.6c-0.6-1.1-0.9-1.7-1.9-2.6c6.1-1.9,10.1-6,11.5-11.8h-10.5c-1.6,0-2,0-2.8,0.1
		v-2.9c0.8,0.1,1.3,0.2,2.8,0.2H403.3z M405.7,44.6c0,0.8,0.6,1.5,1.4,1.5c0.8,0,1.5-0.7,1.5-1.5c0-0.8-0.6-1.4-1.5-1.4
		C406.3,43.2,405.7,43.8,405.7,44.6z"/>
	<path class="st0" d="M415.7,59.4V61h-2.8c0.1-0.5,0.1-1.1,0.1-1.9V46.5c0-0.8,0-1.3-0.1-1.8c0.5,0,1,0.1,1.9,0.1h12.5
		c0.9,0,1.3,0,1.8-0.1c0,0.6-0.1,1-0.1,1.8V59c0,0.8,0,1.4,0.1,1.9h-2.8v-1.5H415.7z M426.3,47.2h-10.6v9.7h10.6V47.2z"/>
	<path class="st0" d="M439.4,51v11.6h-6.6v-2.4h4V51H439.4z"/>
	<path class="st0" d="M457.1,61.4c0-0.4,0-0.5-0.1-1c-0.4-2.7-0.6-4.4-0.6-6.6c0-2.8,0.3-5.3,0.9-8.6c0.2-1.2,0.3-1.5,0.3-2l2.9,0.3
		c-0.5,1.3-1,3.8-1.4,6.6c-0.2,1.7-0.3,2.9-0.3,4.9c0,0.5,0,0.7,0,1.2c0.2-0.8,0.3-0.9,1.1-2.9l1.8,0.8c-1.2,2.6-2,5.1-2,6.7
		c0,0.1,0,0.3,0,0.6L457.1,61.4z M466.5,52.7c-1.1,1.3-1.6,2.2-1.6,3.2c0,1.3,1.2,1.9,3.5,1.9c1.9,0,3.9-0.3,5.2-0.8l0.2,2.8
		c-0.3,0-0.4,0-0.9,0.1c-1.8,0.3-3.1,0.4-4.6,0.4c-2.7,0-4.5-0.6-5.5-1.9c-0.4-0.5-0.7-1.4-0.7-2.2c0-1.4,0.7-2.9,2-4.5L466.5,52.7z
		 M462.9,45.4c1,0.3,2.2,0.4,4.1,0.4c2.4,0,4.5-0.2,6-0.6l0.1,2.7c-0.2,0-0.5,0.1-1.6,0.2c-1.4,0.2-3.1,0.3-4.7,0.3
		c-1.6,0-1.6,0-4-0.2L462.9,45.4z"/>
	<path class="st0" d="M485.1,58.3c0,0.9,0,1.4-0.2,1.9c-0.2,0.8-1,1.3-2,1.3c-1.4,0-3.1-0.6-4.2-1.6c-0.8-0.7-1.2-1.5-1.2-2.5
		c0-1,0.7-2.2,1.9-3.3c0.8-0.7,1.8-1.3,3.2-1.9l0-3.4c-0.2,0-0.2,0-0.9,0c-0.3,0-0.6,0-1.2,0c-0.3,0-0.9,0-1.2,0c-0.3,0-0.5,0-0.5,0
		c-0.1,0-0.3,0-0.5,0l0-2.5c0.6,0.1,1.5,0.2,2.7,0.2c0.2,0,0.5,0,0.8,0c0.5,0,0.6,0,0.9,0v-1.5c0-1.3,0-1.8-0.1-2.5h2.8
		c-0.1,0.7-0.1,1.2-0.1,2.4v1.4c1.7-0.2,3.1-0.5,4.2-0.8l0.1,2.5c-0.4,0.1-0.8,0.1-2.3,0.4c-0.7,0.1-1.2,0.2-2,0.3v2.9
		c1.5-0.4,2.9-0.6,4.5-0.6c3.7,0,6.3,2.2,6.3,5.4c0,2.9-2.1,5-5,5c-1.8,0-3-0.9-3.6-2.4c-0.3-0.7-0.4-1.5-0.4-2.8
		c1.1-0.3,1.5-0.5,2.4-1c0,0.4,0,0.6,0,1c0,0.9,0.1,1.5,0.3,1.9c0.2,0.5,0.8,0.7,1.4,0.7c1.3,0,2.2-1,2.2-2.4c0-1.9-1.5-3.1-3.9-3.1
		c-1.3,0-2.7,0.2-4.2,0.7L485.1,58.3z M482.6,54.8c-1.7,0.9-2.6,1.8-2.6,2.6c0,0.4,0.2,0.7,0.7,1c0.4,0.3,1,0.5,1.4,0.5
		c0.4,0,0.5-0.2,0.5-0.9V54.8z M494.8,50.3c-1.1-1.7-2.7-3.5-4.4-4.8l2.1-1.4c1.9,1.5,3.2,2.8,4.4,4.5L494.8,50.3z"/>
	<path class="st0" d="M501.2,53.5c0-0.6,0-0.8,0.1-2.5c-0.5,0.9-1.1,1.6-1.8,2.4c-0.3-0.9-0.6-1.8-1.1-2.6c1.5-1.4,2.7-3.2,3.6-5.5
		c0.6-1.3,0.9-2.4,1-3.3l2.5,0.8l-0.7,2c-0.4,1.1-0.8,1.9-1.3,2.9v12c0,1,0,1.8,0.2,2.7H501c0.1-0.8,0.2-1.7,0.2-2.8V53.5z
		 M510.4,46.8c-1.4,0.3-3.2,0.5-4.5,0.7c-0.3-1-0.4-1.4-1-2.2c5-0.4,9.9-1.6,11.8-2.8l1.6,2.1c-0.5,0.1-0.6,0.2-1.2,0.4
		c-1.6,0.6-2.8,0.9-4.2,1.3v4.8h3.8c1,0,1.8,0,2.5-0.2v2.6c-0.7-0.1-1.4-0.1-2.5-0.1h-3.8v5.9h3.1c1.1,0,1.8,0,2.5-0.1v2.5
		c-0.7-0.1-1.5-0.2-2.5-0.2h-8.2c-1,0-1.8,0-2.5,0.2v-2.5c0.7,0.1,1.4,0.1,2.5,0.1h2.7v-5.9H507c-1.1,0-1.8,0-2.5,0.1V51
		c0.7,0.1,1.4,0.1,2.5,0.1h3.5V46.8z"/>
	<path class="st0" d="M539,60.8c-0.2,0-0.2,0-1,0.1c-1.6,0.2-4.5,0.3-6,0.3c-4.1,0-5.9-0.8-6.6-2.9c-0.3-1-0.4-2.2-0.4-6
		c0-0.3,0-0.4,0-2.1c-3.1,0.2-3.1,0.2-4.1,0.4l-0.2-2.6c0.3,0,0.5,0,0.6,0c0.2,0,1.4-0.1,3.6-0.2c0-0.4,0-0.5,0-0.7
		c0-2.3,0-2.9-0.2-3.7h2.9c-0.1,0.8-0.1,0.8-0.2,4.3c3.1-0.2,3.1-0.2,6.4-0.3c0-3.5,0-3.5-0.1-4.4h2.8c-0.1,0.7-0.1,1-0.1,1.5v1.4
		c0,0.3,0,0.5,0,0.7c0,0.3,0,0.4,0,0.5c0,0,0,0.1,0,0.2c3.5-0.1,3.5-0.1,4.3-0.2l0,2.6c-0.5-0.1-0.7-0.1-1.3-0.1c-0.8,0-2,0-3.1,0
		c0,2.2-0.2,3.9-0.6,4.7c-0.5,1.1-1.4,1.7-2.7,1.7c-1,0-2-0.2-3.1-0.7c0-0.4,0-0.6,0-0.9c0-0.6,0-1-0.2-1.8c1.2,0.7,2.2,1.1,2.9,1.1
		c0.6,0,0.8-0.3,0.9-1.1c0.1-0.6,0.2-1.5,0.2-2.8c-3.3,0.1-3.3,0.1-6.4,0.3c0,0.3,0,0.3,0,0.6c0,0.1,0,0.1,0,1.3c0,0.1,0,0.4,0,0.5
		c0,1.1,0.1,3.5,0.1,4c0.2,1.8,1.1,2.3,4.7,2.3c2.9,0,4.9-0.3,6.4-0.8L539,60.8z"/>
	<path class="st0" d="M558,44.4c-0.4,0.3-0.8,0.6-2.7,2.4c-1.1,1-2.7,2.3-5.2,4.2c-0.7,0.5-0.8,0.7-0.8,0.9c0,0.3,0,0.4,2,1.8
		c3.4,2.6,4.1,3.1,6.9,5.7c0.2,0.2,0.4,0.3,0.6,0.5l-2.3,2.3c-0.6-0.8-1.4-1.6-2.9-3c-1.6-1.5-2.3-2-5.7-4.7
		c-1.5-1.1-1.8-1.7-1.8-2.7c0-0.7,0.2-1.3,0.7-1.8c0.3-0.3,0.3-0.3,1.9-1.6c2.4-1.8,3.6-2.9,5.1-4.3c1-1,1.2-1.3,1.6-1.8L558,44.4z"
		/>
	<path class="st0" d="M565.9,46.3c0.8,0.1,1.7,0.2,2.9,0.2c0.3,0,0.5,0,1,0c0.2-1.1,0.4-2.8,0.4-3.4c0-0.1,0-0.2,0-0.4l2.9,0.3
		c-0.1,0.5-0.2,0.6-0.4,1.7c0,0.3-0.1,0.6-0.2,1c0,0.1-0.1,0.3-0.1,0.7c1.4-0.1,2.7-0.4,3.8-0.7l0.1,2.5c-0.1,0-0.2,0-0.2,0
		l-0.5,0.1c-1.5,0.3-3.1,0.5-3.6,0.5c-0.8,4.2-1.9,7.9-3.8,13l-2.8-1.1c1.4-2.6,3.2-7.9,3.9-11.8c-0.1,0-0.2,0-0.2,0l-0.5,0h-1.1
		c0,0-0.2,0-0.5,0c-0.3,0-0.7,0-0.9,0c-0.1,0-0.2,0-0.4,0L565.9,46.3z M576.8,54.8c-0.9,1.1-1.1,1.7-1.1,2.4c0,1.1,1.1,1.7,3.3,1.7
		c1.6,0,3.7-0.4,5-0.8l0.2,2.7c-0.4,0-0.5,0.1-1.1,0.2c-1.8,0.3-2.8,0.4-4.1,0.4c-2,0-3.4-0.3-4.4-0.9c-0.9-0.5-1.6-1.6-1.6-2.7
		c0-1.2,0.4-2.2,1.6-3.8L576.8,54.8z M583.3,51.9c-1.1-0.1-1.7-0.2-2.8-0.2c-2.2,0-3.6,0.2-5.8,0.7l-0.2-2.4
		c3.1-0.6,4.2-0.7,6.6-0.7c0.7,0,1.2,0,2.2,0L583.3,51.9z M579.7,43.3c1,1,1.6,1.9,2.3,3.2l-1.5,0.8c-0.7-1.3-1.3-2.2-2.3-3.3
		L579.7,43.3z M583.1,46c-0.7-1.2-1.4-2.2-2.2-3.2l1.5-0.8c1,1,1.6,1.8,2.3,3.1L583.1,46z"/>
	<path class="st0" d="M588.7,46.8c0.7,0.1,1.2,0.1,2.1,0.1c1.7,0,4.6-0.2,5.9-0.4c-0.4-1-1.3-3.3-1.4-3.5l2.8-0.4
		c0.1,0.7,0.5,1.9,1.2,3.5c2.3-0.4,4.2-0.9,5.4-1.3l0.3,2.6c-0.6,0.1-0.8,0.2-1.6,0.3c-0.3,0.1-1.4,0.3-3.2,0.7
		c0.8,1.5,1.3,2.4,1.5,2.8c0.6,1,1.6,2.4,2.3,3.5l-2.6,1.2c-0.6-0.5-0.9-0.7-1.5-0.9c-1-0.3-2.2-0.5-3.5-0.5c-3,0-4.8,0.9-4.8,2.5
		c0,1.4,1.6,2.2,4.6,2.2c2.3,0,4.9-0.6,6.6-1.5l0.4,2.8c-2.7,0.8-4.8,1.2-7,1.2c-2.8,0-5-0.6-6.1-1.7c-0.8-0.8-1.3-1.9-1.3-3
		c0-1.3,0.6-2.4,1.6-3.3c1.3-1.1,3.1-1.6,5.6-1.6c1.4,0,2.7,0.2,3.8,0.7c-0.9-1.2-0.9-1.3-2.4-4c-1.9,0.3-5.2,0.5-7.8,0.5
		c-0.6,0-0.6,0-1,0.1L588.7,46.8z"/>
	<path class="st0" d="M613.3,44.5c-0.1,0.8-0.2,1.9-0.2,3.3c0,1.9,0.2,4.6,0.4,5.9c0.4,2.3,1.1,3.7,1.8,3.7c0.3,0,0.6-0.3,0.9-0.9
		c0.5-1.2,0.9-2.5,1.2-4c0.8,0.9,1.1,1.2,2.2,2c-1.1,4.3-2.4,6.1-4.3,6.1c-1.5,0-2.7-1.1-3.5-3.2c-0.9-2.2-1.3-5.4-1.4-11.5
		c0-0.8,0-0.9-0.1-1.4H613.3z M623.7,45.5c2.8,3.3,4.3,7,5,11.8l-2.7,1c-0.1-2.1-0.6-4.4-1.4-6.4c-0.7-2-1.8-3.8-3.1-5.4L623.7,45.5
		z"/>
	<path class="st0" d="M638.3,58.7c0,2.1-1.7,3.7-3.7,3.7c-2,0-3.7-1.7-3.7-3.7c0-2,1.7-3.7,3.7-3.7C636.7,55,638.3,56.7,638.3,58.7z
		 M632.6,58.7c0,1.1,0.9,2,2,2c1.1,0,2-0.9,2-2c0-1.1-0.9-2-2-2C633.5,56.7,632.6,57.6,632.6,58.7z"/>
</g>
<g>
	<path d="M14.1,16.2c-0.1,0-0.1,0-1.7,0.1c-2.3,0.1-3.3,0.2-3.7,0.3l-0.3-2.1c0.5,0,0.6,0,1,0c0.8,0,1.3,0,1.7,0
		c0.5-0.7,0.7-1.2,1.1-1.8H8c-0.2,2.8-0.3,4.4-0.7,6.3c-0.4,2-0.9,3.2-1.8,4.9c-0.6-0.8-1.1-1.3-2-2c0.8-1.4,1.3-2.5,1.6-4.3
		c0.5-2.4,0.7-5.6,0.7-10.8c0-1.1,0-1.8-0.1-2.5c0.8,0.1,1.5,0.1,2.9,0.1h12.1c1.1,0,1.7,0,2.4-0.1C23,4.9,23,5.2,23,6v2.1
		c0,0.7,0,1,0.1,1.6c-0.8,0-1.4-0.1-2.4-0.1H8.1l0,1.2h12.9c1.4,0,1.9,0,2.6-0.1v2.1c-0.7-0.1-1.2-0.1-2.3-0.1h-1.4
		c0.8,0.8,1.8,1.8,3.3,3.4l-2,1.1l-1.1-1.4c-1.2,0.1-1.2,0.1-3.5,0.3v1.8h3.9c1.4,0,1.7,0,2.2-0.1v2.1c-0.7-0.1-1.3-0.1-2.2-0.1
		h-3.9v1.6h4.8c1.5,0,2.1,0,2.7-0.1v2.2c-0.7-0.1-1.5-0.1-2.9-0.1H9.8c-1.3,0-2.1,0-2.8,0.1v-2.2c0.5,0.1,1.2,0.1,2.6,0.1h4.5v-1.6
		h-3.3c-1,0-1.6,0-2.3,0.1v-2.1c0.6,0.1,1,0.1,2.3,0.1h3.2V16.2z M20.7,7.7V6.3H8.1v1.4H20.7z M14.5,12.7c-0.4,0.8-0.7,1.2-1.1,1.8
		c1.8-0.1,2.9-0.1,3.3-0.1c0.2,0,0.7,0,1.7-0.1c-0.4-0.4-0.6-0.6-1.2-1.1l1-0.5H14.5z"/>
	<path d="M31.5,9.9c0.2,0.5,0.4,0.9,0.9,1.7c0.5,0.9,0.9,1.4,1.8,2.3c-0.6,0.6-1,1.1-1.4,1.8c-0.7-1-1-1.6-1.5-2.8
		c0.1,0.7,0.1,1.8,0.1,3.2v5.3c0,1.1,0,2,0.1,2.7h-2.6c0.1-0.7,0.1-1.6,0.1-2.7v-4c0-0.9,0-1.8,0.1-3.1c-0.6,1.8-1.3,3.2-2.3,4.6
		c-0.6-1.3-0.6-1.3-1.3-2.1c1.5-1.8,2.6-4.2,3.3-6.8h-1.1c-0.5,0-1,0-1.5,0.1V7.7c0.4,0.1,0.8,0.1,1.5,0.1H29V5.9
		c0-1.2,0-1.7-0.1-2.3h2.5c-0.1,0.6-0.1,1.2-0.1,2.3v1.8h0.9c0.6,0,1,0,1.3-0.1V10c-0.5-0.1-0.9-0.1-1.3-0.1H31.5z M45.9,16
		c-1.2,1.1-2.3,1.9-3.4,2.6c1.2,1.4,2.2,2.2,4,3.1c-0.8,0.8-1.2,1.4-1.7,2.2c-1.6-1.1-2-1.4-2.9-2.4c-1.9-2-3-4.1-3.7-7.1h-1.6v6.3
		c1.8-0.4,2.2-0.5,3.6-0.9l0.1,2.1c-3.5,1.1-4.3,1.3-6.4,1.8c-0.7,0.1-0.8,0.2-1.2,0.3l-0.4-2.5c0.6,0,1.1-0.1,2-0.3V6.8
		c0-1,0-1.6-0.1-2.3c0.7,0.1,1.3,0.1,2.3,0.1h5.9c1.1,0,1.8,0,2.3-0.1c-0.1,0.6-0.1,1.1-0.1,2.4v5.2c0,1.3,0,1.7,0.1,2.3
		c-0.3,0-0.3,0-0.5,0L45.9,16z M42.3,8.6V6.7h-5.7v1.9H42.3z M36.7,12.4h5.7v-1.9h-5.7V12.4z M40.5,14.4c0.3,1.1,0.4,1.4,0.9,2.4
		c1-0.6,1.9-1.4,2.8-2.4c-0.5,0-0.8,0-1.4,0H40.5z"/>
	<path d="M60.6,13.8c0,1.5-1.2,2.6-2.6,2.6s-2.6-1.2-2.6-2.6c0-1.5,1.2-2.6,2.6-2.6S60.6,12.4,60.6,13.8z"/>
	<path d="M75.1,11.6c1,0.8,1.7,1.4,2.4,2.2c0.7-1.6,1-2.9,1.4-5.2h-3.2c-1,2.6-2.3,4.7-4.2,6.8c-0.4-1-0.7-1.3-1.5-2.1
		c1.8-1.8,3.1-4.1,4-6.8c0.3-0.9,0.6-2.2,0.6-2.9L77.2,4c-0.2,0.4-0.2,0.7-0.4,1.3c-0.2,0.5-0.2,0.8-0.4,1.2h3.2
		c0.8,0,1.3,0,1.8-0.1C81.3,7,81.3,7,81.2,8c0.6,1.3,1,1.9,2.2,3.2V6.3c0-1.1,0-1.7-0.2-2.5h2.7c-0.1,0.8-0.2,1.4-0.2,2.5v7.2
		c0.6,0.4,1,0.7,2.1,1.3c1.6,0.9,1.9,1.1,3,1.5c-0.5,0.7-0.9,1.5-1.3,2.4c-1.8-0.9-2.5-1.4-3.8-2.3v4.8c0,1.3,0,2,0.2,2.9h-2.7
		c0.1-0.9,0.2-1.7,0.2-2.9v-6.8c-1.3-1.3-1.9-2-2.6-3.2c-0.6,2.9-1.6,5.3-3,7.3c-1.3,2-3.2,3.9-5.5,5.5c-0.5-0.9-1.1-1.5-1.7-2
		c1.1-0.7,1.5-1,2.6-1.9c1.6-1.5,2.4-2.5,3.3-4c-0.8-1-1.6-1.7-2.7-2.6L75.1,11.6z"/>
	<path d="M100.9,17.4c0-0.5,0-0.9-0.1-1.2c-0.7,0-0.7,0-1.1,0H97c-0.9,0-1.3,0-1.9,0.1c0-0.5,0.1-0.9,0.1-1.8v-1.7
		c0-0.4,0-0.6,0-0.9c-0.4,1.8-0.9,3.1-1.9,4.4c-0.5-0.8-0.9-1.4-1.6-1.9c1.3-1.7,1.8-4,1.8-8.3c0-0.8,0-1.2-0.1-1.7
		c0.5,0,1.1,0.1,2,0.1h4.1c0.8,0,1.5,0,1.9-0.1c-0.1,0.4-0.1,0.9-0.1,1.7v2c0,0.9,0,1.3,0,1.7c-0.3,0-0.9,0-1.7,0h-4.2
		c-0.1,0.8-0.1,0.8-0.1,1.2c0.4,0,0.7,0,1.3,0h2.9c1.1,0,1.5,0,1.9-0.1c0,0.5,0,0.7,0,1.8v2c0,0.9,0,1.2,0,1.5h2
		c-0.1,0.4-0.1,0.7-0.1,1.3v0.2h4.6c1.2,0,1.6,0,2.3-0.1v2.2c-0.7-0.1-1.2-0.1-2.3-0.1h-4.6v1.8h6c1.2,0,1.9,0,2.5-0.1v2.3
		c-0.8-0.1-1.6-0.1-2.7-0.1H94.8c-1.1,0-1.9,0-2.7,0.1v-2.3c0.7,0.1,1.4,0.1,2.6,0.1h6.1v-1.8h-4.5c-1,0-1.5,0-2.3,0.1v-2.2
		c0.6,0.1,1.1,0.1,2.3,0.1h4.5V17.4z M99.1,7.8V6.2h-3.5v0.5c0,0.4,0,0.6-0.1,1.1H99.1z M97,14.3h2.4v-1.8H97V14.3z M105.5,5
		c0-0.6,0-0.9-0.1-1.3h2.4c-0.1,0.3-0.1,0.7-0.1,1.3v0.2h1.7c0.8,0,1.5,0,2-0.1v2.1c-0.4-0.1-0.6-0.1-1.3-0.1
		c-0.4,1.1-0.5,1.6-0.9,2.2h0.9c0.8,0,1.3,0,1.8-0.1v2.1c-0.6-0.1-1-0.1-1.9-0.1h-2.3v1.5h1.9c0.9,0,1.1,0,1.7-0.1v2.1
		c-0.6-0.1-0.9-0.1-1.7-0.1h-1.9v0.2c0,0.9,0,1.4,0.1,1.9h-2.5c0.1-0.6,0.1-1.1,0.1-1.9v-0.2h-1.6c-0.7,0-1.1,0-1.7,0.1v-2.1
		c0.6,0.1,0.9,0.1,1.7,0.1h1.6v-1.5h-2c-0.7,0-1.3,0-1.8,0.1V9.2c0.5,0.1,0.9,0.1,1.7,0.1h0.6c-0.2-0.7-0.4-1.2-0.9-2.2
		c-0.5,0-0.7,0-1.1,0.1V5.1c0.5,0.1,1.2,0.1,2,0.1h1.5V5z M107.3,9.3c0.3-0.8,0.5-1.3,0.7-2.2h-2.7c0.4,0.9,0.6,1.4,0.8,2.2H107.3z"
		/>
	<path d="M126.6,13.8c0,1.5-1.2,2.6-2.6,2.6s-2.6-1.2-2.6-2.6c0-1.5,1.2-2.6,2.6-2.6S126.6,12.4,126.6,13.8z"/>
	<path d="M138.8,6.8c-1.3,0-1.9,0-2.7,0.1V4.4c0.8,0.1,1.5,0.1,2.7,0.1h14.5c1.2,0,1.9,0,2.7-0.1v2.5c-0.9-0.1-1.6-0.1-2.7-0.1H147
		v1.9h6c0.9,0,1.5,0,2.1-0.1c-0.1,0.6-0.1,1.1-0.1,2v10.7c0,2-0.6,2.5-3.1,2.5c-0.7,0-1.3,0-2.1-0.1c-0.1-1.1-0.2-1.5-0.6-2.4
		c0.9,0.2,1.9,0.3,2.6,0.3c0.7,0,0.9-0.1,0.9-0.6V10.8H147v10.1c0,1.2,0,1.9,0.2,2.8h-2.6c0.1-0.9,0.1-1.6,0.1-2.8V10.8h-5.3v10.3
		c0,1.2,0,1.9,0.1,2.7h-2.6c0.1-1,0.2-1.7,0.2-2.7V10.6c0-0.8,0-1.5-0.1-2c0.7,0.1,1.3,0.1,2.2,0.1h5.5V6.8H138.8z M140.9,16
		c1.6,1.2,2,1.5,3.4,2.8l-1.5,1.8c-1.1-1.3-1.8-2-3.3-3L140.9,16z M141.3,11.4c1.4,1,2,1.4,3.1,2.5l-1.5,1.7
		c-1.1-1.2-1.9-1.8-3.2-2.7L141.3,11.4z M148.6,15.7c1.9,1.3,2.5,1.8,3.6,2.8l-1.5,1.7c-1.1-1.2-1.6-1.6-3.4-3L148.6,15.7z
		 M148.8,11.4c1.5,1,2.3,1.5,3.5,2.7l-1.4,1.6c-0.8-0.9-0.9-0.9-3.5-2.9L148.8,11.4z"/>
	<path d="M162.4,21.7c0,0.9,0,1.7,0.1,2.4h-2.4c0.1-0.7,0.1-1.7,0.1-2.7v-4c0-1.6,0.1-2.7,0.1-3.4c-0.6,2.3-0.9,3.1-1.7,4.6
		c-0.9-1.4-0.9-1.5-1.4-1.9c1.3-1.8,2.2-4.4,2.8-6.8h-0.6c-0.7,0-1.1,0-1.5,0.1V7.7c0.4,0.1,0.8,0.1,1.5,0.1h0.8V6
		c0-1.1,0-1.7-0.1-2.3h2.4c-0.1,0.6-0.1,1.3-0.1,2.3v1.8h0.5c0.5,0,0.9,0,1.3-0.1V10c-0.4-0.1-0.7-0.1-1.3-0.1h-0.3
		c0.6,1.1,1,1.6,2.1,2.6c-0.4,0.4-0.5,0.5-0.7,0.7c0.2,0,0.3,0,0.5,0h1.1c0.6,0,0.9,0,1.2-0.1c-0.1,0.7-0.1,1.2-0.1,2.3v4.2
		c0.6,1.3,2.1,1.7,6.1,1.7c2,0,3.5-0.1,5.5-0.3c-0.3,0.9-0.4,1.4-0.5,2.4c-1.3,0.1-2.7,0.1-3.7,0.1c-2.3,0-4.4-0.1-5.3-0.3
		c-1.4-0.3-2.4-0.9-3.2-1.8c-0.4,0.5-0.6,0.8-1,1.2c-0.1,0.1-0.1,0.1-0.7,0.7c-0.1,0.2-0.1,0.2-0.3,0.4L162.4,21.7z M162.4,21.7
		c0.7-0.4,1.5-1.2,2.2-2.1v-4.3h-0.5c-0.3,0-0.5,0-0.9,0.1v-1.4c-0.4-0.6-0.7-1-0.9-1.5c0,1.7,0.1,2.2,0.1,3v6.1V21.7z M165,4.7
		c1.1,1.5,1.8,2.6,2.6,4.3l-1.8,1.2c-0.7-1.8-1.5-3.1-2.6-4.5L165,4.7z M169.8,16.9v1.5c0,1.1,0,1.6,0.1,2h-2.2
		c0.1-0.5,0.1-1.2,0.1-2.2v-7.6c0-1,0-1.4-0.1-1.9c0.5,0.1,1,0.1,1.8,0.1h1.1c-0.7-0.5-0.9-0.7-1.8-1.2l1.4-1.2
		c0.9,0.6,1.2,0.8,2.1,1.5c0.9-0.6,1.2-0.9,1.8-1.6h-4.5c-1.1,0-1.6,0-2.2,0.1V4.3c0.6,0.1,1.3,0.1,2.4,0.1h4.6c1.2,0,1.6,0,2.1-0.1
		l1,1.1c-0.2,0.1-0.2,0.1-0.9,0.9c-0.7,0.8-1.9,1.8-2.6,2.3h1.2c1.1,0,1.7,0,2.2-0.1c0,0.6-0.1,1.3-0.1,2.3v7.5
		c0,1.5-0.5,1.9-2.5,1.9c-0.2,0-0.4,0-0.7,0c0-0.7-0.1-1-0.4-1.9c0.6,0.1,0.8,0.1,1.1,0.1c0.4,0,0.5-0.1,0.5-0.5v-1.3h-1.9v1.3
		c0,0.9,0,1.5,0.1,2.1h-2.1c0.1-0.5,0.1-1.3,0.1-2.3v-1.1H169.8z M169.8,10.6V12h1.8v-1.5H169.8z M171.6,13.7h-1.8v1.5h1.8V13.7z
		 M173.5,12h1.9v-1.5h-1.9V12z M175.4,15.2v-1.5h-1.9v1.5H175.4z"/>
	<path d="M192.6,13.8c0,1.5-1.2,2.6-2.6,2.6s-2.6-1.2-2.6-2.6c0-1.5,1.2-2.6,2.6-2.6S192.6,12.4,192.6,13.8z"/>
	<path d="M220.5,7.4c-0.2,0.4-0.3,0.5-0.4,1c-1.1,4.2-2.4,6.8-4.5,9.2c-2.2,2.4-4.5,4-8.2,5.6c-0.6-1.2-0.9-1.6-1.9-2.6
		c1.9-0.6,3.2-1.2,4.8-2.2c3.4-2.2,5.6-5.3,6.7-9.6h-10.5c-1.5,0-2,0-2.8,0.1V6c0.9,0.1,1.3,0.2,2.8,0.2h10.1c1.2,0,1.7,0,2.4-0.2
		L220.5,7.4z"/>
	<path d="M235.2,20.2h4.5c1,0,1.4,0,2-0.1v2.5c-0.6-0.1-1.1-0.1-2-0.1h-11.3c-1,0-1.4,0-2,0.1v-2.5c0.6,0.1,1,0.1,2,0.1h4.3v-7.1
		h-2.9c-0.8,0-1.3,0-2,0.1v-2.5c0.6,0.1,1.1,0.2,2,0.2h8.6c0.9,0,1.4,0,2-0.2v2.5c-0.6-0.1-0.9-0.1-2-0.1h-3.1V20.2z"/>
	<path d="M247.6,19.6c1.9-0.1,4.5-0.7,6.5-1.6c2.8-1.2,4.8-2.9,6.5-5.4c1-1.4,1.6-2.6,2.2-4.4c0.9,1,1.2,1.4,2.3,2.2
		c-1.9,4-4,6.6-7,8.6c-2.2,1.5-5,2.6-8.4,3.3c-0.9,0.2-0.9,0.2-1.5,0.4L247.6,19.6z M249.5,5.9c2.6,1.6,4,2.6,5.7,4.2l-1.9,2.4
		c-1.8-1.9-3.6-3.3-5.6-4.5L249.5,5.9z"/>
	<path d="M285.4,22.9c-1.8-2.2-4.4-4.7-6.8-6.5c-2.5,2.8-5,4.7-8.4,6.4c-0.6-1.1-0.9-1.5-1.8-2.4c1.7-0.7,2.8-1.3,4.4-2.4
		c3.3-2.3,6-5.5,7.4-9l0.2-0.6c-0.4,0-0.4,0-7.3,0.1c-1.1,0-1.7,0.1-2.4,0.2l-0.1-2.8c0.6,0.1,1,0.1,1.9,0.1c0.1,0,0.3,0,0.5,0
		l7.7-0.1c1.2,0,1.4,0,2-0.2l1.5,1.5c-0.3,0.3-0.5,0.6-0.7,1.2c-1,2.4-2.1,4.3-3.4,6.1c1.4,0.9,2.6,1.8,4.1,3.2
		c0.6,0.5,0.6,0.5,3.2,3.1L285.4,22.9z"/>
	<path d="M302.6,13.8c0,1.5-1.2,2.6-2.6,2.6s-2.6-1.2-2.6-2.6c0-1.5,1.2-2.6,2.6-2.6S302.6,12.4,302.6,13.8z"/>
	<path d="M328.7,16.4c-0.5,0.6-1,1.2-1.5,2.1c-2.3-1.5-4.2-3.5-5.3-5.6c-0.3,0.8-0.6,1.4-1.1,2.1c-1,1.6-2.2,2.6-4.2,3.9
		c-0.3-0.6-0.8-1.2-1.4-1.8v4.3c0,1.4,0,2,0.1,2.6h-2.7c0.1-0.7,0.2-1.6,0.2-2.7V8.7c0-0.9,0-1.5-0.1-2.1c0.8,0.1,1.4,0.1,2.6,0.1
		h5.4c0-0.5,0-0.8,0-1.2c0-0.9,0-1.4-0.1-1.9h2.8c-0.1,0.4-0.1,0.6-0.1,1.1c0,0.3,0,0.3-0.1,1.2c0,0.5,0,0.5,0,0.8h5.6
		c1.2,0,1.8,0,2.5-0.1c-0.1,0.6-0.1,1.2-0.1,2.1v12.6c0,0.9-0.1,1.3-0.3,1.6c-0.5,0.6-1.3,0.8-3.3,0.8c-0.6,0-1.3,0-2.1-0.1
		c-0.2-1.1-0.3-1.7-0.7-2.5c1.1,0.2,2,0.2,2.9,0.2c1.1,0,1.2-0.1,1.2-0.7V16.4z M315.3,16.8c1.8-1.1,2.8-2,3.7-3.3
		c0.8-1.2,1.3-2.7,1.6-4.6h-5.2V16.8z M322.9,8.9c-0.1,0.5-0.1,0.7-0.2,1.1c0.6,1.4,1.5,2.6,2.5,3.7c0.9,1,2,1.7,3.5,2.6V8.9H322.9z
		"/>
	<path d="M343.4,16.5c-0.4,0.4-0.7,0.6-1.3,1.1v3.5c1.5-0.3,3.1-0.6,4-0.9v2.1c-2.9,0.7-5.9,1.3-9,1.7l-0.4-2.3c0.4,0,0.4,0,0.9,0
		c0.4,0,1.3-0.1,2.2-0.2v-2.3c-1.5,0.9-3,1.6-4.9,2.3c-0.3-0.8-0.6-1.3-1.2-2.1c2.9-0.7,4.9-1.6,6.9-2.9h-4.1c-1.1,0-1.7,0-2.4,0.1
		v-2.3c0.7,0.1,1.4,0.1,2.5,0.1h6.3v-0.4c0-0.5,0-0.9-0.1-1.3h2.5c-0.1,0.4-0.1,0.7-0.1,1.3v0.3h6.3c1,0,1.8,0,2.4-0.1v2.3
		c-0.7-0.1-1.4-0.1-2.4-0.1h-5.2c0.4,0.8,0.8,1.3,1.7,2.1c1.2-0.8,1.7-1.2,2.4-2l2,1.1c-1.2,1-1.8,1.5-2.7,2.1
		c1.5,0.9,3,1.5,4.9,1.9c-0.5,0.6-0.8,1.2-1.3,2.3c-3-1-5-2.1-6.7-3.7c-1.3-1.1-2-2.2-2.6-3.8H343.4z M338.8,11
		c-0.9,0.4-1.6,0.7-2.9,1.3c-0.7,0.2-0.7,0.3-1.2,0.5l-0.7-2.3c1.5-0.3,2.7-0.6,4.9-1.6V5.6c0-0.8,0-1.3-0.1-1.8h2.5
		c-0.1,0.5-0.1,0.9-0.1,1.8v5.8c0,1.2,0,1.5,0.1,2h-2.5c0.1-0.6,0.1-1.1,0.1-2V11z M335.8,4.3c1.2,1.1,1.6,1.5,2.6,2.9l-1.7,1.5
		c-0.9-1.3-1.3-1.8-2.6-3L335.8,4.3z M344,8.1c-0.9,0-1.6,0-2.2,0.1V5.9C342.4,6,343,6,344,6h2.2V5.5c0-0.8,0-1.2-0.1-1.7h2.6
		c-0.1,0.5-0.1,0.9-0.1,1.7V6h3.1c1,0,1.6,0,2.2-0.1v2.3c-0.6-0.1-1.2-0.1-2.2-0.1h-3.1v2.2h2.4c1,0,1.5,0,2.1-0.1v2.3
		c-0.5-0.1-1-0.1-2-0.1h-6.6c-0.8,0-1.6,0-2.2,0.1v-2.2c0.5,0.1,1.1,0.1,2,0.1h1.9V8.1H344z"/>
	<path d="M365.4,17.1c-1.3,2.8-2.7,4.1-4.5,4.1c-2.5,0-4.3-2.6-4.3-6.1c0-2.4,0.9-4.7,2.4-6.4c1.8-2,4.4-3.1,7.6-3.1
		c5.3,0,8.7,3.2,8.7,8.2c0,3.8-2,6.8-5.3,8.2c-1.1,0.4-1.9,0.7-3.5,0.9c-0.4-1.2-0.6-1.7-1.3-2.6c2-0.3,3.3-0.6,4.4-1.2
		c1.9-1.1,3.1-3.1,3.1-5.5c0-2.1-0.9-3.8-2.7-4.9c-0.7-0.4-1.3-0.6-2.2-0.7C367.3,11.6,366.5,14.6,365.4,17.1z M362.2,9.2
		c-1.8,1.3-3,3.6-3,5.9c0,1.8,0.8,3.2,1.7,3.2c0.7,0,1.5-0.9,2.3-2.8c0.8-2,1.6-5,1.8-7.4C363.9,8.3,363.1,8.6,362.2,9.2z"/>
	<path d="M379.9,15.1c0-1.1,0-1.6,0.1-2.6c-0.5,1.1-0.8,1.5-1.5,2.4c-0.3-1.1-0.6-1.9-1.1-2.6c2-2.2,3.8-5.9,4.2-8.7l2.5,0.6
		c-0.1,0.4-0.1,0.4-0.3,1c-0.5,1.4-0.9,2.6-1.7,4.1v12.1c0,1.1,0,1.8,0.1,2.6h-2.4c0.1-0.9,0.1-1.5,0.1-2.6V15.1z M398.1,7.6
		c-0.6-0.1-1.1-0.1-1.9-0.1c-0.8,1.5-1.6,2.5-2.7,3.5c1.5,0.8,2.8,1.1,5.2,1.5c-0.4,0.8-0.7,1.4-0.9,2.3c-2.8-0.7-4.5-1.4-6.1-2.4
		c-1.4,0.9-2.7,1.4-4.9,2c-0.3-0.8-0.5-1.3-1-1.9c1.8-0.4,2.9-0.8,4.2-1.5c-0.8-0.7-1.1-1.1-1.8-2.1c-0.6,0.7-0.9,1-1.8,1.7
		c-0.4-0.4-0.5-0.5-1.1-1v8.9c0,1.2,0,1.7,0.1,2.2h-2.4c0.1-0.6,0.1-1.1,0.1-2.3v-9c0-1.1,0-1.4-0.1-2h2.3c0,0.4-0.1,0.6-0.1,1.2
		c1.7-1.5,2.9-3.2,3.4-5.1l2.4,0.5c-0.4,0.7-0.5,1-0.7,1.5h5.1c1.2,0,1.8,0,2.5-0.1V7.6z M398.2,18.2c-0.3,0.2-0.5,0.4-0.9,0.7
		c-3.2,2.8-5.9,4.1-11,5.1c-0.4-0.8-0.6-1.2-1.1-2c3.5-0.6,6-1.4,8.3-2.8c1.3-0.8,2.2-1.5,2.8-2.4L398.2,18.2z M393.3,14.4
		c-0.2,0.1-0.2,0.1-0.8,0.5c-1.3,0.9-2.9,1.6-5.5,2.4c-0.3-0.7-0.4-0.9-1.1-1.7c2.8-0.6,4.7-1.3,5.8-2.4L393.3,14.4z M395.7,16.2
		c-3,2.4-4.8,3.3-8.6,4.3c-0.2-0.7-0.5-1.2-1.1-1.8c3.3-0.6,6.7-2.2,7.8-3.7L395.7,16.2z M389.6,7.5c0.7,1.1,1.2,1.6,2.1,2.4
		c0.9-0.8,1.5-1.4,2-2.4H389.6z"/>
	<path d="M401.5,6.9c-0.7,0-1.1,0-1.7,0.1V4.7c0.5,0.1,1.1,0.1,2,0.1h3.1c0.9,0,1.4,0,2-0.1V7c-0.5-0.1-1-0.1-1.6-0.1h-0.7v4.3h0.5
		c0.6,0,0.9,0,1.4-0.1v2.2c-0.4-0.1-0.9-0.1-1.4-0.1h-0.5v4.3c0.9-0.4,1.2-0.5,2.2-1l0.1,2.3c-1.9,0.9-2.8,1.3-6.2,2.7
		c-0.1,0-0.2,0.1-0.4,0.2l-0.6-2.5c0.7-0.2,1.2-0.3,2.7-0.8v-5.2h-0.7c-0.6,0-1,0-1.5,0.1v-2.3c0.5,0.1,0.9,0.1,1.5,0.1h0.7V6.9
		H401.5z M412.2,18.9h-2.4c-1.3,0-1.7,0-2.3,0.1v-2.2c0.5,0.1,1,0.1,2.3,0.1h2.5v-1.8h-2.1c-1.5,0-2,0-2.6,0.1c0-0.5,0-0.5,0.1-2.7
		v-5c0-1.5,0-2.2-0.1-2.9c0.8,0.1,1.5,0.1,3,0.1h6.1c1.6,0,2.3,0,2.8-0.1c-0.1,0.6-0.1,1.7-0.1,3v4.7c0,1.5,0,2.3,0.1,2.9
		c-0.7-0.1-1.1-0.1-2.4-0.1h-2.5v1.8h2.8c1.2,0,1.7,0,2.3-0.1V19c-0.6-0.1-1.2-0.1-2.3-0.1h-2.8v2.3h3.5c1.2,0,1.7,0,2.3-0.1v2.4
		c-0.7-0.1-1.3-0.1-2.5-0.1h-9.3c-1.2,0-1.7,0-2.5,0.1v-2.4c0.6,0.1,1.1,0.1,2.2,0.1h3.9V18.9z M409.7,6.7v2.2h2.4V6.7H409.7z
		 M409.7,10.8V13h2.4v-2.2H409.7z M414.4,8.9h2.6V6.7h-2.6V8.9z M414.4,13h2.6v-2.2h-2.6V13z"/>
	<path d="M430.8,8.4c0.6-0.2,1-0.2,1.9-0.4c0-0.4,0-0.4,0-1.2c0-1.9,0-2.1-0.1-2.6h2.8c-0.1,0.7-0.1,0.7-0.1,3.5
		c0.5,0,0.8-0.1,1.3-0.1c3.1,0,5.1,1.8,5.1,4.5c0,1.5-0.7,2.9-1.8,3.8c-1,0.9-2.4,1.3-4.1,1.3c-1.1,0-2.2-0.2-3.4-0.6
		c0-1.1-0.1-1.5-0.4-2.7c1.3,0.6,2.4,0.9,3.5,0.9c0.9,0,1.8-0.3,2.5-0.7c0.6-0.4,0.9-1.1,0.9-1.9c0-1.4-1.1-2.2-2.9-2.2
		c-1.6,0-2.9,0.3-6.6,1.4c1.4,4.8,1.5,5.2,2.8,10.7c0.1,0.5,0.2,0.6,0.3,1.1l-2.9,0.7c-0.1-1.8-1.3-7-2.7-11.7
		c-0.3,0.1-0.3,0.1-1.1,0.4c-0.8,0.2-2.3,0.8-2.8,1.1L422,11c0.6-0.1,0.9-0.2,2-0.6c0.9-0.3,1.1-0.4,2.1-0.7
		c-0.7-2.2-1.1-3.3-1.5-4.1l2.7-0.8c0.1,0.7,0.1,0.7,0.8,2.6c0.2,0.6,0.3,0.8,0.5,1.6L430.8,8.4z"/>
	<path d="M445.6,17.2c2,1.5,3.3,2.8,5,4.8l-2,1.9c-1.6-2.2-2.9-3.5-4.8-5L445.6,17.2z"/>
	<path d="M477.2,12.1c-0.1,0.4-0.1,0.8-0.1,1.3c0,2.7,1.1,4.6,3.5,6.2c1.5,0.9,2.9,1.5,5.3,2c-0.6,0.9-0.8,1.4-1.2,2.5
		c-2.9-1-4.3-1.7-5.8-2.8c-1.5-1.1-2.3-2.1-3-3.7c-0.7,1.9-1.4,3-2.9,4c-1.5,1.2-3.2,1.9-6,2.5c-0.3-0.9-0.6-1.5-1.2-2.4
		c2.9-0.5,4.6-1.1,6.1-2.3c1.8-1.5,2.8-3.6,2.8-6c0-0.5,0-0.9-0.1-1.4H477.2z M472.4,4.6c-1.4,1.9-1.6,2.1-2.8,3.3
		c1.1,1,2.1,2,3.1,3.3l-2.2,1.3c-1.2-1.9-2-2.8-3.8-4.5c1.6-1.6,2.6-2.9,3.2-4.2L472.4,4.6z M472.2,13.9c-0.9,2.2-1.6,3.2-3,4.9
		l-2.2-1.3c1.5-1.6,2.1-2.4,2.9-4.4L472.2,13.9z M478.3,4.6c-1.1,1.5-1.7,2.2-2.7,3.2c1.6,1.4,1.6,1.5,2.9,2.9l-2.2,1.2
		c-1-1.5-2-2.6-3.5-4.1c1.6-1.7,2.4-2.7,3.1-4.1L478.3,4.6z M484.3,4.5c-0.3,0.4-0.3,0.4-1.2,1.6c-0.5,0.7-0.8,1.1-1.4,1.6
		c1.4,1.2,1.9,1.7,3.2,3.2l-2.1,1.3c-2.1-2.7-2.4-3-4-4.5c1.7-1.8,2.4-2.8,3.1-4.2L484.3,4.5z M484.4,14.1c-1.2,1.8-1.8,2.6-3.5,4.1
		l-2-1.4c1.5-1.2,2.3-2.2,3.3-3.8L484.4,14.1z"/>
	<path d="M502.7,8.8c1,0,1.5,0,1.9-0.1v2c-0.5-0.1-1.1-0.1-1.9-0.1H499v1h4.9c1.1,0,1.5,0,1.9-0.1v2c-0.6-0.1-1.1-0.1-1.9-0.1H499v1
		h6.5c1,0,1.6,0,2.2-0.1v2.2c-0.6-0.1-1.2-0.1-2.2-0.1h-15c-1,0-1.6,0-2.2,0.1v-2.2c0.6,0.1,1.2,0.1,2.2,0.1h6.2v-1h-4.5
		c-0.8,0-1.4,0-2,0.1v-2c0.5,0.1,0.9,0.1,2,0.1h4.5v-1h-3.3c-0.8,0-1.4,0-2,0.1v-2c0.5,0.1,0.9,0.1,2,0.1h3.3c0-0.5,0-0.7-0.1-1.1
		h2.5C499,8.1,499,8.3,499,8.8H502.7z M496.6,5c0-0.5,0-0.9-0.1-1.4h2.7c-0.1,0.5-0.1,0.8-0.1,1.4v0.3h6c1.1,0,1.7,0,2.4-0.1
		c-0.1,0.5-0.1,0.9-0.1,1.6v1.5c0,0.7,0,1.2,0.1,1.7h-2.4V7.3h-14.3V10h-2.4c0.1-0.5,0.1-0.9,0.1-1.7V6.8c0-0.7,0-1.1-0.1-1.6
		c0.7,0.1,1.3,0.1,2.4,0.1h5.7V5z M492.9,24h-2.4c0.1-0.9,0.1-1.4,0.1-2v-2.7c0-0.7,0-1.3-0.1-1.9c0.5,0.1,0.9,0.1,1.7,0.1h11.6
		c0.9,0,1.3,0,1.8-0.1c-0.1,0.6-0.1,1-0.1,1.9V22c0,0.8,0,1.4,0.1,2h-2.4v-0.9h-10.2V24z M492.9,21.1h10.2v-1.8h-10.2V21.1z"/>
	<path d="M512.1,22.9c0-0.4,0-0.5-0.1-1c-0.4-2.7-0.6-4.4-0.6-6.6c0-2.8,0.3-5.3,0.9-8.6c0.2-1.2,0.3-1.5,0.3-2l2.9,0.3
		c-0.5,1.3-1,3.8-1.4,6.6c-0.2,1.7-0.3,2.9-0.3,4.9c0,0.5,0,0.7,0,1.2c0.2-0.8,0.3-0.9,1.1-2.9l1.8,0.8c-1.2,2.6-2,5.1-2,6.7
		c0,0.1,0,0.3,0,0.6L512.1,22.9z M521.5,14.2c-1.1,1.3-1.6,2.2-1.6,3.2c0,1.3,1.2,1.9,3.5,1.9c1.9,0,3.9-0.3,5.2-0.8l0.2,2.8
		c-0.3,0-0.4,0-0.9,0.1c-1.8,0.3-3.1,0.4-4.6,0.4c-2.7,0-4.5-0.6-5.5-1.9c-0.4-0.5-0.7-1.4-0.7-2.2c0-1.4,0.7-2.9,2-4.5L521.5,14.2z
		 M517.9,6.9c1,0.3,2.2,0.4,4.1,0.4c2.4,0,4.5-0.2,6-0.6l0.1,2.7c-0.2,0-0.5,0.1-1.6,0.2c-1.4,0.2-3.1,0.3-4.7,0.3
		c-1.6,0-1.6,0-4-0.2L517.9,6.9z"/>
	<path d="M539.8,11.2c0,2.9-0.2,5.4-0.4,7.2c-0.3,2.4-0.8,3.8-1.8,5.4c-0.4-0.6-1-1.2-1.6-1.7c0,0.8,0,1.1,0.1,1.9h-2.5
		c0.1-0.9,0.1-1.5,0.1-2.6v-6.1c0-0.8,0-1.6,0.1-2.9c-0.4,0.9-0.9,1.6-1.5,2.4c-0.4-1.4-0.4-1.4-1-2.6c1.2-1.4,2.2-3,3-4.9
		c0.6-1.4,0.9-2.6,1.1-3.6l2.4,0.6c-0.1,0.3-0.2,0.7-0.4,1.1c-0.4,1.4-0.7,2.2-1.4,3.6v12.8c0.6-1,0.8-1.6,1.1-2.9
		c0.3-1.7,0.5-3.9,0.5-7.3c0-0.8,0-1.5-0.1-2.2c0.7,0.1,1.2,0.1,2.3,0.1h9.9c1.2,0,1.7,0,2.4-0.1v2.2c-0.6-0.1-1.3-0.1-2.1-0.1
		H539.8z M540.8,5c0-0.7,0-1-0.1-1.3h2.4C543.1,4,543,4.4,543,5v0.5h3V5c0-0.7,0-1-0.1-1.3h2.4c-0.1,0.4-0.1,0.7-0.1,1.3v0.5h1.4
		c0.9,0,1.8,0,2.2-0.1v2.2c-0.6-0.1-1.2-0.1-2.2-0.1h-1.4v0.2c0,0.5,0,0.8,0.1,1.1H546c0-0.3,0.1-0.7,0.1-1.1V7.5h-3v0.2
		c0,0.5,0,0.8,0.1,1.1h-2.4c0-0.4,0.1-0.7,0.1-1.1V7.5h-0.9c-1.2,0-1.6,0-2.2,0.1V5.4c0.6,0.1,1.4,0.1,2.2,0.1h0.9V5z M542.3,20.2
		v1.3c0,1.4,0,1.9,0.1,2.4h-2.3c0.1-0.6,0.1-1.2,0.1-2.4v-7c0-1.2,0-1.6-0.1-2.4c0.7,0,1.1,0.1,2.3,0.1h6.7c1.1,0,1.5,0,2.1-0.1
		c-0.1,0.5-0.1,1.2-0.1,2.4V22c0,1.5-0.5,1.8-2.5,1.8c-0.2,0-0.2,0-1,0c-0.1-0.9-0.2-1.2-0.4-1.9c0.5,0.1,0.9,0.1,1.3,0.1
		c0.4,0,0.5-0.1,0.5-0.5v-1.3h-2.4v1c0,1.3,0,1.9,0.1,2.4h-2.2c0.1-0.7,0.1-1.3,0.1-2.4v-1H542.3z M544.7,14.1h-2.4v1.2h2.4V14.1z
		 M544.7,17.1h-2.4v1.2h2.4V17.1z M549.1,15.4v-1.2h-2.4v1.2H549.1z M549.1,18.4v-1.2h-2.4v1.2H549.1z"/>
	<path d="M556.6,9.9c0.6,0.1,0.8,0.1,1.3,0.1c2.1,0,5.1-0.2,7.8-0.5c1-0.1,1.4-0.2,1.8-0.4L569,11c-0.4,0.3-0.9,0.7-1.9,1.7
		c-1.2,1.1-3.1,2.8-3.8,3.4c0.6-0.2,0.8-0.3,1.3-0.3c0.8,0,1.4,0.3,1.8,0.9c0.3,0.5,0.4,0.8,0.5,2c0.2,1.7,0.4,2,1.9,2
		c1.5,0,3.2-0.3,4.3-0.8l0.3,2.7c-0.4,0-0.5,0-1.9,0.3c-1.3,0.2-2.1,0.3-3.1,0.3c-1.6,0-2.4-0.2-3.1-0.8c-0.6-0.6-0.8-1.1-0.9-2.8
		c0-0.8-0.1-1.1-0.2-1.4c-0.2-0.3-0.5-0.5-0.9-0.5c-1,0-2,0.6-3.8,2.3c-1.1,1.1-2.3,2.4-3.1,3.3l-2-2.3c1-0.7,1-0.7,5.1-4.4
		c0.5-0.5,0.9-0.8,2.6-2.4c0.6-0.6,1.5-1.4,2.6-2.4c-1.3,0.2-1.8,0.3-2.9,0.4c-0.3,0-0.3,0-2.2,0.2c-0.4,0-0.4,0-1.1,0.1
		c-0.8,0.1-1,0.1-1.7,0.2L556.6,9.9z M559.4,4.2c2.5,0.8,5.3,1.2,8.8,1.2l-0.4,2.5c-4.4-0.3-6.1-0.5-9.1-1.3L559.4,4.2z"/>
	<path d="M583.7,13.1c2-0.8,3-1,4.6-1c3.8,0,6.2,1.9,6.2,5c0,2.1-1,3.8-3,4.9c-1.4,0.8-3.3,1.3-5.3,1.3c-1.8,0-3.4-0.4-4.3-1
		c-0.8-0.6-1.3-1.5-1.3-2.5c0-1.8,1.6-3.1,3.8-3.1c1.5,0,2.9,0.6,3.8,1.8c0.4,0.5,0.7,1,1,2c1.8-0.7,2.6-1.6,2.6-3.2
		c0-1.7-1.7-2.8-4.4-2.8c-3.2,0-6.4,1.3-9.1,3.7l-1.5-2.4c0.8-0.4,1.7-1,3.1-2.1c2-1.6,4.9-4,6.6-5.7c0,0,0.3-0.3,0.4-0.4l0,0
		c-0.8,0.1-2.2,0.2-6.2,0.4c-0.5,0-0.6,0-1.1,0.1l-0.1-2.6c0.7,0.1,1.4,0.1,2.6,0.1c1.9,0,4.6-0.1,6.7-0.3c0.8-0.1,1-0.1,1.4-0.3
		l1.4,1.9c-0.4,0.2-0.5,0.3-1.1,0.9c-1.1,1-2.7,2.4-3.5,3.1c-0.4,0.3-2,1.5-2.4,1.8C584,12.9,584,12.9,583.7,13.1L583.7,13.1z
		 M584.3,18.6c-0.8,0-1.3,0.4-1.3,1c0,0.9,1,1.4,2.6,1.4c0.4,0,0.5,0,1.1-0.1C586.4,19.4,585.6,18.6,584.3,18.6z"/>
	<path d="M604.5,4.9c-0.1,0.6-0.1,0.8-0.1,2v6.1c0,1.1,0,1.4,0.1,1.9h-3c0.1-0.5,0.1-1.2,0.1-2V6.8c0-1.1,0-1.4-0.1-2L604.5,4.9z
		 M614.4,4.9c-0.1,0.6-0.1,0.8-0.1,2v3c0,3.4-0.2,5.3-0.6,6.7c-0.6,2.2-2,3.9-4.3,5.1c-1.2,0.7-2.3,1.1-4.3,1.7
		c-0.4-1.1-0.6-1.5-1.5-2.6c2.2-0.4,3.4-0.9,4.8-1.8c2.1-1.4,2.8-2.7,3-5.6c0.1-0.9,0.1-1.9,0.1-3.7V7c0-1.1,0-1.6-0.1-2.1H614.4z"
		/>
	<path d="M638.5,7.4c-0.2,0.4-0.3,0.5-0.4,1c-1.1,4.2-2.4,6.8-4.5,9.2c-2.2,2.4-4.5,4-8.2,5.6c-0.6-1.2-0.9-1.6-1.9-2.6
		c1.9-0.6,3.2-1.2,4.8-2.2c3.4-2.2,5.6-5.3,6.7-9.6h-10.5c-1.5,0-2,0-2.8,0.1V6c0.9,0.1,1.3,0.2,2.8,0.2h10.1c1.2,0,1.7,0,2.4-0.2
		L638.5,7.4z"/>
	<path d="M646.7,13.3c-0.9,0-1.4,0-2,0.1V11c0.6,0.1,1,0.1,2,0.1h6.4V9.8c0-0.8,0-1.3-0.1-1.7h2.6c-0.1,0.5-0.1,0.7-0.1,1.7l0,1.5
		h1.9c1,0,1.4,0,2-0.1v2.4c-0.6-0.1-1-0.1-2-0.1h-1.9l0.1,8.4c0,0.9,0,1.3,0.1,1.9h-2.7c0.1-0.5,0.1-1,0.1-1.8l0-5.5
		c0-0.2,0-1.1,0-1.4c-0.3,0.6-0.4,0.8-0.7,1.2c-1.5,2.1-4,4.1-7.1,5.8c-0.5-0.9-0.8-1.3-1.6-2.1c1.8-0.8,3.3-1.8,4.7-3
		c1.3-1.1,2.5-2.5,3.2-3.6H646.7z"/>
	<path d="M664.5,12.2c1,0.1,1.4,0.2,3.6,0.2h11.7c2.2,0,2.6,0,3.6-0.2v3.1c-0.9-0.1-1.1-0.1-3.6-0.1h-11.7c-2.5,0-2.7,0-3.6,0.1
		V12.2z"/>
	<path d="M696.8,5c-0.2,0.5-0.3,0.5-0.6,1.6c-1.7,5.5-2.9,9.2-4.4,12.5c3.5-0.3,7.3-0.7,9.2-1.1c-0.2-0.5-0.5-1-1-2
		c-1-1.8-1.4-2.5-2.1-3.5l2.5-1c2,3,4,6.7,5.3,10.2l-2.7,1.4c-0.3-0.9-0.3-0.9-1.1-2.7c-0.3,0.1-0.3,0.1-0.8,0.2
		c-2.2,0.5-5.9,0.9-12.5,1.6c-1.2,0.1-1.6,0.2-2,0.3l-0.4-3c0.3,0,0.3,0,0.6,0c0.4,0,1,0,1.9-0.1c1.2-2.8,2-5.3,3.2-8.9
		c1-3.2,1.5-4.8,1.6-6.1L696.8,5z"/>
	<path d="M716.5,4.2c-0.1,0.4-0.1,0.4-0.4,1.5c-0.1,0.5-0.2,1-0.5,1.9c1.5-0.2,2.7-0.4,3.5-0.6l0.1,2.5c-0.2,0-0.3,0-0.7,0.1
		c-0.8,0.1-2.1,0.3-3.5,0.4c-0.6,2.2-1.4,4.3-2.4,6.4c-0.5,1.1-0.7,1.5-1.5,3c-0.3,0.5-0.3,0.5-0.4,0.8l-2.5-1.4
		c0.8-1,1.4-2,2.1-3.5c0.9-1.8,1.2-2.7,2.1-5.2c-1,0-1.1,0-1.4,0c-0.3,0-0.4,0-0.9,0l-1.2,0V7.6c0.8,0.2,1.6,0.2,3,0.2
		c0.3,0,0.6,0,1.1,0c0.4-1.6,0.6-2.9,0.7-3.8L716.5,4.2z M726.5,22.1c-0.8-0.9-2.1-2-3.4-2.7c0,0.2,0,0.4,0,0.4
		c0,0.8-0.4,1.8-0.9,2.3c-0.8,0.8-2.1,1.2-3.7,1.2c-2.9,0-4.8-1.5-4.8-3.7c0-2.2,2-3.8,4.8-3.8c0.7,0,1.1,0,2,0.2
		c-0.1-1-0.1-1.9-0.1-2.5c0-0.9,0-1.5,0.2-2.2l2.6,0.1c-0.2,0.8-0.3,1.3-0.3,2.2c0,0.9,0,1.8,0.2,3c1.6,0.7,1.8,0.8,3.5,2
		c0.3,0.2,0.4,0.3,0.8,0.6c0.2,0.2,0.2,0.2,0.3,0.3L726.5,22.1z M718.7,18c-1.4,0-2.4,0.6-2.4,1.5c0,0.9,0.8,1.4,2.2,1.4
		c1.5,0,2.2-0.6,2.2-1.8c0-0.2,0-0.7,0-0.7C719.9,18.1,719.3,18,718.7,18z M726.6,11.9c-1.9-1.3-3.9-2.2-6.3-3.1l1.3-2.1
		c2.6,1,4.2,1.8,6.2,2.9L726.6,11.9z"/>
	<path d="M736.3,8.6c-0.3,1.2-0.7,3.3-1,5.4c0,0.3,0,0.3-0.1,0.6l0,0c1.3-1.2,4-2.1,6.7-2.1c3.7,0,6.2,1.8,6.2,4.7
		c0,1.6-0.9,3.2-2.3,4.2c-1.4,1-3.3,1.5-5.8,1.5c-1.9,0-3.1-0.2-5.6-0.8c0-1.4-0.1-1.8-0.3-2.8c2.2,0.7,4,1.1,5.9,1.1
		c3.1,0,5.3-1.3,5.3-3.2c0-1.5-1.4-2.4-3.7-2.4c-2,0-4,0.6-5.5,1.6c-0.4,0.3-0.5,0.4-1,0.9l-2.8-0.1c0.1-0.4,0.1-0.5,0.2-1.3
		c0.2-1.4,0.5-3.8,0.9-6.4c0.1-0.5,0.1-0.8,0.1-1.3L736.3,8.6z M736.6,4.2c1.5,0.8,5.7,2.1,8.2,2.4l-0.9,2.5
		c-3.8-0.9-6.1-1.6-8.6-2.8L736.6,4.2z"/>
	<path d="M753.6,17.2c2,1.5,3.3,2.8,5,4.8l-2,1.9c-1.6-2.2-2.9-3.5-4.8-5L753.6,17.2z"/>
	<path d="M129.2,52.5c-1.2,1.2-1.6,1.6-3.2,2.8c-0.5-1-0.8-1.4-1.5-2.1c1.5-0.9,2.5-1.8,3.7-3c1.1-1.1,1.8-2,2.6-3.5h-3.1
		c-1.1,0-1.9,0-2.6,0.1v-2.4c0.8,0.1,1.5,0.1,2.6,0.1h4.1c0.4-0.9,0.6-1.7,0.6-2.4l2.8,0.3c-0.2,0.3-0.2,0.4-0.5,1.2
		c-0.1,0.3-0.1,0.4-0.3,0.8h7.9c1.1,0,1.8,0,2.6-0.1v2.4c-0.7-0.1-1.5-0.1-2.6-0.1h-8.8c-0.4,0.7-0.7,1.2-1.1,1.8h7.5
		c1.1,0,1.7,0,2.3-0.1c-0.1,0.7-0.1,1.4-0.1,2.5v9.2c0,0.9-0.3,1.4-0.8,1.8c-0.4,0.2-1.2,0.4-2.6,0.4c-0.5,0-0.9,0-2-0.1
		c-0.1-1-0.2-1.5-0.6-2.3c1.2,0.2,1.9,0.2,2.6,0.2c1,0,1.1-0.1,1.1-0.6v-1.7h-8.2v1.9c0,1.2,0,2,0.1,2.8H129
		c0.1-0.8,0.1-1.7,0.1-2.8V52.5z M139.7,50.6h-8.2v1.6h8.2V50.6z M131.5,54.2v1.6h8.2v-1.6H131.5z"/>
	<path d="M155.7,45.6c-0.6,0.7-1.2,1.2-2.1,1.8c-0.5-0.7-0.9-1.1-1.5-1.5c1.7-1.1,3-2.6,3.5-4l2.3,0.4c-0.1,0.2-0.1,0.2-0.4,0.6
		c-0.1,0.2-0.2,0.4-0.5,0.7h6.4c0.9,0,1.4,0,1.8-0.1l1.3,1c-0.2,0.2-0.2,0.3-0.5,0.7c-0.7,1-1.1,1.4-1.9,2.3c-0.7-0.4-1.2-0.6-2-0.8
		c0.7-0.5,1-0.7,1.5-1.3h-3.4c0.7,2.2,2.9,3.3,7,3.6c-0.5,0.8-0.7,1.3-0.9,2.2c-0.9-0.2-1.2-0.2-2-0.4c0,0.6,0,1.2,0,1.9v4.1
		c0,1,0,1.9,0.1,2.3c-0.5,0-1.4-0.1-2.3-0.1h-1c1.7,0.8,3.3,1.2,6.1,1.5c-0.5,0.7-0.8,1-1.4,2c-3.3-0.5-4.8-1.1-7.2-2.5l1.3-1h-6
		l1.3,1c-2.3,1.4-3.8,1.9-7,2.5c-0.5-0.9-0.7-1.2-1.3-2c2.9-0.4,4.4-0.7,5.9-1.5h-0.9c-1,0-1.8,0-2.3,0.1c0-0.4,0.1-1.3,0.1-2.2
		v-4.3c0-1,0-1.7-0.1-2.3c0.5,0,1.2,0.1,2.2,0.1h1.1c-0.3-0.6-0.5-0.9-0.9-1.4c-1.3,0.6-1.5,0.7-3.2,1.4c-0.3,0.1-0.5,0.2-1,0.4
		l-0.9-2.3c1.5-0.3,3.4-1,5.4-2l0.7,1.9l-0.8,0.4c1.6-0.2,2.5-0.4,3.3-0.8c1.4-0.6,2-1.3,2.3-2.5H155.7z M151.1,46.3
		c-1.3-1-2.1-1.5-3.5-2.2l1.4-1.7c1.6,0.7,2.3,1.1,3.6,2L151.1,46.3z M151.9,52.8H162V52h-10.1V52.8z M151.9,55.2H162v-0.9h-10.1
		V55.2z M151.9,57.4H162v-0.8h-10.1V57.4z M162.2,50.4c0.3,0,0.4,0,0.7,0c-1.8-0.7-2.9-1.5-3.7-2.9c-0.6,0.9-1.1,1.4-2,2
		c-0.7,0.4-1.4,0.7-2.5,0.9H162.2z"/>
	<path d="M176.6,55c-0.3-0.7-0.5-0.9-0.9-1.4c-0.1,0.2-0.1,0.2-0.2,0.4c-0.7-1.3-0.8-1.3-1.3-2.5c0.1,1,0.1,1.8,0.1,2.9v5.5
		c0,1.2,0,2,0.1,2.7h-2.5c0.1-0.7,0.1-1.6,0.1-2.7v-4.5c0.1-1.9,0.1-1.9,0.2-2.9c-0.8,2.5-1.1,3.3-2,4.8c-0.5-1-0.8-1.4-1.4-2
		c1.3-1.9,2.4-4.5,3-6.9h-0.8c-0.7,0-1.1,0-1.6,0.1v-2.3c0.4,0.1,0.9,0.1,1.6,0.1h1v-1.8c0-1.1,0-1.7-0.1-2.3h2.5
		c-0.1,0.6-0.1,1.2-0.1,2.3v1.8h0.6c0.5,0,0.9,0,1.3-0.1v1.6c1.7-1.7,3-3.9,3.4-5.7l2.4,0.4c-0.1,0.2-0.2,0.4-0.4,0.9
		c0,0.2-0.1,0.3-0.2,0.5h3.1c1,0,1.5,0,1.9-0.1l1.3,1.4c-0.2,0.3-0.3,0.4-0.6,1c-0.9,1.6-1.9,2.8-3,4c2,1.2,3.6,1.9,5.6,2.4
		c-0.6,0.8-0.9,1.4-1.2,2.3l-1-0.4c0,0.3,0,0.4,0,0.9v4.8c0,1,0,1.7,0.1,2.2h-2.5v-1.1h-5.6v1.1h-2.4c0.1-0.6,0.1-1.1,0.1-2.2v-4.9
		c0-0.3,0-0.4,0-0.8L176.6,55z M174.3,48.4c0.6,1.4,1.3,2.5,2.4,3.8c-0.2,0.2-0.3,0.3-0.4,0.4c1.6-0.6,2.9-1.3,4.3-2.4
		c-0.7-0.7-1.1-1.1-1.8-2.1c-0.7,0.8-1,1.2-1.7,1.8c-0.4-0.6-0.9-1.2-1.4-1.6c-0.4,0-0.5,0-0.8,0H174.3z M185.9,54.1
		c0.3,0,0.3,0,0.5,0c-1.3-0.6-2.6-1.4-3.9-2.3c-1.3,1-1.9,1.4-3.8,2.3H185.9z M179.6,59.2h5.6v-3.1h-5.6V59.2z M180.3,46.1
		c-0.1,0.2-0.1,0.2-0.2,0.4c0.9,1.3,1.4,1.7,2.3,2.5c1.1-1,1.6-1.7,2.2-2.9H180.3z"/>
	<path d="M193.6,45.8c-1,0-1.7,0-2.3,0.1v-2.2c0.7,0.1,1.3,0.1,2.4,0.1h6.1c0-0.7,0-1.1-0.1-1.7h2.6c-0.1,0.5-0.1,1-0.1,1.7h6.5
		c1.1,0,1.7,0,2.4-0.1v2.2c-0.7-0.1-1.3-0.1-2.3-0.1H202v1h4.9c1.1,0,1.5,0,2.1-0.1c-0.1,0.7-0.1,1-0.1,1.8v4.3c0,0.7,0,1.1,0.1,1.8
		c-0.7-0.1-1.1-0.1-2.2-0.1v1h1.7c1.1,0,1.7,0,2.4-0.1v2.3c-0.7-0.1-1.5-0.1-2.3-0.1h-1.7v2.9c0,0.8-0.2,1.2-0.7,1.5
		c-0.5,0.3-1.3,0.4-2.9,0.4c-0.3,0-0.8,0-1.5,0c-0.2-1-0.4-1.6-0.7-2.2c1,0.1,1.7,0.2,2.5,0.2c0.8,0,0.9-0.1,0.9-0.5v-2.2h-10.9
		c-0.8,0-1.6,0-2.3,0.1v-2.3c0.7,0.1,1.3,0.1,2.4,0.1h10.8v-1h-9.3c-1,0-1.5,0-2.1,0.1c0.1-0.7,0.1-1.1,0.1-1.8v-4.3
		c0-0.7,0-1.1-0.1-1.8c0.6,0.1,1,0.1,2.1,0.1h4.5v-1H193.6z M198.2,62c-1.2-1.5-1.8-2-3.1-2.9l1.8-1.4c1.5,0.9,2.3,1.7,3.2,2.7
		L198.2,62z M195.4,48.6v1.1h4.2v-1.1H195.4z M195.4,51.5v1.2h4.2v-1.2H195.4z M202,49.8h4.6v-1.1H202V49.8z M202,52.7h4.6v-1.2H202
		V52.7z"/>
	<path d="M216.2,59.7c0,1.3,0,2.1,0.1,2.7h-2.6c0.1-0.7,0.1-1.5,0.1-2.7V45.3c0-1.2,0-1.8-0.1-2.5c0.6,0.1,1.1,0.1,2.2,0.1h3.9
		c1.1,0,1.7,0,2.2-0.1c0,0.6-0.1,1.2-0.1,2v4.3c0,1,0,1.5,0.1,2c-0.5,0-1.3,0-2,0h-3.9V59.7z M216.2,46.2h3.7v-1.4h-3.7V46.2z
		 M216.2,49.3h3.7v-1.4h-3.7V49.3z M232.1,59.7c0,2.1-0.6,2.5-3.8,2.5c-0.4,0-0.9,0-1.8,0c-0.1-1.1-0.3-1.7-0.6-2.4
		c1.1,0.1,2,0.2,3,0.2c0.7,0,0.8-0.1,0.8-0.6v-8.3h-4.1c-0.8,0-1.6,0-2,0.1c0-0.5,0.1-1.1,0.1-2v-4.3c0-0.7,0-1.4-0.1-2
		c0.6,0.1,1.1,0.1,2.2,0.1h4.1c1.1,0,1.6,0,2.3-0.1c-0.1,0.8-0.1,1.4-0.1,2.5V59.7z M225.9,46.2h3.9v-1.4h-3.9V46.2z M225.9,49.3
		h3.9v-1.4h-3.9V49.3z"/>
	<path d="M236.9,48.4c-0.5,0-0.9,0-1.7,0.1v-2.4c0.5,0.1,1,0.1,1.7,0.1h0.9v-1.8c0-1,0-1.6-0.1-2.2h2.6c-0.1,0.7-0.1,1.3-0.1,2.2
		v1.8h0.4c0.5,0,0.9,0,1.3-0.1v2.3c-0.5-0.1-0.9-0.1-1.3-0.1h-0.3v3.4c0.7-0.2,0.9-0.3,1.8-0.7v2.2c-1.1,0.4-1.1,0.4-1.8,0.7v6.2
		c0,1.8-0.6,2.2-2.9,2.2c-0.5,0-0.9,0-1.6-0.1c-0.1-0.9-0.2-1.5-0.5-2.3c0.6,0.1,1.3,0.2,1.8,0.2c0.7,0,0.9-0.1,0.9-0.7v-4.7
		c-0.3,0.1-0.5,0.2-0.6,0.2c-0.4,0.2-0.4,0.2-0.7,0.2c-0.3,0.1-0.7,0.2-0.9,0.4l-0.5-2.4c0.8-0.1,1.2-0.2,2.8-0.7v-4.2H236.9z
		 M246.9,47.3h-2.1c-1,0-1.9,0-2.5,0.1V45c0.6,0.1,1.4,0.1,2.5,0.1h2.1v-0.7c0-1.1,0-1.5-0.1-2.2h2.6c-0.1,0.7-0.1,1.2-0.1,2.2v0.7
		h3.1c1,0,1.8,0,2.5-0.1v2.4c-0.7-0.1-1.7-0.1-2.5-0.1h-3.1v2.8h2.1c0.7,0,1.2,0,1.6-0.1l1.2,1.3c-0.2,0.3-0.3,0.5-0.7,1.3
		c-1,1.9-2,3.3-3.4,4.8c1.6,1.2,3.2,2,5.5,2.7c-0.7,0.9-1.1,1.6-1.4,2.4c-2.4-1-4.2-2-5.9-3.5c-2.1,1.7-4.1,2.8-6.4,3.5
		c-0.3-0.8-0.7-1.6-1.2-2.3c2.4-0.7,4.1-1.5,6-2.8c-1.4-1.6-2.3-3-3.1-5.1c-0.4,0-0.5,0-0.9,0.1V50c0.6,0.1,1.4,0.1,2.2,0.1h2.1
		V47.3z M245.9,52.3c0.5,1.3,1.4,2.7,2.4,3.7c1.3-1.2,2-2.1,2.8-3.7H245.9z"/>
	<path d="M265.8,44.7c0-1.1,0-1.7-0.1-2.4h2.5c-0.1,0.7-0.1,1.3-0.1,2.4v1.8h1c1,0,1.4,0,2-0.1v1.8c0.4,0,0.6,0,1.1,0h3.3
		c0.9,0,1.3,0,1.8-0.1v2.4c-0.5-0.1-0.8-0.1-1.9-0.1v9.4c0,1.2-0.3,1.8-1,2c-0.4,0.1-1.2,0.2-2.3,0.2c-0.4,0-0.7,0-1.8,0
		c-0.1-0.9-0.2-1.6-0.5-2.3c1,0.1,1.7,0.2,2.6,0.2c0.5,0,0.7-0.1,0.7-0.5v-9h-1c-0.7,0-1,0-1.4,0.1v-1.8c-0.4,0-0.7,0-1.2,0H268v11
		c0,1.3,0,1.8,0.1,2.6h-2.5c0.1-0.8,0.1-1.4,0.1-2.6v-11h-1.9c-0.6,0-0.9,0-1.4,0.1c-0.6,1-1.1,1.7-1.5,2.3v8.8c0,1.2,0,1.8,0.1,2.5
		h-2.5c0.1-0.7,0.1-1.3,0.1-2.6v-4.1c0-0.9,0-0.9,0-2.4c-0.4,0.5-0.9,1.1-1.5,1.5c-0.3-1.2-0.4-1.6-0.9-2.4c1.3-0.9,2.3-2,3.3-3.5
		c0.5-0.8,0.9-1.5,1.1-2l1.6,0.9v-1.5c0.6,0.1,1,0.1,2,0.1h1.4V44.7z M262.7,43.3c-0.1,0.1-0.5,0.6-1.1,1.4c-1,1.3-2.1,2.3-3.9,3.5
		c-0.3-0.8-0.5-1.3-1.1-2.1c1.8-1.1,3.3-2.7,4-4.1L262.7,43.3z M264.9,50.4c-0.3,5-0.7,7.4-1.5,9.8c-0.6-0.4-1-0.6-2-1.1
		c0.6-1.3,0.9-2.3,1.1-3.7c0.2-1.3,0.4-3.4,0.4-5.3L264.9,50.4z M269.9,46.2c-0.6-1.3-0.8-1.6-1.8-2.8l1.7-1
		c0.7,0.8,1.1,1.3,1.6,2.2v-1.3c0.5,0.1,1,0.1,1.7,0.1h2c0.8,0,1.3,0,1.7-0.1v2.5c-0.5-0.1-1-0.1-1.7-0.1h-2c-0.7,0-1.2,0-1.7,0.1
		v-0.6L269.9,46.2z M270.3,50.1c0.7,2.4,1.2,4.9,1.6,7.7l-2,0.7c-0.4-3.4-0.8-5.8-1.4-8L270.3,50.1z"/>
	<path d="M281.8,50.6c-1.1,0-1.9,0-2.6,0.1v-2.4c0.6,0.1,1.4,0.1,2.7,0.1h5v-1.9h-3.3c-1.2,0-1.9,0-2.5,0.1v-2.3
		c0.6,0.1,1.4,0.1,2.6,0.1h3.2v-0.4c0-0.9,0-1.3-0.1-1.9h2.7c-0.1,0.6-0.1,1-0.1,1.9v0.4h1.6c1.1,0,1.8,0,2.5-0.1v1.9
		c1.2-1.2,2.1-2.4,2.6-3.3l2.2,1.4c-0.2,0.2-0.5,0.5-1,1.1c-0.9,1-1.8,2-3,3h2.3c1.1,0,1.8,0,2.5-0.1v2.4c-0.7-0.1-1.6-0.1-2.7-0.1
		h-4.7c-0.8,0.6-1.4,1-2.4,1.6c0.5,0,1.2,0,1.8,0h3.2c1.1,0,1.7,0,2.3-0.1c-0.1,0.6-0.1,1.2-0.1,2.4V60c0,1.1,0,1.9,0.1,2.5h-2.6
		v-0.9h-8v0.9h-2.6c0.1-0.7,0.1-1.5,0.1-2.5v-3.4c0-0.4,0-0.8,0-1.2c-1.3,0.7-1.8,0.9-3.5,1.5c-0.4-0.9-0.7-1.4-1.3-2.2
		c3.3-1,6.2-2.3,9.1-4H281.8z M285.8,55.8h8v-1.6h-8V55.8z M285.8,59.4h8v-1.7h-8V59.4z M290.8,48.5c0.8-0.6,1.4-1.1,2.1-1.8
		c-0.6,0-1-0.1-1.8-0.1h-1.8v1.9H290.8z"/>
	<path d="M312.7,52.4h5.2c1,0,1.6,0,2.1-0.1v1.9c-0.6-0.1-1.1-0.1-2.1-0.1h-5.8v1.2h6.2c1.3,0,1.9,0,2.5-0.1v2.2
		c-0.7-0.1-1.4-0.1-2.5-0.1H314c1.7,1.2,4.5,2.3,7.3,2.8c-0.4,0.6-0.6,0.9-0.8,1.3c0,0-0.1,0.2-0.2,0.5c0,0.1-0.1,0.2-0.2,0.4
		c-1.7-0.5-3-0.9-4.4-1.6c-1.5-0.8-2.5-1.4-3.6-2.5c0,0.6,0.1,1.2,0.1,1.5v1.3c0,0.8,0,1.1,0.1,1.6h-2.6c0.1-0.5,0.1-0.8,0.1-1.6
		v-1.3c0-0.5,0-0.9,0.1-1.5c-1.1,1.1-2.2,1.9-4,2.7c-1.2,0.6-2.4,1-3.9,1.4c-0.4-0.8-0.7-1.5-1.2-2.2c1.9-0.3,3.2-0.7,4.8-1.4
		c1.1-0.5,1.7-0.9,2.4-1.4h-4.2c-1.1,0-1.8,0-2.5,0.1v-2.2c0.6,0.1,1.1,0.1,2.5,0.1h6.2v-1.2h-4.4c-0.9,0-1.3,0-1.9,0.1
		c0.1-0.5,0.1-1.1,0.1-1.8v-2.7c0-0.7,0-1.3,0.1-1.9c-0.6,0.7-1.1,1.2-2,1.9c-0.4-0.9-0.6-1.5-1.1-2.2c1.7-1.2,2.9-2.5,4-4.2
		c0.3-0.5,0.5-1,0.7-1.4l2.6,0.4c-0.8,1.3-0.8,1.3-1.2,1.8h3.9c0.5-0.8,0.9-1.4,1.1-2.2l2.5,0.3c-0.5,1-0.8,1.4-1.1,1.9h4.7
		c1,0,1.6,0,2.2-0.1v2c-0.5-0.1-1-0.1-1.8-0.1h-5.3V47h4.2c1.1,0,1.4,0,2.1-0.1v1.8c-0.7-0.1-0.9-0.1-2.1-0.1h-4.2v1.1h4.2
		c1.1,0,1.4,0,2.1-0.1v1.8c-0.6-0.1-0.9-0.1-2.1-0.1h-4.2V52.4z M310.4,46h-4.5V47h4.5V46z M310.4,48.6h-4.5v1.1h4.5V48.6z
		 M305.9,51.3v1.1h4.5v-1.1H305.9z"/>
	<path d="M323.5,62.5c0.1-0.7,0.1-1.5,0.1-2.9v-14c0-1,0-1.8-0.1-2.6c0.8,0.1,1.5,0.1,2.6,0.1h13.7c1.1,0,1.8,0,2.6-0.1
		c-0.1,0.9-0.1,1.5-0.1,2.6v14c0,1.3,0,2.2,0.1,2.8H340v-1.2H326v1.2H323.5z M326,59.1h13.9V45.2H326V59.1z M334.5,47.3
		c0-0.8,0-1.1-0.1-1.6h2.5c-0.1,0.4-0.1,0.8-0.1,1.6v0.8h0.6c0.7,0,1.4,0,1.8-0.1v2.3c-0.4-0.1-1.1-0.1-1.8-0.1h-0.6v6.2
		c0,1.8-0.6,2.2-3,2.2c-0.6,0-0.7,0-2.1-0.1c-0.1-1.1-0.2-1.4-0.6-2.2c1.2,0.2,2,0.2,2.7,0.2c0.5,0,0.7-0.1,0.7-0.6v-5.7H329
		c-0.9,0-1.5,0-2,0.1V48c0.6,0.1,1,0.1,2,0.1h5.5V47.3z M330.8,55.9c-0.9-1.9-1.5-2.8-2.6-4.2l1.8-1.2c1.3,1.6,1.8,2.3,2.8,4.1
		L330.8,55.9z"/>
	<path d="M358.6,53.7V42h6.6v2.4h-4v9.2H358.6z"/>
	<path class="st1" d="M371.5,56.3c-1.2,0-1.9,0-2.5,0.1v-2.5c0.7,0.1,1.3,0.1,2.3,0.1h11.2c1,0,1.9,0,2.6-0.1v2.5
		c-0.7-0.1-1.5-0.1-2.6-0.1h-4.4v3.2h6.1c1.1,0,2.1,0,2.7-0.1v2.4c-0.7-0.1-1.6-0.1-2.7-0.1h-14.3c-1.1,0-2,0-2.7,0.1v-2.4
		c0.5,0.1,1.8,0.1,2.7,0.1h5.7v-3.2H371.5z M375.6,43.6c0-0.6,0-0.9-0.1-1.4h2.7c-0.1,0.4-0.1,0.9-0.1,1.4v0.7h6.1
		c1,0,1.7,0,2.4-0.1c-0.1,0.5-0.1,0.9-0.1,1.7v1.2c0,0.6,0,1.1,0.1,1.7h-2.4v-2.3h-4.2v3.3c0,0.4,0.2,0.5,0.9,0.5c0.2,0,0.4,0,0.8,0
		c0.1,0,0.1,0,0.1,0c0.7,0,1.6-0.1,1.8-0.2c0.3-0.1,0.4-0.4,0.4-1.2c0.8,0.4,1.3,0.5,2.2,0.7c-0.1,1.3-0.3,1.9-0.8,2.2
		c-0.6,0.4-1.5,0.5-4.1,0.5c-2.9,0-3.5-0.3-3.5-1.7v-4.2h-1.9c-0.1,1.8-0.6,3.1-1.5,4.2c-0.7,0.8-1.8,1.5-3.1,2.1
		c-0.6,0.3-1.2,0.5-2.4,0.8c-0.4-0.7-0.8-1.4-1.4-2.1c2.2-0.4,3.3-0.9,4.4-1.7c1.2-0.9,1.5-1.6,1.7-3.4h-3.5v2.9h-2.4
		c0.1-0.6,0.1-1.1,0.1-1.8v-1.7c0-0.7,0-1.1-0.1-1.7c0.8,0.1,1.4,0.1,2.4,0.1h5.7V43.6z"/>
	<path class="st1" d="M403.3,44.7c0.7,0,0.9,0,1.3,0c0-1.4,1.1-2.6,2.5-2.6s2.6,1.1,2.6,2.5c0,1.4-1.1,2.6-2.6,2.6
		c-0.1,0-0.3,0-0.4,0c-1.8,7.2-5.7,11.7-12.6,14.6c-0.6-1.1-0.9-1.7-1.9-2.6c6.1-1.9,10.1-6,11.5-11.8h-10.5c-1.6,0-2,0-2.8,0.1
		v-2.9c0.8,0.1,1.3,0.2,2.8,0.2H403.3z M405.7,44.6c0,0.8,0.6,1.5,1.4,1.5c0.8,0,1.5-0.7,1.5-1.5c0-0.8-0.6-1.4-1.5-1.4
		C406.3,43.2,405.7,43.8,405.7,44.6z"/>
	<path class="st1" d="M415.7,59.4V61h-2.8c0.1-0.5,0.1-1.1,0.1-1.9V46.5c0-0.8,0-1.3-0.1-1.8c0.5,0,1,0.1,1.9,0.1h12.5
		c0.9,0,1.3,0,1.8-0.1c0,0.6-0.1,1-0.1,1.8V59c0,0.8,0,1.4,0.1,1.9h-2.8v-1.5H415.7z M426.3,47.2h-10.6v9.7h10.6V47.2z"/>
	<path d="M439.4,51v11.6h-6.6v-2.4h4V51H439.4z"/>
	<path d="M457.1,61.4c0-0.4,0-0.5-0.1-1c-0.4-2.7-0.6-4.4-0.6-6.6c0-2.8,0.3-5.3,0.9-8.6c0.2-1.2,0.3-1.5,0.3-2l2.9,0.3
		c-0.5,1.3-1,3.8-1.4,6.6c-0.2,1.7-0.3,2.9-0.3,4.9c0,0.5,0,0.7,0,1.2c0.2-0.8,0.3-0.9,1.1-2.9l1.8,0.8c-1.2,2.6-2,5.1-2,6.7
		c0,0.1,0,0.3,0,0.6L457.1,61.4z M466.5,52.7c-1.1,1.3-1.6,2.2-1.6,3.2c0,1.3,1.2,1.9,3.5,1.9c1.9,0,3.9-0.3,5.2-0.8l0.2,2.8
		c-0.3,0-0.4,0-0.9,0.1c-1.8,0.3-3.1,0.4-4.6,0.4c-2.7,0-4.5-0.6-5.5-1.9c-0.4-0.5-0.7-1.4-0.7-2.2c0-1.4,0.7-2.9,2-4.5L466.5,52.7z
		 M462.9,45.4c1,0.3,2.2,0.4,4.1,0.4c2.4,0,4.5-0.2,6-0.6l0.1,2.7c-0.2,0-0.5,0.1-1.6,0.2c-1.4,0.2-3.1,0.3-4.7,0.3
		c-1.6,0-1.6,0-4-0.2L462.9,45.4z"/>
	<path d="M485.1,58.3c0,0.9,0,1.4-0.2,1.9c-0.2,0.8-1,1.3-2,1.3c-1.4,0-3.1-0.6-4.2-1.6c-0.8-0.7-1.2-1.5-1.2-2.5
		c0-1,0.7-2.2,1.9-3.3c0.8-0.7,1.8-1.3,3.2-1.9l0-3.4c-0.2,0-0.2,0-0.9,0c-0.3,0-0.6,0-1.2,0c-0.3,0-0.9,0-1.2,0c-0.3,0-0.5,0-0.5,0
		c-0.1,0-0.3,0-0.5,0l0-2.5c0.6,0.1,1.5,0.2,2.7,0.2c0.2,0,0.5,0,0.8,0c0.5,0,0.6,0,0.9,0v-1.5c0-1.3,0-1.8-0.1-2.5h2.8
		c-0.1,0.7-0.1,1.2-0.1,2.4v1.4c1.7-0.2,3.1-0.5,4.2-0.8l0.1,2.5c-0.4,0.1-0.8,0.1-2.3,0.4c-0.7,0.1-1.2,0.2-2,0.3v2.9
		c1.5-0.4,2.9-0.6,4.5-0.6c3.7,0,6.3,2.2,6.3,5.4c0,2.9-2.1,5-5,5c-1.8,0-3-0.9-3.6-2.4c-0.3-0.7-0.4-1.5-0.4-2.8
		c1.1-0.3,1.5-0.5,2.4-1c0,0.4,0,0.6,0,1c0,0.9,0.1,1.5,0.3,1.9c0.2,0.5,0.8,0.7,1.4,0.7c1.3,0,2.2-1,2.2-2.4c0-1.9-1.5-3.1-3.9-3.1
		c-1.3,0-2.7,0.2-4.2,0.7L485.1,58.3z M482.6,54.8c-1.7,0.9-2.6,1.8-2.6,2.6c0,0.4,0.2,0.7,0.7,1c0.4,0.3,1,0.5,1.4,0.5
		c0.4,0,0.5-0.2,0.5-0.9V54.8z M494.8,50.3c-1.1-1.7-2.7-3.5-4.4-4.8l2.1-1.4c1.9,1.5,3.2,2.8,4.4,4.5L494.8,50.3z"/>
	<path d="M501.2,53.5c0-0.6,0-0.8,0.1-2.5c-0.5,0.9-1.1,1.6-1.8,2.4c-0.3-0.9-0.6-1.8-1.1-2.6c1.5-1.4,2.7-3.2,3.6-5.5
		c0.6-1.3,0.9-2.4,1-3.3l2.5,0.8l-0.7,2c-0.4,1.1-0.8,1.9-1.3,2.9v12c0,1,0,1.8,0.2,2.7H501c0.1-0.8,0.2-1.7,0.2-2.8V53.5z
		 M510.4,46.8c-1.4,0.3-3.2,0.5-4.5,0.7c-0.3-1-0.4-1.4-1-2.2c5-0.4,9.9-1.6,11.8-2.8l1.6,2.1c-0.5,0.1-0.6,0.2-1.2,0.4
		c-1.6,0.6-2.8,0.9-4.2,1.3v4.8h3.8c1,0,1.8,0,2.5-0.2v2.6c-0.7-0.1-1.4-0.1-2.5-0.1h-3.8v5.9h3.1c1.1,0,1.8,0,2.5-0.1v2.5
		c-0.7-0.1-1.5-0.2-2.5-0.2h-8.2c-1,0-1.8,0-2.5,0.2v-2.5c0.7,0.1,1.4,0.1,2.5,0.1h2.7v-5.9H507c-1.1,0-1.8,0-2.5,0.1V51
		c0.7,0.1,1.4,0.1,2.5,0.1h3.5V46.8z"/>
	<path d="M539,60.8c-0.2,0-0.2,0-1,0.1c-1.6,0.2-4.5,0.3-6,0.3c-4.1,0-5.9-0.8-6.6-2.9c-0.3-1-0.4-2.2-0.4-6c0-0.3,0-0.4,0-2.1
		c-3.1,0.2-3.1,0.2-4.1,0.4l-0.2-2.6c0.3,0,0.5,0,0.6,0c0.2,0,1.4-0.1,3.6-0.2c0-0.4,0-0.5,0-0.7c0-2.3,0-2.9-0.2-3.7h2.9
		c-0.1,0.8-0.1,0.8-0.2,4.3c3.1-0.2,3.1-0.2,6.4-0.3c0-3.5,0-3.5-0.1-4.4h2.8c-0.1,0.7-0.1,1-0.1,1.5v1.4c0,0.3,0,0.5,0,0.7
		c0,0.3,0,0.4,0,0.5c0,0,0,0.1,0,0.2c3.5-0.1,3.5-0.1,4.3-0.2l0,2.6c-0.5-0.1-0.7-0.1-1.3-0.1c-0.8,0-2,0-3.1,0
		c0,2.2-0.2,3.9-0.6,4.7c-0.5,1.1-1.4,1.7-2.7,1.7c-1,0-2-0.2-3.1-0.7c0-0.4,0-0.6,0-0.9c0-0.6,0-1-0.2-1.8c1.2,0.7,2.2,1.1,2.9,1.1
		c0.6,0,0.8-0.3,0.9-1.1c0.1-0.6,0.2-1.5,0.2-2.8c-3.3,0.1-3.3,0.1-6.4,0.3c0,0.3,0,0.3,0,0.6c0,0.1,0,0.1,0,1.3c0,0.1,0,0.4,0,0.5
		c0,1.1,0.1,3.5,0.1,4c0.2,1.8,1.1,2.3,4.7,2.3c2.9,0,4.9-0.3,6.4-0.8L539,60.8z"/>
	<path d="M558,44.4c-0.4,0.3-0.8,0.6-2.7,2.4c-1.1,1-2.7,2.3-5.2,4.2c-0.7,0.5-0.8,0.7-0.8,0.9c0,0.3,0,0.4,2,1.8
		c3.4,2.6,4.1,3.1,6.9,5.7c0.2,0.2,0.4,0.3,0.6,0.5l-2.3,2.3c-0.6-0.8-1.4-1.6-2.9-3c-1.6-1.5-2.3-2-5.7-4.7
		c-1.5-1.1-1.8-1.7-1.8-2.7c0-0.7,0.2-1.3,0.7-1.8c0.3-0.3,0.3-0.3,1.9-1.6c2.4-1.8,3.6-2.9,5.1-4.3c1-1,1.2-1.3,1.6-1.8L558,44.4z"
		/>
	<path d="M565.9,46.3c0.8,0.1,1.7,0.2,2.9,0.2c0.3,0,0.5,0,1,0c0.2-1.1,0.4-2.8,0.4-3.4c0-0.1,0-0.2,0-0.4l2.9,0.3
		c-0.1,0.5-0.2,0.6-0.4,1.7c0,0.3-0.1,0.6-0.2,1c0,0.1-0.1,0.3-0.1,0.7c1.4-0.1,2.7-0.4,3.8-0.7l0.1,2.5c-0.1,0-0.2,0-0.2,0
		l-0.5,0.1c-1.5,0.3-3.1,0.5-3.6,0.5c-0.8,4.2-1.9,7.9-3.8,13l-2.8-1.1c1.4-2.6,3.2-7.9,3.9-11.8c-0.1,0-0.2,0-0.2,0l-0.5,0h-1.1
		c0,0-0.2,0-0.5,0c-0.3,0-0.7,0-0.9,0c-0.1,0-0.2,0-0.4,0L565.9,46.3z M576.8,54.8c-0.9,1.1-1.1,1.7-1.1,2.4c0,1.1,1.1,1.7,3.3,1.7
		c1.6,0,3.7-0.4,5-0.8l0.2,2.7c-0.4,0-0.5,0.1-1.1,0.2c-1.8,0.3-2.8,0.4-4.1,0.4c-2,0-3.4-0.3-4.4-0.9c-0.9-0.5-1.6-1.6-1.6-2.7
		c0-1.2,0.4-2.2,1.6-3.8L576.8,54.8z M583.3,51.9c-1.1-0.1-1.7-0.2-2.8-0.2c-2.2,0-3.6,0.2-5.8,0.7l-0.2-2.4
		c3.1-0.6,4.2-0.7,6.6-0.7c0.7,0,1.2,0,2.2,0L583.3,51.9z M579.7,43.3c1,1,1.6,1.9,2.3,3.2l-1.5,0.8c-0.7-1.3-1.3-2.2-2.3-3.3
		L579.7,43.3z M583.1,46c-0.7-1.2-1.4-2.2-2.2-3.2l1.5-0.8c1,1,1.6,1.8,2.3,3.1L583.1,46z"/>
	<path d="M588.7,46.8c0.7,0.1,1.2,0.1,2.1,0.1c1.7,0,4.6-0.2,5.9-0.4c-0.4-1-1.3-3.3-1.4-3.5l2.8-0.4c0.1,0.7,0.5,1.9,1.2,3.5
		c2.3-0.4,4.2-0.9,5.4-1.3l0.3,2.6c-0.6,0.1-0.8,0.2-1.6,0.3c-0.3,0.1-1.4,0.3-3.2,0.7c0.8,1.5,1.3,2.4,1.5,2.8
		c0.6,1,1.6,2.4,2.3,3.5l-2.6,1.2c-0.6-0.5-0.9-0.7-1.5-0.9c-1-0.3-2.2-0.5-3.5-0.5c-3,0-4.8,0.9-4.8,2.5c0,1.4,1.6,2.2,4.6,2.2
		c2.3,0,4.9-0.6,6.6-1.5l0.4,2.8c-2.7,0.8-4.8,1.2-7,1.2c-2.8,0-5-0.6-6.1-1.7c-0.8-0.8-1.3-1.9-1.3-3c0-1.3,0.6-2.4,1.6-3.3
		c1.3-1.1,3.1-1.6,5.6-1.6c1.4,0,2.7,0.2,3.8,0.7c-0.9-1.2-0.9-1.3-2.4-4c-1.9,0.3-5.2,0.5-7.8,0.5c-0.6,0-0.6,0-1,0.1L588.7,46.8z"
		/>
	<path d="M613.3,44.5c-0.1,0.8-0.2,1.9-0.2,3.3c0,1.9,0.2,4.6,0.4,5.9c0.4,2.3,1.1,3.7,1.8,3.7c0.3,0,0.6-0.3,0.9-0.9
		c0.5-1.2,0.9-2.5,1.2-4c0.8,0.9,1.1,1.2,2.2,2c-1.1,4.3-2.4,6.1-4.3,6.1c-1.5,0-2.7-1.1-3.5-3.2c-0.9-2.2-1.3-5.4-1.4-11.5
		c0-0.8,0-0.9-0.1-1.4H613.3z M623.7,45.5c2.8,3.3,4.3,7,5,11.8l-2.7,1c-0.1-2.1-0.6-4.4-1.4-6.4c-0.7-2-1.8-3.8-3.1-5.4L623.7,45.5
		z"/>
	<path d="M638.3,58.7c0,2.1-1.7,3.7-3.7,3.7c-2,0-3.7-1.7-3.7-3.7c0-2,1.7-3.7,3.7-3.7C636.7,55,638.3,56.7,638.3,58.7z M632.6,58.7
		c0,1.1,0.9,2,2,2c1.1,0,2-0.9,2-2c0-1.1-0.9-2-2-2C633.5,56.7,632.6,57.6,632.6,58.7z"/>
</g>
</svg>
