<?xml version="1.0" encoding="utf-8"?>
<!-- Generator: Adobe Illustrator 24.0.3, SVG Export Plug-In . SVG Version: 6.00 Build 0)  -->
<svg version="1.1" id="レイヤー_1" xmlns="http://www.w3.org/2000/svg" xmlns:xlink="http://www.w3.org/1999/xlink" x="0px"
	 y="0px" viewBox="0 0 170.5 110.9" style="enable-background:new 0 0 170.5 110.9;" xml:space="preserve">
<style type="text/css">
	.st0{fill-rule:evenodd;clip-rule:evenodd;fill:#357589;}
	.st1{fill-rule:evenodd;clip-rule:evenodd;fill:#61A9C1;}
	.st2{fill-rule:evenodd;clip-rule:evenodd;fill:#8B8B8B;}
	.st3{fill-rule:evenodd;clip-rule:evenodd;fill:#CECECE;}
	.st4{fill-rule:evenodd;clip-rule:evenodd;fill:#5C5C5D;}
	.st5{fill-rule:evenodd;clip-rule:evenodd;fill:#F7FBFA;}
	.st6{fill-rule:evenodd;clip-rule:evenodd;fill:#B5D7E1;}
	.st7{fill-rule:evenodd;clip-rule:evenodd;fill:#CFE7E6;}
	.st8{fill-rule:evenodd;clip-rule:evenodd;fill:#0098CB;}
	.st9{fill-rule:evenodd;clip-rule:evenodd;fill:#B0D7D4;}
	.st10{fill-rule:evenodd;clip-rule:evenodd;fill:#01789D;}
	.st11{fill-rule:evenodd;clip-rule:evenodd;fill-opacity:0.3098;}
	.st12{fill-rule:evenodd;clip-rule:evenodd;fill:#ADEAFF;}
	.st13{fill-rule:evenodd;clip-rule:evenodd;fill:#898989;}
</style>
<g>
	<g>
		<path class="st0" d="M123.8,37.5l3.9,7.3c0.2,0.3,0.4,0.6,0.7,0.8l-4.3-0.6l-3-7.4L123.8,37.5z M80.2,37.9c-0.1,0-0.1,0-0.2,0
			c-0.6-0.1-1.2-0.2-1.7-0.3c-1-0.2-1.9-0.5-2.8-0.8c3.5-1.8,7.1-3.3,10.7-4.3c0.7,0.4,1.2,0.8,1.6,1.3c0.4,0.4,0.6,0.7,0.7,1.1
			C85.8,35.6,83,36.7,80.2,37.9z M107.1,37.1l0.9,3.9l0.5,2.3c-0.9-0.1-1.8-0.3-2.7-0.4c-6-1-11.9-1.8-17.7-2.6
			c0.5-0.5,1.3-1,2.6-1.6c6.7,0.1,10.7,0.4,11.9,0.9c1.1,0.4,1.9,1.1,2.3,1.9l-0.8-4.7C105.1,36.9,106.1,37,107.1,37.1z"/>
		<path class="st1" d="M107.1,37.1c1.2,0.1,2.5,0.3,3.8,0.6c0.5,0.1,0.9,0.2,1.2,0.3c-1.4,0.9-2.8,1.9-4.2,3L107.1,37.1z M91.1,38.6
			c0.2-0.1,0.4-0.2,0.7-0.3c3.1-1.2,7.2-1.7,12.3-1.4l0.8,4.7c-0.4-0.9-1.2-1.5-2.3-1.9c-1.2-0.5-5.2-0.8-11.9-0.9
			C90.8,38.7,91,38.6,91.1,38.6z M88.7,35.3c0.1,1.1-0.7,1.9-2.4,2.4c-1.6,0.5-3.7,0.6-6.1,0.2c2.7-1.3,5.5-2.3,8.4-3.1
			C88.7,35,88.7,35.2,88.7,35.3z"/>
		<path class="st2" d="M150.2,55.7c0-0.3,0.1-0.6,0.1-0.8c1.7,0.5,3.3,1,4.7,1.6c2.7,1.2,4,2.4,3.8,3.5c0-0.5-1.3-1.2-4-2
			c-1.4-0.4-3-0.8-4.7-1.1C150.1,56.5,150.2,56.1,150.2,55.7z M169.8,96c-1.6,2.7-4.4,4.7-8.4,6.2l1-3.8c3.8-0.5,6.5-1.8,8.1-3.8
			C170.3,95,170.1,95.5,169.8,96z"/>
		<path class="st3" d="M149.8,58.4L149.8,58.4c0.1-0.1,0.1-0.3,0.1-0.4l0,0c0.1-0.4,0.1-0.7,0.2-1.1c1.7,0.4,3.3,0.7,4.7,1.1
			c2.7,0.8,4.1,1.4,4,2l0,0c0,0,0,0,0,0l-9.1-1.3C149.7,58.6,149.8,58.5,149.8,58.4z M170.5,94.5c-1.6,2-4.3,3.3-8.1,3.8l0.8-3.1
			C165.9,95.1,168.4,94.9,170.5,94.5L170.5,94.5z"/>
		<path class="st4" d="M154.2,62.3c-1.7,0.2-3.6,0.3-5.6,0.2c0.5-1.3,0.9-2.5,1.1-3.7l9.1,1.3C158.6,61.2,157.1,61.9,154.2,62.3z
			 M169.8,96c-0.4,0.7-0.8,1.4-1.3,2.1c0,0-0.1,0.1-0.1,0.1l-0.1,0.1c-1.9,2.7-4.5,4.9-7.6,6.7l0.7-2.8
			C165.4,100.7,168.2,98.6,169.8,96z M163.6,93.5l6.9,1c-2.2,0.4-4.6,0.6-7.3,0.7L163.6,93.5z"/>
		<path class="st5" d="M118.3,33c2.3,0.6,3.9,1.6,4.8,3.1l0.7,1.3l-2.7,0.1l-1.6,0.1c-2.5,0.1-3.8,0.7-3.8,1.9
			c0,1.2,0.3,2.3,0.9,3.5c0.3,0.6,0.9,0.9,1.6,1.1c0.3,0.1,0.5,0.1,0.8,0.1l5.1,0.7l4.3,0.6c0.8,0.8,2,1.5,3.6,2
			c4.8,0.9,9.7,1.9,14.6,2.9c2.5,0.6,3.7,2,3.7,4.4c0,0.3,0,0.5-0.1,0.8c0,0.4-0.1,0.8-0.1,1.2c-0.1,0.4-0.1,0.7-0.2,1.1l0,0
			c0,0.1-0.1,0.3-0.1,0.4l0,0c0,0.1-0.1,0.3-0.1,0.4c-0.3,1.2-0.7,2.5-1.1,3.7c-0.8,2.1-1.8,4.2-3.1,6.4c-2.6,3.9-8,6-16.2,6.4
			c0.3,1.3-2.1,1.8-7.1,1.6l-0.5-1.9c-11.5-1.4-22.6-3.2-33.4-5.4c-9.8-2-19.3-4.4-28.4-7.1c-7.2-2.1-14.1-4.5-20.9-7
			C26,50.5,13.7,44.8,2.2,38.3c0.7-0.2,1.3-0.4,1.8-0.8c0.2-0.2,0.5-0.3,0.7-0.5c0.5-0.5,0.9-1,1.1-1.7c0.6-1.4,0.7-3.2,0.4-5.4
			L0,0.4L11.4,0l10.9,22.8c2.9,5.6,9.4,9.7,19.6,12.5c1.1,0.3,2.3,0.6,3.5,0.8c8.8,0.5,17.8,1.3,27.1,2.3c1-0.6,2-1.2,3-1.7
			c0.9,0.3,1.8,0.6,2.8,0.8c0.6,0.1,1.1,0.2,1.7,0.3c0.1,0,0.1,0,0.2,0c2.4,0.3,4.4,0.2,6.1-0.2c1.7-0.5,2.5-1.3,2.4-2.4
			c0-0.2-0.1-0.3-0.1-0.5c-0.1-0.4-0.4-0.8-0.7-1.1c-0.4-0.4-0.9-0.9-1.6-1.3C96.2,29.6,106.9,29.8,118.3,33z M110.9,37.7
			c-1.3-0.2-2.6-0.4-3.8-0.6c-1-0.1-2-0.2-3-0.3c-5.1-0.3-9.2,0.1-12.3,1.4c-0.2,0.1-0.5,0.2-0.7,0.3c-0.2,0.1-0.3,0.2-0.5,0.2
			c-1.2,0.6-2.1,1.1-2.6,1.6c5.8,0.8,11.7,1.6,17.7,2.6c0.9,0.1,1.8,0.3,2.7,0.4c2,0.3,4,0.7,6,1c0-0.3,0-0.6-0.1-0.9l-0.8-3.7
			c-0.1-0.8-0.6-1.3-1.5-1.7C111.8,37.9,111.4,37.8,110.9,37.7z M163.2,95.2l-0.8,3.1l-1,3.8l-0.7,2.8c-1.1,0.7-2.3,1.3-3.6,1.8
			c-0.5,0.2-1.1,0.4-1.7,0.7c-6,2.2-13.6,3.4-22.6,3.4c-13.3,0.1-29.8-2.2-49.6-6.8l-0.2-3.7l0,0.4c-8.2-2.6-15.9-5.3-23.1-8
			c-9.1-3.5-17.4-7.2-24.7-11.1c-4.1-2.1-7.8-4.3-11.4-6.5l-0.1-1.9l139.9,20.3L163.2,95.2z"/>
		<path class="st6" d="M113.6,39.7l0.8,3.7c0.1,0.3,0.1,0.7,0.1,0.9c-2-0.3-4-0.7-6-1l-0.5-2.3c1.3-1.1,2.7-2.1,4.2-3
			C113,38.4,113.5,39,113.6,39.7z M124.1,45l-5.1-0.7c-0.3,0-0.6,0-0.8-0.1c-0.7-0.2-1.2-0.6-1.6-1.1c-0.7-1.2-1-2.3-0.9-3.5
			c0-1.2,1.3-1.8,3.8-1.9l1.6-0.1L124.1,45z"/>
		<g>
			<path class="st7" d="M23.7,73.2l0.1,1.9c4,1.9,7.8,3.6,11.5,5.3c13.8,6.1,26.1,10.8,37,14.2c3.7,1.1,7.1,2.1,10.5,2.9l0.3,6.7
				c19.8,4.6,36.4,6.9,49.6,6.8c9.1,0,16.6-1.2,22.6-3.4c0.6-0.2,1.1-0.4,1.7-0.7c1.3-0.5,2.5-1.1,3.6-1.8l0.7-2.8
				c-3.2,1.2-7.2,2-12,2.5c-1.6,0.1-3.3,0.3-5.1,0.3c-8.4,0.3-18.7-0.4-31-2.1c-6.7-0.9-14.1-2.2-22-3.7l-0.6-4
				c-19.8-4.2-38.1-10.2-55-17.8c-1.9-0.9-3.8-1.7-5.6-2.6L23.7,73.2z"/>
			<path class="st8" d="M23.7,73.2l6.5,1.5c1.9,0.4,3.9,0.9,5.8,1.3C98.1,90,140.5,96.4,163.2,95.2l0.5-1.7L23.7,73.2L23.7,73.2z"/>
		</g>
		<g>
			<path class="st9" d="M103.4,45.3c-10.4-1.6-20.6-3-30.5-4.1c1-0.8,2.1-1.6,3.2-2.3c0.6,0.1,1.2,0.1,1.7,0.2
				c3.4,0.4,6.8,0.8,10.3,1.3c5.8,0.8,11.7,1.6,17.7,2.6C105,43.7,104.2,44.5,103.4,45.3z M145.5,68.9c-2.6,3.9-8,6-16.2,6.4
				c0.3,1.3-2.1,1.8-7.1,1.6l-0.5-1.9c-11.5-1.4-22.6-3.2-33.4-5.4c-9.8-2-19.3-4.4-28.4-7.1c-7.2-2.1-14.1-4.5-20.9-7
				C26,50.5,13.7,44.8,2.2,38.3c0.7-0.2,1.3-0.4,1.8-0.8l0,0C15.2,42.9,27,47.6,39.6,51.8c7,2.3,14.2,4.5,21.6,6.5
				c0.4-1.1,0.8-2.1,1.2-3.1C73,58,82.8,60.2,91.9,61.9c-0.5,1-1,2.1-1.5,3.2c10.9,2.1,22.1,3.8,33.7,5.3
				c11.5,0.8,18.8-0.7,21.9-4.6c0.8-1,1.6-2,2.2-3.2c0.6-1.1,1.1-2.3,1.4-3.6c0-0.1,0-0.1,0-0.2c0-0.1,0.1-0.3,0.1-0.4l0,0
				c0,0.1-0.1,0.3-0.1,0.4c-0.3,1.2-0.7,2.5-1.1,3.7C147.8,64.6,146.8,66.7,145.5,68.9z M110.7,64.7c0.9,0.1,1.9,0.2,2.8,0.3
				l-0.5,1.9L110.7,64.7z M129.3,75.1c-0.3-2.2-3.1-3.1-8.2-2.8l0.3,1.4C126.3,73.5,128.9,74,129.3,75.1z"/>
		</g>
		<g>
			<path class="st7" d="M124.1,45l4.3,0.6c0.8,0.8,2,1.5,3.6,2c4.8,0.9,9.7,1.9,14.6,2.9c2.5,0.6,3.7,2,3.7,4.4c0,0.3,0,0.5-0.1,0.8
				c0,0.4-0.1,0.8-0.1,1.2c-0.1,0.4-0.1,0.7-0.2,1.1c0-0.4,0-0.8,0-1.1c-0.2-1.9-1.4-3.2-3.6-3.7c-4.9-1-9.8-2-14.7-2.9
				c-0.1,0-0.1,0-0.2,0c-9.6-1.8-18.9-3.5-28-4.9c-1.5,1.6-3,3.3-4.4,5.1l14.7,13.5l-0.3,1.1c9.6,0.9,18,1.1,25.3,0.4
				c6.2-1,9.8-3.2,10.9-6.5c-0.4,1.3-0.9,2.5-1.4,3.6c-0.6,1.2-1.3,2.2-2.2,3.2c-3.1,3.9-10.4,5.4-21.9,4.6
				c-11.6-1.4-22.9-3.2-33.7-5.3c0.5-1.1,1-2.1,1.5-3.2C82.8,60.2,73,58,62.4,55.3c-0.4,1-0.8,2-1.2,3.1c-7.4-2-14.6-4.2-21.6-6.5
				C27,47.6,15.2,42.9,3.9,37.6c12.7,4.3,24.7,8.2,36,11.5c7.8,2.3,15.3,4.4,22.4,6.2c1.1-2.6,2.5-5,4-7.2c0.3-0.4,0.6-0.8,0.9-1.1
				c1.7-2.1,3.5-4.1,5.6-5.8c-9.6-1.1-18.8-1.9-27.8-2.4c-1.2-0.1-2.4-0.1-3.6-0.2C28.9,37.8,16.6,37.3,4.6,37
				c0.5-0.5,0.9-1,1.1-1.7c0.6-1.4,0.7-3.2,0.4-5.4L0,0.4L11.4,0l10.9,22.8c2.9,5.6,9.4,9.7,19.6,12.5c1.1,0.3,2.3,0.6,3.5,0.8
				c8.8,0.5,17.8,1.3,27.1,2.3c1-0.6,2-1.2,3-1.7c0.9,0.3,1.8,0.6,2.8,0.8c0.6,0.1,1.1,0.2,1.7,0.3c0.1,0,0.1,0,0.2,0
				c2.4,0.3,4.4,0.2,6.1-0.2c1.7-0.5,2.5-1.3,2.4-2.4c0-0.2-0.1-0.3-0.1-0.5c-0.1-0.4-0.4-0.8-0.7-1.1c-0.4-0.4-0.9-0.9-1.6-1.3
				c10-2.8,20.6-2.6,32,0.6c2.3,0.6,3.9,1.6,4.8,3.1l0.7,1.3l-2.7,0.1c-0.4-1.3-1.4-2.2-3.2-2.8c-2,0.9-4,2-5.9,3.2
				c-0.3-0.1-0.8-0.3-1.2-0.3c-1.3-0.2-2.6-0.4-3.8-0.6c-1-0.1-2-0.2-3-0.3c-5.1-0.3-9.2,0.1-12.3,1.4c-0.2,0.1-0.5,0.2-0.7,0.3
				c-0.2,0.1-0.3,0.2-0.5,0.2c-1.2,0.6-2.1,1.1-2.6,1.6c-3.4-0.5-6.9-0.9-10.3-1.3c-0.6-0.1-1.2-0.1-1.7-0.2
				c-1.1,0.7-2.2,1.5-3.2,2.3c9.9,1.1,20,2.5,30.5,4.1c0.8-0.8,1.6-1.6,2.4-2.3c0.9,0.1,1.8,0.3,2.7,0.4c2,0.3,4,0.7,6,1
				c3.4,0.6,6.9,1.2,10.4,1.8C124.6,45.9,124.3,45.4,124.1,45z M110.7,64.7l-13-12.4c-0.4,0.5-0.7,1-1,1.5c-1.7,2.5-3.3,5.2-4.7,8.1
				C98.5,63.1,104.8,64,110.7,64.7l2.3,2.2l0.5-1.9C112.5,64.9,111.6,64.8,110.7,64.7z M121,72.3c5.1-0.4,7.9,0.6,8.2,2.8
				c-0.4-1.1-3-1.6-7.9-1.4L121,72.3z M1.5,1.6l5.9,29.1c0.3,1.8,0.2,3.4-0.2,4.5c10.6-0.2,21.7-0.1,33.3,0.5
				c-9.7-2.4-15.9-6.2-18.6-11.4l-11.1-23L1.5,1.6z"/>
		</g>
		<g>
			<g>
				<path class="st10" d="M66.4,48.1c10.1,2,20.2,3.9,30.2,5.7c0.3-0.5,0.7-1,1-1.5l2.1,2.1c1.4,0.2,2.9,0.5,4.3,0.7l-3.5-3.2
					L67.3,47C67,47.3,66.7,47.7,66.4,48.1z"/>
				<path class="st8" d="M96.6,53.8c0.3-0.5,0.7-1,1-1.5l2.1,2.1C98.7,54.1,97.7,53.9,96.6,53.8z M100.5,51.8l49.1,7.1
					c-2.3,3.9-11.1,5-26.6,3.2c4-0.7,6.7-1.7,8.3-2.9c-9-1.3-18.1-2.7-27.2-4.2L100.5,51.8z M66.4,48.1c-6.6-1.3-13.2-2.7-19.8-4.2
					l20.7,3C67,47.3,66.7,47.7,66.4,48.1z"/>
			</g>
			<g>
				<path class="st9" d="M82.8,97.4c-3.3-0.8-6.8-1.8-10.5-2.9c-10.9-3.3-23.2-8.1-37-14.2c-3.7-1.7-7.6-3.4-11.5-5.3
					c3.5,2.2,7.3,4.4,11.4,6.5c7.3,3.9,15.6,7.6,24.7,11.1c7.1,2.8,14.8,5.4,23.1,8L82.8,97.4z"/>
			</g>
			<g>
				<polygon class="st10" points="5.9,23.3 5.3,20.6 4.1,20.2 4.7,23.2 				"/>
				<polygon class="st8" points="5.3,20.6 5.9,23.3 18.6,24.6 				"/>
			</g>
		</g>
		<g>
			<path class="st4" d="M153.5,57.7c0.1-0.5,0.3-1.1,0.4-1.6c3.2-12.4,4-18.6,2.5-18.7c-1.5-0.4-2.4,5.8-2.9,18.6
				C153.6,56.6,153.5,57.2,153.5,57.7z"/>
		</g>
		<g>
			<path class="st4" d="M153.1,60.6c-0.1,0.6-0.3,1.1-0.4,1.7c-3.2,12.3-4,18.5-2.5,18.6c1.5,0.4,2.4-5.8,2.9-18.6
				C153.1,61.7,153.1,61.2,153.1,60.6z"/>
		</g>
		<g>
			<path class="st11" d="M8.2,0.1l-0.7,0l4.1,12.7l-3.5,0.4c-0.1,0-0.1,0-0.2,0.1c0,0-0.1,0.1-0.1,0.2c0,0.1,0,0.1,0,0.2l5.9,19.9
				l-7.6,0.2c0,0.2-0.1,0.5-0.1,0.7l8.2-0.3c0.1,0,0.1,0,0.2-0.1c0.1,0,0.1-0.1,0.1-0.2c0-0.1,0-0.1,0-0.2L8.6,13.9l3.5-0.4
				c0.1,0,0.1,0,0.2-0.1c0.1,0,0.1-0.1,0.1-0.2c0-0.1,0-0.1,0-0.2L8.2,0.1z"/>
		</g>
		<g>
			<path class="st8" d="M15.6,39.5c10.9,4.2,17.9,5.9,20.8,4.9c0.4-0.1,0.7-0.3,1-0.5c2.2-2-6.3-4-25.5-5.9
				C13.2,38.5,14.4,39,15.6,39.5z"/>
			<path class="st7" d="M13.4,40.7c6.6,2.2,13,4.2,19.2,6.1c1.1-1,2.4-1.8,3.8-2.4c-2.9,0.9-9.8-0.7-20.8-4.9
				C14.8,39.8,14,40.2,13.4,40.7z"/>
			<path class="st9" d="M32.5,46.8c-6.2-1.9-12.6-3.9-19.2-6.1c-0.3,0.2-0.6,0.5-0.9,0.7c-0.5,0.5-1,1.1-1.4,1.7
				c5.8,3,11.8,5.7,17.9,8.3c0.5-1,1.1-1.9,1.7-2.7C31.3,48,31.9,47.4,32.5,46.8z"/>
		</g>
		<g>
			<path class="st8" d="M109.9,32.8c0.1-0.1,0.2-0.2,0.3-0.3c1.2-1.3,0-2.4-3.4-3.3c-0.7-0.2-1.5-0.4-2.4-0.5c-0.1,0-0.1,0-0.2,0
				c-5.3-0.9-14-1.6-26-1.9c1.6,0.6,3.2,1.2,4.7,1.7c8.4,3,15,4.8,19.6,5.3l0.1,0c1.2,0.1,2.3,0.2,3.3,0.2c1.2-0.1,2.3-0.3,3.1-0.6
				C109.3,33.2,109.6,33,109.9,32.8z"/>
			<path class="st10" d="M110.9,35c4.3,0.5,7.1,0.4,8.3-0.1c0.5-0.2,0.9-0.5,1.3-0.9c0.6-0.6,0.4-1.2-0.4-1.8
				c0.1,1.1-1.4,1.4-4.4,0.9c-3-0.5-4.9-0.6-5.7-0.3c-0.3,0.2-0.6,0.4-1,0.6c-0.8,0.4-1.8,0.6-3.1,0.6c-1,0-2.1,0-3.3-0.2
				c0.8,0.1,1.6,0.3,2.3,0.4c1.1,0.2,2.1,0.3,3,0.4C109,34.8,110,34.9,110.9,35z"/>
			<path class="st12" d="M120,32.2c-1.8-1.3-7-2.4-15.6-3.5c0.9,0.2,1.7,0.3,2.4,0.5c3.4,0.9,4.6,2,3.4,3.3
				c-0.1,0.1-0.2,0.2-0.3,0.3c0.8-0.3,2.7-0.2,5.7,0.3C118.6,33.6,120.1,33.3,120,32.2z"/>
			<path class="st13" d="M77.3,63.9l6.6,18.7l31-12.1l2.2,0.4l4.9,19.3l-5.1-0.3l-3.7-17.3L85,84.3l-3.3-0.5l-7.5-20.4L77.3,63.9z
				 M107.9,34.6c1,0.1,2,0.3,2.9,0.3c-0.3,0.9-1.1,1.5-2.4,1.7l7,27.8c1.8,0.5,3,1.6,3.5,3.2l-7.1-1l-7-32.5
				C106,34.4,107,34.5,107.9,34.6z"/>
		</g>
		<g>
			<polygon class="st8" points="25.1,62.4 22.9,62 23.7,73.2 33.3,74.6 			"/>
		</g>
	</g>
</g>
</svg>
