<?xml version="1.0" encoding="utf-8"?>
<!-- Generator: Adobe Illustrator 24.0.3, SVG Export Plug-In . SVG Version: 6.00 Build 0)  -->
<svg version="1.1" id="レイヤー_1" xmlns="http://www.w3.org/2000/svg" xmlns:xlink="http://www.w3.org/1999/xlink" x="0px"
	 y="0px" viewBox="0 0 784.9 228" style="enable-background:new 0 0 784.9 228;" xml:space="preserve">
<style type="text/css">
	.st0{fill-rule:evenodd;clip-rule:evenodd;fill:#F97000;}
	.st1{fill:#FFFFFF;}
	.st2{fill-rule:evenodd;clip-rule:evenodd;fill:#FF0000;}
</style>
<polygon class="st0" points="0,75.7 69.8,228 741.1,190.4 784.9,102.3 "/>
<g>
	<path class="st1" d="M231,187.5c0,0-8.9,4-12.5,9c-7.4,0.6-14.4,1.2-20.9,1.6c-27.1,1.5-45.8,0.5-62-17.4
		c-3.6,8.9-10.2,16.9-21.8,24l-9.7-4.3c15-14.6,16.1-30.3,13.9-47.1l22.1,2.4c-0.2,5.5-0.7,10.7-1.8,15.6
		c7.1,7.7,14.8,11.9,23.9,13.8l-9-40.2l-20.6,0.3l0.8,3.4l-18.7,0.3l-11.2-47.1l21.5,4.1l56.6,0.9l3.6-3.5l17.2,6.1l-3.6,3.6
		l7.1,34.2l-16.8,0.3l-0.6-3l-16.7,0.2l3.3,15.3l23.1-0.6l6.8-5.2l12.3,6.6l-9.3,7.2l-31,1l3.8,17.4c2.2-0.1,4.5-0.1,6.9-0.2
		c12.3-0.6,26.9-2,43.4-4.4L231,187.5z M182.1,115.3l-56.6-0.6l5,21.6l55.9-0.4L182.1,115.3z"/>
	<path class="st1" d="M273.5,161.4c-8.9,8.2-20.8,15.9-31.9,21.2l-10.2-12c4.9-1.1,10.3-2.6,15.6-4.4l-5.6-28.7l-10.8,0.1l-5.1-7.7
		l14.4,0l-5.1-26.5l14.4,0.3l4.9,26.2l1.5,0l4.3-3.8l9.8,5.8l-6.7,5.5l-7.4,0.1l4.5,23.8c3.8-1.6,7.2-3.4,10.2-5.1L273.5,161.4z
		 M308.4,183.4c-4.2,3.7-9.4,6.9-15.4,9.5l-6.2-4c13.1-7.2,20.2-16.9,22.3-27l-3.4,0.1c-5.4,11.3-16.4,20.6-31.2,27.1l-6.4-3.9
		c13-7.5,20.7-14.8,24.7-22.8l-4.4,0.1c-5.4,5.5-12,10.6-18.9,13.8l-6.3-3.8c10-6.4,16.6-13.9,19.9-21.7l-14.9,0.3l-4.9-7.2
		l59.5-0.8l5.2-3.9l9.3,5.4l-6.7,5.3l-33,0.7c-0.9,1.7-2.2,3.4-3.5,5.2l28-0.7l2.1-2.2l11.6,3.6l-2.3,3c0.8,5,1.8,13.9,1.5,20
		c-0.4,7.3-5,12.1-15.2,12.9c-3-2.8-6.9-4.1-11.8-4.8L308.4,183.4z M312.5,139.7l-0.2-1.4l-26.7,0.2l0.3,1.9l-13.1,0.1l-6.5-35.6
		l15.1,3l27.2,0.5l3.2-3l11.5,4.2l-2.8,2.8l4.5,27.1L312.5,139.7z M308.3,115l-27-0.3l0.9,5.2l26.9,0.2L308.3,115z M310.3,126.4
		l-26.8,0l1,5.4l26.7-0.1L310.3,126.4z M321.4,161.6c-1.5,8.2-5.7,15.5-12.5,21.4c3.1,0.3,5.5,0.4,7.4,0.3c7.8-0.4,8-4.2,6.1-21.8
		L321.4,161.6z"/>
	<path class="st1" d="M371.7,174.3c4.1,1.1,7.7,1.7,10.7,1.6c6.5-0.3,13.4-4.1,10.1-27.2c-2-14-6.6-14.2-14.2-14.2
		c-1.6,0-3.5,0-5.7,0.1c-3.1,17.7-7.4,36.2-13.5,51.3l-14.7-1.3c6.8-14.4,12.1-32.2,15.2-49.5c-8.7,0.3-16.9,0.7-18.2,0.7l-3.2-7.9
		c2.2,0,12.6-0.4,22.8-0.6c0.5-3.7,0.9-7.4,1.3-11l-6-1.6l1.6-4.4l18.6,0.3c-0.7,5.3-1.4,10.9-2.4,16.5c3.3-0.1,5.9-0.1,7.6-0.1
		c15.6,0.1,21.1,7.6,23.2,23.3c1.2,8.9,0.9,18.3-1.1,23.7c-2.4,6.8-8.4,9.9-15.5,10.3c-5.4,0.3-11.6-1-17.4-3.5L371.7,174.3z
		 M416.8,154.5c-1.3-9.4-11.7-25-19.9-32.2l5.6-3.2c9.4,5.9,22.9,19.4,26,27.5L416.8,154.5z M411.6,122.7
		c-3.6-3.8-9.6-8.5-13.8-10.7l3.6-3.4c3.7,1.1,11.4,4.8,14.9,7.2L411.6,122.7z M420.5,116.4c-3.6-3.6-9-7.6-13.2-9.8l3.3-3.2
		c3.2,0.8,10.5,3.4,14,5.9L420.5,116.4z"/>
	<path class="st1" d="M500.2,182.6c-5.6-3.1-11.9-5.8-18.9-7.8c-7.4,6.2-19.9,9.7-37.3,10.7c-1.6,0.1-3.2,0.2-4.9,0.2l-4-5.5
		l1.9-0.1c16-0.8,26.9-3.4,33.6-7.7c-3.1-0.5-6.5-0.9-9.9-1.2c-0.4,0.9-0.7,1.8-1,2.7l-10.4-0.3c1.6-3.8,3.4-8.9,5-14.2l-20,0.6
		l-3.4-6.5l25.3-0.6c0.7-2.4,1.3-4.9,1.9-7l-9.1,0.2l0.3,2.1l-9.8,0.2l-3.4-26.9l11.2,2.7l6.6,0l-0.7-6.3l-22.6-0.2l-3.4-6.7l63.7,1
		l4.5-3.4l6.5,5.2l-5.4,4.6l-17.2-0.2l0.7,6.1l8.4,0l2.2-2.4l8.2,4l-2.1,2.6l1.9,18.4l-9,0.2l-0.2-1.7l-21.1,0.4
		c-0.6,2.2-1.2,4.6-1.8,7l30.3-0.8l4.4-3.5l6.4,4.8l-5.3,4.7l-12.9,0.4c-0.3,4-1.3,7.6-3.1,10.6c6.6,1.2,13,2.7,19.3,4.7
		L500.2,182.6z M454.4,130.1l-7.5,0l1.2,10l7.5-0.1L454.4,130.1z M464.7,159c-0.8,2.6-1.6,5.2-2.4,7.5c4.6,0.1,9.1,0.4,13.6,0.8
		c1.8-2.6,2.8-5.5,3-8.8L464.7,159z M469.9,118l-7.3-0.1l0.7,6.2l7.3,0L469.9,118z M471.3,130.1l-7.3,0l1.1,9.8l7.2-0.1L471.3,130.1
		z M487.8,130l-7.3,0l1.1,9.6l7.2-0.1L487.8,130z"/>
	<path class="st1" d="M516.8,170.4c4.4,0.6,8.7,0.7,12.6,0.5c14.7-0.7,24.7-6.4,23.8-16.3c-0.6-7.4-8.2-8.9-12.6-8.8
		c-8.7,0.2-17.4,5.6-19.9,13.2l-9.7,0.4c0.8-5.7,1.8-18,2.3-28l-3.1-0.9l1.2-3.7l11.7,0c-0.4,6-1.5,13.2-2,18.4
		c5.2-3,12.8-5.6,21.1-5.7c5.1-0.1,20.1,1.5,21.2,15.4c1.1,13-10.5,21.4-29.3,22.4c-4.9,0.3-10.4,0-16.3-0.7L516.8,170.4z
		 M543.8,126.2c-5.8-2.7-18.2-4.5-31.2-4.7l-0.5-5.7c8.1-1.2,19.1-1.7,26.9-1.6c1.1,0,2.2,0.1,3.2,0.1L543.8,126.2z"/>
	<path class="st1" d="M601.8,128.9l-13.1,0c-3.2,11.1-7.9,23-12.4,33.5l-8.6-1.5c5-10,9.9-21.3,12.9-32l-12.8,0l-2.4-6.3l16.7,0.1
		c0.3-1.5,0.6-2.9,0.8-4.3l-3.9-1.5l1.2-3.5l11.9,0.2c-0.4,2.8-1,5.9-1.8,9.1l7.2,0l4-3.7l4.9,5.4L601.8,128.9z M617.8,171.1
		c-2.5-3.3-5.4-6-8.5-8.1c-0.7,6.1-4.4,11.3-12.6,11.7c-6.5,0.4-13.7-3-14.2-10c-0.4-5.7,4.2-10.8,14.1-11.1c1.8-0.1,3.5,0,5.2,0.2
		l-1.4-20l12.5-0.1l3.7-3.6l4.8,5l-4.2,4.2l-9.1,0.1l1.1,15.9c5,1.5,9.5,4,12.7,7.2L617.8,171.1z M595.4,159.1
		c-5.1,0.2-6.9,2.9-6.7,4.6c0.2,2.6,3,4.5,6.4,4.3c6.4-0.3,7-6,7-8C600,159.5,597.8,159.1,595.4,159.1z"/>
	<path class="st1" d="M647.4,152c-1.7,8-1.9,10.4-1.7,14.9c0,0.7,0.1,1.4,0.2,2c-0.8,0.4-1.8,0.7-2.8,0.7c-4.2,0.2-9.7-3-13.2-10.6
		c-2.9-6.3-4-15.4-4.6-24.5c-0.2-2.9-0.3-5.8-0.4-8.5l-3.9-1.7l1-3.9l10.4,0.1c-0.3,4.2-0.5,10.3-0.1,16.5c1,18,5.9,22,7.2,22
		c0.6,0,1.1-0.6,1.5-1.8c0.5-1.8,1.2-4.9,2.1-8.4L647.4,152z M666,159.8c0-0.2,0-0.4,0-0.7c-0.6-13.2-6.1-27.2-13.3-36l4.1-2.3
		c8.4,8.3,15.1,21.2,16,34.3L666,159.8z"/>
	<path class="st1" d="M709.7,166.9c-3,1-7.8,2.1-12.7,2.4c-8.6,0.5-20.1-1.5-20.7-14.5c-0.3-7.4,4.8-12.5,10.6-16
		c-1.1-4.4-2.2-12.8-2.6-19l-3.6-1.2l1.1-3.6l9.1,0.2c-0.1,1.2-0.1,2.7,0,4.4c0.2,5,1,11.8,1.9,16.2c2-0.8,3.8-1.6,5.4-2.2
		c1.4-0.6,2.7-0.8,4.5-1.4l-0.6-3.9l3.2-0.6l4.7,10.8c-13.2,2.3-28.8,5-28.4,15.6c0.3,8.1,11,7.9,13.4,7.8c4.2-0.2,10-1.4,15.7-3.4
		L709.7,166.9z"/>
	<path class="st1" d="M723.8,170.1c-2-4.7-5.6-10.1-9.5-13.7l2.9-3.5c3.8,2.1,8.9,6,11.8,9.4L723.8,170.1z"/>
</g>
<polygon class="st2" points="467.8,65 488.8,80 479.8,106 522.8,75 528.8,51 "/>
<polygon class="st2" points="194.8,41 234.8,90 577.8,75 614.8,0 "/>
<g>
	<path class="st1" d="M265.8,77c-1-3.3-2.5-6.4-4-9.1c-1.1,4.5-3.7,8.8-8.9,12.7l-2.4-1.7c5.8-5.1,7.2-10.5,7.4-16.3l-6.7,0.5
		l-1.3-3l7.9-0.6c0-1-0.1-2-0.2-3l-0.3-4l-1.6,0.1c-0.9,2.3-1.9,4.5-3.1,6.4l-2.5-0.7c1.9-4.5,2.5-10.2,2.5-14.4l5.6,0.3
		c-0.4,1.7-0.8,3.5-1.4,5.3l5.7-0.4l2-1.9l3.2,2.3l-2.8,2.5l-2.8,0.2l0.2,3.6c0.1,1.2,0.1,2.3,0.2,3.4l1.5-0.1l2-2l3.2,2.7l-2.7,2.3
		l-4,0.3c0,0.8,0,1.6-0.2,2.4c2.9,2.2,5.4,4.8,7.7,7.8L265.8,77z M281.6,77.5l-0.2-2.4l-6.1,0.4l0.2,2.8l-4.5,0.3L268.7,46l5.1,1.4
		l6.2-0.4l1.2-1.7l4.1,1.8l-1.2,1.6l2,28.5L281.6,77.5z M279.6,50.1l-6.1,0.4l1.5,21.9l6.1-0.4L279.6,50.1z"/>
	<path class="st1" d="M297.3,72.1c12.7-1.4,15.9-5.7,15.6-10.3c-0.3-4.2-3.8-5.6-7.7-5.3c-0.8,0.1-1.5,0.1-2.2,0.3
		c-3.8,0.8-8.8,2.4-10.7,2.9l-1.8-3c0.8-0.2,11-3.1,15.6-3.4c5.9-0.4,11.4,1.4,11.9,8.2c0.8,11.9-16.4,13.3-18.3,13.4
		c-0.4,0-0.8,0.1-1.1,0.1L297.3,72.1z"/>
	<path class="st1" d="M347.1,72.2c-0.2,0-0.5,0-0.7,0c-8.1,0.6-17.8-3.4-18.4-12.2c-0.4-5.9,2.9-11.4,7.3-14.2l-15.7,1.3l-1.5-3.3
		l27.1-2.2l2.8-2.4l4.1,2.4l-3.4,3.1l-0.4,0c-13,1.1-16.2,9-15.9,13.4c0.5,6.5,7.5,8.9,14.9,8.4c0.6,0,1.3-0.1,2-0.2L347.1,72.2z"/>
	<path class="st1" d="M373.7,59.1c-1.2,4.9-1.4,6.3-1.2,9c0,0.4,0.1,0.8,0.1,1.2c-0.6,0.3-1.3,0.5-2,0.5c-3.1,0.2-7-1.6-9.5-6
		c-2.1-3.6-2.8-8.9-3.1-14.1c-0.1-1.7-0.2-3.3-0.3-4.9l-2.7-0.8l0.7-2.3l7.2-0.5c-0.2,2.5-0.3,6-0.1,9.5c0.7,10.5,4.2,12.7,5.1,12.7
		c0.4,0,0.8-0.4,1.1-1.1c0.4-1.1,0.9-2.9,1.5-5L373.7,59.1z M387.7,63.3c0-0.1,0-0.2,0-0.4c-0.6-8.1-4.8-16.3-10.2-21.1l3-1.6
		c6.4,4.5,11.6,12,12.4,20L387.7,63.3z"/>
	<path class="st1" d="M426.2,66.2c-2.5-2.5-5.9-4.6-9.5-6c-0.2,2.9-1.7,7.7-9.2,8.3c-5.4,0.4-10-2.1-10.3-5.9
		c-0.3-4.2,4.2-6.6,9.2-6.9c0,0,0.1,0,0.2,0c1.7-0.1,3.3-0.1,4.9-0.1L411,51l-13.3,0.9l-1.5-3.2l14.5-1l-0.3-4.4l-13.3,0.9l-1.5-3.3
		l14.5-1l0-0.4c0-0.7-0.2-1.6-0.2-2.5l-2.9-0.6l0.5-2.1l7.3-0.5c0,0.8,0.1,3.8,0.2,5.1l0,0.7l6-0.4l2.4-2.2l3.7,2.5l-3,2.9l-8.8,0.6
		l0.3,4.4l5.9-0.4l2.4-2.3l3.7,2.5l-3,2.9l-8.7,0.6c0.1,2,0.3,3.9,0.4,5.5c4.4,0.7,8.4,2.1,11.9,4.1L426.2,66.2z M406.5,58.9
		c-2.9,0.2-5.4,1.3-5.3,3.1c0.2,2.2,2.7,2.8,5.1,2.6c5.1-0.4,5.3-4.5,5.3-5.4C409.1,58.8,407.3,58.8,406.5,58.9z"/>
	<path class="st1" d="M464.4,51c-4.2,11.4-11,14.8-17.7,15.3c-6.1,0.4-11.1-2.2-11.7-11.2c0-0.4-0.4-12.1-0.6-18.4l-2.9-0.8l1.1-2.3
		l7.2-0.5c-0.2,8.1,0.4,20.8,0.4,21.1c0.4,5.6,2.9,7.5,7,7.3c6.3-0.4,11.5-5.4,14-12.4L464.4,51z"/>
	<path class="st1" d="M466.9,62.9c2.5-7.5,4.8-16.8,6-24.5l-6.7,0.5l-1.4-3.3l8.5-0.6c0.1-0.8,0.1-1.6,0.2-2.3l-2.4-0.6l0.7-1.9
		l7.4-0.5c-0.1,1.5-0.3,3.1-0.5,5l6.4-0.4l2.6-2.3l3.2,2.7l-3.1,2.7l-9.7,0.7c-1.2,7.8-3.2,17.3-5.3,25L466.9,62.9z M499.7,60.6
		c-2.8,0.7-5.5,1-7.1,1.1c-4.9,0.3-10.6-0.5-12-7l2.4-2.2l2.3,1.1l-1.1,1.5c0.6,2.1,4.8,2.3,7.7,2.1c3.4-0.2,7-1.3,8.6-1.7
		L499.7,60.6z M488.3,45.9c1.1-0.8,2.2-1.8,3-2.5l-7.5,0.6l-1.4-2.9l12.4-0.9l1.3-0.8l3.9,2.4c-3,1.8-6.4,3.6-9.2,5.4L488.3,45.9z"
		/>
	<path class="st1" d="M515.3,55.5c1.6,0.4,3.1,0.7,4.4,0.6c2.7-0.2,5.8-2,5-12.5c-0.4-6.3-2.4-6.2-5.5-6c-0.6,0-1.4,0.1-2.3,0.2
		c-1.8,7.9-4.1,16.2-7,23l-5.7-0.5c3.1-6.4,5.7-14.3,7.5-22c-3.4,0.4-6.6,0.7-7.1,0.7l-1-3.3c0.8-0.1,4.9-0.5,8.9-0.9
		c0.3-1.6,0.6-3.2,0.8-4.8l-2.3-0.5l0.7-2l7.4-0.5c-0.4,2.4-0.9,4.8-1.5,7.4c1.4-0.1,2.4-0.2,3.1-0.3c6.5-0.4,8.7,2.8,9.2,9.9
		c0.3,4.1-0.1,8.4-1.1,10.9c-1.2,3.2-3.9,4.6-6.9,4.9c-2.3,0.2-4.8-0.4-7.1-1.5L515.3,55.5z M535,45.8c-0.3-4.3-4.4-11.2-7.7-14.2
		l2.5-1.6c3.9,2.4,9.5,8.2,10.7,11.9L535,45.8z"/>
	<path class="st1" d="M552.6,49l-0.5-7.6c7-0.6,9.4-4.7,9.2-8.2c-0.3-4.1-2.7-6.4-6.5-6.3l-0.4,0c-2,0.1-4.2,0.9-5.2,2.9
		c1,0.6,1.7,1.7,1.8,2.9c0.2,2.2-1.4,3.6-3.4,3.8c-2.2,0.1-3.7-1.4-3.9-3.6l0-0.3c-0.2-3.4,2.7-8.7,11-9.3
		c7.4-0.5,12.2,3.8,12.6,9.7c0.6,9-5.5,12-10.7,12.8l0.2,2.9L552.6,49z M551.3,55.5c-0.1-2,1.4-3.9,3.4-4s3.8,1.5,3.9,3.5
		c0.1,2.1-1.4,4-3.4,4.2S551.5,57.6,551.3,55.5z"/>
</g>
</svg>
