<?xml version="1.0" encoding="utf-8"?>
<!-- Generator: Adobe Illustrator 24.0.3, SVG Export Plug-In . SVG Version: 6.00 Build 0)  -->
<svg version="1.1" id="レイヤー_1" xmlns="http://www.w3.org/2000/svg" xmlns:xlink="http://www.w3.org/1999/xlink" x="0px"
	 y="0px" viewBox="0 0 60.4 1010.8" style="enable-background:new 0 0 60.4 1010.8;" xml:space="preserve">
<style type="text/css">
	.st0{fill:#3AAFF8;}
</style>
<g>
	<path class="st0" d="M60.2,1010.8L2.6,990.5v-8.4l57.6-20.5v6.5l-18.5,6.3v23.7l18.5,6.3V1010.8z M36.8,996.4v-20.3l-30,10.1
		L36.8,996.4z"/>
	<path class="st0" d="M28,918.8h2.3c9.4,0,11.5,7.3,11.5,15.4v13.9c2,0,3.9,0,5.6-0.1c1.6-0.1,3-0.2,4.2-0.8c2.3-1,3.6-3.2,3.6-8.1
		v-17.5h5.1v17.5c0,9.7-2.9,14.8-13.3,14.8H28c-9.3,0-12.1-7.1-12.1-15.3v-4.6C15.8,926,18.6,918.8,28,918.8z M28.6,947.9h8.6v-13.8
		c0-5.9-1-9.3-7.7-9.3c-7.3,0-8.6,2.4-8.6,9.2v4.7C20.9,944.7,21.9,947.9,28.6,947.9z"/>
	<path class="st0" d="M22.9,900.5c-1.2-0.9-2.4-1.9-3.5-3.1c-2-2.4-3.6-5.7-3.6-10.7v-1.2h5.1v1.2c0,4.2,0.9,6.7,2.7,8.9
		c0.9,1.1,2,2.1,3.4,3.2c1.4,1.1,2.9,2.4,4.7,3.8h28.5v6H15.8v-5l10.5-0.7L22.9,900.5z"/>
	<path class="st0" d="M8.3,871.2v5.9H0v-5.9H8.3z M60.3,871.2v5.9H15.8v-5.9H60.3z"/>
	<path class="st0" d="M27.4,827.2h32.9v5.3l-6,0.3c4.5,3.6,6,8.9,6,14.7c0,8.4-3.5,14.4-12.8,14.4c-8.5,0-12.2-4.4-13.8-10.3
		c-0.8-2.9-1.1-6.2-1.1-9.4c0-3.2,0.1-6.4,0.2-9.2h-5.4c-5.8,0-6.9,5.3-6.9,10.2V858h-4.7v-15.1C15.8,834.9,18,827.2,27.4,827.2z
		 M47.2,855.8c6.4,0,8.3-4.1,8.3-9.5c0-5-1.9-9.9-5.7-13.3H37.2v10C37.2,849.9,38.7,855.8,47.2,855.8z"/>
	<path class="st0" d="M60.3,810v6H0.1v-6H60.3z"/>
	<path class="st0" d="M36.3,739.6v10.2h24v6H2.7v-25.2c0-6.3,2.3-14.3,13.4-14.3h6.7c8.3,0,13.1,5.5,13.2,13
		c1.2-2.9,4.6-4.8,7.6-6.3l16.7-7.8v6.6l-13.8,5.9C40.6,730.3,36.3,733.1,36.3,739.6z M23.4,722.4H16c-5.2,0-8.2,2.8-8.2,8.2v19.2
		h23.7v-19.3C31.5,725.2,28.5,722.4,23.4,722.4z"/>
	<path class="st0" d="M28,670.2h2.3c9.4,0,11.5,7.3,11.5,15.4v13.9c2,0,3.9,0,5.6-0.1c1.6-0.1,3-0.2,4.2-0.8c2.3-1,3.6-3.2,3.6-8.1
		v-17.5h5.1v17.5c0,9.7-2.9,14.8-13.3,14.8H28c-9.3,0-12.1-7.1-12.1-15.3v-4.6C15.8,677.4,18.6,670.2,28,670.2z M28.6,699.4h8.6
		v-13.8c0-5.9-1-9.3-7.7-9.3c-7.3,0-8.6,2.4-8.6,9.2v4.7C20.9,696.1,21.9,699.4,28.6,699.4z"/>
	<path class="st0" d="M20.6,649.7h39.6v6H20.6v7.5h-4.4v-7.5h-4.7c-7.8,0-11.4-3.8-11.4-11.2v-8h5v6.9c0,4.1,0.6,6.3,6.3,6.3h4.7
		v-13.3h4.5V649.7z"/>
	<path class="st0" d="M28.5,594.4h19.2c8.4,0,12.6,5.3,12.6,15.4v3.9c0,10.2-4.2,15.3-12.6,15.3H28.5c-8.4,0-12.7-5.1-12.7-15.3
		v-3.9C15.8,599.7,20.1,594.4,28.5,594.4z M20.9,609.7v4.1c0,5.5,0.7,9.2,7.7,9.2h18.3c7.5,0,8.2-4.4,8.2-9.3v-4
		c0-5.5-0.7-9.3-7.6-9.3H28.6C21.6,600.4,20.9,604.2,20.9,609.7z"/>
	<path class="st0" d="M22.9,575.7c-1.2-0.9-2.4-1.9-3.5-3.1c-2-2.4-3.6-5.7-3.6-10.7v-1.2h5.1v1.2c0,4.2,0.9,6.7,2.7,8.9
		c0.9,1.1,2,2.1,3.4,3.2c1.4,1.1,2.9,2.4,4.7,3.8h28.5v6H15.8v-5l10.5-0.7L22.9,575.7z"/>
	<path class="st0" d="M28.5,501.4c-5.2,0-8.2,2.7-8.2,7.4c0,4.2,3.4,9,6.5,12.1l1.7-0.2h31.9v6.1H28.5c-5.2,0-8.2,2.7-8.2,7.5
		c0,4.1,3.3,9,6.4,11.8h33.6v6H16.7v-5l5.2-0.5c-4.1-4-6.5-9.5-6.5-14c0-5,2.5-9,7-10.6c-4.3-3.8-7-9.9-7-14.8
		c0-7.1,4.9-11.8,13-11.8h31.9v6.1H28.5z"/>
	<path class="st0" d="M16.1,401.6h7.2c11.1,0,13.5,8,13.5,14.3v19.3h23.5v6H2.7v-25.2C2.7,409.6,5,401.6,16.1,401.6z M7.8,415.9
		v19.4h23.7v-19.4c0-5.2-3.2-8.1-8.6-8.1h-6.6C11.1,407.7,7.8,410.6,7.8,415.9z"/>
	<path class="st0" d="M22.9,383.4c-1.2-0.9-2.4-1.9-3.5-3.1c-2-2.4-3.6-5.7-3.6-10.7v-1.2h5.1v1.2c0,4.2,0.9,6.7,2.7,8.9
		c0.9,1.1,2,2.1,3.4,3.2c1.4,1.1,2.9,2.4,4.7,3.8h28.5v6H15.8v-5l10.5-0.7L22.9,383.4z"/>
	<path class="st0" d="M28.5,326.6h19.2c8.4,0,12.6,5.3,12.6,15.4v3.9c0,10.2-4.2,15.3-12.6,15.3H28.5c-8.4,0-12.7-5.1-12.7-15.3
		v-3.9C15.8,332,20.1,326.6,28.5,326.6z M20.9,341.9v4.1c0,5.5,0.7,9.2,7.7,9.2h18.3c7.5,0,8.2-4.4,8.2-9.3v-4
		c0-5.5-0.7-9.3-7.6-9.3H28.6C21.6,332.7,20.9,336.4,20.9,341.9z"/>
	<path class="st0" d="M20.6,306h39.6v6H20.6v7.5h-4.4V312h-4.7c-7.8,0-11.4-3.8-11.4-11.2v-8h5v6.9c0,4.1,0.6,6.3,6.3,6.3h4.7v-13.3
		h4.5V306z"/>
	<path class="st0" d="M28,250.1h2.3c9.4,0,11.5,7.3,11.5,15.4v13.9c2,0,3.9,0,5.6-0.1c1.6-0.1,3-0.2,4.2-0.8c2.3-1,3.6-3.2,3.6-8.1
		V253h5.1v17.5c0,9.7-2.9,14.8-13.3,14.8H28c-9.3,0-12.1-7.1-12.1-15.3v-4.6C15.8,257.3,18.6,250.1,28,250.1z M28.6,279.3h8.6v-13.8
		c0-5.9-1-9.3-7.7-9.3c-7.3,0-8.6,2.4-8.6,9.2v4.7C20.9,276,21.9,279.3,28.6,279.3z"/>
	<path class="st0" d="M27.4,235.4c3.2,0,4.9-1.7,6.1-4.3c0.5-1.3,1-2.8,1.4-4.4c0.3-1.6,0.6-3.4,1-5.1c1.4-6.9,3.3-13.9,12.2-13.9
		c10.5,0,12.2,8.1,12.2,16.8v16h-5.1v-15.7c0-4.8-0.6-11.2-6.9-11.2c-3.2,0-5,1.8-6.1,4.4c-0.5,1.4-0.9,2.9-1.3,4.5
		c-0.3,1.7-0.5,3.4-0.8,5.1c-1.2,7-3.1,14-12.4,14s-11.8-7.2-11.8-15.2v-15.7h5V225C20.9,229.9,21.1,235.4,27.4,235.4z"/>
	<path class="st0" d="M27.4,194.5c3.2,0,4.9-1.7,6.1-4.3c0.5-1.3,1-2.8,1.4-4.4c0.3-1.6,0.6-3.4,1-5.1c1.4-6.9,3.3-13.9,12.2-13.9
		c10.5,0,12.2,8.1,12.2,16.8v16h-5.1v-15.7c0-4.8-0.6-11.2-6.9-11.2c-3.2,0-5,1.8-6.1,4.4c-0.5,1.4-0.9,2.9-1.3,4.5
		c-0.3,1.7-0.5,3.4-0.8,5.1c-1.2,7-3.1,14-12.4,14s-11.8-7.2-11.8-15.2v-15.7h5v14.4C20.9,189,21.1,194.5,27.4,194.5z"/>
	<path class="st0" d="M8.3,151.5v5.9H0v-5.9H8.3z M60.3,151.5v5.9H15.8v-5.9H60.3z"/>
	<path class="st0" d="M28.5,106.7h19.2c8.4,0,12.6,5.3,12.6,15.4v3.9c0,10.2-4.2,15.3-12.6,15.3H28.5c-8.4,0-12.7-5.1-12.7-15.3
		v-3.9C15.8,112.1,20.1,106.7,28.5,106.7z M20.9,122v4.1c0,5.5,0.7,9.2,7.7,9.2h18.3c7.5,0,8.2-4.4,8.2-9.3v-4
		c0-5.5-0.7-9.3-7.6-9.3H28.6C21.6,112.7,20.9,116.5,20.9,122z"/>
	<path class="st0" d="M28.5,67.4c-5.2,0-8.2,2.7-8.2,7.8c0,5.7,4.3,12.5,8.3,15.1h31.7v6H16.7v-5l6.6-0.5
		c-5.1-4.8-7.9-11.5-7.9-17.3c0-7.5,4.9-12.1,13-12.1h31.9v6H28.5z"/>
	<path class="st0" d="M27.4,17.2h32.9v5.3l-6,0.3c4.5,3.6,6,8.9,6,14.7c0,8.4-3.5,14.4-12.8,14.4c-8.5,0-12.2-4.4-13.8-10.3
		c-0.8-2.9-1.1-6.2-1.1-9.4c0-3.2,0.1-6.4,0.2-9.2h-5.4c-5.8,0-6.9,5.3-6.9,10.2V48h-4.7V32.9C15.8,24.9,18,17.2,27.4,17.2z
		 M47.2,45.8c6.4,0,8.3-4.1,8.3-9.5c0-5-1.9-9.9-5.7-13.3H37.2v10C37.2,39.9,38.7,45.8,47.2,45.8z"/>
	<path class="st0" d="M60.3,0v6H0.1V0H60.3z"/>
</g>
</svg>
