<?xml version="1.0" encoding="utf-8"?>
<!-- Generator: Adobe Illustrator 24.0.3, SVG Export Plug-In . SVG Version: 6.00 Build 0)  -->
<svg version="1.1" id="レイヤー_1" xmlns="http://www.w3.org/2000/svg" xmlns:xlink="http://www.w3.org/1999/xlink" x="0px"
	 y="0px" viewBox="0 0 1280 112.1" style="enable-background:new 0 0 1280 112.1;" xml:space="preserve">
<style type="text/css">
	.st0{fill:#FFFFFF;}
</style>
<path class="st0" d="M0,0v9.1v34.6v46c18.7,0,36.2-4.9,51.5-13.4c3.4,4.6,8.9,7.7,15,7.7c1.2,0,2.4-0.1,3.5-0.3
	C79,93.1,91.7,99,105.8,99c20.8,0,38.6-12.9,45.8-31.1c4.5,20.8,23,36.5,45.2,36.5c6.7,0,13-1.4,18.7-4c11,7.4,24.2,11.7,38.4,11.7
	c25.6,0,47.9-13.9,59.8-34.6c6.3,3.4,13.4,5.3,21.1,5.3c24.4,0,44.1-19.8,44.1-44.1c0-2.6-0.2-5.2-0.7-7.7c0.1,0,0.2,0,0.4,0
	c11.8,0,22.4-5.5,29.2-14.1c3.7,3.5,8.7,5.7,14.2,5.7c4.5,0,8.7-1.5,12.1-4c8.3,8.2,19.8,13.3,32.4,13.3c12.2,0,23.3-4.7,31.6-12.5
	c4.5,6.8,12.1,11.2,20.8,11.2c4,0,7.7-0.9,11-2.6c7.4,17.6,24.8,30,45.1,30c15.8,0,29.8-7.5,38.7-19.1c7.7,5.9,17.4,9.3,27.9,9.3
	c6.4,0,12.5-1.3,18-3.6c11.6,12.1,28,19.6,46.1,19.6c25.4,0,47.3-14.7,57.6-36.1c2.7,0.6,5.6,1,8.5,1c14.1,0,26.4-7.8,32.8-19.3
	c1.3,14.4,13.3,25.6,28,25.6c9.2,0,17.3-4.4,22.5-11.2c8.7,16.6,26.1,28,46.2,28c4.3,0,8.5-0.5,12.5-1.5
	c14.1,23.3,39.7,38.9,68.9,38.9c18.3,0,35.1-6.1,48.6-16.4c6.1,4.4,13.6,6.9,21.7,6.9c8.5,0,16.3-2.8,22.5-7.6
	c10.7,8,24,12.8,38.4,12.8c10.7,0,20.7-2.6,29.6-7.2c7.5,11.1,20.1,18.3,34.5,18.3c18.1,0,33.4-11.5,39.2-27.6
	c17.6,13,39.3,20.7,62.8,20.7V38.8V9.1V0H0z"/>
</svg>
