<?xml version="1.0" encoding="utf-8"?>
<!-- Generator: Adobe Illustrator 24.0.3, SVG Export Plug-In . SVG Version: 6.00 Build 0)  -->
<svg version="1.1" id="レイヤー_1" xmlns="http://www.w3.org/2000/svg" xmlns:xlink="http://www.w3.org/1999/xlink" x="0px"
	 y="0px" viewBox="0 0 335.9 188.2" style="enable-background:new 0 0 335.9 188.2;" xml:space="preserve">
<style type="text/css">
	.st0{fill:#E3EFF8;}
	.st1{fill:#BDDDF6;}
	.st2{fill:#FFFFFF;}
	.st3{fill:#F97000;stroke:#FFFFFF;stroke-width:12;stroke-linecap:round;stroke-linejoin:round;stroke-miterlimit:10;}
	.st4{fill:#F97000;}
</style>
<g>
	<g>
		<g>
			<path class="st0" d="M283.2,47.1c-10.2,0-19.7,2.9-27.8,7.9c-13.7-17.6-36.6-9.5-60.7-9.5c-0.4,0-6.1-3.3-6.5-3.2
				c-9.8-12.8-18.3-37.3-35.7-37.3c-14.8,0-28.3,6-38,15.8C103.2,13.7,89.8,9.7,75.5,9.7C33.8,9.7,0,43.5,0,85.2
				c0,41.7,33.8,75.5,75.5,75.5c0.2,0,0.5,0,0.7,0c8.9,16.4,26.3,27.6,46.4,27.6c16.9,0,31.9-7.9,41.6-20.3
				c9.8,4.7,20.7,7.3,32.3,7.3c24.5,0,46.3-11.8,59.9-30.1c7.9,4.7,17.1,7.4,26.9,7.4c29.1,0,52.7-23.6,52.7-52.7
				C335.9,70.7,312.3,47.1,283.2,47.1z"/>
			<path class="st1" d="M277.5,142.8c-9.8,0-14.8-3.4-22.7-8.1c-13.6,18.3-32.3,17.8-56.8,17.8c-11.6,0-22.5-2.6-32.3-7.3
				c-9.7,12.4-24.7,20.3-41.6,20.3c-20,0-30.8,3.5-39.7-13c-0.2,0-4.1,4.9-11.4,1.6c-37.9-16.8-40.9,6.5,0.8,6.5c0.2,0,0.5,0,0.7,0
				c8.9,16.4,26.4,27.6,46.4,27.6c16.9,0,31.9-7.9,41.6-20.3c9.8,4.7,20.7,7.3,32.3,7.3c24.5,0,46.3-11.8,59.9-30.1
				c7.9,4.7,17.1,7.4,26.9,7.4C310.7,152.5,300,142.8,277.5,142.8z"/>
			<path class="st2" d="M284,48.7c-9.2,0-17.7,2.5-25,6.9c-9.3-19.5-29.1-32.9-52-32.9c-4.4,0-8.7,0.5-12.8,1.5c0,0.6,0,1.2,0,1.8
				c0,0.5,0,1.1,0,1.6c-0.1,0.5-0.1,1-0.2,1.5c-0.1,0.9-0.2,1.8-0.3,2.5c-0.2,1.5-0.6,2.7-0.8,3.5c-0.2,0.8-0.3,1.2-0.3,1.2
				s0-0.4,0-1.3c0-0.8,0.1-2,0.1-3.5c0-0.8-0.1-1.6-0.1-2.5c0-0.5,0-0.9,0-1.4c-0.1-0.5-0.1-1-0.2-1.5c-0.1-1-0.3-2.1-0.4-3.3
				c0-0.2-0.1-0.5-0.1-0.7C184,8.8,169.7,0,153.4,0c-17.6,0-32.8,10.2-40.1,25c-11.9-9.5-27-15.2-43.5-15.2C31.2,9.7,0,41,0,79.5
				c0,19.2,7.8,36.6,20.3,49.2c5.2-33.4,34.1-58.9,68.9-58.9c16.5,0,31.6,5.7,43.5,15.2c7.3-14.8,22.5-25,40.1-25
				c17.4,0,32.4,9.9,39.8,24.4c4.4-1.1,9-1.7,13.8-1.7c23,0,42.8,13.4,52,32.9c7.3-4.4,15.9-6.9,25-6.9c9.4,0,18.1,2.6,25.5,7.2
				c2.4-5.7,3.7-12,3.7-18.6C332.7,70.5,310.9,48.7,284,48.7z"/>
			<path class="st2" d="M135.4,69.7c6.9,23.2-16,61-51,71.5c-35,10.5-68.9-10.2-75.9-33.4c-6.9-23.2,15.8-50.5,50.9-61
				C94.4,36.3,128.5,46.5,135.4,69.7z"/>
			<path class="st0" d="M114.4,77.3c0,0,0.2,0.4,0.6,1.1c0.4,0.7,1,1.8,1.6,3.3c0.7,1.5,1.3,3.3,1.9,5.4c0.6,2.2,1.1,4.6,1.3,7.4
				c0.2,1.4,0.2,2.8,0.2,4.3c0,0.8,0,1.5-0.1,2.3c0,0.4,0,0.8-0.1,1.2l0,0.6l0,0.2v0c0-0.1,0,0.2,0,0.2l0,0.1l0,0.3
				c-0.2,1.5-0.5,3-0.7,4.6c-0.4,1.7-0.9,3.4-1.5,5.2c-0.6,1.7-1.3,3.3-2,5c-0.8,1.6-1.7,3.3-2.7,4.9c-1.1,1.5-2.1,3.2-3.3,4.6
				l-1.9,2.2c-0.6,0.7-1.3,1.4-2,2.1c-1.4,1.3-2.8,2.7-4.3,3.8c-1.5,1.2-3,2.3-4.7,3.2c-0.8,0.5-1.6,1-2.4,1.4
				c-0.8,0.4-1.7,0.8-2.5,1.2c-0.8,0.4-1.7,0.8-2.5,1.1c-0.9,0.3-1.7,0.6-2.6,0.9c-0.8,0.3-1.7,0.6-2.5,0.8
				c-0.8,0.2-1.7,0.4-2.5,0.6c-0.8,0.2-1.7,0.4-2.5,0.5c-0.8,0.1-1.6,0.2-2.4,0.3c-0.8,0.1-1.6,0.1-2.4,0.2c-0.8,0-1.5,0-2.3,0
				c-1.5-0.1-3,0-4.3-0.2c-1.4-0.2-2.7-0.3-3.9-0.6c-1.2-0.3-2.4-0.6-3.5-0.9c-0.5-0.1-1.1-0.3-1.6-0.4c-0.6-0.2-1-0.4-1.4-0.5
				c-0.9-0.3-1.7-0.7-2.4-1c-1.5-0.6-2.5-1.3-3.3-1.7c-0.7-0.4-1.1-0.6-1.1-0.6s0.4,0,1.3,0.1c0.8,0.1,2,0.2,3.5,0.4
				c0.8,0,1.6,0.1,2.6,0.1c0.4,0,0.9,0.1,1.4,0.1c0.5,0,1,0,1.5,0c1,0,2.1,0,3.3,0c1.1-0.1,2.3-0.2,3.6-0.3c1.2-0.1,2.5-0.4,3.8-0.6
				c0.6-0.1,1.3-0.2,2-0.3c0.7-0.2,1.3-0.4,2-0.5c0.7-0.2,1.4-0.4,2.1-0.5c0.7-0.2,1.4-0.5,2.1-0.7c0.7-0.3,1.4-0.5,2.1-0.7
				c0.7-0.3,1.4-0.6,2.1-0.9c0.7-0.3,1.4-0.6,2.1-0.9c0.7-0.3,1.3-0.7,2-1.1c0.7-0.4,1.4-0.7,2-1.1c0.6-0.4,1.3-0.9,1.9-1.3
				c1.3-0.8,2.5-1.9,3.8-2.8c1.3-0.9,2.4-2.1,3.5-3.2c0.6-0.5,1.1-1.1,1.7-1.7l1.6-1.8c1-1.2,1.9-2.5,2.9-3.7
				c0.8-1.3,1.7-2.6,2.5-3.9c0.7-1.4,1.4-2.7,2.1-4.1c0.5-1.3,1.1-2.6,1.7-3.9c0.5-1.5,0.9-3,1.4-4.4l0.1-0.3l0-0.1
				c0,0-0.1,0.3,0,0.1l0,0l0-0.1l0.1-0.5l0.2-1c0.2-0.7,0.3-1.3,0.4-2c0.2-1.3,0.5-2.6,0.6-3.8c0.2-1.2,0.3-2.4,0.4-3.6
				c0.1-1.2,0.1-2.2,0.1-3.3c0.1-1-0.1-2,0-2.9c0-0.9-0.1-1.7-0.1-2.5c-0.1-1.5-0.2-2.7-0.3-3.6C114.5,77.7,114.4,77.3,114.4,77.3z"
				/>
		</g>
	</g>
</g>
<g>
	<path class="st3" d="M135.8,117.6l-2.4-6.4c-1.1,1.4-2.8,2.5-5,2.8l-17.8,2.5V87.9h15.3V79h-11.9c-3.5,0-6.2-3.1-6.2-7.3v-3.5h8
		c0,1.6,0.5,2.2,1.7,2.2h8.5v-7.5h9.6v7.5h7.9V79h-7.9l-0.1,8.3h15.5c3.8,0,7.3,2.8,7.3,6.7v13.1c0,4.6-2.9,8.6-9.2,9.2L135.8,117.6
		z M125.9,96.2h-6.3v10l4.4-0.5c0.9-0.1,1.9-0.8,1.9-2.2V96.2z M148.5,98.1c0-1.6-0.7-2.2-1.9-2.2h-11.2v9.4c0,1.1-0.2,2.3-0.5,3.4
		l11.5-1c1.2-0.1,2.2-1,2.2-2.4V98.1z M157.1,86.2c-5.3,0-7.3-3.5-8.2-6.7l-4.3-14.3h10.1l3.5,11.6c0.3,1,0.8,1.4,1.8,1.4h1.5v7.9
		H157.1z"/>
	<path class="st3" d="M168.6,118.7V91.5h-1.9l-1.4-7.9h1c1.7,0,2.9-0.6,3.5-1.7l1.7-4.7h-4.9l-1.4-7.9h1.3c1.7,0,2.9-0.6,3.5-1.7
		l2.3-5.9h9.8l-4.3,11.1c-0.7,1.3-1.3,2.2-2.2,2.9h6.2l-4.3,11.4c-0.4,0.8-1,1.6-1.4,2.2h2.3v29.3H168.6z M203.3,118.7l-1.2-7.4h4.3
		c0.7,0,1.3-0.2,1.6-0.6c0.3-0.4,0.5-0.8,0.5-1.5v-2.9h-28v-7h28v-2.9h-26.6v-7H222v7h-3.7v2.9h4.4v7h-4.4v6.7
		c0,1.3-0.5,2.6-1.6,3.8c-1.1,1.3-2.5,1.9-4.3,1.9H203.3z M190.8,118c-2.8,0-4.6-1.5-6.1-4.2l-2.6-4.7h10.3l0.8,1.7
		c0.4,0.8,0.9,1.1,1.8,1.1h4.4v6H190.8z M184.1,87.1V62.5h37.4v18.8c0,3.8-2,5.8-5.8,5.8H184.1z M211.7,69h-17.8v2.6h17.8V69z
		 M211.7,77.7h-17.8v2.8h16.4c1,0,1.4-0.4,1.4-1.4V77.7z"/>
</g>
<g>
	<path class="st4" d="M135.8,117.6l-2.4-6.4c-1.1,1.4-2.8,2.5-5,2.8l-17.8,2.5V87.9h15.3V79h-11.9c-3.5,0-6.2-3.1-6.2-7.3v-3.5h8
		c0,1.6,0.5,2.2,1.7,2.2h8.5v-7.5h9.6v7.5h7.9V79h-7.9l-0.1,8.3h15.5c3.8,0,7.3,2.8,7.3,6.7v13.1c0,4.6-2.9,8.6-9.2,9.2L135.8,117.6
		z M125.9,96.2h-6.3v10l4.4-0.5c0.9-0.1,1.9-0.8,1.9-2.2V96.2z M148.5,98.1c0-1.6-0.7-2.2-1.9-2.2h-11.2v9.4c0,1.1-0.2,2.3-0.5,3.4
		l11.5-1c1.2-0.1,2.2-1,2.2-2.4V98.1z M157.1,86.2c-5.3,0-7.3-3.5-8.2-6.7l-4.3-14.3h10.1l3.5,11.6c0.3,1,0.8,1.4,1.8,1.4h1.5v7.9
		H157.1z"/>
	<path class="st4" d="M168.6,118.7V91.5h-1.9l-1.4-7.9h1c1.7,0,2.9-0.6,3.5-1.7l1.7-4.7h-4.9l-1.4-7.9h1.3c1.7,0,2.9-0.6,3.5-1.7
		l2.3-5.9h9.8l-4.3,11.1c-0.7,1.3-1.3,2.2-2.2,2.9h6.2l-4.3,11.4c-0.4,0.8-1,1.6-1.4,2.2h2.3v29.3H168.6z M203.3,118.7l-1.2-7.4h4.3
		c0.7,0,1.3-0.2,1.6-0.6c0.3-0.4,0.5-0.8,0.5-1.5v-2.9h-28v-7h28v-2.9h-26.6v-7H222v7h-3.7v2.9h4.4v7h-4.4v6.7
		c0,1.3-0.5,2.6-1.6,3.8c-1.1,1.3-2.5,1.9-4.3,1.9H203.3z M190.8,118c-2.8,0-4.6-1.5-6.1-4.2l-2.6-4.7h10.3l0.8,1.7
		c0.4,0.8,0.9,1.1,1.8,1.1h4.4v6H190.8z M184.1,87.1V62.5h37.4v18.8c0,3.8-2,5.8-5.8,5.8H184.1z M211.7,69h-17.8v2.6h17.8V69z
		 M211.7,77.7h-17.8v2.8h16.4c1,0,1.4-0.4,1.4-1.4V77.7z"/>
</g>
</svg>
