<?xml version="1.0" encoding="utf-8"?>
<!-- Generator: Adobe Illustrator 25.0.1, SVG Export Plug-In . SVG Version: 6.00 Build 0)  -->
<svg version="1.1" id="レイヤー_1" xmlns="http://www.w3.org/2000/svg" xmlns:xlink="http://www.w3.org/1999/xlink" x="0px"
	 y="0px" viewBox="0 0 460.8 38.71" style="enable-background:new 0 0 460.8 38.71;" xml:space="preserve">
<style type="text/css">
	.st0{fill:#005190;}
</style>
<g>
	<path class="st0" d="M29.2,35.55c-4.64,0.6-7.68,0.88-10.6,0.88c-7.92,0-17.52-2.2-18.6-10.56l3.56-2.68l2.48,1.32l-1.68,1.96
		c0.48,4.16,8.64,5,13.6,5c1.68,0,5.72-0.08,12.28-1.52L29.2,35.55z M27.2,7.16l2.04,1.64c-4.72,2.44-9.52,4.76-14.2,7.28
		l-2.48-1.68c2.16-1.64,5.56-4.4,5.56-4.4L3.76,10.08L2.56,6.6h20.72l1.8-1.08c-0.72-1.64-1.6-3.36-2.44-4.36l2.12-0.92
		c1.24,1,3.8,3.72,4.76,5.28L27.2,7.16z M31.83,7c-0.76-2.12-2.16-4.6-3.4-6.12L30.52,0c1.16,0.8,3.76,3,4.72,4.56L31.83,7z"/>
	<path class="st0" d="M47.81,38.59c0.12-4,0.36-10.8,0.48-14.96c-1.92,3.56-4.92,7.04-8.24,9.52l-2.04-1.6
		c4.12-4.32,7.2-9.76,8.84-15.28h-5.92l-1.16-2.92h8.28V8.72c-2.36,0.4-4.68,0.68-6.76,0.84l-1.12-2.32
		C45.73,6,51.89,3.76,55.49,1.6L59.13,6c-2,0.68-4.2,1.28-6.48,1.8v5.56h2.52l2.24-1.84l3.04,2.44l-2.76,2.32h-5.04v3.36l1.04-0.72
		c1.92,1.4,4.88,4.2,6.52,6.36l-3.84,4.2c-0.64-2.48-2.2-5.8-3.72-8.28v17.4H47.81z M60.97,29.71V4.4h4.44v25.32H60.97z
		 M74.41,34.11c0,1.36-0.36,3.56-4.36,4.24c-1.2-1.8-4-2.6-7.04-2.88v-2.4c1.56,0.12,2.76,0.16,3.68,0.16
		c2.28,0,2.84-0.36,2.84-1.12V1.76h4.76v29.08l0.12,2.92V34.11z"/>
	<path class="st0" d="M116,34.03c0,1.16-0.4,3.52-4.92,4.48c-1.16-1.92-3.44-2.84-6.04-3.12v-2.28c1.48,0.08,2.6,0.16,3.44,0.16
		c2.12,0,2.56-0.36,2.56-1.2v-7.2h-8.32v11.64h-4.76V24.88H90.2c-0.72,5.44-2.4,10-6.48,13.84l-2.4-1.48
		c3.92-5.68,4.4-11.88,4.4-20.2V14.2c0-3.16-0.2-10-0.4-12.16l5.6,1.6h20.44l1.2-1.52l4.64,2.12l-1.32,1.56v24.76l0.12,3.24V34.03z
		 M97.96,15.84h-7.28c0,2-0.04,3.88-0.16,5.72h7.44V15.84z M97.96,6.88h-7.28v5.64h7.28V6.88z M111.04,6.88h-8.32v5.64h8.32V6.88z
		 M111.04,15.84h-8.32v5.72h8.32V15.84z"/>
	<path class="st0" d="M154.88,33.83c0,1.16-0.6,3.76-5.28,4.76c-1.8-1.84-4.8-2.84-8.16-3.12v-2.44c2,0.12,3.52,0.16,4.68,0.16
		c2.8,0,3.36-0.36,3.36-1.2V7.76h-24.84l-1.16-3.4h31.04l3-2.2l3.72,2.88l-3.44,2.72h-3.04v22.72l0.12,3.24V33.83z M139.65,28.79
		v-1.64h-6.32v2.6h-4.96v-18.6l5.36,1.44h6.52l1.32-1.32l4.2,1.92l-1.28,1.4v14.2H139.65z M139.65,15.8h-6.32v8.04h6.32V15.8z"/>
	<path class="st0" d="M180.49,15.28c-0.32-1.16-0.68-2.28-1.08-3.4c-4.28,1.32-8.32,2.4-12.64,3.08l-1.6-4.92
		c1.16,0.04,2.32,0.04,3.44,0.04c1.28-2.64,2.24-5.84,2.68-8.48l5.96,1.08c-1.52,2.68-3.28,5.2-5.44,7.32
		c2.32-0.08,4.52-0.2,6.72-0.44c-0.52-1.2-1.16-2.36-1.92-3.44l2.08-1.16c2.36,2,4.64,4.4,6.52,7.28L180.49,15.28z M183.17,34.79
		c0,1.12-0.6,3.08-4.64,3.68c-1.16-1.76-2.64-2.36-4.68-2.6v-2.16c1,0.08,1.8,0.12,2.44,0.12c1.76,0,2.16-0.32,2.16-1v-2.8h-5.96
		v8.56h-4.64V15.36l4.68,1h6.32l1.12-1.16l4.2,2l-1.12,1.2v13.84l0.12,2.44V34.79z M178.46,19.2h-5.96v2.72h5.96V19.2z
		 M178.46,24.68h-5.96v2.6h5.96V24.68z M200.97,10.2c-0.04,0.56-0.08,1.04-0.08,1.48c0,2,0.44,3.08,1.2,4.08
		c-1.2,2.16-4.52,2.68-8.8,2.68c-5.36,0-7.44-0.8-7.44-4.68V2.12h4.52V8.6c2.4-1.36,4.72-3.2,6.28-5.04l4.16,3.64
		c-3.08,1.76-6.92,3.16-10.48,3.84V13c0,1.24,0.6,1.68,3.04,1.68c4.48,0,4.64-1.36,5-4.72L200.97,10.2z M201.41,28.83
		c-0.08,0.72-0.08,1.4-0.08,2c0,2.32,0.48,3.6,1.2,4.6c-0.88,1.6-2.76,2.68-8.72,2.68c-5.48,0-7.72-0.64-7.72-4.68V19.36h4.68
		l-0.04,7.16c2.52-1.48,4.72-3.36,6.6-5.6l4.24,3.84c-3.6,2.04-7.28,3.6-10.84,4.44l-0.04,3.32c0,1.64,1.12,1.64,2.96,1.64
		c4.4,0,4.56-0.88,5.04-5.56L201.41,28.83z"/>
	<path class="st0" d="M232.14,11.76h-8.48c-2.52,6.08-6.04,12.56-9.4,18.24l-5.2-1c3.56-5.36,7.12-11.48,9.48-17.24h-7.88
		l-1.12-3.36h10.24c0.28-0.8,0.52-1.56,0.72-2.32l-2.36-0.76l0.92-1.88h7.48c-0.4,1.56-0.92,3.24-1.56,4.96h4.6l2.8-2.08l3,2.96
		L232.14,11.76z M241.02,35.99c-1.56-2-3.4-3.64-5.4-4.88c-0.76,3.48-3.44,6.32-8.88,6.32c-4.24,0-8.64-2.08-8.64-6
		c0-3.16,3.2-5.92,9.52-5.92c1.16,0,2.28,0.08,3.4,0.2V14.48h8.32l2.68-2.04l3.08,2.84l-3.04,2.4h-6.16v9.04
		c3.32,0.96,6.24,2.48,8.36,4.4L241.02,35.99z M226.62,28.6c-3.28,0-4.56,1.48-4.56,2.44c0,1.44,1.72,2.6,3.92,2.6
		c4.2,0,4.84-3.24,4.96-4.36C229.58,28.88,228.14,28.6,226.62,28.6z"/>
	<path class="st0" d="M270.85,29.08c0.32,2.2,1.88,3.12,3.6,3.12c3.52,0,6.36-3.12,6.36-6.32c0-1.08-0.32-6.08-8.44-6.08
		c-0.56,0-1.16,0.04-1.76,0.08c-1.6,0.12-2.56,0.44-4.12,0.76v7.6c0,3.6-1.64,6.8-4.08,8.24c-1.68-0.76-4.92-1.52-7.4-3.08
		c-2-1.24-3-2.92-3-4.72c0-3.68,4.56-7.76,9.6-9.92v-5.88h-7l-1.2-3.4h8.2c0-1.12-0.04-1.96-0.04-3.04l-2.48-0.68l0.76-2.2h6.64
		v5.92h3.76l2.76-2.08l3.6,2.76l-3.4,2.72h-6.72v4.52c3.88-0.96,5.04-1,6.6-1c9.84,0,13.08,5.96,13.08,9.64
		c0,5.56-5.88,10.24-11.44,10.24c-3.48,0-6.68-1.8-7.2-6.52L270.85,29.08z M261.73,22.28c-2.48,1.36-5.64,4.08-5.64,6.08
		c0,2.28,3.88,2.88,4.04,2.88c1.12,0,1.6-2.52,1.6-3.48V22.28z M286.21,15.56c-1.8-2.36-4.88-4.04-9.08-4.68l0.48-2.76
		c0.6-0.04,1.24-0.08,1.92-0.08c2.88,0,6.24,0.48,8.04,1.36L286.21,15.56z"/>
	<path class="st0" d="M331.07,34.87c0,0-3.48,1.4-4.64,3.28c-5.68-0.8-10.4-2.52-14.28-5.08c-4.48,2.48-10.12,4.32-17.24,5.6
		l-1.8-2.72c6.2-1.4,11.36-3.28,15.44-5.72c-2.56-2.4-4.68-5.36-6.32-8.72l2.88-1.2c1.8,3.2,4.08,5.68,6.88,7.56
		c3.04-2.44,5.24-5.28,6.6-8.44h-19.64l-1.2-3.28h11.44v-5.44h-14L294,7.4h15.2V1.52h5.52V7.4h8.84l3-2.2l3.72,3l-3.44,2.52h-12.12
		v5.44h6l1.28-1.2l4.96,2.6c-0.52,0.4-2.12,1.44-2.4,2.08c-1.92,4.2-4.52,7.68-8.08,10.52c4.16,1.6,9.12,2.32,15.04,2.36
		L331.07,34.87z"/>
	<path class="st0" d="M348.49,34.35c0,1.08-0.36,3.44-4.84,4.24c-1.28-2-2.6-2.88-5.36-3.2v-2.36c1.36,0.12,2.36,0.16,3.12,0.16
		c1.88,0,2.12-0.36,2.12-1.16v-7.36c-1.48,0.68-2.92,1.28-4.32,1.8l-2.4-4.92c2.12-0.4,4.4-0.92,6.72-1.6V12.8h-4.76l-1.16-3h5.92
		V1.64h4.84V9.8h0.72l2.2-1.8l2.96,2.56l-2.84,2.24h-3.04v5.64c1.64-0.56,3.2-1.2,4.68-1.88l0.76,2.44
		c-1.76,1.08-3.56,2.16-5.44,3.2v8.84l0.12,3.04V34.35z M368.28,38.35c-0.04-2.04-0.32-4.24-0.8-6.48c-4.84,2.04-10.72,4.04-16,5.44
		l-2.4-5.48c1.36-0.16,2.72-0.32,4.08-0.52c2.12-7.44,3.88-20.88,4.36-29.08l6.4,0.88c-1.64,9.4-4.28,19.6-7.32,27.68
		c3.56-0.56,7-1.2,10.16-1.96c-0.92-3.48-2.16-6.88-3.32-9.68l2.64-1.2c3.04,4.44,7.32,12.64,8.56,16.92L368.28,38.35z"/>
	<path class="st0" d="M413.02,18.96c-0.76,13.64-3.36,19.16-11.96,19.24c-0.92-1.72-2.48-2.8-7.04-3.64l0.48-2.48
		c1.8,0.36,3.96,0.88,5.96,0.88c4.96,0,6.52-2.68,7.28-13.32h-10.32c-2,8.2-6.28,14.08-14.2,18.92l-2.56-2
		c8.52-6.32,11.8-13.16,12.4-25.44h-10.76l-1.2-3.32h15.24V1.68h5.64V7.8h9.72l3.04-2.4l3.44,3l-3.36,2.72h-16.16
		c-0.12,1.88-0.32,3.64-0.6,5.32h10.2l1.36-1.36l4.88,2.24L413.02,18.96z"/>
	<path class="st0" d="M427.52,19.6c-1.2-2.56-2.96-5-4.8-6.6l1.76-1.68c2.12,0.8,4.96,2.32,6.92,4L427.52,19.6z M427.48,38.31
		c0-0.52,0.04-1.04,0.04-1.56c0-5.84-1.28-8.84-3.8-8.84h-0.12l0.92-2.52c0.72,0,2.16,0.28,2.72,0.48c1.76-4.24,5.32-11.64,7-15.16
		l2.2,1.32C432,23,431.36,25.68,431.36,28.12c0,2.6,0.96,4.52,1.96,8.12L427.48,38.31z M430.52,11c-1.16-2.64-3.08-5.16-4.92-6.84
		l1.84-1.64c2.68,1.08,5.4,2.44,7.44,4.24L430.52,11z M455.24,38.39c-0.24-1.64-0.72-3.48-1.4-5.36
		c-5.52,1.92-11.88,3.76-17.24,4.96l-2.36-5.52c1.48-0.08,3.04-0.2,4.64-0.32c1.52-3.76,2.6-7.36,3.24-10.76h-6.48l-1.16-3.12h9.68
		v-6.36h-7.32l-1.24-3.16h8.56v-7h5v7h4.12l2.56-1.96l3.48,2.6l-3.28,2.52h-6.88v6.36h5.88l2.48-1.96l3.28,2.72l-3.08,2.36H448
		c-1.72,3.72-3.68,7.28-5.88,10.48c3.6-0.4,7.24-0.92,10.64-1.52c-0.76-1.8-1.68-3.56-2.56-5.16l2.48-1.12
		c2.96,3.12,6.36,7.6,8,10.84L455.24,38.39z"/>
</g>
</svg>
