<?xml version="1.0" encoding="utf-8"?>
<!-- Generator: Adobe Illustrator 24.0.3, SVG Export Plug-In . SVG Version: 6.00 Build 0)  -->
<svg version="1.1" id="レイヤー_1" xmlns="http://www.w3.org/2000/svg" xmlns:xlink="http://www.w3.org/1999/xlink" x="0px"
	 y="0px" viewBox="0 0 304.4 201.6" style="enable-background:new 0 0 304.4 201.6;" xml:space="preserve">
<style type="text/css">
	.st0{fill:#FFFFFF;}
	.st1{fill:#E3EFF8;}
	.st2{fill:#0071BB;}
</style>
<g>
	<path class="st0" d="M17.6,149.1c-2.7-4.3-4.1-9.2-3.7-14.3c1-12.2,11.8-21.6,25.6-23.3c-2.5-5.2-3.8-11.2-3.2-17.6
		c1.4-17.9,16.1-31.3,32.8-30c4.3,0.3,8.3,1.7,11.9,3.7c0-1.9,0-3.9,0.2-5.8c3-37.1,35.4-64.7,72.5-61.7s64.7,35.4,61.7,72.5
		c0,0.5-0.1,1.1-0.2,1.6c0.8,0,1.6,0.1,2.3,0.1c22.3,1.8,39,21.3,37.2,43.7c-1.6,20-17.4,35.4-36.8,37.1
		c-1.3,14.7-14.1,25.6-28.8,24.4c-0.8-0.1-1.5-0.2-2.3-0.3c-9,11.4-23.4,18.2-39,17c-11.2-0.9-21.1-5.8-28.4-13.2
		c-10.5,7.4-32.9,11.3-58.4,9.3C26.3,189.6-1,176.8,0,163.7C0.5,157.6,7.1,152.5,17.6,149.1z"/>
	<path class="st1" d="M272.4,150c0,0,12,17,32,5c-22,24-51,14-51,14L272.4,150z"/>
	<path class="st1" d="M66.6,114.3c21.6,1.7,39.5,12.4,47.7,26.6c1.9,0.8,3.7,1.9,5.3,3.1c4.4-9.9,16.4-16.4,30-15.3
		c5.5,0.4,10.5,2.1,14.7,4.5c7.6-21.4,29.8-35.9,54.6-33.9c2.6,0.2,5.1,0.6,7.5,1.1c6.4-4.1,14.1-6.1,22.2-5.5
		c20.3,1.6,35.4,19.9,33.7,40.7c-1,11.9-7.1,22.1-16.1,28.3c-6.7,22.8-29.6,38.6-55.4,36.5c-9.8-0.8-18.8-4.1-26.3-9.1
		c-9.3,7.4-27.1,11.5-47.2,9.9c-15.5-1.2-29.1-5.6-38.2-11.6c-10.5,6.3-24.3,9.5-39.1,8.3c-30.8-2.5-54.2-23.2-52.4-46.3
		S35.8,111.9,66.6,114.3z"/>
	<path class="st0" d="M64.5,96.4c11.8,0.9,21.5,7.3,25.3,15.5c4.5-14.8,21.6-25,41.2-23.5c7.3,0.6,13.9,2.7,19.6,6
		c10.9-14.8,33.7-23.9,59.3-21.8c34.5,2.8,60.8,24.7,58.9,49.1c-1.9,24.3-31.5,41.8-66,39.1c-18.1-1.4-33.9-8.2-44.6-17.7
		c-7.9,7.1-19.6,11.1-32.4,10.1c-17.9-1.4-32.3-12.3-36.1-26c-4.3,8.8-15.7,14.5-28.6,13.4c-15.8-1.3-27.9-12.2-26.9-24.3
		C35,104,48.6,95.2,64.5,96.4z"/>
</g>
<g>
	<path class="st2" d="M105.7,67.5c-1.3,0-2,0-2.8,0.1V65c0.7,0.1,1.4,0.1,2.5,0.1h12.2c1.1,0,2.1,0,2.8-0.1v2.7
		c-0.7-0.1-1.6-0.1-2.8-0.1h-4.8V71h6.6c1.2,0,2.3,0,3-0.1v2.7c-0.8-0.1-1.8-0.1-3-0.1h-15.6c-1.2,0-2.2,0-3,0.1v-2.7
		c0.5,0.1,1.9,0.1,3,0.1h6.3v-3.5H105.7z M110.2,53.7c0-0.6,0-1-0.1-1.6h3c-0.1,0.4-0.1,0.9-0.1,1.6v0.8h6.6c1.1,0,1.8,0,2.6-0.1
		c-0.1,0.5-0.1,1-0.1,1.8v1.3c0,0.7,0,1.2,0.1,1.8h-2.6v-2.5h-4.6v3.6c0,0.5,0.2,0.6,0.9,0.6c0.2,0,0.5,0,0.9,0c0.1,0,0.1,0,0.1,0
		c0.8,0,1.8-0.1,2-0.2c0.3-0.1,0.4-0.4,0.4-1.3c0.9,0.4,1.4,0.6,2.4,0.7c-0.1,1.4-0.4,2-0.9,2.4c-0.6,0.5-1.6,0.6-4.5,0.6
		c-3.2,0-3.9-0.3-3.9-1.9v-4.6h-2.1c-0.1,2-0.6,3.4-1.7,4.6c-0.8,0.9-1.9,1.7-3.4,2.3c-0.7,0.3-1.3,0.5-2.6,0.9
		c-0.4-0.8-0.9-1.6-1.5-2.3c2.4-0.5,3.6-1,4.8-1.8c1.3-1,1.7-1.7,1.9-3.7h-3.8V60h-2.7c0.1-0.6,0.1-1.2,0.1-1.9v-1.9
		c0-0.8,0-1.2-0.1-1.8c0.8,0.1,1.5,0.1,2.6,0.1h6.2V53.7z"/>
	<path class="st2" d="M133.3,54.8c0-1.2,0-1.8-0.1-2.6h3c-0.1,0.7-0.1,1.4-0.1,2.5v1.6h6.6c1.1,0,1.6,0,2.2-0.1
		c-0.1,0.7-0.1,1.2-0.1,2.1v7.3c0,1.1,0,1.7,0.1,2.4H142v-1.4h-6v4.9c0,1.4,0,2.1,0.2,3h-3.1c0.1-0.9,0.2-1.6,0.2-3v-4.9h-5.7V68
		h-2.8c0.1-0.8,0.1-1.4,0.1-2.4v-7.3c0-0.9,0-1.3-0.1-2.1c0.7,0.1,1.2,0.1,2.2,0.1h6.3V54.8z M127.7,58.8V64h5.7v-5.2H127.7z
		 M142,64v-5.2h-6V64H142z"/>
	<path class="st2" d="M156.4,53c-0.1,0.2-0.1,0.5-0.2,0.7c0,0.3-0.1,0.4-0.1,0.8c-0.1,0.5-0.1,0.5-0.4,2.3c-0.1,0.5-0.1,0.6-0.2,0.9
		c0.7,0,1-0.1,1.5-0.1c1.6,0,2.8,0.4,3.6,1.3c0.8,0.9,1.1,2.1,1.1,4.2c0,4.1-0.7,7.4-1.8,8.7c-0.7,0.8-1.4,1.1-2.7,1.1
		c-1.1,0-2.1-0.2-3.7-0.7c0-0.5,0-0.8,0-1.1c0-0.6,0-1.1-0.2-2c1.3,0.6,2.7,0.9,3.5,0.9c0.7,0,1.1-0.5,1.4-1.6
		c0.4-1.2,0.6-3.4,0.6-5.5c0-2.2-0.6-2.9-2.4-2.9c-0.5,0-0.8,0-1.4,0.1c-0.7,2.9-0.9,3.6-1.5,5.2c-0.8,2.4-1.5,3.9-2.9,6.7
		c-0.1,0.2-0.1,0.2-0.4,0.7c-0.1,0.1-0.1,0.2-0.2,0.4l-2.8-1.5c0.7-1,1.7-2.7,2.5-4.5c1-2.4,1.4-3.4,2.3-6.8
		c-1.2,0.1-3.5,0.6-4.3,0.8l-0.3-2.8c0.9,0,3.8-0.3,5.1-0.5c0.4-2.6,0.6-4.1,0.6-4.8c0-0.1,0-0.3,0-0.5L156.4,53z M164.3,56.1
		c2.4,2.8,3.9,5.7,4.9,9.4l-2.7,1.4c-0.5-2.1-1-3.6-1.9-5.4c-0.9-1.8-1.6-2.9-2.8-4.1L164.3,56.1z"/>
	<path class="st2" d="M176.7,57.5c-0.4,1.3-0.8,3.6-1.1,5.9c0,0.3,0,0.3-0.1,0.7l0,0c1.4-1.3,4.4-2.3,7.3-2.3c4.1,0,6.8,2,6.8,5.1
		c0,1.8-0.9,3.5-2.5,4.6c-1.6,1.1-3.6,1.6-6.3,1.6c-2.1,0-3.4-0.2-6.1-0.8c0-1.5-0.1-2-0.4-3.1c2.4,0.8,4.4,1.2,6.5,1.2
		c3.4,0,5.7-1.4,5.7-3.5c0-1.6-1.5-2.6-4.1-2.6c-2.1,0-4.4,0.6-6,1.8c-0.4,0.3-0.6,0.5-1.1,1l-3-0.1c0.1-0.4,0.1-0.5,0.2-1.4
		c0.2-1.5,0.6-4.2,1-7c0.1-0.6,0.1-0.9,0.1-1.4L176.7,57.5z M177,52.8c1.7,0.9,6.2,2.3,9,2.7l-1,2.8c-4.1-0.9-6.6-1.7-9.4-3
		L177,52.8z"/>
	<path class="st2" d="M88.3,83.5c-0.1,0.7-0.1,0.9-0.1,2.2v6.6c0,1.2,0,1.5,0.1,2.1H85c0.1-0.6,0.1-1.3,0.1-2.2v-6.6
		c0-1.2,0-1.5-0.1-2.2L88.3,83.5z M99.2,83.5c-0.1,0.6-0.1,0.9-0.1,2.2V89c0,3.7-0.2,5.8-0.6,7.3c-0.7,2.4-2.2,4.2-4.7,5.6
		c-1.3,0.7-2.5,1.2-4.7,1.8c-0.4-1.2-0.7-1.6-1.7-2.9c2.4-0.5,3.7-1,5.2-1.9c2.3-1.5,3-3,3.3-6.1c0.1-1,0.1-2.1,0.1-4v-3
		c0-1.2,0-1.7-0.1-2.3H99.2z"/>
	<path class="st2" d="M122.3,86.2c-0.2,0.4-0.3,0.6-0.4,1.1c-1.2,4.6-2.6,7.5-4.9,10.1c-2.4,2.6-4.9,4.4-8.9,6.1
		c-0.7-1.3-1-1.8-2.1-2.9c2.1-0.7,3.5-1.3,5.3-2.4c3.7-2.4,6.1-5.8,7.3-10.5h-11.4c-1.6,0-2.2,0-3,0.1v-3.1c0.9,0.1,1.4,0.2,3.1,0.2
		h11c1.3,0,1.8,0,2.6-0.2L122.3,86.2z"/>
	<path class="st2" d="M128.3,92.6c-1,0-1.5,0-2.2,0.1v-2.6c0.6,0.1,1.1,0.1,2.2,0.1h7v-1.5c0-0.9,0-1.4-0.1-1.9h2.8
		c-0.1,0.6-0.1,0.7-0.1,1.8l0,1.6h2.1c1.1,0,1.5,0,2.2-0.1v2.6c-0.6-0.1-1.1-0.1-2.2-0.1h-2.1l0.1,9.1c0,1,0,1.5,0.1,2h-2.9
		c0.1-0.6,0.1-1.1,0.1-2l0-6c0-0.3,0-1.2,0-1.5c-0.3,0.6-0.5,0.9-0.8,1.3c-1.6,2.3-4.3,4.5-7.8,6.3c-0.6-1-0.9-1.4-1.8-2.3
		c1.9-0.9,3.6-1.9,5.2-3.2c1.5-1.2,2.8-2.7,3.5-3.9H128.3z"/>
	<path class="st2" d="M146.2,91.5c1.1,0.1,1.5,0.2,3.9,0.2h12.8c2.4,0,2.8,0,3.9-0.2v3.3c-1-0.1-1.2-0.1-3.9-0.1h-12.7
		c-2.7,0-3,0-3.9,0.1V91.5z"/>
	<path class="st2" d="M178.9,83.6c-0.3,0.5-0.3,0.6-0.6,1.7c-1.8,6-3.2,10-4.8,13.7c3.8-0.3,7.9-0.8,10-1.2
		c-0.3-0.6-0.6-1.1-1.1-2.2c-1.1-2-1.5-2.7-2.3-3.8l2.7-1.1c2.2,3.3,4.3,7.3,5.8,11.1l-2.9,1.5c-0.3-1-0.3-1-1.2-3
		c-0.3,0.1-0.3,0.1-0.9,0.2c-2.4,0.5-6.4,1-13.6,1.7c-1.3,0.1-1.7,0.2-2.2,0.3l-0.4-3.2c0.3,0,0.3,0,0.6,0c0.5,0,1.1,0,2.1-0.1
		c1.3-3,2.2-5.7,3.5-9.7c1.1-3.5,1.6-5.2,1.8-6.6L178.9,83.6z"/>
	<path class="st2" d="M192.8,97.5c0-0.5,0-0.7,0-1c0-0.3,0-0.3-0.1-1.7l-0.3-8.2c0-1.1-0.1-2.3-0.2-2.9h3.8
		c-0.1,0.6-0.2,1.9-0.2,2.9l-0.3,8.2c-0.1,1.4-0.1,1.4-0.1,1.7c0,0.3,0,0.5,0,1H192.8z M192.4,102.8v-3.3h3.5v3.3H192.4z
		 M201.9,97.5c0-0.4,0-0.7,0-1v-0.5c0-1.2,0.3-2.3,0.8-3.1c0.4-0.5,0.5-0.6,1.9-1.8c1.3-1,1.8-1.8,1.8-2.9c0-1.5-1.1-2.4-2.8-2.4
		c-1,0-1.9,0.5-2.4,1.4c-0.3,0.5-0.4,0.9-0.5,1.8l-3.1-0.5c0.2-1.8,0.6-2.8,1.5-3.7c1-1.1,2.5-1.6,4.5-1.6c1.8,0,3.2,0.5,4.2,1.4
		c0.9,0.9,1.4,2,1.4,3.4c0,1.1-0.2,2.1-0.7,2.8c-0.5,0.8-0.9,1.2-2.4,2.4c-1.3,1-1.7,1.7-1.7,3c0,0.3,0,0.7,0.1,1.1H201.9z
		 M205.1,99.5v3.3h-3.5v-3.3H205.1z"/>
	<path class="st2" d="M89.3,132.6c-1.1-1.2-2.7-2.4-4.4-3.3c-0.5-0.3-0.7-0.4-1.3-0.6c0,0.1,0,0.2,0,0.3c0,1.5-0.4,2.5-1.3,3.2
		c-0.9,0.7-2.2,1-4,1c-3.5,0-5.5-1.4-5.5-3.7c0-2.6,2.4-4.2,6.4-4.2c0.6,0,1,0,1.6,0.1c0-0.3,0-0.3,0-0.6c0-0.1,0-0.3,0-0.5
		c0-0.3,0-0.3,0-1.3c-1.2,0-1.9,0-2.4,0c-1.5,0-2.4,0-4.3-0.2c-0.3,0-0.6,0-0.9,0l0-2.6c1,0.2,3.3,0.4,5.6,0.4c0.5,0,1.3,0,2,0
		c0-0.2,0-1,0-2.4c-0.8,0-1.2,0-1.5,0c-1.2,0-4.3-0.1-5.9-0.2c-0.3,0-0.5,0-0.5,0c-0.1,0-0.2,0-0.4,0l0-2.7c1.2,0.3,3.7,0.5,6.5,0.5
		c0.4,0,1.2,0,1.8,0c0-2.4,0-2.4-0.1-3h3c-0.1,0.6-0.1,1-0.2,2.9c3.3-0.2,5.4-0.5,6.9-0.9l0.1,2.7c-0.5,0-0.5,0-1.9,0.2
		c-2.1,0.3-3,0.4-5.2,0.5c0,0.6,0,0.9,0,2.4c1.2-0.1,1.2-0.1,3.4-0.3c1.5-0.2,1.9-0.2,3-0.5l0.1,2.6c-0.4,0-1,0.1-1.6,0.2
		c-0.4,0-1.4,0.2-3.2,0.3c-0.3,0-0.7,0-1.6,0.1c0.1,2.3,0.1,2.3,0.1,2.9c2.1,0.6,4,1.6,6.6,3.4c0.4,0.3,0.5,0.4,0.9,0.6L89.3,132.6z
		 M78.8,127.8c-1.9,0-3.1,0.6-3.1,1.7c0,0.9,1,1.4,2.7,1.4c1,0,1.8-0.3,2.1-0.8c0.2-0.3,0.3-0.8,0.3-1.5c0-0.1,0-0.6,0-0.6
		C80,127.8,79.5,127.8,78.8,127.8z"/>
	<path class="st2" d="M94.2,121.4c0.7,0,0.7,0,2.5-0.5c3.3-0.7,5.4-1,7.4-1c2.7,0,4.6,0.8,5.7,2.4c0.6,0.9,0.9,1.9,0.9,3.1
		c0,3.2-2.3,5.8-6.1,7c-1.5,0.5-2.1,0.6-5.2,0.9c-0.2-1.2-0.4-1.7-1-2.7c0.2,0,0.3,0,0.4,0c0.9,0,2.2-0.1,3.4-0.4
		c1.9-0.4,2.9-0.8,4-1.6c1.2-0.9,1.7-1.9,1.7-3.2c0-1.9-1.4-2.9-3.9-2.9c-1.7,0-3.5,0.3-6.3,0.9c-1.5,0.4-2,0.5-2.8,0.8L94.2,121.4z
		"/>
	<path class="st2" d="M114.1,116.4c0.9,0.1,1.8,0.2,3.2,0.2c0.3,0,0.6,0,1.1,0c0.2-1.2,0.5-3,0.5-3.7c0-0.1,0-0.2,0-0.4l3.2,0.3
		c-0.2,0.6-0.2,0.6-0.5,2.3c-0.1,0.7-0.1,0.8-0.2,1.4c1.8-0.2,2.9-0.4,4.1-0.7l0.1,2.8c-0.2,0-0.2,0-0.8,0.1
		c-1.2,0.2-3.1,0.5-3.9,0.5c-0.3,1.5-0.9,4-1.5,6.2c-0.7,2.5-1.1,3.7-2.7,7.9l-3-1.2c1.7-3,3.5-8.6,4.3-12.9c-0.2,0-0.3,0-0.3,0
		h-1.4c-0.1,0-0.4,0-0.8,0c-0.4,0-0.8,0-1,0c-0.1,0-0.2,0-0.5,0L114.1,116.4z M126,125.7c-1,1.2-1.2,1.8-1.2,2.6
		c0,1.2,1.2,1.8,3.6,1.8c1.8,0,4.1-0.4,5.4-0.9l0.2,3c-0.4,0-0.6,0.1-1.2,0.2c-2,0.3-3,0.4-4.5,0.4c-2.1,0-3.7-0.3-4.8-1
		c-1-0.6-1.7-1.8-1.7-3c0-1.3,0.5-2.4,1.8-4.2L126,125.7z M133.1,122.6c-1.2-0.1-1.8-0.2-3-0.2c-2.4,0-4,0.2-6.3,0.7l-0.2-2.6
		c3.4-0.6,4.6-0.8,7.2-0.8c0.6,0,0.9,0,2.4,0L133.1,122.6z"/>
	<path class="st2" d="M150.7,114.6c-0.4,0.3-0.9,0.7-3,2.6c-1.2,1.1-2.9,2.5-5.7,4.6c-0.7,0.6-0.9,0.7-0.9,1c0,0.4,0,0.4,2.2,2
		c3.7,2.8,4.4,3.4,7.6,6.3c0.2,0.2,0.4,0.4,0.7,0.6l-2.5,2.5c-0.6-0.9-1.5-1.8-3.1-3.3c-1.7-1.6-2.5-2.2-6.2-5.1c-1.6-1.2-2-1.9-2-3
		c0-0.7,0.3-1.4,0.8-1.9c0.3-0.3,0.3-0.4,2.1-1.7c2.6-2,3.9-3.1,5.5-4.7c1.1-1.1,1.3-1.4,1.8-2L150.7,114.6z"/>
	<path class="st2" d="M157.9,122.3c-1,0-1.6,0-2.2,0.1v-2.6c0.6,0.1,1.1,0.1,2.2,0.1h0.6c-0.3-1.3-0.6-2-1.1-2.8l2.1-0.5h-1.1
		c-1.1,0-1.6,0-2.3,0.1v-2.6c0.6,0.1,1.2,0.1,2.3,0.1h1.8v-0.4c0-0.8,0-1.2-0.1-1.8h2.9c-0.1,0.6-0.1,0.9-0.1,1.8v0.4h1.6
		c1.1,0,1.6,0,2.2-0.1v2.6c-0.6-0.1-1.2-0.1-2.3-0.1h-1l2,0.6c-0.1,0.3-0.1,0.3-0.4,0.8c-0.1,0.2-0.1,0.2-0.4,0.9
		c-0.2,0.4-0.3,0.6-0.5,1.1h0.5c1.1,0,1.6,0,2.2-0.1v2.6c-0.7-0.1-1.2-0.1-2.2-0.1h-1.9v1.7h1.8c1,0,1.6,0,2.2-0.1v2.5
		c-0.6-0.1-1.2-0.1-2.2-0.1h-0.9c0.7,0.8,1.3,1.3,2.5,2.1c-0.5,0.9-0.8,1.4-1.2,2.3c-1.2-1.1-1.6-1.5-2.4-2.6c0,0.3,0,0.3,0,0.9
		c0,0.1,0,0.8,0,0.9v2.4c0,0.8,0,1.4,0.1,2h-2.8c0.1-0.6,0.1-1.1,0.1-1.9v-2.4c0-0.5,0-1.1,0.1-1.6c-1,1.8-2.1,3.1-4,4.4
		c-0.3-1-0.7-1.7-1.2-2.4c1.8-1.1,3.2-2.4,4.2-4.1H158c-1,0-1.5,0-2.2,0.1v-2.5c0.6,0.1,1.1,0.1,2.2,0.1h2.4v-1.2c0-0.4,0-0.4,0-0.5
		H157.9z M159.8,116.6c0.5,1,0.7,1.5,1,2.8l-2.1,0.6h3.3c0.7-1.2,1-2,1.3-3.4H159.8z M175.8,119.5c1.1,0,1.7,0,2.2-0.1v2.7
		c-0.6-0.1-1-0.1-1.9-0.1h-0.6v9.7c0,1.4,0,2.1,0.1,2.8h-2.8c0.1-0.7,0.1-1.4,0.1-2.8v-9.7h-2.6c0,3-0.3,5.6-0.9,7.8
		c-0.5,1.9-1.2,3.6-2.1,4.8c-1-0.8-1.4-1.1-2.4-1.6c2.3-2.8,2.9-5.9,2.9-15c0-2,0-2.8-0.1-3.7c2.7-0.1,6.9-1.1,8.1-2l2,2.3
		c-0.3,0.1-0.4,0.1-0.8,0.3c-1.9,0.7-3.4,1.1-6.6,1.6v3.2H175.8z"/>
	<path class="st2" d="M185.2,113.2c-0.1,0.7-0.2,1.4-0.3,3.2c-0.1,2.2-0.2,7.1-0.2,8.8c0,2.3,0.1,3.1,0.6,3.9
		c0.6,0.8,1.7,1.2,3.2,1.2c2.6,0,4.7-1.5,5.8-4.1c0.5-1.2,0.8-2.4,1.1-4c1.3,1.1,1.7,1.3,2.9,1.8c-1,3.2-1.7,4.8-2.9,6.1
		c-1.8,2-4.2,3-7.2,3c-1.7,0-3.2-0.4-4.2-1.1c-1.7-1.1-2.4-3-2.4-6.2c0-1.2,0-3.6,0.2-9.7c0-0.7,0-1.2,0-1.6c0-0.7,0-1-0.1-1.6
		L185.2,113.2z"/>
	<path class="st2" d="M204.9,114.7c-0.1,0.9-0.2,2.1-0.2,3.6c0,2.1,0.2,5,0.5,6.4c0.4,2.5,1.2,4,1.9,4c0.4,0,0.7-0.4,1-1
		c0.6-1.3,1-2.7,1.3-4.3c0.8,1,1.2,1.3,2.4,2.2c-1.2,4.7-2.6,6.6-4.7,6.6c-1.6,0-2.9-1.2-3.9-3.5c-1-2.4-1.4-5.9-1.5-12.5
		c0-0.8,0-1-0.1-1.5H204.9z M216.3,115.8c3,3.6,4.7,7.6,5.4,12.9l-3,1.1c-0.1-2.3-0.7-4.8-1.5-6.9c-0.8-2.2-2-4.1-3.4-5.9
		L216.3,115.8z"/>
	<path class="st2" d="M48.9,143.5c-0.1,0.7-0.1,0.9-0.1,2.2v6.6c0,1.2,0,1.5,0.1,2.1h-3.3c0.1-0.6,0.1-1.3,0.1-2.2v-6.6
		c0-1.2,0-1.5-0.1-2.2L48.9,143.5z M59.8,143.5c-0.1,0.6-0.1,0.9-0.1,2.2v3.2c0,3.7-0.2,5.8-0.6,7.3c-0.7,2.4-2.2,4.2-4.7,5.6
		c-1.3,0.7-2.5,1.2-4.7,1.8c-0.4-1.2-0.7-1.6-1.7-2.9c2.4-0.5,3.7-1,5.2-1.9c2.3-1.5,3-3,3.3-6.1c0.1-1,0.1-2.1,0.1-4v-3
		c0-1.2,0-1.7-0.1-2.3H59.8z"/>
	<path class="st2" d="M82.9,146.2c-0.2,0.4-0.3,0.6-0.4,1.1c-1.2,4.6-2.6,7.5-4.9,10.1c-2.4,2.6-4.9,4.4-8.9,6.1
		c-0.7-1.3-1-1.8-2.1-2.9c2.1-0.7,3.5-1.3,5.3-2.4c3.7-2.4,6.1-5.8,7.3-10.5H67.6c-1.6,0-2.2,0-3,0.1v-3.1c0.9,0.1,1.4,0.2,3.1,0.2
		h11c1.3,0,1.8,0,2.6-0.2L82.9,146.2z"/>
	<path class="st2" d="M88.9,152.6c-1,0-1.5,0-2.2,0.1v-2.6c0.6,0.1,1.1,0.1,2.2,0.1h7v-1.5c0-0.9,0-1.4-0.1-1.9h2.8
		c-0.1,0.6-0.1,0.7-0.1,1.8l0,1.6h2.1c1.1,0,1.5,0,2.2-0.1v2.6c-0.6-0.1-1.1-0.1-2.2-0.1h-2.1l0.1,9.1c0,1,0,1.5,0.1,2h-2.9
		c0.1-0.6,0.1-1.1,0.1-2l0-6c0-0.3,0-1.2,0-1.5c-0.3,0.6-0.5,0.9-0.8,1.3c-1.6,2.3-4.3,4.5-7.8,6.3c-0.6-1-0.9-1.4-1.8-2.3
		c1.9-0.9,3.6-1.9,5.2-3.2c1.5-1.2,2.8-2.7,3.5-3.9H88.9z"/>
	<path class="st2" d="M106.8,151.5c1.1,0.1,1.5,0.2,3.9,0.2h12.8c2.4,0,2.8,0,3.9-0.2v3.3c-1-0.1-1.2-0.1-3.9-0.1h-12.7
		c-2.7,0-3,0-3.9,0.1V151.5z"/>
	<path class="st2" d="M139.5,143.6c-0.3,0.5-0.3,0.6-0.6,1.7c-1.8,6-3.2,10-4.8,13.7c3.8-0.3,7.9-0.8,10-1.2
		c-0.3-0.6-0.6-1.1-1.1-2.2c-1.1-2-1.5-2.7-2.3-3.8l2.7-1.1c2.2,3.3,4.3,7.3,5.8,11.1l-2.9,1.5c-0.3-1-0.3-1-1.2-3
		c-0.3,0.1-0.3,0.1-0.9,0.2c-2.4,0.5-6.4,1-13.6,1.7c-1.3,0.1-1.7,0.2-2.2,0.3l-0.4-3.2c0.3,0,0.3,0,0.6,0c0.5,0,1.1,0,2.1-0.1
		c1.3-3,2.2-5.7,3.5-9.7c1.1-3.5,1.6-5.2,1.8-6.6L139.5,143.6z"/>
	<path class="st2" d="M160.4,156.8c-1.4,3.1-2.9,4.5-4.9,4.5c-2.7,0-4.7-2.8-4.7-6.6c0-2.6,0.9-5.1,2.6-7c2-2.2,4.8-3.4,8.3-3.4
		c5.8,0,9.5,3.5,9.5,8.9c0,4.2-2.2,7.5-5.8,9c-1.2,0.5-2.1,0.7-3.8,1c-0.4-1.3-0.7-1.8-1.5-2.8c2.2-0.3,3.6-0.7,4.8-1.3
		c2.1-1.2,3.3-3.4,3.3-6c0-2.3-1-4.2-3-5.3c-0.7-0.4-1.4-0.6-2.4-0.7C162.4,150.8,161.6,154.1,160.4,156.8z M156.8,148.2
		c-2,1.4-3.3,3.9-3.3,6.5c0,2,0.8,3.5,1.9,3.5c0.8,0,1.6-1,2.5-3.1c0.9-2.2,1.7-5.4,2-8.1C158.7,147.2,157.8,147.5,156.8,148.2z"/>
	<path class="st2" d="M192.7,148.2c-0.2,0.4-0.2,0.8-0.3,1.6c-0.1,2.7-0.3,6.4-0.6,8c-0.6,4.2-1.5,5.1-4.3,5.1c-0.9,0-1.7-0.1-3-0.3
		c0-1.5-0.1-2-0.6-3.1c1.4,0.4,2.4,0.6,3.2,0.6c1,0,1.4-0.5,1.8-2.6c0.3-1.7,0.5-4.9,0.5-7.7l-5.6,0c-0.3,3-0.8,4.8-1.9,6.9
		c-1.3,2.5-3.5,4.7-6.5,6.6c-0.8-1.3-1.2-1.7-2.2-2.5c3-1.6,5-3.5,6.2-6c0.6-1.3,1-2.5,1.2-4.2c0-0.3,0.1-0.6,0.1-0.7l-4,0
		c-1.5,0-1.8,0-2.6,0.1l0-3c0.8,0.1,1.5,0.2,2.7,0.2l4.2,0c0.1-0.9,0.1-2.3,0.1-3v-0.6c0-0.3,0-0.5-0.1-0.9l3.2,0.1
		c0,0.3-0.1,0.4-0.1,0.7c0,0.1,0,0.3,0,0.5c0,0.5,0,0.5-0.1,1.8c0,0.5,0,0.7-0.1,1.5l5.3,0c1.1,0,1.3,0,1.9-0.2L192.7,148.2z"/>
	<path class="st2" d="M215,146.7c-0.3,0.4-0.4,0.5-0.7,1.6c-0.8,2.2-2.1,5-3.1,6.6c-2.4,4-5.8,6.8-10.9,9.2c-0.8-1.3-1.1-1.7-2-2.5
		c2-0.8,3.2-1.4,4.7-2.4c1.7-1.1,2.7-2,3.9-3.3c-1.7-1.4-3.1-2.4-4.9-3.4l1.8-2.1c2,1.1,3,1.8,4.8,3.2c1.1-1.7,1.9-3.4,2.7-5.7
		l-7.5,0.1c-1.5,2.5-3.2,4.4-5.6,6.5c-0.8-0.9-1.2-1.2-2.4-1.9c2.6-2,4.6-4.2,6-6.8c0.7-1.3,1.2-2.4,1.4-3.3l3.1,0.7
		c-0.3,0.4-0.3,0.4-0.7,1.3c-0.3,0.6-0.5,0.9-0.6,1.2c0.4,0,0.4,0,6.2-0.1c1,0,1.5-0.1,2.1-0.3L215,146.7z"/>
	<path class="st2" d="M235.8,145.3c-0.3,0.1-0.3,0.1-2,0.6c-1.4,0.4-2.1,0.6-4,1c0,3.2,0,3.2-0.1,4.1h5.1c1.6,0,2,0,2.9-0.2v2.9
		c-0.9-0.1-1.3-0.1-2.9-0.1h-5.3c-0.3,2.2-0.8,3.8-1.6,5.2c-0.8,1.4-2.2,2.7-3.9,3.8c-0.7,0.4-1.1,0.7-2.2,1.2
		c-0.7-1.2-1.1-1.7-2.1-2.5c1.7-0.6,2.6-1.1,3.7-2c1.4-1.2,2.4-2.5,2.8-4.1c0.1-0.4,0.2-0.8,0.3-1.6h-5.9c-1.5,0-2,0-2.9,0.1v-2.9
		c0.9,0.1,1.3,0.2,2.9,0.2h6.1c0-1,0-1.9,0-3.6c-1.9,0.3-2.7,0.4-6.6,0.6c-0.2-1.1-0.4-1.4-0.9-2.6c0.7,0,1.1,0,1.5,0
		c3.2,0,7.3-0.6,10.3-1.4c1.4-0.4,2.1-0.7,2.9-1.1L235.8,145.3z"/>
	<path class="st2" d="M248.8,160.2c0,2.3-1.8,4.1-4.1,4.1s-4.1-1.8-4.1-4.1c0-2.2,1.8-4.1,4.1-4.1C247,156.1,248.8,158,248.8,160.2z
		 M242.5,160.2c0,1.2,1,2.2,2.2,2.2s2.2-1,2.2-2.2c0-1.2-1-2.2-2.2-2.2S242.5,159,242.5,160.2z"/>
</g>
</svg>
