<?xml version="1.0" encoding="utf-8"?>
<!-- Generator: Adobe Illustrator 24.0.3, SVG Export Plug-In . SVG Version: 6.00 Build 0)  -->
<svg version="1.1" id="レイヤー_1" xmlns="http://www.w3.org/2000/svg" xmlns:xlink="http://www.w3.org/1999/xlink" x="0px"
	 y="0px" viewBox="0 0 274 37.4" style="enable-background:new 0 0 274 37.4;" xml:space="preserve">
<style type="text/css">
	.st0{fill:#005190;}
</style>
<g>
	<path class="st0" d="M35.2,36.4h-34L0,33.4h12.8c-0.5-1-1.2-2-2-2.8l1.5-0.8h-1.8v0.8H5.8v-9.5l5.2,1.2h17l1.3-1.2l4.2,2l-1.3,1.3
		v6.1h-4.8v-0.7h-3.6l4.4,1.4C27,32,25.6,32.8,24,33.4h8.3l2.7-2l3.2,2.6L35.2,36.4z M34.3,20.3h-32l-1.2-2.8h30.6l2-1.4h-4.1v-0.7
		H8.7v0.8H4.1V1.8L9,3h3.4V0.1H17V3h4.2V0.1h4.6V3h4.2l1.3-1.2l4,1.8l-1.1,1.3v10.9l3,2.4L34.3,20.3z M12.8,5.6H8.7v2.2h4.2V5.6z
		 M12.8,10.4H8.7v2.4h4.2V10.4z M27.4,24.9H10.6v2.3h16.8V24.9z M13.5,29.8c1.6,0.6,3.1,1.3,4.6,2.4l-2.7,1.3H20
		c1.2-1.1,2.1-2.5,2.6-3.6H13.5z M21.2,5.6H17v2.2h4.2V5.6z M21.2,10.4H17v2.4h4.2V10.4z M29.6,5.6h-4.2v2.2h4.2V5.6z M29.6,10.4
		h-4.2v2.4h4.2V10.4z"/>
	<path class="st0" d="M73.1,10.4L72.4,11H49.8l-0.9-2.1c-0.6,2.4-1.4,3.6-1.4,3.6l-5.4-2.7c0,0,4-2.9,4-7.6V1.8l3.2,0
		c0,0.4,0,0.9,0.1,1.3h9.2V0h5.5v3.2h10.3l2-1.8l4.6,2.9l-1.7,1.4L76,10.8L73.1,10.4z M71.6,37.3v-1.4H51.3v1.5h-4.8V22l5.2,1.2
		h20.4l1.2-1.2l4.2,1.9l-1.2,1.3v12.1H71.6z M49.4,6c-0.1,0.8-0.2,1.6-0.3,2.3H70l2-1.5l1.2,1c0.1-0.6,0.2-1.2,0.2-1.8H49.4z
		 M68.3,21.9v-1H54.1v1h-4.6V12l5,1.2h14.3l1.2-1.2l4,1.9l-1.2,1.3v6.8H68.3z M58.9,25.8h-7.5v2.4h7.5V25.8z M58.9,30.7h-7.5v2.4
		h7.5V30.7z M68.3,15.8H54.1v2.5h14.2V15.8z M71.6,25.8h-7.8v2.4h7.8V25.8z M71.6,30.7h-7.8v2.4h7.8V30.7z"/>
	<path class="st0" d="M109.5,10.4h-8.5c-2.5,6.1-6,12.6-9.4,18.2l-5.2-1c3.6-5.4,7.1-11.5,9.5-17.2h-7.9L86.9,7h10.2
		c0.3-0.8,0.5-1.6,0.7-2.3l-2.4-0.8L96.5,2h7.5c-0.4,1.6-0.9,3.2-1.6,5h4.6l2.8-2.1l3,3L109.5,10.4z M118.4,34.6
		c-1.6-2-3.4-3.6-5.4-4.9c-0.8,3.5-3.4,6.3-8.9,6.3c-4.2,0-8.6-2.1-8.6-6c0-3.2,3.2-5.9,9.5-5.9c1.2,0,2.3,0.1,3.4,0.2V13.1h8.3
		l2.7-2l3.1,2.8l-3,2.4h-6.2v9c3.3,1,6.2,2.5,8.4,4.4L118.4,34.6z M104,27.2c-3.3,0-4.6,1.5-4.6,2.4c0,1.4,1.7,2.6,3.9,2.6
		c4.2,0,4.8-3.2,5-4.4C107,27.5,105.5,27.2,104,27.2z"/>
	<path class="st0" d="M152.9,35.6v-3c1.1-0.1,3.2,0,3.2-2.3V16.4c0-2.4,0.4-9.9,0.4-9.9S154,14,153,16.7l-6.9,18.7h-2.2l-6.6-19.5
		c-1-2.9-2.9-9.4-2.9-9.4c0,1.1,0.2,5.4,0.2,8.6c0,0,0,12.3,0,15.4c0,1.7,1.7,2.2,3.2,2.2v3h-10.1v-3c1.4-0.1,3.2-0.4,3.2-2V7.4
		c0-1.6-1.7-1.8-3.2-1.8v-3h10.4l7.8,24.1l8.4-24.1h10.3v3c-1.6,0.1-3.2,0.6-3.2,2.3v22.8c0,1.6,1.7,2,3.2,2v3H152.9z"/>
	<path class="st0" d="M170.9,35.6v-3.1c2.4,0,3.6-1,3.6-3.2V8.7c0-2-1.3-2.9-3.4-2.9V2.6h24l2,8h-3.6c-1.1-2.6-2.5-4.5-5.4-4.6
		c-0.8,0-2.3,0-3.7,0c-3.5,0-4.4,0-4.4,1.9v8.4h5.8c2.5,0,3.2-1.8,3.2-3.4h3.1v10.4l-3.1,0c0-1.6-0.4-3.4-3.2-3.4h-5.8v10.4
		c0,1.2,0.5,1.8,1.8,1.9c1,0,2.4,0,3.8,0s2.8,0,3.8,0c2-0.1,3.9-2,5.3-5.6L198,27l-2.4,8.6H170.9z"/>
	<path class="st0" d="M228.9,35.6l-18.2-24.8V29c0,2.6,1,3.5,3.5,3.7v2.9h-11v-2.9c2.3-0.3,3.6-1,3.6-3.7V7.4c0-1.6-1.7-1.8-3.1-1.9
		v-3h7.2l18,23.3V8.5c0-2.4-1.4-3-3.9-3V2.6h11.3v2.9c-1.8,0-3.6,0.8-3.6,2.9v27.2H228.9z"/>
	<path class="st0" d="M266.7,7.9c0-1.8-1.7-2.2-3.3-2.3v-3H274v3c-1.2,0-3.2,0.2-3.2,2.4v14.2c0,9.8-5.3,14.3-13.2,14.3
		c-9.2,0-13.7-5.2-13.7-14.1V7.9c0-1.8-1.9-2.2-3.6-2.3v-3h12.9v3c-1.2,0-3.6,0.3-3.6,2.4v14.4c0,7.6,3.5,9.9,8.4,9.9
		c5.1,0,8.5-3.2,8.5-10.5V7.9z"/>
</g>
</svg>
