<?xml version="1.0" encoding="utf-8"?>
<!-- Generator: Adobe Illustrator 24.0.3, SVG Export Plug-In . SVG Version: 6.00 Build 0)  -->
<svg version="1.1" id="レイヤー_1" xmlns="http://www.w3.org/2000/svg" xmlns:xlink="http://www.w3.org/1999/xlink" x="0px"
	 y="0px" viewBox="0 0 183.9 31.2" style="enable-background:new 0 0 183.9 31.2;" xml:space="preserve">
<style type="text/css">
	.st0{fill:#0071B2;}
</style>
<g>
	<path class="st0" d="M0.3,30.5v-2.7c1.8,0,2.9-0.7,2.9-2V6.3c0-1.4-0.5-2.7-3.2-2.8V0.8h14.3c7.5,0,11.2,4.1,11.2,8.6
		c0,9.3-9.7,9.4-14,9.4c-1.7,0-3.3,0-3.3,0v6.9c0,1.7,1.3,2.2,3.1,2.2v2.7H0.3z M13.6,15.3c4.4-0.1,6.1-2.1,6.1-5.9
		c0-5.5-4.4-5.6-7.9-5.6c-2.9,0-3.7,0-3.7,2.1v9.3c0,0,2.2,0,4.1,0H13.6z"/>
	<path class="st0" d="M29.4,30.5v-2.7c1.5,0,3.4-0.5,3.4-2.2v-20c0-1.5-1.8-2.2-3.3-2.2V0.8H41v2.7c-1.5,0.1-3.3,0.5-3.3,2.1v20.2
		c0,1.5,1.9,2,3.4,2.1v2.7H29.4z"/>
	<path class="st0" d="M72.5,25c-2.6,4.4-6.9,6.2-12.3,6.2c-8.7,0-14.5-5.7-14.5-15.4v-0.4C45.8,6,52.7,0,60.7,0c1.7,0,3.6,0.2,6.1,1
		l1.5-0.7h2.1l1.3,9.5l-3,0.5c-0.8-4.4-3.6-7.2-8.1-7.2c-7.1,0-9,6.2-9.1,12.5v0.4c0,6.2,2.9,11.6,9,11.6c5.1,0,7.6-2.4,9.5-5.6
		L72.5,25z"/>
	<path class="st0" d="M92.6,30.5v-2.6c1.4-0.1,2.3-0.3,2.3-0.9c0-0.1,0-0.3-0.1-0.4l-6.9-10.9L85,18.3v7.4c0,1.8,1.4,2.2,2.9,2.2
		v2.7H77.1v-2.7c1.4-0.1,3-0.3,3-2.1V5.3c0-1.4-1.6-1.7-3-1.8V0.8H88v2.7c-1.4,0-3,0.6-3,2v8.2L93.6,5c0.3-0.3,0.4-0.5,0.4-0.8
		c0-0.4-0.5-0.8-1.5-0.9V0.8h10v2.7C100.7,3.6,99.8,4,99,4.8l-7.7,7.4l9.4,13.8c0.9,1.4,2.1,1.8,3.1,1.9v2.6H92.6z"/>
	<path class="st0" d="M147.9,5.5c0-1.6-1.5-2-3-2.1V0.8h9.6v2.7c-1.1,0-2.8,0.1-2.8,2.2v12.7c0,8.8-4.8,12.9-11.8,12.9
		c-8.3,0-12.3-4.7-12.3-12.7v-13c0-1.6-1.7-2-3.2-2.1V0.8h11.6v2.7c-1,0-3.2,0.3-3.2,2.2v13c0,6.8,3.2,8.9,7.6,8.9
		c4.6,0,7.6-2.9,7.6-9.4V5.5z"/>
	<path class="st0" d="M158.8,30.5v-2.7c1.8,0,2.9-0.7,2.9-2V6.3c0-1.4-0.5-2.7-3.2-2.8V0.8h14.3c7.5,0,11.2,4.1,11.2,8.6
		c0,9.3-9.7,9.4-14,9.4c-1.7,0-3.3,0-3.3,0v6.9c0,1.7,1.3,2.2,3.1,2.2v2.7H158.8z M172.1,15.3c4.4-0.1,6.1-2.1,6.1-5.9
		c0-5.5-4.4-5.6-7.9-5.6c-2.9,0-3.7,0-3.7,2.1v9.3c0,0,2.2,0,4.1,0H172.1z"/>
</g>
</svg>
