<?xml version="1.0" encoding="utf-8"?>
<!-- Generator: Adobe Illustrator 24.0.3, SVG Export Plug-In . SVG Version: 6.00 Build 0)  -->
<svg version="1.1" id="レイヤー_1" xmlns="http://www.w3.org/2000/svg" xmlns:xlink="http://www.w3.org/1999/xlink" x="0px"
	 y="0px" viewBox="0 0 248.8 177.6" style="enable-background:new 0 0 248.8 177.6;" xml:space="preserve">
<style type="text/css">
	.st0{fill:#FFFFFF;}
	.st1{fill:#DAE6EF;}
	.st2{fill:#0071B2;}
</style>
<g>
	<g>
		<path class="st0" d="M15.5,131.4c-2.4-3.8-3.7-8.1-3.3-12.6c0.9-10.7,10.4-19,22.6-20.5c-2.2-4.6-3.3-9.9-2.9-15.5
			c1.3-15.8,14.2-27.6,28.9-26.4c3.8,0.3,7.3,1.5,10.5,3.3c0-1.7,0-3.4,0.2-5.1c2.6-32.7,31.2-57,63.9-54.4s57,31.2,54.4,63.9
			c0,0.5-0.1,0.9-0.1,1.4c0.7,0,1.4,0,2.1,0.1c19.7,1.6,34.3,18.8,32.8,38.5c-1.4,17.6-15.4,31.2-32.4,32.7
			c-1.1,12.9-12.4,22.5-25.4,21.5c-0.7-0.1-1.3-0.2-2-0.3c-8,10-20.6,16-34.3,14.9c-9.8-0.8-18.6-5.1-25-11.6
			c-9.3,6.5-29,10-51.5,8.2C23.2,167-0.9,155.7,0,144.2C0.5,138.8,6.3,134.4,15.5,131.4z"/>
		<path class="st1" d="M58.7,100.7c19,1.5,34.8,11,42,23.5c1.7,0.7,3.3,1.7,4.7,2.7c3.9-8.7,14.5-14.4,26.4-13.5
			c4.8,0.4,9.2,1.8,12.9,4c6.7-18.9,26.2-31.6,48.1-29.9c2.3,0.2,4.5,0.5,6.6,1c5.7-3.6,12.4-5.4,19.5-4.8
			c17.9,1.4,31.2,17.5,29.7,35.9c-0.8,10.5-6.3,19.4-14.1,25c-5.9,20.1-26.1,34-48.8,32.2c-8.6-0.7-16.6-3.6-23.2-8
			c-8.2,6.5-23.9,10.1-41.6,8.7c-13.7-1.1-25.7-5-33.7-10.2c-9.3,5.5-21.4,8.4-34.4,7.3C25.7,172.3,5,154.1,6.7,133.7
			S31.6,98.6,58.7,100.7z"/>
		<path class="st0" d="M56.8,85c10.4,0.8,19,6.4,22.3,13.6c4-13.1,19.1-22.1,36.3-20.7c6.4,0.5,12.3,2.4,17.2,5.3
			c9.6-13,29.7-21,52.3-19.2c30.4,2.4,53.6,21.8,51.9,43.2c-1.7,21.4-27.7,36.9-58.1,34.4c-15.9-1.3-29.8-7.2-39.3-15.6
			c-6.9,6.2-17.3,9.8-28.6,8.9C95,133.6,82.3,124,78.9,111.9c-3.8,7.7-13.9,12.7-25.2,11.8c-13.9-1.1-24.5-10.7-23.7-21.4
			C30.9,91.6,42.9,83.8,56.8,85z"/>
	</g>
</g>
<g>
	<path class="st2" d="M93.1,59.5c-1.1,0-1.8,0-2.4,0.1v-2.4c0.7,0.1,1.2,0.1,2.2,0.1h10.7c1,0,1.9,0,2.5-0.1v2.4
		c-0.7-0.1-1.4-0.1-2.5-0.1h-4.2v3.1h5.8c1.1,0,2.1,0,2.6-0.1v2.3c-0.7-0.1-1.5-0.1-2.6-0.1H91.5c-1.1,0-1.9,0-2.6,0.1v-2.3
		c0.5,0.1,1.7,0.1,2.6,0.1H97v-3.1H93.1z M97,47.3c0-0.6,0-0.9-0.1-1.4h2.6c-0.1,0.4-0.1,0.8-0.1,1.4V48h5.8c1,0,1.6,0,2.3-0.1
		c-0.1,0.5-0.1,0.9-0.1,1.6v1.2c0,0.6,0,1.1,0.1,1.6h-2.3v-2.2h-4.1v3.2c0,0.4,0.1,0.5,0.8,0.5c0.1,0,0.4,0,0.8,0c0.1,0,0.1,0,0.1,0
		c0.7,0,1.6-0.1,1.8-0.1c0.3-0.1,0.4-0.4,0.4-1.1c0.8,0.3,1.3,0.5,2.2,0.7c-0.1,1.3-0.3,1.8-0.8,2.1c-0.6,0.4-1.4,0.5-4,0.5
		c-2.8,0-3.4-0.3-3.4-1.7v-4.1h-1.8c-0.1,1.8-0.5,3-1.5,4c-0.7,0.8-1.7,1.5-3,2c-0.6,0.3-1.1,0.4-2.3,0.8c-0.3-0.7-0.8-1.4-1.4-2
		c2.1-0.4,3.2-0.8,4.2-1.6c1.1-0.8,1.5-1.5,1.6-3.2h-3.4v2.8h-2.3c0.1-0.6,0.1-1.1,0.1-1.7v-1.7c0-0.7,0-1.1-0.1-1.6
		c0.7,0.1,1.3,0.1,2.3,0.1H97V47.3z"/>
	<path class="st2" d="M117.4,48.3c0-1.1,0-1.6-0.1-2.3h2.7c-0.1,0.7-0.1,1.2-0.1,2.2v1.4h5.8c0.9,0,1.4,0,1.9-0.1
		c-0.1,0.6-0.1,1-0.1,1.9v6.5c0,1,0,1.5,0.1,2.1h-2.5v-1.3h-5.2v4.3c0,1.3,0,1.9,0.1,2.6h-2.7c0.1-0.8,0.1-1.4,0.1-2.6v-4.3h-5v1.3
		H110c0.1-0.7,0.1-1.2,0.1-2.1v-6.5c0-0.8,0-1.2-0.1-1.8c0.6,0.1,1.1,0.1,1.9,0.1h5.6V48.3z M112.5,51.8v4.6h5v-4.6H112.5z
		 M125.1,56.4v-4.6h-5.2v4.6H125.1z"/>
	<path class="st2" d="M137.8,46.7c-0.1,0.2-0.1,0.4-0.2,0.7c0,0.3-0.1,0.4-0.1,0.7c-0.1,0.4-0.1,0.4-0.4,2c-0.1,0.5-0.1,0.5-0.1,0.8
		c0.6,0,0.9-0.1,1.3-0.1c1.4,0,2.4,0.4,3.1,1.1c0.7,0.8,1,1.8,1,3.7c0,3.6-0.6,6.5-1.6,7.7c-0.6,0.7-1.2,1-2.3,1
		c-1,0-1.8-0.2-3.3-0.6c0-0.4,0-0.7,0-0.9c0-0.6,0-1-0.2-1.8c1.1,0.5,2.3,0.8,3.1,0.8c0.6,0,1-0.4,1.3-1.4c0.3-1.1,0.5-3,0.5-4.8
		c0-1.9-0.5-2.5-2.2-2.5c-0.4,0-0.7,0-1.2,0.1c-0.6,2.6-0.8,3.2-1.3,4.6c-0.7,2.1-1.3,3.5-2.5,5.9c-0.1,0.2-0.1,0.2-0.3,0.6
		c-0.1,0.1-0.1,0.1-0.2,0.4l-2.5-1.4c0.6-0.8,1.5-2.4,2.2-4c0.9-2.1,1.2-3,2.1-6c-1.1,0.1-3.1,0.5-3.8,0.7l-0.3-2.5
		c0.8,0,3.3-0.3,4.5-0.4c0.4-2.3,0.5-3.6,0.5-4.3c0-0.1,0-0.2,0-0.4L137.8,46.7z M144.8,49.4c2.1,2.5,3.4,5,4.4,8.2l-2.4,1.2
		c-0.4-1.8-0.9-3.2-1.7-4.8c-0.8-1.6-1.4-2.5-2.4-3.6L144.8,49.4z"/>
	<path class="st2" d="M155.7,50.6c-0.3,1.2-0.7,3.1-1,5.2c0,0.3,0,0.3-0.1,0.6l0,0c1.2-1.2,3.8-2,6.4-2c3.6,0,6,1.8,6,4.5
		c0,1.5-0.8,3.1-2.2,4.1c-1.4,1-3.1,1.4-5.6,1.4c-1.8,0-3-0.1-5.4-0.7c0-1.3-0.1-1.7-0.3-2.7c2.1,0.7,3.9,1.1,5.7,1.1
		c3,0,5.1-1.2,5.1-3c0-1.4-1.3-2.3-3.6-2.3c-1.9,0-3.8,0.6-5.3,1.5c-0.4,0.3-0.5,0.4-1,0.9l-2.7-0.1c0.1-0.4,0.1-0.5,0.2-1.3
		c0.2-1.3,0.5-3.7,0.9-6.2c0.1-0.5,0.1-0.8,0.1-1.2L155.7,50.6z M156,46.5c1.5,0.8,5.5,2,7.9,2.3l-0.9,2.4c-3.6-0.8-5.8-1.5-8.2-2.6
		L156,46.5z"/>
	<path class="st2" d="M77.7,73.5c-0.1,0.6-0.1,0.8-0.1,1.9v5.8c0,1.1,0,1.3,0.1,1.9h-2.9c0.1-0.5,0.1-1.1,0.1-1.9v-5.8
		c0-1.1,0-1.4-0.1-1.9L77.7,73.5z M87.3,73.5c-0.1,0.5-0.1,0.8-0.1,2v2.9c0,3.3-0.2,5.1-0.5,6.4c-0.6,2.1-2,3.7-4.2,4.9
		c-1.1,0.6-2.2,1.1-4.1,1.6c-0.4-1-0.6-1.4-1.5-2.5c2.1-0.4,3.3-0.8,4.6-1.7c2-1.3,2.7-2.6,2.9-5.4c0.1-0.9,0.1-1.8,0.1-3.5v-2.6
		c0-1.1,0-1.5-0.1-2H87.3z"/>
	<path class="st2" d="M107.7,75.9c-0.2,0.4-0.3,0.5-0.4,1c-1.1,4-2.3,6.6-4.3,8.9c-2.1,2.3-4.3,3.9-7.9,5.4
		c-0.6-1.1-0.9-1.5-1.9-2.5c1.9-0.6,3.1-1.1,4.6-2.2c3.3-2.1,5.4-5.1,6.4-9.2H94.3c-1.4,0-1.9,0-2.7,0.1v-2.7
		c0.8,0.1,1.3,0.1,2.7,0.1h9.7c1.2,0,1.6,0,2.3-0.2L107.7,75.9z"/>
	<path class="st2" d="M113,81.6c-0.9,0-1.3,0-1.9,0.1v-2.3c0.6,0.1,1,0.1,1.9,0.1h6.2v-1.3c0-0.8,0-1.2-0.1-1.7h2.5
		c-0.1,0.5-0.1,0.6-0.1,1.6l0,1.4h1.8c0.9,0,1.4,0,1.9-0.1v2.3c-0.6-0.1-1-0.1-1.9-0.1h-1.8l0.1,8.1c0,0.9,0,1.3,0.1,1.8h-2.6
		c0.1-0.5,0.1-1,0.1-1.7l0-5.3c0-0.2,0-1.1,0-1.3c-0.3,0.6-0.4,0.8-0.7,1.2c-1.4,2-3.8,4-6.9,5.6c-0.5-0.9-0.8-1.2-1.6-2
		c1.7-0.8,3.2-1.7,4.5-2.9c1.3-1.1,2.4-2.4,3.1-3.5H113z"/>
	<path class="st2" d="M128.8,80.6c0.9,0.1,1.3,0.1,3.4,0.1h11.3c2.1,0,2.5,0,3.4-0.1v2.9c-0.8-0.1-1.1-0.1-3.4-0.1h-11.2
		c-2.4,0-2.6,0-3.4,0.1V80.6z"/>
	<path class="st2" d="M157.7,73.6c-0.2,0.5-0.3,0.5-0.5,1.5c-1.6,5.3-2.8,8.8-4.2,12.1c3.3-0.3,7-0.7,8.8-1.1c-0.2-0.5-0.5-1-1-1.9
		c-0.9-1.8-1.3-2.4-2-3.4l2.4-0.9c2,2.9,3.8,6.4,5.1,9.8l-2.6,1.3c-0.3-0.9-0.3-0.9-1-2.6c-0.3,0.1-0.3,0.1-0.8,0.2
		c-2.1,0.4-5.6,0.9-12,1.5c-1.2,0.1-1.5,0.1-1.9,0.3l-0.4-2.9c0.3,0,0.3,0,0.5,0c0.4,0,0.9,0,1.8-0.1c1.1-2.7,2-5.1,3.1-8.5
		c1-3.1,1.4-4.6,1.5-5.9L157.7,73.6z"/>
	<path class="st2" d="M169.9,85.9c0-0.4,0-0.7,0-0.9c0-0.2,0-0.2-0.1-1.5l-0.3-7.2c0-0.9-0.1-2-0.2-2.6h3.4
		c-0.1,0.6-0.2,1.7-0.2,2.6l-0.3,7.2c-0.1,1.2-0.1,1.2-0.1,1.5c0,0.3,0,0.5,0,0.9H169.9z M169.6,90.6v-2.9h3.1v2.9H169.6z
		 M177.9,85.9c0-0.4,0-0.6,0-0.8v-0.5c0-1.1,0.3-2,0.7-2.7c0.3-0.4,0.4-0.6,1.7-1.6c1.1-0.9,1.5-1.6,1.5-2.5c0-1.3-0.9-2.1-2.4-2.1
		c-0.9,0-1.7,0.4-2.1,1.2c-0.2,0.4-0.3,0.8-0.4,1.6l-2.7-0.4c0.2-1.6,0.5-2.4,1.4-3.3c0.8-0.9,2.2-1.4,4-1.4c1.6,0,2.8,0.4,3.7,1.3
		c0.8,0.8,1.3,1.8,1.3,3c0,1-0.2,1.8-0.6,2.5c-0.4,0.7-0.8,1-2.2,2.1c-1.1,0.9-1.5,1.5-1.5,2.7c0,0.2,0,0.6,0.1,1H177.9z
		 M180.7,87.7v2.9h-3.1v-2.9H180.7z"/>
	<path class="st2" d="M78.6,116.9c-0.9-1-2.4-2.1-3.9-2.9c-0.5-0.3-0.6-0.3-1.1-0.5c0,0.1,0,0.2,0,0.2c0,1.3-0.4,2.2-1.2,2.9
		s-1.9,0.9-3.5,0.9c-3.1,0-4.9-1.2-4.9-3.3c0-2.3,2.1-3.7,5.6-3.7c0.5,0,0.9,0,1.4,0.1c0-0.3,0-0.3,0-0.5c0-0.1,0-0.3,0-0.5
		c0-0.3,0-0.3,0-1.1c-1,0-1.7,0-2.1,0c-1.3,0-2.1,0-3.8-0.1c-0.3,0-0.5,0-0.8,0l0-2.3c0.9,0.2,2.9,0.4,4.9,0.4c0.4,0,1.1,0,1.7,0
		c0-0.2,0-0.9,0-2.1c-0.7,0-1,0-1.3,0c-1,0-3.8-0.1-5.2-0.2c-0.2,0-0.4,0-0.5,0c-0.1,0-0.2,0-0.3,0l0-2.3c1.1,0.3,3.3,0.4,5.7,0.4
		c0.3,0,1.1,0,1.6,0c0-2.1,0-2.1-0.1-2.7h2.7c-0.1,0.6-0.1,0.8-0.1,2.6c2.9-0.2,4.7-0.4,6.1-0.8l0.1,2.3c-0.5,0-0.5,0-1.7,0.2
		c-1.9,0.3-2.7,0.3-4.5,0.4c0,0.5,0,0.8,0,2.1c1.1-0.1,1.1-0.1,3-0.3c1.3-0.2,1.7-0.2,2.6-0.5l0.1,2.3c-0.4,0-0.9,0.1-1.4,0.1
		c-0.3,0-1.3,0.1-2.9,0.3c-0.3,0-0.6,0-1.4,0.1c0.1,2.1,0.1,2.1,0.1,2.6c1.9,0.5,3.5,1.4,5.8,3c0.4,0.2,0.5,0.3,0.8,0.5L78.6,116.9z
		 M69.3,112.6c-1.7,0-2.8,0.5-2.8,1.5c0,0.8,0.9,1.3,2.4,1.3c0.9,0,1.5-0.3,1.8-0.7c0.2-0.3,0.3-0.7,0.3-1.4c0-0.1,0-0.5,0-0.5
		C70.4,112.6,70,112.6,69.3,112.6z"/>
	<path class="st2" d="M83,107c0.6,0,0.6,0,2.2-0.4c2.9-0.6,4.8-0.9,6.5-0.9c2.4,0,4,0.7,5,2.2c0.5,0.8,0.8,1.7,0.8,2.7
		c0,2.8-2,5.1-5.4,6.2c-1.3,0.4-1.8,0.5-4.6,0.8c-0.2-1.1-0.4-1.5-0.9-2.4c0.1,0,0.2,0,0.3,0c0.8,0,2-0.1,3-0.3
		c1.6-0.3,2.6-0.7,3.5-1.4c1-0.8,1.5-1.7,1.5-2.9c0-1.6-1.2-2.5-3.5-2.5c-1.5,0-3.1,0.2-5.6,0.8c-1.4,0.3-1.7,0.4-2.5,0.7L83,107z"
		/>
	<path class="st2" d="M100.5,102.6c0.8,0.1,1.6,0.2,2.8,0.2c0.3,0,0.5,0,1,0c0.2-1,0.4-2.6,0.4-3.2c0-0.1,0-0.2,0-0.4l2.8,0.3
		c-0.1,0.5-0.1,0.5-0.4,2c-0.1,0.6-0.1,0.7-0.2,1.2c1.6-0.1,2.6-0.3,3.6-0.6l0.1,2.4c-0.2,0-0.2,0-0.7,0.1c-1.1,0.2-2.8,0.4-3.5,0.4
		c-0.2,1.3-0.8,3.6-1.3,5.5c-0.6,2.2-1,3.3-2.4,7l-2.7-1c1.5-2.7,3.1-7.6,3.8-11.4c-0.1,0-0.2,0-0.3,0h-1.2c-0.1,0-0.3,0-0.7,0
		c-0.4,0-0.7,0-0.8,0c-0.1,0-0.2,0-0.4,0L100.5,102.6z M111,110.8c-0.8,1.1-1.1,1.6-1.1,2.3c0,1.1,1.1,1.6,3.2,1.6
		c1.5,0,3.6-0.3,4.8-0.8l0.2,2.6c-0.4,0-0.5,0.1-1,0.1c-1.8,0.3-2.7,0.3-3.9,0.3c-1.9,0-3.2-0.3-4.3-0.8c-0.9-0.5-1.5-1.5-1.5-2.6
		c0-1.1,0.4-2.1,1.6-3.7L111,110.8z M117.3,108c-1-0.1-1.6-0.1-2.7-0.1c-2.1,0-3.5,0.1-5.6,0.6l-0.2-2.3c3-0.6,4-0.7,6.3-0.7
		c0.6,0,0.8,0,2.1,0L117.3,108z"/>
	<path class="st2" d="M132.8,100.9c-0.4,0.3-0.8,0.6-2.6,2.3c-1.1,1-2.6,2.2-5,4.1c-0.7,0.5-0.8,0.7-0.8,0.9c0,0.3,0,0.4,1.9,1.8
		c3.3,2.5,3.9,3,6.7,5.5c0.2,0.2,0.3,0.3,0.6,0.5l-2.2,2.2c-0.5-0.8-1.3-1.6-2.7-2.9c-1.5-1.4-2.2-2-5.5-4.5
		c-1.4-1.1-1.8-1.6-1.8-2.6c0-0.6,0.2-1.2,0.7-1.7c0.3-0.3,0.3-0.3,1.9-1.5c2.3-1.7,3.5-2.7,4.9-4.1c1-1,1.2-1.2,1.5-1.8
		L132.8,100.9z"/>
	<path class="st2" d="M139.2,107.7c-0.9,0-1.4,0-1.9,0.1v-2.3c0.5,0.1,1,0.1,2,0.1h0.5c-0.3-1.2-0.5-1.7-0.9-2.5l1.9-0.5h-1
		c-0.9,0-1.4,0-2,0.1v-2.3c0.5,0.1,1,0.1,2,0.1h1.6v-0.3c0-0.7,0-1-0.1-1.5h2.6c-0.1,0.5-0.1,0.8-0.1,1.5v0.3h1.4c1,0,1.4,0,2-0.1
		v2.3c-0.6-0.1-1.1-0.1-2-0.1h-0.9l1.8,0.5c-0.1,0.3-0.1,0.3-0.3,0.7c-0.1,0.2-0.1,0.2-0.4,0.8c-0.1,0.4-0.2,0.5-0.5,0.9h0.4
		c1,0,1.4,0,1.9-0.1v2.3c-0.6-0.1-1-0.1-1.9-0.1h-1.7v1.5h1.6c0.9,0,1.4,0,1.9-0.1v2.2c-0.5-0.1-1-0.1-1.9-0.1h-0.8
		c0.6,0.7,1.2,1.2,2.2,1.9c-0.5,0.8-0.7,1.2-1,2c-1.1-1-1.4-1.3-2.1-2.3c0,0.3,0,0.3,0,0.8c0,0.1,0,0.7,0,0.8v2.1
		c0,0.7,0,1.2,0.1,1.8h-2.4c0.1-0.5,0.1-1,0.1-1.7v-2.1c0-0.4,0-1,0.1-1.4c-0.9,1.6-1.8,2.7-3.5,3.9c-0.3-0.9-0.6-1.5-1.1-2.2
		c1.6-1,2.8-2.2,3.7-3.6h-1.4c-0.9,0-1.4,0-1.9,0.1v-2.2c0.5,0.1,1,0.1,2,0.1h2.1v-1.1c0-0.4,0-0.4,0-0.4H139.2z M140.8,102.7
		c0.5,0.9,0.6,1.4,0.9,2.5l-1.9,0.5h2.9c0.6-1.1,0.9-1.8,1.2-3H140.8z M154.9,105.3c0.9,0,1.5,0,1.9-0.1v2.3
		c-0.5-0.1-0.9-0.1-1.7-0.1h-0.5v8.5c0,1.3,0,1.9,0.1,2.5h-2.5c0.1-0.7,0.1-1.3,0.1-2.5v-8.5h-2.3c0,2.7-0.3,4.9-0.8,6.8
		c-0.4,1.6-1.1,3.1-1.9,4.3c-0.8-0.7-1.2-0.9-2.1-1.4c2-2.5,2.5-5.2,2.5-13.2c0-1.8,0-2.5-0.1-3.3c2.4-0.1,6-1,7.1-1.8l1.7,2.1
		c-0.2,0.1-0.3,0.1-0.7,0.2c-1.7,0.6-3,1-5.8,1.4v2.8H154.9z"/>
	<path class="st2" d="M163.2,99.8c-0.1,0.6-0.2,1.2-0.3,2.9c-0.1,2-0.2,6.3-0.2,7.8c0,2,0.1,2.8,0.5,3.4c0.5,0.7,1.5,1.1,2.8,1.1
		c2.3,0,4.1-1.3,5.1-3.6c0.5-1.1,0.7-2.1,1-3.6c1.1,0.9,1.5,1.2,2.6,1.6c-0.8,2.9-1.5,4.2-2.5,5.4c-1.6,1.8-3.7,2.7-6.3,2.7
		c-1.5,0-2.8-0.3-3.7-0.9c-1.5-1-2.1-2.6-2.1-5.4c0-1.1,0-3.2,0.2-8.5c0-0.6,0-1.1,0-1.4c0-0.6,0-0.9-0.1-1.4L163.2,99.8z"/>
	<path class="st2" d="M180.6,101.1c-0.1,0.8-0.2,1.8-0.2,3.2c0,1.8,0.2,4.4,0.4,5.7c0.4,2.2,1,3.6,1.7,3.6c0.3,0,0.6-0.3,0.9-0.9
		c0.5-1.1,0.9-2.4,1.1-3.8c0.7,0.8,1.1,1.2,2.1,1.9c-1.1,4.1-2.3,5.8-4.1,5.8c-1.4,0-2.6-1-3.4-3.1c-0.9-2.1-1.2-5.2-1.3-11
		c0-0.7,0-0.9-0.1-1.4H180.6z M190.6,102c2.7,3.2,4.1,6.7,4.8,11.4l-2.6,1c-0.1-2-0.6-4.2-1.4-6.1c-0.7-1.9-1.7-3.6-3-5.2L190.6,102
		z"/>
	<path class="st2" d="M42.9,126.4c-0.1,0.6-0.1,0.8-0.1,1.9v5.8c0,1.1,0,1.3,0.1,1.9H40c0.1-0.5,0.1-1.1,0.1-1.9v-5.8
		c0-1.1,0-1.4-0.1-1.9L42.9,126.4z M52.5,126.4c-0.1,0.5-0.1,0.8-0.1,2v2.9c0,3.3-0.2,5.1-0.5,6.4c-0.6,2.1-2,3.7-4.2,4.9
		c-1.1,0.6-2.2,1.1-4.1,1.6c-0.4-1-0.6-1.4-1.5-2.5c2.1-0.4,3.3-0.8,4.6-1.7c2-1.3,2.7-2.6,2.9-5.4c0.1-0.9,0.1-1.8,0.1-3.5v-2.6
		c0-1.1,0-1.5-0.1-2H52.5z"/>
	<path class="st2" d="M73,128.8c-0.2,0.4-0.3,0.5-0.4,1c-1.1,4-2.3,6.6-4.3,8.9c-2.1,2.3-4.3,3.9-7.9,5.4c-0.6-1.1-0.9-1.5-1.9-2.5
		c1.9-0.6,3.1-1.1,4.6-2.2c3.3-2.1,5.4-5.1,6.4-9.2H59.5c-1.4,0-1.9,0-2.7,0.1v-2.8c0.8,0.1,1.3,0.1,2.7,0.1h9.7
		c1.2,0,1.6,0,2.3-0.2L73,128.8z"/>
	<path class="st2" d="M78.2,134.5c-0.9,0-1.3,0-1.9,0.1v-2.3c0.6,0.1,1,0.1,1.9,0.1h6.2v-1.3c0-0.8,0-1.2-0.1-1.7h2.5
		c-0.1,0.5-0.1,0.6-0.1,1.6l0,1.4h1.8c0.9,0,1.4,0,1.9-0.1v2.3c-0.6-0.1-1-0.1-1.9-0.1h-1.8l0.1,8.1c0,0.9,0,1.3,0.1,1.8h-2.6
		c0.1-0.5,0.1-1,0.1-1.7l0-5.3c0-0.2,0-1.1,0-1.3c-0.3,0.6-0.4,0.8-0.7,1.2c-1.4,2-3.8,4-6.9,5.6c-0.5-0.9-0.8-1.2-1.6-2
		c1.7-0.8,3.2-1.7,4.5-2.9c1.3-1.1,2.4-2.4,3.1-3.5H78.2z"/>
	<path class="st2" d="M94,133.5c0.9,0.1,1.3,0.1,3.4,0.1h11.3c2.1,0,2.5,0,3.4-0.1v2.9c-0.8-0.1-1.1-0.1-3.4-0.1H97.5
		c-2.4,0-2.6,0-3.4,0.1V133.5z"/>
	<path class="st2" d="M122.9,126.5c-0.2,0.5-0.3,0.5-0.5,1.5c-1.6,5.3-2.8,8.8-4.2,12.1c3.3-0.3,7-0.7,8.8-1.1c-0.2-0.5-0.5-1-1-1.9
		c-0.9-1.8-1.3-2.4-2-3.4l2.4-0.9c2,2.9,3.8,6.4,5.1,9.8l-2.6,1.3c-0.3-0.9-0.3-0.9-1-2.6c-0.3,0.1-0.3,0.1-0.8,0.2
		c-2.1,0.4-5.6,0.9-12,1.5c-1.2,0.1-1.5,0.1-1.9,0.3l-0.4-2.9c0.3,0,0.3,0,0.5,0c0.4,0,0.9,0,1.8-0.1c1.1-2.7,2-5.1,3.1-8.5
		c1-3.1,1.4-4.6,1.5-5.9L122.9,126.5z"/>
	<path class="st2" d="M141.3,138.1c-1.2,2.7-2.6,4-4.3,4c-2.4,0-4.1-2.5-4.1-5.9c0-2.3,0.8-4.5,2.3-6.2c1.8-1.9,4.3-3,7.3-3
		c5.1,0,8.4,3.1,8.4,7.8c0,3.7-1.9,6.6-5.1,7.9c-1,0.4-1.8,0.6-3.3,0.9c-0.4-1.1-0.6-1.6-1.3-2.5c1.9-0.3,3.2-0.6,4.2-1.2
		c1.8-1,2.9-3,2.9-5.3c0-2-0.9-3.7-2.6-4.7c-0.7-0.4-1.2-0.5-2.1-0.6C143.1,132.8,142.4,135.7,141.3,138.1z M138.2,130.6
		c-1.8,1.3-2.9,3.4-2.9,5.7c0,1.7,0.7,3.1,1.7,3.1c0.7,0,1.4-0.9,2.2-2.7c0.8-1.9,1.5-4.8,1.8-7.1
		C139.8,129.6,139.1,129.9,138.2,130.6z"/>
	<path class="st2" d="M169.8,130.6c-0.2,0.4-0.2,0.7-0.2,1.4c-0.1,2.4-0.3,5.6-0.5,7c-0.5,3.7-1.3,4.5-3.8,4.5
		c-0.8,0-1.5-0.1-2.6-0.2c0-1.3-0.1-1.7-0.5-2.7c1.2,0.3,2.1,0.5,2.8,0.5c0.9,0,1.2-0.5,1.6-2.3c0.3-1.5,0.5-4.3,0.5-6.8l-4.9,0
		c-0.3,2.6-0.7,4.2-1.7,6c-1.2,2.2-3,4.2-5.7,5.9c-0.7-1.1-1-1.5-1.9-2.2c2.6-1.4,4.4-3.1,5.5-5.3c0.6-1.2,0.9-2.2,1.1-3.7
		c0-0.3,0.1-0.5,0.1-0.7l-3.5,0c-1.3,0-1.6,0-2.3,0.1l0-2.6c0.7,0.1,1.3,0.2,2.3,0.2l3.7,0c0.1-0.8,0.1-2,0.1-2.6v-0.5
		c0-0.3,0-0.4-0.1-0.8l2.8,0.1c0,0.3-0.1,0.4-0.1,0.7c0,0.1,0,0.3,0,0.4c0,0.4,0,0.4-0.1,1.5c0,0.5,0,0.7-0.1,1.3l4.7,0
		c1,0,1.1,0,1.7-0.2L169.8,130.6z"/>
	<path class="st2" d="M189.5,129.3c-0.3,0.4-0.3,0.4-0.7,1.4c-0.7,1.9-1.8,4.4-2.7,5.8c-2.2,3.5-5.1,6-9.6,8.1
		c-0.7-1.1-1-1.5-1.8-2.2c1.8-0.7,2.9-1.3,4.1-2.1c1.5-1,2.4-1.7,3.5-2.9c-1.5-1.3-2.8-2.2-4.3-3l1.6-1.9c1.8,1,2.7,1.6,4.3,2.8
		c1-1.5,1.7-3,2.4-5l-6.6,0.1c-1.3,2.2-2.8,3.9-4.9,5.7c-0.7-0.8-1-1.1-2.1-1.7c2.3-1.7,4-3.7,5.3-6c0.6-1.1,1-2.2,1.2-2.9l2.7,0.6
		c-0.2,0.4-0.2,0.4-0.6,1.2c-0.3,0.6-0.4,0.8-0.5,1c0.3,0,0.3,0,5.5-0.1c0.9,0,1.3-0.1,1.9-0.3L189.5,129.3z"/>
	<path class="st2" d="M207.9,128c-0.3,0.1-0.3,0.1-1.8,0.6c-1.2,0.4-1.9,0.5-3.5,0.9c0,2.9,0,2.9-0.1,3.6h4.5c1.4,0,1.8,0,2.6-0.1
		v2.5c-0.8-0.1-1.2-0.1-2.5-0.1h-4.7c-0.2,2-0.7,3.4-1.4,4.6s-2,2.4-3.4,3.4c-0.6,0.4-1,0.6-2,1.1c-0.6-1.1-1-1.5-1.8-2.2
		c1.5-0.5,2.3-1,3.3-1.8c1.3-1,2.1-2.2,2.4-3.6c0.1-0.4,0.1-0.7,0.2-1.4h-5.2c-1.4,0-1.8,0-2.5,0.1v-2.5c0.8,0.1,1.1,0.1,2.6,0.1
		h5.4c0-0.9,0-1.7,0-3.2c-1.7,0.3-2.4,0.3-5.9,0.5c-0.2-1-0.3-1.3-0.8-2.3c0.7,0,1,0,1.3,0c2.8,0,6.5-0.5,9.1-1.2
		c1.2-0.4,1.8-0.6,2.6-1L207.9,128z"/>
	<path class="st2" d="M219.3,141.1c0,2-1.6,3.6-3.6,3.6s-3.6-1.6-3.6-3.6c0-2,1.6-3.6,3.6-3.6C217.7,137.6,219.3,139.2,219.3,141.1z
		 M213.8,141.1c0,1.1,0.9,1.9,1.9,1.9s1.9-0.9,1.9-1.9c0-1.1-0.9-1.9-1.9-1.9S213.8,140.1,213.8,141.1z"/>
</g>
</svg>
