<?xml version="1.0" encoding="utf-8"?>
<!-- Generator: Adobe Illustrator 24.0.3, SVG Export Plug-In . SVG Version: 6.00 Build 0)  -->
<svg version="1.1" id="レイヤー_1" xmlns="http://www.w3.org/2000/svg" xmlns:xlink="http://www.w3.org/1999/xlink" x="0px"
	 y="0px" viewBox="0 0 120 450" style="enable-background:new 0 0 120 450;" xml:space="preserve">
<style type="text/css">
	.st0{fill:#0071B2;}
	.st1{fill:#FFFF00;}
	.st2{fill:#FFFFFF;}
</style>
<rect x="-165" y="165" transform="matrix(2.132763e-06 -1 1 2.132763e-06 -164.9996 285)" class="st0" width="450" height="120"/>
<g>
	<path class="st1" d="M85.3,60.5v-0.8h-5.5V60l0.1,2.3v0.2c0,0.8-0.3,2.2-3.6,2.9c-1.2-1.2-2.6-1.7-5.4-2v-1.7
		c1.3,0.1,2.3,0.1,3.1,0.1c1.8,0,2-0.3,2-0.9v-1.3h-9.2l-0.8-2.1h10v-1.4H64.3l-0.8-2H76v-1.4h-8.9l-0.8-2H76v-1.6h-4.9v0.7h-3.4
		v-7.3l3.7,0.9H76v-1.5H65.4l-0.9-2.1H76v-2.4h3.7v2.4h7.2l1.9-1.4l2.5,1.9l-2.2,1.6h-9.4v1.5h5.4l0.9-0.9l3.1,1.3l-1,1v4.8h-3.4
		v-0.5h-5v1.6h5.9l0.9-0.9l3.2,1.4l-0.9,1v1.8H89l1.5-1.2l2.1,1.7l-1.9,1.5h-1.9v4.3H85.3z M76,45.3h-4.9v1.8H76V45.3z M84.8,45.3
		h-5v1.8h5V45.3z M85.3,52.7h-5.5v1.4h5.5V52.7z M85.3,56.1h-5.5v1.4h5.5V56.1z"/>
	<path class="st1" d="M92.2,80.6c0,0-2.1,0.4-3,1.8c-2-0.5-3.8-1.4-5.2-2.5c-1.9,1.4-4.3,2.5-7,3.3l-0.8-1l-1,2.5l-1.9-0.3
		c0.3-1.6,0.6-3.5,0.8-5h-1.3v10l0.1,2.3v0.3c0,0.9-0.3,2.6-3.4,3.1c-0.6-1.2-1.5-1.8-3.8-2.1v-1.7c1,0.1,1.7,0.1,2.2,0.1
		c1.4,0,1.7-0.3,1.7-0.9v-1.9l0.1-5.1c-0.9,1.9-1.9,4-4.9,7.3l-1.5-1c2.1-2.9,3.8-6.7,4.9-10.4h-3.5L63.9,77h6.6
		c-1-1.5-2.6-2.8-4.1-3.8l1.4-1.3c1,0.3,1.9,0.8,2.9,1.2c0.7-0.9,1.2-1.8,1.7-2.6h-7.1l-0.9-2.2h9.2l1-0.7l3.4,2.1
		c0,0-1.3,0.8-1.5,1c-1.2,1.1-2.6,2.3-4,3.4c0.5,0.4,1,0.7,1.6,1.1L71.9,77h2.8l1-0.9l2.6,1.8l-1,1l-0.9,2.2c2.2-0.9,4-2,5.5-3.3
		c-0.9-1.1-1.6-2.4-2.1-3.7c-0.7,0.8-1.4,1.6-2.2,2.3L76,75.5c2-2.6,3.3-5.6,3.8-8.4l4,0.8c-0.3,0.7-0.6,1.4-1,2h5.1l1.9-1.4
		l2.5,1.9L90,72.3h-0.4c-0.7,2-1.7,3.8-3.2,5.3c1.7,0.8,3.7,1.3,6.2,1.5L92.2,80.6z M90.7,85.7c0,2.2-0.3,5.8-1.2,7.2
		c-0.9,1.4-2.4,1.9-4.1,2c-0.6-1-1.6-1.7-3.5-2.2l0.3-1.5c1.1,0.2,2,0.3,2.6,0.3c1.7,0,2.4-1,2.5-5.2h-2.6c-1.2,4.1-3.9,7-9,8.7
		l-1.3-1.6c3.9-1.7,6-4,6.9-7.1H77l-0.9-2.2h5.5c0.1-0.8,0.1-1.6,0.1-2.4h3.6c0,0.8-0.1,1.6-0.2,2.4h2.3l0.9-0.9l3.2,1.5L90.7,85.7z
		 M81.4,72.3L81.4,72.3c0.5,1.5,1.4,2.7,2.5,3.7c0.9-1.1,1.6-2.3,2-3.7H81.4z"/>
	<path class="st1" d="M73.2,115.1v-0.8h-3.7c-0.3,3.7-1.3,7.3-4,10.8l-1.8-1c2.3-4,2.6-8.1,2.6-12.4c0-0.8,0-1.7,0-2.5
		c0-2.4-0.2-4.1-0.4-5.9l4,1h3.8l0.9-1l3,1.4l-1,1v9.4H73.2z M76,101.3H65.3l-0.9-2.4h9.6l1.9-1.5l2.6,1.9L76,101.3z M73.2,106.4
		h-3.6c0,0.9,0,1.8,0,2.9c0,0.9,0,1.8,0,2.7h3.6V106.4z M85.2,125.1v-16h-2.8c-0.1,6.4-1,11.5-6.7,15.8l-1.8-1.2
		c4.5-4.5,4.9-9.4,4.9-15.2v-0.8c0-2.6-0.1-6.2-0.2-7.7l2.7,0.6c2.7-0.8,5.4-2,7.2-3.2l2.8,3.7c-2.5,0.7-5.7,1.1-8.8,1.3v4.4h6.2
		l1.6-1.3l2.2,2l-2,1.8h-1.8v16H85.2z"/>
	<path class="st1" d="M78,137.1c-2,0-3.6-1.6-3.6-3.6s1.6-3.6,3.6-3.6c2,0,3.6,1.6,3.6,3.6S79.9,137.1,78,137.1z"/>
	<path class="st1" d="M89.4,168.5H64.9l-1-2.6h11.8v-17.7h-9.4l-1-2.7h20.2l2.4-1.7l2.8,2.3l-2.7,2h-8v17.7h6.8l2.5-1.8l2.9,2.4
		L89.4,168.5z"/>
	<path class="st1" d="M74.4,189.7c-2.6,2.4-6,4.6-9,6.1l-1.9-3.7c1.2-0.3,2.6-0.7,4-1.1v-8.5h-2.6l-0.8-2.2h3.5v-7.7H71v7.7h0.4
		l1.3-1.1l2.2,1.7l-1.9,1.6H71v7.2c1-0.5,2-1,2.8-1.5L74.4,189.7z M82.6,197c-1.3,1.1-2.9,2-4.6,2.8l-1.4-1.3c3.8-2,6.2-5,7.2-8.2
		h-0.9c-2,3.5-5.3,6.2-9.5,8l-1.4-1.3c3.7-2.1,6.1-4.3,7.5-6.7h-1.2c-1.7,1.6-3.6,3.1-5.5,4l-1.4-1.2c2.8-1.8,4.9-4.1,6.1-6.4h-3.8
		l-0.9-2.2h15.8l1.6-1.2l2.4,1.8l-2.2,1.6h-9.1c-0.3,0.5-0.8,1-1.2,1.6h7.7l0.7-0.7l3.1,1.2l-0.8,0.9c0,1.6-0.1,4.5-0.5,6.5
		c-0.4,2.4-2,3.8-4.9,3.9c-0.7-1-1.7-1.4-3-1.7L82.6,197z M85.8,183.2v-0.5h-7.1v0.6h-3.4v-10.6l3.7,0.8h7.2l1-0.9l3,1.2l-0.9,0.9
		v8.5H85.8z M85.8,175.5h-7.1v1.6h7.1V175.5z M85.8,179.1h-7.1v1.6h7.1V179.1z M87.2,190.2c-0.8,2.6-2.3,4.9-4.4,6.7
		c0.8,0.1,1.5,0.2,2,0.2c2.2,0,2.4-1.2,2.7-6.9H87.2z"/>
	<path class="st1" d="M76.5,226.7c7.8-0.8,10.7-5.8,10.7-10.9c0-4.4-2.7-8.6-8.8-8.6c-8.6,0-10.7,7-10.7,10.1c0,2.6,1.4,4.6,3.1,5.5
		c0,0,4.3-5.8,5-12.1l-1.6-0.8l0.6-1.3l2.6,0.2L80,209c-0.4,8.1-7.1,17.8-7.4,18.2c-3.9-0.6-8.1-4.3-8.1-9.5c0-5.5,4.7-13,14-13
		c6.4,0,12.7,4,12.7,11.3c0,5.3-2.9,11.9-14,12.9L76.5,226.7z"/>
	<path class="st1" d="M69.2,249.7v-12.8l-1.9-0.6l0.6-1.7h5.3l0,15.1H69.2z M69.5,256.7c11.1-0.9,13.5-6.4,13.5-13.1
		c0-0.2,0-0.3,0-0.4c0-1.1-0.1-4.5-0.1-6.9l-1.9-0.6l0.6-1.6H87c0,9.8,0,9.8,0,9.8c0,0.1,0,0.2,0,0.3c0,7.8-3.9,13.8-16.3,14.8
		L69.5,256.7z"/>
	<path class="st1" d="M67.4,286.5c9.9-1.8,15.6-9.7,17-17.6H67.3l-0.9-2.6h19l1.1-1.1l4.4,1.8c0,0-1.4,1.2-1.5,1.8
		c-1.6,9.9-9.4,18.2-20.7,20L67.4,286.5z"/>
	<path class="st1" d="M83,304.5c-2.6,5.3-7,8.8-11.2,10.7l-1.3-1.7c4.3-2.3,7.8-6.4,9.6-10.5h-7.7l-0.8-2.2H83l0-1.7l-1.7-0.5
		l0.6-1.5h4.2l0.1,3.7h0.7l1.4-1.2l2.2,1.7l-1.8,1.7h-2.4l0.2,8.4c0,0.7,0.1,1.3,0.1,1.9c0,1.6-0.4,2.7-2.9,3.2
		c-1-1.2-1.9-1.6-4.3-1.9v-1.8c1.1,0.1,2,0.1,2.6,0.1c1.3,0,1.4-0.1,1.4-0.5L83,304.5z"/>
	<path class="st1" d="M75.9,348.2v-23.4h4v23.4H75.9z"/>
	<path class="st1" d="M87.1,379c-0.2-1.2-0.7-2.7-1.3-4.3c-6.6,2-13.3,3.2-19,4.1l-1.6-4.3c1.4,0,2.9-0.1,4.5-0.2
		c1.7-4.6,3.8-11.5,4.9-16.8l-1.7-0.5l0.6-1.7h6.8c-0.7,2.1-4.9,12.8-8.2,18.8c4.2-0.3,8.8-0.9,12.8-1.5c-1.3-2.9-3-5.9-4.4-7.7
		l1.8-1c4,3.5,8,9.7,9.2,12.3L87.1,379z"/>
	<path class="st2" d="M87.8,409.3c-1.6,0.2-4.1,0.4-6.4,0.4c-1.6,0-3.1-0.1-4.2-0.3c-4.4-0.8-6.5-3-6.5-5.4c0-4,5-6.6,8.4-7.9
		c-0.3-1.6-1.1-2-2.1-2c-2.4,0-5.3,2.5-6.2,3.8c-0.5,0.7-1.4,1.9-2,2.6l-3.8-1.8c3-2.8,5.5-6.2,7.5-9.8h-5.5l-0.9-2.5h7.7
		c0.5-1.1,1-2.3,1.5-3.5l3.8,1.1c-0.4,0.9-0.8,1.6-1.2,2.3h5.6l1.9-1.6l2.7,2l-2.2,2h-9.3c-0.8,1.3-1.6,2.5-2.6,4
		c1.5-1,3.5-1.2,4.3-1.2c1.8,0,3.7,0.8,4.4,3.1c1.9-0.6,3.8-1.1,5.3-1.6l-0.2-1.1l1.5-0.3l2.2,4.2c-2.2,0.4-5.4,0.9-8.5,1.7
		c0,0.6,0,1.3,0,2c0,1,0,2-0.1,2.9l-3.9,0.6c0.2-1.4,0.2-3.1,0.2-4.3c-2.8,1-5.2,2.7-5.2,4.6c0,1.1,0.7,2.9,6.1,2.9
		c2.8,0,6-0.5,8.3-1L87.8,409.3z"/>
	<path class="st2" d="M48.2,133.4c-2.9,0.4-4.8,0.6-6.6,0.6c-4.9,0-10.9-1.4-11.6-6.6l2.2-1.7l1.5,0.8l-1,1.2
		c0.3,2.6,5.4,3.1,8.5,3.1c1,0,3.6,0,7.7-0.9L48.2,133.4z M47,115.6l1.3,1c-2.9,1.5-5.9,3-8.9,4.5l-1.5-1c1.4-1,3.5-2.7,3.5-2.7
		l-9,0l-0.8-2.2h12.9l1.1-0.7c-0.4-1-1-2.1-1.5-2.7l1.3-0.6c0.8,0.6,2.4,2.3,3,3.3L47,115.6z M49.9,115.5c-0.5-1.3-1.3-2.9-2.1-3.8
		l1.3-0.5c0.7,0.5,2.3,1.9,2.9,2.8L49.9,115.5z"/>
	<path class="st2" d="M31,160.2c0-3.5,0.1-7.5,0.2-10.5c-0.6,1.5-1.7,3.4-2.8,4.7l-1.2-0.6c1.2-2.1,2.9-6.3,3.7-9.8h-2.3l-0.7-1.8
		h3.2v-5h2.7v5h0.3l1.3-1l1.8,1.5l-1.7,1.3h-1.7v1.7l0.6-0.3c1,0.8,2,2.2,2.5,3.4l-1.8,2.2c-0.1-1.1-0.6-2.9-1.3-4.2v13.5H31z
		 M51.3,158.9c0,0-1.7,0.4-2.6,1.3c-1.6-0.9-3.6-2.7-4.7-5.4c-1,2.7-3.5,4.7-8.3,5.7l-0.9-1.4c3.1-0.9,5.9-2.3,6.8-5.7h-1.9v0.9
		h-2.7V146l2.9,0.7h2v-2.1H40l-0.2-0.7c-1.1,0.8-2.3,1.6-3.5,2.2l-1.2-1c3.5-2.2,5.7-5.7,6.8-8.2l3.5,0.9c-0.2,0.3-0.4,0.6-0.7,0.9
		c1.8,1.8,4.4,3.4,7.1,3.9l-0.3,1.1c0,0-1.5,0.2-2.5,1.3c-0.5-0.3-1.1-0.6-1.7-1.1l-0.7,0.5h-1.9v2.1h2.7l0.7-0.7l2.4,1l-0.7,0.8
		v6.3h-2.7v-0.8h-2.1c1.2,2,3.9,3.8,6.6,4.3L51.3,158.9z M42,148.4h-2.2v3.1H42c0-0.2,0-0.5,0-0.8V148.4z M45.7,142.5
		c-0.7-0.8-1.4-1.6-2-2.5c-0.9,1.1-1.8,2.1-2.8,3h4.2L45.7,142.5z M47.1,148.4h-2.4v2.2c0,0.3,0,0.6,0,0.9h2.4V148.4z"/>
	<path class="st2" d="M36.9,168.1h-8.6l-0.7-1.8h7.7l1.6-1.1l1.9,1.5L36.9,168.1z M35.8,164.7h-6.6l-0.7-1.8h5.6l1.6-1.1l2,1.5
		L35.8,164.7z M34.7,185v-0.9h-3.2v1.2h-2.7v-9.2l3,0.7h3.3l0.8-0.7l2.4,1.1l-0.7,0.8v6.9H34.7z M35.8,171.6h-6.4l-0.7-1.8h5.4
		l1.6-1.1l2,1.5L35.8,171.6z M35.8,175h-6.4l-0.7-1.8h5.4l1.6-1.1l2,1.5L35.8,175z M34.7,178.7h-3.2v3.6h3.2V178.7z M48.5,182.7
		c0,0.7-0.2,2.1-3.1,2.6c-0.9-1.3-3.1-1.8-4.6-1.9v-1.5c1.1,0.1,2,0.1,2.6,0.1c1.6,0,1.9-0.2,1.9-0.7v-11.7h-6.6l-0.8-1.9h7.4v-5.3
		h3v5.3h0.1l1.2-1.1l1.9,1.6l-1.8,1.4h-1.4v11l0.1,1.9V182.7z M42.2,178.7c-1-2.2-2-4-3.7-6.1l1-0.9c2,1.2,3.2,2.1,5.1,3.9
		L42.2,178.7z"/>
	<path class="st2" d="M38.3,207.4c6.5-0.7,8.9-4.8,8.9-9.1c0-3.6-2.3-7.2-7.3-7.2c-7.2,0-8.9,5.8-8.9,8.4c0,2.2,1.2,3.9,2.6,4.6
		c0,0,3.6-4.8,4.2-10l-1.3-0.6l0.5-1l2.1,0.1l2.2,0.1c-0.3,6.7-5.9,14.9-6.1,15.2c-3.2-0.5-6.7-3.6-6.7-7.9
		c0-4.6,3.9-10.8,11.7-10.8c5.3,0,10.6,3.3,10.6,9.4c0,4.4-2.4,9.9-11.7,10.8L38.3,207.4z"/>
	<path class="st2" d="M48.2,223c-0.5,8.5-2.1,12-7.5,12c-0.6-1.1-1.5-1.8-4.4-2.3l0.3-1.5c1.1,0.2,2.5,0.5,3.7,0.5
		c3.1,0,4.1-1.7,4.5-8.3h-6.4c-1.2,5.1-3.9,8.8-8.9,11.8L28,234c5.3-3.9,7.4-8.2,7.7-15.9H29l-0.8-2.1h9.5v-3.8h3.5v3.8h6.1l1.9-1.5
		l2.1,1.9l-2.1,1.7H39.2c-0.1,1.2-0.2,2.3-0.4,3.3h6.4l0.8-0.9l3,1.4L48.2,223z"/>
	<path class="st2" d="M30.1,258.8c-0.1-1.7-0.2-3.4-0.2-5.2c0-4.1,0.3-8.4,0.8-12.4l-1.3-0.4l0.5-1.4h4.3c-0.7,3.7-1.2,8.7-1.2,13.3
		c0,2.2,0.1,4.2,0.3,6L30.1,258.8z M49,258.5c-0.9-1.1-1.9-2.2-3-3c-0.5,1.8-1.8,3.8-5.3,3.8c-3.6,0-5.4-2.1-5.4-3.9
		c0-2,2-3.6,5.8-3.6c0.7,0,1.3,0,2,0.1l0-6.3h-6.8l-0.8-2.1h7.5v-2.8l-1.6-0.5l0.4-1.3h4.2c0,0.7,0,2.8,0,3.6v1h1.2l1.5-1.3l2.2,1.7
		l-1.9,1.7h-2.9c0,2.1,0.1,4.3,0.1,6.2c0,0.3,0,0.6,0,0.9c1.8,0.6,3.3,1.4,4.5,2.4L49,258.5z M40.8,253.7c-1.3,0-3,0.5-3,1.6
		c0,0.8,0.9,1.6,2.5,1.6c2.2,0,2.7-1.7,2.8-2.7C42.4,253.9,41.6,253.7,40.8,253.7z"/>
	<path class="st2" d="M48.2,283.4c-2.9,0.4-4.8,0.6-6.6,0.6c-4.9,0-10.9-1.4-11.6-6.6l2.2-1.7l1.5,0.8l-1,1.2
		c0.3,2.6,5.4,3.1,8.5,3.1c1,0,3.6,0,7.7-1L48.2,283.4z M37.8,270.1c1.4-1,3.5-2.7,3.5-2.7l-9,0l-0.8-2.2h12.9l1.2-0.7l2.5,2.1
		c-2.9,1.5-5.9,3-8.9,4.5L37.8,270.1z"/>
	<path class="st2" d="M46.5,293.8h-9.2c-0.6,1.7-1.3,3.2-1.8,4.4c1.7-0.5,3.3-0.9,5.8-0.9c1.4,0,8,0.1,8,5.4c0,4.3-4.5,6.5-10.5,6.5
		c-2.2,0-4.6-0.3-7-0.9l0.2-2c2.1,0.5,4,0.7,5.8,0.7c4.5,0,7.7-1.5,7.7-4.4c0-1-0.5-3.2-4.8-3.2c-3.1,0-5.5,1.1-6.7,2.6
		c-0.1,0.1-0.4,0.6-0.5,0.7l-3.1-0.9c1.3-2.1,2.5-4.4,3.8-8h-4.6l-0.8-2.1h6c0.2-0.5,0.3-1,0.5-1.5l-1.2-0.4l0.5-1.3h4.6
		c-0.3,1.1-0.7,2.2-1,3.2h6.5l1.5-1.3l2.2,1.7L46.5,293.8z"/>
	<path class="st2" d="M32.5,331.7c1.5,0.2,2.9,0.4,4.3,0.4c5.2,0,9.1-1.8,9.1-5.1c0-2.5-2.7-3-4.3-3c-3.1,0-6.3,1.7-7.4,4.1l-3.3,0
		c0.5-1.8,1.2-5.7,1.7-8.9l-1-0.3l0.5-1.2h4c-0.3,1.9-1,4.2-1.3,5.9c1.9-0.9,4.6-1.7,7.6-1.7c1.8,0,7.3,0.6,7.3,5.3
		c0,4.4-4.6,7-11.4,7c-1.8,0-3.6-0.2-5.6-0.5L32.5,331.7z M43.3,317.6c-2-0.9-6.2-1.4-10.6-1.5l0-1.8c2.8-0.4,6.6-0.6,9.3-0.6
		c0.4,0,0.8,0,1.1,0L43.3,317.6z"/>
</g>
</svg>
