<?xml version="1.0" encoding="utf-8"?>
<!-- Generator: Adobe Illustrator 24.0.3, SVG Export Plug-In . SVG Version: 6.00 Build 0)  -->
<svg version="1.1" id="レイヤー_1" xmlns="http://www.w3.org/2000/svg" xmlns:xlink="http://www.w3.org/1999/xlink" x="0px"
	 y="0px" viewBox="0 0 120 450" style="enable-background:new 0 0 120 450;" xml:space="preserve">
<style type="text/css">
	.st0{fill:#4D67DE;}
	.st1{fill:#FFFF00;}
	.st2{fill:#FFFFFF;}
</style>
<rect x="0" y="0" class="st0" width="120" height="450"/>
<g>
	<path class="st1" d="M89.1,74.6H64.9l-1-2.9h22.6l2.5-1.9l3,2.5L89.1,74.6z"/>
	<path class="st1" d="M92.4,115.2c0,0-2.1,0.7-2.8,2.1c-2.3-0.8-4.3-1.9-5.9-3.4c-1.8,1.5-4,2.8-7,3.8l-1.2-1.5
		c-0.5,0.4-1.2,0.7-2.2,0.8c-0.9-1.2-1.5-1.7-3.5-2v-1.5c1,0.1,1.7,0.1,2.2,0.1c1.3,0,1.4-0.2,1.4-0.7v-9.1
		c-0.4,0.1-0.9,0.2-1.3,0.3v7.6H70v-7.2c-0.4,0.1-0.8,0.1-1.2,0.2c-0.3,5.5-1.1,8.8-3.5,12.6l-1.8-0.7c1.6-3.5,2.1-7,2.2-11.4
		l-1.1,0.2l-1-3c0.7,0,1.4-0.1,2.2-0.1c0-1.1,0-2.2,0-3.4c0-2.5-0.1-4.9-0.2-6.4l3,0.7c0.5-1.3,0.8-2.7,0.9-3.7l4.2,0.7
		C73,91.3,72,92.4,71,93.3h2.8l0.8-0.9l2.8,1.5l-0.8,0.9v6.4c0.3-0.1,0.7-0.1,1-0.1l-0.6-0.5c1.9-1.7,2.4-3.6,2.4-6.2
		c0-1.3-0.1-2.8-0.2-4.5l3.6,0.9h2.3l1-1l2.9,1.4l-1,1.1c-0.1,1.1-0.1,2.5-0.1,3.6c0,1.6,0,2,0.8,2c0.7,0,1.1-0.3,1.3-3.5l1.9,0.2
		c-0.1,0.8-0.1,1.6-0.1,2.4c0,0.9,0.1,1.7,0.4,2.4c-0.5,0.9-1.3,1.7-3.8,1.7c-2.7,0-3.6-0.8-3.6-3.2v-0.7c0-1.1,0-2.8,0.1-4.1h-2.2
		v0.3c0,4.1-0.7,6.5-4,8.6l-0.9-0.7L78,103c-0.4,0.1-0.8,0.2-1.2,0.3v9.3l0.1,1.8c0,0.3-0.1,0.9-0.5,1.4c2.4-1.2,4.3-2.5,5.7-3.8
		c-1.3-1.7-2.2-3.8-2.7-6.2l1.9-0.5c0.6,1.9,1.3,3.4,2.5,4.7c1.1-1.6,1.8-3.4,2.3-5.3H79l-0.8-2.4h8.9l0.9-0.8l3,1.9
		c-0.3,0.3-1,0.9-1.2,1.4c-1,2.8-2.1,5.2-3.7,7.1c1.7,0.9,3.9,1.6,6.9,1.9L92.4,115.2z M73.5,95.3H69c0,1.2,0.1,2.4,0.1,3.6
		c0,1.1,0,2.2,0,3.2c1.5-0.1,3.1-0.2,4.5-0.4L73.5,95.3L73.5,95.3z M70.7,101.3c-0.1-1.5-0.7-3.4-1.3-4.7l1.4-0.6
		c0.8,0.9,1.8,2.4,2.4,3.7L70.7,101.3z"/>
	<path class="st1" d="M67.6,147.6v-15.7c-0.8,1-1.6,1.9-2.4,2.6l-1.6-1c2.4-3.1,4.8-8.8,5.6-13.8l4.5,1.1c-0.7,1.9-1.6,3.7-2.5,5.4
		v21.3L67.6,147.6L67.6,147.6z M90,146.6H72.5l-0.9-2.4h8.1v-7.4h-5.6l-0.9-2.4h6.4v-6h-6.3l-0.9-2.5h10.3c-1.8-1.8-4.1-3.4-6.4-4.3
		l1-1.5c2.7,0.3,5.8,1.1,8.2,2.2l-2.6,3.6H87l2-1.4l2.5,1.9l-2.4,1.9h-5.6v6h2.8l1.9-1.4l2.5,1.9l-2.3,1.9h-4.8v7.4h4.3l2-1.4l2.5,2
		L90,146.6z"/>
	<path class="st1" d="M90.1,169.3c-0.1,0.7-0.1,1.3-0.1,1.9c0,1.8,0.3,2.6,1,3.5c-1,2.2-3.8,2.7-8.8,2.7c-5.7,0-7.6-0.9-7.6-4v-5.1
		l-9.6,0.9l-1.1-2.6l10.7-1v-3.5c-2.6,0.4-5.2,0.6-7.6,0.8l-0.8-2c6.6-0.8,12.9-2.3,17.5-4.5l1.7,2.6c0.3-1,0.5-2.2,0.8-3.3H69.6
		c-0.2,3-1.4,4.6-1.4,4.6l-4.3-2c0,0,3-2.3,3-5.9v-0.3h2.4c0.1,0.3,0.1,0.7,0.2,1h6.2v-3.3h4.2v3.3H87l1.5-1.3L92,154l-1.3,1
		l-2.9,4.4l-2.3-0.4l0.5,0.8c-2.4,0.6-5,1.1-7.6,1.6v3.8l8.7-0.8l2.1-1.9l2.8,2.1l-2.3,2.2l-11.2,1.1v4.8c0,1.2,0.7,1.4,3.4,1.4
		c5.5,0,5.7-1.2,5.9-5L90.1,169.3z"/>
	<path class="st1" d="M76.5,204.2c7.8-0.8,10.7-5.8,10.7-10.9c0-4.4-2.7-8.6-8.8-8.6c-8.6,0-10.7,7-10.7,10.1c0,2.6,1.4,4.6,3.1,5.5
		c0,0,4.3-5.8,5-12.1l-1.6-0.8l0.6-1.3l2.6,0.2l2.7,0.1c-0.4,8.1-7.1,17.8-7.4,18.2c-3.9-0.6-8.1-4.3-8.1-9.5c0-5.5,4.7-13,14-13
		c6.4,0,12.7,4,12.7,11.3c0,5.3-2.9,11.9-14,12.9L76.5,204.2z"/>
	<path class="st1" d="M69.2,227.2v-12.8l-1.9-0.6l0.6-1.7h5.3v15.1H69.2z M69.5,234.2c11.1-0.9,13.5-6.4,13.5-13.1
		c0-0.1,0-0.3,0-0.4c0-1.1-0.1-4.5-0.1-6.9l-1.9-0.6l0.6-1.6H87c0,9.8,0,9.8,0,9.8c0,0.1,0,0.2,0,0.3c0,7.8-3.9,13.8-16.3,14.8
		L69.5,234.2z"/>
	<path class="st1" d="M67.4,264c9.9-1.8,15.6-9.8,17-17.6H67.3l-0.9-2.5h19l1.1-1.1l4.4,1.8c0,0-1.4,1.2-1.5,1.8
		c-1.6,9.9-9.4,18.2-20.7,20L67.4,264z"/>
	<path class="st1" d="M83,282c-2.6,5.3-7,8.8-11.2,10.6l-1.3-1.7c4.3-2.3,7.8-6.4,9.6-10.5h-7.7l-0.8-2.2H83v-1.7l-1.7-0.5l0.6-1.5
		h4.2l0.1,3.7h0.7l1.4-1.2l2.2,1.7l-1.8,1.7h-2.4l0.2,8.4c0,0.7,0.1,1.3,0.1,1.9c0,1.6-0.4,2.7-2.9,3.2c-1-1.2-1.9-1.6-4.3-1.9v-1.8
		c1.1,0.1,2,0.1,2.6,0.1c1.3,0,1.4-0.2,1.4-0.5L83,282z"/>
	<path class="st1" d="M75.9,325.7v-23.4h4v23.4H75.9z"/>
	<path class="st1" d="M87.1,356.5c-0.2-1.2-0.7-2.7-1.3-4.3c-6.6,2-13.3,3.2-19,4.1l-1.6-4.3c1.4,0,2.9-0.1,4.5-0.1
		c1.7-4.6,3.8-11.5,4.9-16.8l-1.7-0.5l0.6-1.6h6.8c-0.7,2.1-4.9,12.8-8.2,18.8c4.2-0.3,8.8-0.9,12.8-1.5c-1.3-2.9-3-5.9-4.4-7.7
		l1.8-1c4,3.5,8,9.7,9.2,12.3L87.1,356.5z"/>
	<path class="st2" d="M87.8,386.8c-1.6,0.2-4.1,0.4-6.4,0.4c-1.6,0-3.1-0.1-4.2-0.3c-4.4-0.8-6.5-3-6.5-5.4c0-4,5-6.6,8.4-7.9
		c-0.3-1.6-1.1-2-2.1-2c-2.4,0-5.3,2.5-6.2,3.8c-0.5,0.7-1.4,1.9-2,2.6l-3.8-1.8c3-2.8,5.5-6.2,7.5-9.8H67l-0.9-2.5h7.7
		c0.5-1.1,1-2.3,1.5-3.5l3.8,1.1c-0.4,0.9-0.8,1.6-1.2,2.3h5.6l1.9-1.6l2.7,2l-2.2,2h-9.3c-0.8,1.3-1.6,2.5-2.6,4
		c1.5-1,3.5-1.2,4.3-1.2c1.8,0,3.7,0.8,4.4,3.1c1.9-0.6,3.8-1.1,5.3-1.6l-0.2-1.1l1.5-0.3l2.2,4.2c-2.2,0.4-5.4,0.9-8.5,1.6
		c0,0.6,0,1.3,0,2c0,1,0,2-0.1,2.9l-3.9,0.6c0.2-1.4,0.2-3.1,0.2-4.3c-2.8,1-5.2,2.7-5.2,4.6c0,1.1,0.7,2.9,6.1,2.9
		c2.8,0,6-0.5,8.3-1L87.8,386.8z"/>
	<path class="st2" d="M48.2,133.4c-2.9,0.4-4.8,0.6-6.6,0.6c-4.9,0-10.9-1.4-11.6-6.6l2.2-1.7l1.5,0.8l-1,1.2
		c0.3,2.6,5.4,3.1,8.5,3.1c1,0,3.6,0,7.7-0.9L48.2,133.4z M47,115.6l1.3,1c-2.9,1.5-5.9,3-8.9,4.5l-1.5-1c1.4-1,3.5-2.7,3.5-2.7h-9
		l-0.8-2.2h12.9l1.1-0.7c-0.4-1-1-2.1-1.5-2.7l1.3-0.6c0.8,0.6,2.4,2.3,3,3.3L47,115.6z M49.9,115.5c-0.5-1.3-1.3-2.9-2.1-3.8
		l1.3-0.5c0.7,0.5,2.3,1.9,2.9,2.8L49.9,115.5z"/>
	<path class="st2" d="M31,160.2c0-3.5,0.1-7.5,0.2-10.5c-0.6,1.5-1.7,3.4-2.8,4.7l-1.2-0.6c1.2-2.1,2.9-6.3,3.7-9.8h-2.3l-0.7-1.8
		h3.2v-5h2.7v5h0.3l1.3-1l1.8,1.5l-1.7,1.3h-1.7v1.7l0.6-0.3c1,0.8,2,2.2,2.5,3.4l-1.8,2.2c-0.1-1.1-0.6-2.9-1.3-4.2v13.5L31,160.2
		L31,160.2z M51.3,158.9c0,0-1.7,0.4-2.6,1.3c-1.6-0.9-3.6-2.7-4.7-5.4c-1,2.7-3.5,4.7-8.3,5.7l-0.9-1.4c3.1-0.9,5.9-2.3,6.8-5.7
		h-1.9v0.9H37V146l2.9,0.7h2v-2.1H40l-0.2-0.7c-1.1,0.8-2.3,1.6-3.5,2.2l-1.2-1c3.5-2.2,5.7-5.7,6.8-8.2l3.5,0.9
		c-0.2,0.3-0.4,0.6-0.7,0.9c1.8,1.8,4.4,3.4,7.1,3.9l-0.3,1.1c0,0-1.5,0.2-2.5,1.3c-0.5-0.3-1.1-0.6-1.7-1.1l-0.7,0.5h-1.9v2.1h2.7
		l0.7-0.7l2.4,1l-0.7,0.8v6.3h-2.7v-0.8H45c1.2,2,3.9,3.8,6.6,4.3L51.3,158.9z M42,148.4h-2.2v3.1H42c0-0.2,0-0.5,0-0.8V148.4z
		 M45.7,142.5c-0.7-0.8-1.4-1.6-2-2.5c-0.9,1.1-1.8,2.1-2.8,3h4.2L45.7,142.5z M47.1,148.4h-2.4v2.2c0,0.3,0,0.6,0,0.9h2.4V148.4z"
		/>
	<path class="st2" d="M36.9,168.1h-8.6l-0.7-1.8h7.7l1.6-1.1l1.9,1.5L36.9,168.1z M35.8,164.7h-6.6l-0.7-1.8h5.6l1.6-1.1l2,1.5
		L35.8,164.7z M34.7,185v-0.9h-3.2v1.2h-2.7v-9.2l3,0.7h3.3l0.8-0.7l2.4,1.1l-0.7,0.8v6.9L34.7,185L34.7,185z M35.8,171.6h-6.4
		l-0.7-1.8h5.4l1.6-1.1l2,1.5L35.8,171.6z M35.8,175h-6.4l-0.7-1.8h5.4l1.6-1.1l2,1.5L35.8,175z M34.7,178.7h-3.2v3.6h3.2V178.7z
		 M48.5,182.7c0,0.7-0.2,2.1-3.1,2.6c-0.9-1.3-3.1-1.8-4.6-1.9v-1.5c1.1,0.1,2,0.1,2.6,0.1c1.6,0,1.9-0.2,1.9-0.7v-11.7h-6.6
		l-0.8-1.9h7.4v-5.3h3v5.3h0.1l1.2-1.1l1.9,1.6l-1.8,1.4h-1.4v11l0.1,1.9L48.5,182.7L48.5,182.7z M42.2,178.7c-1-2.2-2-4-3.7-6.1
		l1-0.9c2,1.2,3.2,2.1,5.1,3.9L42.2,178.7z"/>
	<path class="st2" d="M38.3,207.4c6.5-0.7,8.9-4.8,8.9-9.1c0-3.6-2.3-7.2-7.3-7.2c-7.2,0-8.9,5.8-8.9,8.4c0,2.2,1.2,3.9,2.6,4.6
		c0,0,3.6-4.8,4.2-10l-1.3-0.6l0.5-1l2.1,0.1l2.2,0.1c-0.3,6.7-5.9,14.9-6.1,15.2c-3.2-0.5-6.7-3.6-6.7-7.9
		c0-4.6,3.9-10.8,11.7-10.8c5.3,0,10.6,3.3,10.6,9.4c0,4.4-2.4,9.9-11.7,10.8L38.3,207.4z"/>
	<path class="st2" d="M48.2,223c-0.5,8.5-2.1,12-7.5,12c-0.6-1.1-1.5-1.7-4.4-2.3l0.3-1.5c1.1,0.2,2.5,0.5,3.7,0.5
		c3.1,0,4.1-1.7,4.5-8.3h-6.4c-1.2,5.1-3.9,8.8-8.9,11.8L28,234c5.3-3.9,7.4-8.2,7.7-15.9H29l-0.8-2.1h9.5v-3.8h3.5v3.8h6.1l1.9-1.5
		l2.1,1.9l-2.1,1.7h-10c-0.1,1.2-0.2,2.3-0.4,3.3h6.4l0.8-0.9l3,1.4L48.2,223z"/>
	<path class="st2" d="M30.1,258.8c-0.1-1.7-0.2-3.4-0.2-5.2c0-4.1,0.3-8.4,0.8-12.4l-1.3-0.4l0.5-1.4h4.3c-0.7,3.7-1.2,8.7-1.2,13.3
		c0,2.2,0.1,4.2,0.3,6L30.1,258.8z M49,258.5c-0.9-1.2-1.9-2.2-3-3c-0.5,1.8-1.8,3.8-5.3,3.8c-3.6,0-5.4-2.1-5.4-3.9
		c0-2,2-3.6,5.8-3.6c0.7,0,1.3,0,2,0.1v-6.3h-6.8l-0.8-2.1H43v-2.8l-1.6-0.5l0.4-1.3H46c0,0.7,0,2.8,0,3.6v1h1.2l1.5-1.3l2.2,1.7
		l-1.9,1.7h-2.9c0,2.1,0.1,4.3,0.1,6.2c0,0.3,0,0.6,0,0.9c1.8,0.6,3.3,1.4,4.5,2.4L49,258.5z M40.8,253.7c-1.3,0-3,0.5-3,1.6
		c0,0.8,0.9,1.6,2.5,1.6c2.2,0,2.7-1.8,2.8-2.7C42.4,253.9,41.6,253.7,40.8,253.7z"/>
	<path class="st2" d="M48.2,283.4c-2.9,0.4-4.8,0.5-6.6,0.5c-4.9,0-10.9-1.4-11.6-6.6l2.2-1.7l1.5,0.8l-1,1.2
		c0.3,2.6,5.4,3.1,8.5,3.1c1,0,3.6,0,7.7-0.9L48.2,283.4z M37.8,270.1c1.4-1,3.5-2.7,3.5-2.7h-9l-0.8-2.2h12.9l1.2-0.7l2.5,2.1
		c-2.9,1.5-5.9,3-8.9,4.5L37.8,270.1z"/>
	<path class="st2" d="M46.5,293.8h-9.2c-0.6,1.7-1.3,3.2-1.8,4.4c1.7-0.5,3.3-1,5.8-1c1.4,0,8,0.1,8,5.4c0,4.3-4.5,6.5-10.5,6.5
		c-2.2,0-4.6-0.3-7-0.9l0.2-2c2.1,0.4,4,0.7,5.8,0.7c4.5,0,7.7-1.5,7.7-4.4c0-1-0.5-3.2-4.8-3.2c-3.1,0-5.5,1.1-6.7,2.6
		c-0.1,0.1-0.4,0.6-0.5,0.7l-3.1-0.9c1.3-2.1,2.5-4.4,3.8-8h-4.6l-0.8-2.1h6c0.2-0.5,0.3-1,0.5-1.5l-1.2-0.3l0.5-1.3h4.6
		c-0.3,1.1-0.7,2.2-1,3.2h6.5l1.5-1.3l2.2,1.7L46.5,293.8z"/>
	<path class="st2" d="M32.5,331.7c1.5,0.2,2.9,0.3,4.3,0.3c5.2,0,9.1-1.8,9.1-5.1c0-2.5-2.7-3-4.3-3c-3.1,0-6.3,1.7-7.4,4.1h-3.3
		c0.5-1.8,1.2-5.7,1.7-8.9l-1-0.3l0.5-1.2h4c-0.3,1.9-1,4.2-1.3,5.9c1.9-0.9,4.6-1.7,7.6-1.7c1.8,0,7.3,0.6,7.3,5.3
		c0,4.4-4.6,7-11.4,7c-1.8,0-3.6-0.2-5.6-0.5L32.5,331.7z M43.3,317.6c-2-0.9-6.2-1.4-10.6-1.5v-1.8c2.8-0.4,6.6-0.6,9.3-0.6
		c0.4,0,0.8,0,1.1,0L43.3,317.6z"/>
</g>
</svg>
