<?xml version="1.0" encoding="utf-8"?>
<!-- Generator: Adobe Illustrator 24.0.3, SVG Export Plug-In . SVG Version: 6.00 Build 0)  -->
<svg version="1.1" id="レイヤー_1" xmlns="http://www.w3.org/2000/svg" xmlns:xlink="http://www.w3.org/1999/xlink" x="0px"
	 y="0px" viewBox="0 0 1280 272.8" style="enable-background:new 0 0 1280 272.8;" xml:space="preserve">
<style type="text/css">
	.st0{fill:#82D1FF;}
</style>
<path class="st0" d="M1190.5,50.8c-5.3-4.9-12.4-7.9-20.1-7.9c-2.9,0-5.6,0.4-8.2,1.2c-7.3-15.9-23.4-27-42.1-27
	c-21.6,0-39.7,14.7-44.8,34.6c-8.1-4.1-17.2-6.4-26.9-6.4c-26.5,0-49,17.3-56.8,41.2c-5.4-3.1-11.7-4.9-18.4-4.9
	c-5.4,0-10.5,1.2-15.2,3.2c-9.8-11.2-24.2-18.3-40.2-18.3c-25.3,0-46.4,17.5-51.9,41.1c-3.9-1.2-7.9-1.8-12.2-1.8
	c-11,0-20.9,4.3-28.3,11.3c-3.2-10.2-12.6-17.6-23.9-17.6c-9,0-17,4.8-21.3,12c-4.8-1.5-9.8-2.4-15.1-2.4c-15,0-28.5,6.8-37.4,17.4
	c-8.3-12.3-22.4-20.4-38.4-20.4c-15.2,0-28.7,7.3-37.2,18.6c-4.6-5.8-11.7-9.5-19.6-9.5c-1.7,0-3.3,0.2-4.9,0.5
	c-7.6-16.3-24.2-27.6-43.4-27.6c-11.4,0-21.8,4-30,10.6c-5.1-5.2-12.3-8.5-20.2-8.5c-10.1,0-19,5.3-24,13.2
	c-9-17.3-27.1-29.1-48-29.1c-3,0-5.9,0.2-8.7,0.7c-6-18.6-23.5-32.1-44.1-32.1c-18.4,0-34.3,10.7-41.8,26.2c-4.4-3.7-10-6-16.2-6
	c-13.2,0-24,10.3-24.9,23.2c-5.2-2.7-11.1-4.2-17.3-4.2c-3.1,0-6,0.4-8.9,1.1c-10.7-23.4-34.3-39.7-61.7-39.7
	c-14.2,0-27.5,4.4-38.4,11.9c-2-15.6-15.3-27.7-31.5-27.7c-17.6,0-31.8,14.2-31.8,31.7c0,0.4,0,0.8,0,1.3
	c-5.8-6.4-14.2-10.4-23.6-10.4c-7.5,0-14.4,2.6-19.8,6.9C75.6,23.3,40,0-1,0v101.7v109.9v61.3h1282v-61.3V81.3V0
	C1242.6,0,1209.1,20.3,1190.5,50.8z"/>
</svg>
