<?xml version="1.0" encoding="utf-8"?>
<!-- Generator: Adobe Illustrator 24.0.3, SVG Export Plug-In . SVG Version: 6.00 Build 0)  -->
<svg version="1.1" id="レイヤー_1" xmlns="http://www.w3.org/2000/svg" xmlns:xlink="http://www.w3.org/1999/xlink" x="0px"
	 y="0px" viewBox="0 0 316.5 84.4" style="enable-background:new 0 0 316.5 84.4;" xml:space="preserve">
<style type="text/css">
	.st0{fill:#FFFF00;}
	.st1{fill:#FFFFFF;}
</style>
<g>
	<path class="st0" d="M79.7,6.8C80,6,80.2,5.2,80.3,4.4H66.7c-0.1,2.4-1.1,3.7-1.1,3.7l-3.4-1.6c0,0,2.4-1.9,2.4-4.7V1.6l1.9,0
		c0,0.3,0.1,0.5,0.1,0.8h5.2V0h3.3v2.4h6l1.2-1.1l2.8,1.8L84,4l-2.2,3.2L79.7,6.8z M82.8,21.6H63.4l-0.7-2h9.2v-3.6H65l-0.7-2h15
		l1.7-1.4l2.1,1.8l-1.9,1.6h-6v3.6H81l1.7-1.4l2.1,1.8L82.8,21.6z M62.9,11.7c4.6-1.2,6.1-3.1,6.5-6.5l3.2,0.4
		c-0.7,3.9-2.9,6.6-8.6,7.5L62.9,11.7z M83.1,7.6c0,0.3,0,0.5,0,0.8c0,1.1,0.2,1.5,0.7,2c-0.3,0.8-1.4,1.4-2.1,1.5
		c-0.8,0.1-1.9,0.2-3.1,0.2c-2.4,0-4.4,0-4.4-2.5V9.5l0-4.1h2.9l0,3.6c0,0.7,0.5,0.8,1.6,0.8c1.8,0,2.4,0,2.6-2.3L83.1,7.6z"/>
	<path class="st0" d="M106.1,16.1v-1.4h-5.3v7.6h-3.2v-7.6h-5.2v1.5h-3V3.5l3.2,1h5V0h3.2v4.5h5.5l0.9-0.9l2.7,1.2l-0.8,0.9v10.4
		H106.1z M97.6,6.5h-5.2v6.3h5.2V6.5z M106.1,6.5h-5.3v6.3h5.3V6.5z"/>
	<path class="st1" d="M116.3,13.9V3.7l-1.6-0.5l0.5-1.3h4.3l0,12H116.3z M116.6,19.6c8.9-0.7,10.8-5.1,10.8-10.5c0-0.1,0-0.2,0-0.3
		c0-0.9,0-3.6,0-5.5l-1.6-0.5l0.5-1.3h4.3c0,7.9,0,7.9,0,7.9c0,0.1,0,0.1,0,0.2c0,6.2-3.1,11-13.1,11.8L116.6,19.6z"/>
	<path class="st1" d="M138.3,19.4c7.9-1.4,12.5-7.8,13.6-14.1h-13.7l-0.7-2h15.2l0.9-0.9l3.6,1.5c0,0-1.2,1-1.2,1.4
		c-1.2,7.9-7.6,14.6-16.6,16L138.3,19.4z"/>
	<path class="st1" d="M171.3,12.2c-2.1,4.2-5.6,7-9,8.5l-1.1-1.4c3.5-1.8,6.3-5.1,7.7-8.4h-6.1l-0.6-1.7h9.1l0-1.4l-1.3-0.4l0.5-1.2
		h3.4l0,3h0.6l1.1-1l1.8,1.3l-1.5,1.3h-1.9l0.1,6.7c0,0.5,0,1,0,1.5c0,1.2-0.3,2.2-2.3,2.5c-0.8-1-1.5-1.2-3.5-1.5v-1.4
		c0.9,0,1.6,0.1,2,0.1c1.1,0,1.1-0.1,1.1-0.4L171.3,12.2z"/>
	<path class="st1" d="M184.7,12.3l-0.8-2.4h19.3v2.4H184.7z"/>
	<path class="st1" d="M223.5,21.4c-0.2-1-0.6-2.2-1.1-3.5c-5.3,1.6-10.6,2.5-15.2,3.3l-1.3-3.4c1.1,0,2.3,0,3.6-0.1
		c1.3-3.6,3-9.2,3.9-13.5l-1.3-0.4l0.5-1.3h5.4c-0.6,1.7-4,10.2-6.6,15c3.4-0.3,7.1-0.7,10.3-1.2c-1.1-2.4-2.4-4.7-3.5-6.1l1.4-0.8
		c3.2,2.8,6.4,7.8,7.4,9.9L223.5,21.4z"/>
	<path class="st1" d="M239.8,19.5c6.2-0.6,8.5-4.6,8.5-8.7c0-3.5-2.2-6.9-7-6.9c-6.9,0-8.5,5.6-8.5,8.1c0,2.1,1.1,3.7,2.5,4.4
		c0,0,3.4-4.6,4-9.6L238,6.1l0.5-1l2,0.1l2.2,0.1c-0.3,6.5-5.7,14.3-5.9,14.6c-3.1-0.5-6.5-3.4-6.5-7.6c0-4.4,3.8-10.4,11.2-10.4
		c5.1,0,10.2,3.2,10.2,9c0,4.2-2.3,9.5-11.2,10.3L239.8,19.5z"/>
	<path class="st0" d="M0.8,50.4c7.9-1.4,12.5-7.8,13.6-14.1H0.7l-0.7-2h15.2l0.5-0.5c-0.1-0.2-0.1-0.5-0.1-0.8
		c0-1.6,1.3-2.9,2.9-2.9c1.6,0,2.9,1.3,2.9,2.9c0,1.6-1.2,2.8-2.8,2.9c-0.1,0.1-0.2,0.3-0.2,0.4c-1.2,7.9-7.6,14.6-16.6,16L0.8,50.4
		z M18.5,31.4c-0.9,0-1.6,0.7-1.6,1.6c0,0.9,0.7,1.6,1.6,1.6c0.9,0,1.6-0.7,1.6-1.6C20.1,32.1,19.4,31.4,18.5,31.4z"/>
	<path class="st0" d="M40.7,52v-1.9H29.9V52h-3.2V35.9l-1.2-0.4l0.5-1.3h4V35h11l0.9-0.9l3,1.2L44,36.3V52H40.7z M40.7,37.1H29.9v11
		h10.8V37.1z"/>
	<path class="st1" d="M51.3,50.4c7.9-1.4,12.5-7.8,13.6-14.1H51.2l-0.7-2h15.2l0.9-0.9l3.6,1.5c0,0-1.2,1-1.2,1.4
		c-1.2,7.9-7.6,14.6-16.6,16L51.3,50.4z"/>
	<path class="st1" d="M89.4,51.5H75.1l-0.6-1.8h6.7v-8.5h-4.9l-0.6-1.8h10.8l1.4-1.2l1.9,1.5l-1.7,1.4h-4.1v8.5h3.7l1.4-1.2l1.9,1.5
		L89.4,51.5z"/>
	<path class="st1" d="M99.2,45.6c0,0,0-0.1,0-0.1c0-2.1-1.1-4.7-1.6-5.8L99,39c1,1.1,2.7,3.6,3.1,4.8L99.2,45.6z M98.7,50.9
		c7.2-1.8,9.6-5.8,10.3-11l-1.2-0.3l0.5-1.2h3.9c-0.6,6.8-3.7,12.4-12.6,14.2L98.7,50.9z M103.6,44.8c0-2.6-1.1-5-1.7-6.1l1.4-0.6
		c1,1.1,2.8,3.5,3.2,4.9L103.6,44.8z"/>
	<path class="st1" d="M124.7,44c-1.6-2.1-4.8-3.6-6.2-4.1l0.9-1.5c1.9,0.3,5.4,1.1,6.9,2.1L124.7,44z M119.9,48.5l1.2-0.9l1.9,1.2
		c6.7-1.6,12.1-6.9,14.6-12.1l1.9,1c-2.5,6.1-7.4,12.3-16.7,14.6L119.9,48.5z M127.5,38.4c-1.6-2.1-4.7-3.5-6.1-4.1l0.8-1.5
		c1.9,0.3,5.4,1.2,6.9,2.1L127.5,38.4z"/>
	<path class="st1" d="M156.6,52.5v-0.9h-10.3l-0.7-1.8h11v-3.9h-9.7l-0.7-1.8h10.4v-3.2h-10.1l-0.6-1.8h11.3l0.6-0.6l2.4,1l-0.9,0.9
		v12.1H156.6z"/>
	<path class="st1" d="M186.1,40.4h-6.8c-0.1,7.2-4.5,10.6-10.8,12.3l-1.1-1.7c5-1.6,8.2-4.3,8.5-10.6h-9l-0.7-2h9.8
		c0-1.2,0-2.9,0-4.2l-1.5-0.5l0.5-1.3h4.6c0,0.8,0,3.9,0,6h5l1.4-1.3l2.1,1.6L186.1,40.4z"/>
	<path class="st1" d="M189.1,51.4c5.1-3.1,5.8-8.7,5.8-14c0-0.1,0-0.2,0-0.3v-1.5l-1.4-0.4l0.5-1.3h3.9v3.5c0,6.6-1.4,12.5-7.5,15.4
		L189.1,51.4z M200.4,35.2l-1.3-0.4l0.5-1.3h3.9v14c1.8-0.5,5-2.9,6.4-7.2l1.8,0.8c-2.4,9.8-10.6,10.6-11,10.6c-0.2,0-0.2,0-0.2-0.5
		V35.2z"/>
	<path class="st1" d="M238.1,51.2c0,0-1.6,0.5-2.3,1.8c-1.5,0.1-3.1,0.1-4.5,0.1c-6.1,0-9.3-0.7-10.8-4.3c-0.9,1.7-1.9,3.3-3,4.5
		l-2.6-2.8c1.2-0.6,2.5-1.5,3.7-2.5v-5.7h-2.4l-0.7-1.9h3.3l0.7-0.8l2.6,1.2l-0.7,0.8v5.7c0.9,2,2.7,3,7.3,3c2.5,0,6.2-0.2,9.6-0.6
		L238.1,51.2z M218.9,38.3c-0.5-1.8-1.4-4-2.5-5.5l1.2-0.9c1.4,0.9,3,2.5,4.3,3.8L218.9,38.3z M235.9,47.6H231v2.1h-2.9v-2.1h-5.2
		l-0.7-1.7h5.8v-1.2H224l-0.7-1.6h4.8v-1.2h-4.9l-0.7-1.6h3.9c-0.3-0.8-0.8-1.4-1.4-2l0.7-0.5h-3l-0.7-1.7h6.1v-1.4h-4.7l-0.7-1.7
		h5.4v-1.9h2.9V33h2.4l1.4-1l1.8,1.5l-1.8,1.2H231v1.4h3.4l1.5-1l1.8,1.5l-1.7,1.2h-4.1l2.4,0.8c-0.8,0.6-1.6,1.2-2.5,1.7h2.2l1.4-1
		l1.9,1.5l-1.8,1.2H231v1.2h2.2l1.4-1l1.9,1.4l-1.8,1.2H231v1.2h3.3l1.5-1l1.8,1.5L235.9,47.6z M226.5,37.8c0.9,0.4,1.9,0.9,2.6,1.5
		l-1.8,1h2.4c0.6-0.7,1.2-1.6,1.6-2.5H226.5z"/>
	<path class="st1" d="M249.2,49.1c1,0.3,1.8,0.6,2.6,0.6c1.6,0,3.5-1,3.5-7.3c0-3.8-1.2-3.8-3-3.8c-0.4,0-0.9,0-1.4,0
		c-1.4,4.7-3.1,9.6-5.1,13.5l-3.4-0.6c2.1-3.7,4-8.3,5.4-12.8c-2.1,0.1-4,0.1-4.3,0.1l-0.5-2c0.5,0,2.9-0.1,5.4-0.2
		c0.3-1,0.5-1.9,0.7-2.9l-1.4-0.4l0.5-1.2h4.5c-0.4,1.4-0.7,2.9-1.2,4.3c0.8,0,1.5,0,1.9,0c3.9,0,5.1,2.1,5.1,6.3
		c0,2.4-0.4,5-1.1,6.5c-0.9,1.8-2.5,2.6-4.3,2.6c-1.4,0-2.9-0.4-4.2-1.2L249.2,49.1z M261.4,44.2c0-2.6-2.2-6.9-4-8.8l1.6-0.9
		c2.2,1.6,5.4,5.3,5.9,7.6L261.4,44.2z M261.1,35.4c-0.8-1-2.2-2.3-3.2-2.9l1-0.9c0.9,0.3,2.8,1.2,3.6,1.9L261.1,35.4z M263.7,33.7
		c-0.8-1-2.1-2-3.1-2.6l1-0.9c0.8,0.2,2.7,0.9,3.5,1.5L263.7,33.7z"/>
	<path class="st1" d="M274.8,52.3c4.2-2.6,4.9-5.6,5-10c-0.6,1.8-1.5,3.6-2.6,5.1l-2.3-2.1c1.5-1.2,2.8-2.7,3.8-4.3l1.1,0.5v-2.7
		l-2.4,1.4c-0.1-1.2-0.3-2.4-0.6-3.5l-1.2,1.2h-1.5v3.5c0.8-0.3,1.6-0.6,2.3-1l0.3,1.4c-0.8,0.6-1.7,1.1-2.6,1.7v5.4l0.1,1.8v0.3
		c0,0.7-0.2,2.1-2.7,2.4c-0.7-1.2-1.5-1.5-2.7-1.7v-1.3c0.7,0.1,1.2,0.1,1.6,0.1c0.9,0,1.1-0.2,1.1-0.7v-4.8
		c-0.7,0.4-1.5,0.7-2.2,0.9l-1.2-2.6c1.1-0.2,2.2-0.6,3.3-0.9v-4.5h-2.2l-0.7-1.8h2.8v-4.9h2.7V36h0.2l1-1l1.3,1.2
		c-0.2-0.7-0.4-1.4-0.7-2l1.3-0.6c1.1,1.3,1.9,2.8,2.4,4.1c0-2.2,0-5.1,0-6.5h2.7v9.4c0,6.9-0.9,10-6.4,12.8L274.8,52.3z
		 M290.7,47.5c0,0.5,0,0.9,0,1.3c0,1.4,0.1,2.1,0.5,2.7c-0.5,1.3-1.8,1.5-4.3,1.5c-2.2,0-3.3-0.2-3.3-2.9v-19h2.6v7.5
		c0.7-1.7,1.2-3.6,1.4-5.4l3,1c-0.9,1.9-1.8,3.7-3.1,5.2l-1.2-0.6v2.5l1-0.7c1.3,1.2,2.6,2.8,3.4,4.1l-2.7,2.2
		c-0.4-1.8-1-3.8-1.8-5.3v7.8c0,0.8,0.2,0.9,1.2,0.9c1.2,0,1.6-0.1,1.7-3.1L290.7,47.5z"/>
	<path class="st1" d="M312.9,42.7c0.8,1.6,1.3,3.2,1.3,4.7c0,2.4-1.3,4.4-4.6,5.1c-1.2,0.3-2.6,0.4-4,0.4c-3.9,0-7.5-1.3-7.5-3.9
		c0-0.6,0.2-1.2,0.5-1.9c-1.3-0.1-3.3-1-3.3-3.9c0-2.9,1.8-4.5,3.8-4.5c0.5,0,1,0.1,1.3,0.3l0-1.9h-4.1l-0.6-1.9h4.8v-1.3l-1.7-0.5
		l0.5-1.3h4.2c0,0.8-0.1,1.9-0.1,3.1h1.5l1.6-1.2l1.8,1.7l-1.8,1.5h-3.2c-0.1,2.1-0.2,4.3-0.2,5.8c0,2.6-2,4.4-2,5.6
		c0,1.6,4.4,1.7,4.5,1.7c6,0,6.1-2.9,6.1-3.7c0-1-0.3-2.2-0.8-3.3L312.9,42.7z M300.2,42.8c0-0.9-0.1-2.4-1.2-2.4
		c-0.1,0-1.4,0-1.4,2.5c0,1.2,0.5,2.1,1.4,2.1C299.9,45.1,300.2,43.8,300.2,42.8z M314.6,41.3c-1.5-2.2-3.9-3.6-5.4-4.3l0.8-1.4
		c2.5,0.3,5.6,1.4,6.6,2.5L314.6,41.3z"/>
	<path class="st1" d="M41.5,84.2c0-1.7,0.2-4.1,0.3-5.5c-1.1,1.7-2.6,3.1-4.2,4.4l-1.2-1c1.8-1.8,3.3-4.2,4.2-6.5h-3L37,73.9h4.7
		v-1.7h-4.3l-0.7-1.8H44L43,70c0.6-1,1.1-2.4,1.3-3.6l3.3,0.8c-0.9,1.2-2.1,2.4-3.1,3.2h1.7l1.3-1l1.9,1.3l-1.7,1.5h-3.2v1.7h1.4
		l1.3-1.1l1.8,1.5l-1.7,1.3h-2.9v0.5c1.3,0.5,3,1.3,3.9,2.1l-1.9,2.5c-0.5-1.3-1.2-2.3-1.9-3.1v6.6H41.5z M47.4,66.2h-9.6l-0.7-1.7
		h4.3v-2.4h3.1v2.4h1.2l1.3-1.1l2,1.5L47.4,66.2z M40.1,70.4C40,69.2,39.5,67.9,39,67l1.3-0.6c1,0.7,1.9,1.7,2.6,2.6L40.1,70.4z
		 M54.1,84.2V71.3h-1.7c-0.1,5.5-0.9,9.5-4.8,13l-1.5-0.9c3.2-3.9,3.4-7.9,3.4-12.4v-1.2c0-2.1-0.1-4.4-0.2-5.6l2.2,0.5
		c2-0.6,3.7-1.6,5.1-2.6l2.1,2.8c-1.9,0.6-4.2,1.1-6.4,1.3v3.1h4l1.3-1.1l1.9,1.6l-1.8,1.4H57v12.9H54.1z"/>
	<path class="st1" d="M84.1,78.2C84,78.9,84,79.5,84,80.1c0,1,0.1,1.7,0.5,2.3c-0.2,0.9-1.7,1.4-2.3,1.5C81.4,84,80.4,84,79.5,84
		c-0.9,0-1.9,0-2.7-0.1c-1.3-0.1-2.1-1.3-2.1-2.6l0-4.2h-2.8c-0.6,3.7-2.5,6.1-8.1,7.3l-1-1.3c3.6-1.2,5.5-2.8,6.2-6h-5l-0.7-1.8h6
		c0-0.2,0-0.4,0-0.6V72h-1l-0.2-0.6c-1.5,1.3-3.2,2.4-5.1,3.1l-1.1-1.2c4-2,6.9-5.7,8-8.4h-5.3l-0.7-1.8h6.7l0.7-0.7l2.1,1.1
		c-0.1-0.4-0.3-0.7-0.4-1.1l1.6-0.5c0.5,1.2,1.1,2.2,1.8,3.2c0.9-0.9,1.8-2.2,2.2-3.2l2.9,1.7c-1.3,1-2.9,2-4.2,2.6
		c0.5,0.6,1.1,1.2,1.7,1.7c1.1-0.9,2.2-2.3,2.8-3.4l2.9,1.7c-1.4,1.1-3,2-4.5,2.6c1.4,0.9,3.1,1.7,5.1,2.2l-0.5,1.2c0,0-1.8,0-3,1.1
		c-1-0.5-2-1.2-2.9-1.9L78.2,72h-0.6l0,3.3h2.7l1.6-1.1l2,1.5l-1.9,1.4h-4.3l0,3.5c0,0.9,0.6,0.9,1.6,0.9c2.3,0,2.9-0.1,3.1-3.5
		L84.1,78.2z M65.9,69.8c-0.7-1.5-1.8-2.7-2.8-3.5l0.9-1c1.2,0.3,3,1,4,1.7L65.9,69.8z M77.1,69.8c-1.4-1.6-2.5-3.4-3.4-5.5
		c-0.2,0.2-0.5,0.5-0.5,0.6c-0.9,1.9-2.2,3.8-3.8,5.4h7.2L77.1,69.8z M74.7,72h-2.6c0,0.8,0,2.1,0,2.6c0,0.2,0,0.5,0,0.7h2.6
		L74.7,72z"/>
	<path class="st1" d="M88.3,81c1.6-0.7,3.4-2.6,4.1-3.9l1.5,0.7c-0.5,2-1.6,4.2-2.9,5.6L88.3,81z M93.4,75.9c0-1.7,0.1-3.9,0.2-5.5
		c-1,1.7-2.4,3.3-3.9,4.6l-1.2-0.9c1.8-2.1,3.3-4.6,4.1-6.9h-2.8l-0.6-1.8h4.3v-3.2h2.6v3.2h0.5l1.3-1l1.8,1.6l-1.6,1.3h-2.1V68
		c1.3,0.7,2.6,1.6,3.5,2.5l-1.9,2.4c-0.4-1.2-0.9-2.3-1.6-3.3v6.3H93.4z M105.7,79.1c0,0.3,0,0.6,0,0.8c0,1.8,0.6,2.1,0.8,2.6
		c-0.4,0.6-1,1.6-6.2,1.6c-3.6,0-5.7-0.4-5.7-2.5v-0.1l0-4.9h2.8l0,4c0,1,1.4,1,2.9,1c0.6,0,1.2,0,1.9-0.1c1.7-0.3,1.4-1.1,1.7-2.7
		L105.7,79.1z M101.6,80.5c-0.8-1.4-2.3-2.6-3.5-3.4l1-1.2c1.4,0.3,3.4,1.3,4.5,2L101.6,80.5z M106.6,75.9v-0.8h-4.1v0.7h-2.6V62.4
		l2.8,0.8h4.1l0.9-0.9l2.3,1.2l-0.7,0.8v11.5H106.6z M106.6,64.9h-4.1v1.7h4.1V64.9z M106.6,68.2h-4.1v1.7h4.1V68.2z M106.6,71.6
		h-4.1v1.8h4.1V71.6z M108.8,82.9c-0.7-1.9-2.4-4-3.6-5l1.2-1c1.8,0.7,3.8,2.3,5.1,3.6L108.8,82.9z"/>
	<path class="st0" d="M116.3,81.4c7.9-1.4,12.5-7.8,13.6-14.1h-13.7l-0.7-2h15.2l0.5-0.5c-0.1-0.2-0.1-0.5-0.1-0.8
		c0-1.6,1.3-2.9,2.9-2.9s2.9,1.3,2.9,2.9c0,1.6-1.2,2.8-2.8,2.9c-0.1,0.1-0.2,0.3-0.2,0.4c-1.2,7.9-7.6,14.6-16.6,16L116.3,81.4z
		 M134,62.4c-0.9,0-1.6,0.7-1.6,1.6c0,0.9,0.7,1.6,1.6,1.6s1.6-0.7,1.6-1.6C135.6,63.1,134.9,62.4,134,62.4z"/>
	<path class="st0" d="M156.2,83v-1.9h-10.8V83h-3.2V66.9l-1.2-0.4l0.5-1.3h4V66h11l0.9-0.9l3,1.2l-0.8,0.9V83H156.2z M156.2,68.1
		h-10.8v11h10.8V68.1z"/>
	<path class="st1" d="M171.3,75c-1.6-2.1-4.8-3.6-6.2-4.1l0.9-1.5c1.9,0.3,5.4,1.1,6.9,2.1L171.3,75z M166.5,79.5l1.2-0.9l1.9,1.2
		c6.7-1.6,12.1-6.9,14.6-12.1l1.9,1c-2.5,6.1-7.4,12.3-16.7,14.6L166.5,79.5z M174.1,69.4c-1.6-2.1-4.7-3.5-6.1-4.1l0.8-1.5
		c1.9,0.3,5.4,1.2,6.9,2.1L174.1,69.4z M182.9,67.4c-0.6-1.2-1.8-2.8-2.8-3.6l1.2-0.8c1,0.5,2.7,1.7,3.4,2.6L182.9,67.4z
		 M185.8,65.8c-0.7-1.2-1.8-2.5-2.7-3.2l1.1-0.7c0.8,0.4,2.6,1.4,3.4,2.2L185.8,65.8z"/>
	<path class="st1" d="M206,82.5h-14.2l-0.6-1.8h6.7v-8.5H193l-0.6-1.8h10.8l1.4-1.2l1.9,1.5l-1.7,1.4h-4.1v8.5h3.7l1.4-1.2l1.9,1.5
		L206,82.5z"/>
	<path class="st1" d="M213.8,81.9c7.5-1.5,12.9-7.3,14.5-14.2h-6.7c-1.9,3-4.5,5.8-8.1,7.7l-1.2-1.5c3.3-2.4,5.6-6,6.9-9l-1.2-0.4
		l0.7-1.3h5.2c-0.4,0.8-0.8,1.7-1.2,2.5h6.5l0.8-0.8c0.9,0.2,3.1,1.2,3.1,1.2c-0.3,0.4-0.9,0.9-1,1.2c-2.2,9.4-8.7,14.9-17.3,16.4
		L213.8,81.9z"/>
	<path class="st1" d="M254.1,77.4c-3.1-2.9-7.2-4.5-10.4-5.2v11.3h-3.3v-18l-1.6-0.5l0.5-1.3h4.3v6.6c4.3,0.3,9.6,1.6,11.6,2.6
		L254.1,77.4z"/>
	<path class="st1" d="M264.4,81.6c0-1.2,1-2.3,2.2-2.3c1.2,0,2.2,1.1,2.2,2.3c0,1.2-1.1,2.4-2.2,2.4C265.4,84,264.4,82.9,264.4,81.6
		z M265.5,77.6l-0.7-8.2v-6.3h3.5v6.3l-0.7,8.3H265.5z"/>
</g>
</svg>
