<?xml version="1.0" encoding="utf-8"?>
<!-- Generator: Adobe Illustrator 24.0.3, SVG Export Plug-In . SVG Version: 6.00 Build 0)  -->
<svg version="1.1" id="レイヤー_1" xmlns="http://www.w3.org/2000/svg" xmlns:xlink="http://www.w3.org/1999/xlink" x="0px"
	 y="0px" viewBox="0 0 1280 200" style="enable-background:new 0 0 1280 200;" xml:space="preserve">
<style type="text/css">
	.st0{fill:#B7E3FF;}
</style>
<path class="st0" d="M1206.3,44.1c-2.6-0.6-5.3-0.9-8.1-0.9c-17.1,0-31.3,12.3-34.3,28.5c-5.2-3.5-11.4-5.5-18.1-5.5
	c-1.6,0-3.2,0.1-4.8,0.4c0-0.5,0-0.9,0-1.4c0-25.5-20.7-46.2-46.3-46.2c-17.5,0-32.9,9.8-40.7,24.1c-7.2-4.2-15.5-6.5-24.4-6.5
	c-12.1,0-23.2,4.5-31.8,11.8c-4.3-13.1-16.6-22.5-31.1-22.5c-12.2,0-22.8,6.6-28.4,16.4c-4-0.8-8.1-1.2-12.4-1.2
	c-24.8,0-46.4,14.1-57,34.7c-8.2-12.8-22.6-21.3-39-21.3c-13,0-24.8,5.4-33.3,14c-3.9-2.2-8.3-3.4-13.1-3.4
	c-14.7,0-26.6,11.9-26.6,26.6c0,1.9,0.2,3.7,0.6,5.4c-5.6,2.2-10.6,5.5-14.9,9.5c-8.9-11.6-22.9-19-38.8-19
	c-11.4,0-21.9,3.9-30.2,10.4c-6.9-11.2-19.2-18.7-33.4-18.7c-15.8,0-29.4,9.4-35.6,22.9c-7.1-8.8-17.9-14.5-30.1-14.5
	c-3.8,0-7.5,0.6-11,1.6c-4.5-21-23.1-36.9-45.6-36.9c-9.2,0-17.7,2.7-24.9,7.3c-7.2-4.6-15.8-7.3-24.9-7.3c-5.9,0-11.6,1.1-16.8,3.1
	C440.4,35,419,21,394.2,21c-34.3,0-62.2,26.8-64,60.5c-10.5-7.4-23.3-11.8-37.2-11.8c-12.6,0-24.4,3.7-34.4,10
	c-6.5-17.1-23-29.3-42.5-29.3c-18.4,0-34.3,10.9-41.5,26.7c-7.3-8.3-18-13.5-30-13.5c-9.1,0-17.5,3-24.2,8.2
	c-7.1-12.6-20.7-21.1-36.3-21.1c-2.4,0-4.7,0.2-7,0.6C64.1,21.1,34.1,0-1,0v104v66.3V200h1282v-29.7V92.2V0
	C1248.7,0,1220.8,17.8,1206.3,44.1z"/>
</svg>
