<svg id="レイヤー_1" data-name="レイヤー 1" xmlns="http://www.w3.org/2000/svg" viewBox="0 0 985.55 55.61"><defs><style>.cls-1{fill:#3aa6ef;}</style></defs><title>top-koumoku</title><path class="cls-1" d="M18.53,15.41a13.15,13.15,0,0,0-1-1.73c-3.39.67-7.06,1.23-10.44,1.56l-.92-2.66c.92,0,1.83.07,2.72.07a11.16,11.16,0,0,0,1-2.52H6.77L6,8.33h12l1.34-1H17.88V6.79H6c-.07,6.39-.91,11.28-4.54,15.27L0,21.29C2.71,17.07,3,12,3,7V6.17c0-2.23-.1-4.66-.2-5.95l3.32.91H18l1-.91,2.52,1.12-.74.77V7.3h-1l1.89,1.37-2,1.46H13.25a14,14,0,0,1-2.5,2.49c2,0,4-.09,5.74-.23-.46-.53-.94-1-1.37-1.42l1.11-.79a26,26,0,0,1,4.89,3.14Zm2.93,6.41H4.87L4.18,20H12V18.34H6.77l-.7-1.85H12V15.07h3v1.42h3.07l1.44-1.08L21.36,17l-1.75,1.39H15V20h4.85l1.48-1.17,1.9,1.61ZM17.88,3.05H6C6,3.67,6,4.27,6,4.9H17.88Z"/><path class="cls-1" d="M29.62,22.37c0-3.48.12-7.39.24-10.22a15.55,15.55,0,0,1-2.73,4.68l-1.25-.6a38.64,38.64,0,0,0,3.48-9.46H27.2L26.53,5h3.19V.17H32.5V5h.29L34.06,4l1.76,1.49L34.18,6.77H32.5V8.54L33,8.26a10,10,0,0,1,2.69,3l-1.73,2.26A13,13,0,0,0,32.5,9.65V22.37Zm18.94-1.3a6.78,6.78,0,0,0-2.62,1c-3.21-2-5.16-6.1-5.85-10.54h-1.3V19c1.27-.22,2.47-.46,3.43-.72l.17,1.48a53.72,53.72,0,0,1-7.75,2.72l-1.32-2.84c.84-.07,1.78-.14,2.71-.26V.26l3,.82h4.85l.74-.79,2.5,1.1-.7.84V12h-.76l2.54,1.65A20.4,20.4,0,0,1,44,16.18a12.56,12.56,0,0,0,5.3,3.72ZM43.69,2.88h-4.9V5.3h4.9Zm0,4.22h-4.9V9.72h4.9Zm0,4.88v-.46h-2A12.13,12.13,0,0,0,43.14,15a13.43,13.43,0,0,0,2.23-3Z"/><path class="cls-1" d="M52.35,22.25,71.94.19h2.64L55,22.25Z"/><path class="cls-1" d="M90.53,22.37V13.56A25.85,25.85,0,0,1,87.7,5.62l-.17.19c-.94,7.58-3.36,13.44-10,16.61l-1.25-1.25c5.91-3.72,7.47-9.07,8-14.79h-3c-.36.84-.77,1.68-1.18,2.5a16.89,16.89,0,0,1,3,2.62l-2.4,3a14.53,14.53,0,0,0-1.49-4,25.72,25.72,0,0,1-2.35,3.48l-1.63-.74C77.88,9.26,79.1,4,79.49.17l3.6.57A31.41,31.41,0,0,1,82,4.46h2.69l.77-.88,2.06,1c-.09-.53-.16-1-.23-1.54l1.46-.33a25.34,25.34,0,0,0,1.8,6.19V.22h3V12.7a14.4,14.4,0,0,0,4.85,3l-.55,1.08a5.07,5.07,0,0,0-2.35,1.34,13.32,13.32,0,0,1-2-1.56v5.86Z"/><path class="cls-1" d="M109.78,14v-.58h-2.11v.94h-2.26V8.09a14.09,14.09,0,0,1-2.74,6.12l-1.51-.79c1.44-2.4,1.92-4.9,1.92-8.93V4.18c0-1.06-.07-2.69-.14-3.94l3.07.89h3.67l.72-.79,2.28,1.12-.69.87v4.8h-2.64V6.65h-3.72c0,.36-.1.72-.15,1l2.38.68H110l.58-.7,2.11,1.1-.6.87V14ZM122,21.84H101.93L101.16,20h9.72V17.79h-7l-.74-1.88h7.72V14.5h3.24v1.41h4.3l1.54-1,2,1.49-2,1.42h-5.88V20h6.24L122,18.82l1.94,1.56ZM109.35,2.93h-3.56c0,.5,0,1,0,1.37s0,.4,0,.6h3.6Zm.43,7h-2.11v1.94h2.11Zm11.93,2h-2.59v2.52h-2.74V11.91h-3l-.67-1.78h3.67V8.5h-3.55l-.63-1.78H115a9.61,9.61,0,0,0-.81-2.35l1.15-.53a14,14,0,0,1,2.23,2l-1.75.91h2.3A12,12,0,0,0,119,3.77h-5.83L112.47,2h3.86V.14h2.83V2h1.35L121.8.86l1.68,1.44-1.63,1.47h-2.66l2.54.86a9.29,9.29,0,0,1-2.16,2.09H121l1.34-1.1,1.59,1.44L122.24,8.5h-3.12v1.63h1.32l1.32-1,1.6,1.36Z"/><path class="cls-1" d="M127.27,22.25,146.86.19h2.64L129.92,22.25Z"/><path class="cls-1" d="M171.78,20c0,.7-.29,1.9-2.69,2.26-.51-.87-1.68-1.44-3.41-1.68V19.25a19.63,19.63,0,0,0,2.07.14c.93,0,1.12-.19,1.12-.55V7.42h-5.54V21.67h-2.69V7.42h-5.42v15h-2.84V4.87l3.17.79h5V3.38h-9l-.69-1.89h18.41l1.8-1.32,2.23,1.7-2.07,1.51h-7.77V5.66h5.64L170,4.8,172.54,6l-.83.89V18l.07,1.92Zm-13.4-6.62a12.86,12.86,0,0,0-2.83-4.18l1-.91a17.93,17.93,0,0,1,3.89,2.78ZM158,19a14.5,14.5,0,0,0-2.4-4.87l1.1-.79a17.26,17.26,0,0,1,3.65,3.48Zm8.42-5.61a12.79,12.79,0,0,0-2.8-4.18l1-.91a19.28,19.28,0,0,1,3.89,2.78Zm-.4,5.16A14.09,14.09,0,0,0,163.66,14l1.11-.79a18.94,18.94,0,0,1,3.6,3.19Z"/><path class="cls-1" d="M199.61,20.38a3.11,3.11,0,0,0-1.92,1.68c-1.06.07-2.05.09-3,.09-4.85,0-6.79-.81-7.85-3.62a18.66,18.66,0,0,1-2.66,3.79l-2.07-2.54v2.59h-2.47c0-3.91.17-8.06.29-10.32a19.32,19.32,0,0,1-2.33,5.4l-1.2-.5a40.81,40.81,0,0,0,2.9-10.13h-1.8l-.69-1.73h2.93V.34h2.4V5.09h.16l1.11-.94,1.7,1.49-1.46,1.18h-1.54V8.47l.55-.33c.29.43.56.84.82,1.27h1.94l.68-.77,2.3,1.18-.65.76v6.08c.55,2.3,2.23,3,5.31,3a56.73,56.73,0,0,0,6.65-.52Zm-14.36-9.17h-.81a9.36,9.36,0,0,1,.36,1l-1.8,2a24.11,24.11,0,0,0-.87-4.54v10a11.13,11.13,0,0,0,3.12-2.35Zm.1-4.27a14.6,14.6,0,0,0-1.44-5.19l1.32-.57a19.2,19.2,0,0,1,2.9,4.05Zm13,9.6c0,.84-.24,1.77-2.31,2.13a1.89,1.89,0,0,0-1.53-1.24v.76h-2V14h-1.37v4.61H189V5l2.25.55h2.21A14.19,14.19,0,0,0,190,4l.82-1.06c.84.17,1.7.36,2.55.58a8.76,8.76,0,0,0,1-1H189l-.6-1.59h7.49l.82-.5,2.16,1.58-1.34.56c-.82.45-1.69,1-2.65,1.46l1.23.43-1.39,1.13h1.51l.57-.62,2,1.12-.6.72v7.83l.07,1.66ZM192.5,7.08h-1.37V9h1.37Zm0,3.46h-1.37v1.92h1.37Zm3.55-3.46h-1.53V9h1.53Zm0,3.46h-1.53v1.92h1.53Zm0,3.48h-1.53v2.33c.24,0,.43,0,.6,0,.76,0,.93-.22.93-.72Z"/><path class="cls-1" d="M202.82,22.25,222.4.19H225L205.46,22.25Z"/><path class="cls-1" d="M229.32,19.51A17.05,17.05,0,0,0,243,5.42H229.25l-.72-2h15.22l.89-.88L248.19,4S247,4.92,247,5.38a19.4,19.4,0,0,1-16.56,16Z"/><path class="cls-1" d="M267.41,20.62H253.18l-.65-1.78h6.75V10.3H254.4l-.65-1.76H264.6L266,7.39l1.87,1.51-1.65,1.4h-4.08v8.54h3.72l1.37-1.15,1.89,1.51Z"/><path class="cls-1" d="M274.66,17.16l1.22-.86,1.95,1.17a22,22,0,0,0,14.78-12l2,.93c-2.45,6-7.06,12.39-17.11,14.57Zm6.22-7.58c-1.27-2.26-4.8-4.83-6.17-5.6l1.22-1.36c1.9.52,5.86,1.92,7.37,3.09Z"/><path class="cls-1" d="M314.77,21.12c-.79-2.54-3.57-5.93-5-7.44a24.64,24.64,0,0,1-11.49,7.54l-1.16-1.78a23.2,23.2,0,0,0,13.71-14.3H300.25l-.69-2h12.21l.65-.89,3.39,1.22a7.39,7.39,0,0,0-1.06,1.47,26,26,0,0,1-3.89,7.39A51.33,51.33,0,0,1,318,18.12Z"/><path class="cls-1" d="M321.06,22.25,340.64.19h2.64L323.7,22.25Z"/><path class="cls-1" d="M365.63,19.51c0,.87-.36,2.38-3,2.74-.64-1-2-1.56-4.1-1.87V18.94c1,.07,1.8.12,2.38.12,1.41,0,1.72-.24,1.72-.72V6.05h-5.3a14.35,14.35,0,0,1-.22,2.11,24.75,24.75,0,0,1,5.14,5.95l-2.83,2.45a23.23,23.23,0,0,0-2.76-6.46A13.57,13.57,0,0,1,351,17.35l-1.29-1.08c3.17-2.76,4.44-5.85,4.58-10.22H349.6V22.39h-2.9v-19l3.14.81h4.47V.22h3.14s0,2.06-.07,3.93h5.4l1-.93,2.59,1.27-.79.93V17.59l.07,1.83Z"/><path class="cls-1" d="M393,20.74a4.82,4.82,0,0,0-2.74,1.51,10.94,10.94,0,0,1-8.3-7.68,18.88,18.88,0,0,1-2,1.34v3.15c1.32-.17,2.64-.36,4-.63l-.05,1.47A92.27,92.27,0,0,1,374,22.32l-1.29-2.71c1.46-.07,2.88-.14,4.25-.26v-2a36.43,36.43,0,0,1-5.77,1.75l-1-1.32a26.88,26.88,0,0,0,8.12-3.84h-6.68L371,12.15h9.36V10.63h3.13v1.52h5.68l1.56-1L393,12.55,391,13.9h-7.78a8.82,8.82,0,0,0,2,2.71A11.37,11.37,0,0,0,388.47,14l2.93,1.85a19.27,19.27,0,0,1-4.68,1.8,14.54,14.54,0,0,0,6.67,1.68Zm-16.37-9.82V7.18a34.89,34.89,0,0,1-3.94,3.24L370.85,7.8a22.78,22.78,0,0,0,5.76-2.4V.31h2.83V10.92ZM374.52,6a12.55,12.55,0,0,0-3.17-3.24l1-1a19.35,19.35,0,0,1,4,1.65Zm16.25,4h-9.55l-.7-1.75h4v-3h-4.08l-.72-1.85h4.8V.31h2.93v3.1h2.09l1.58-1.08,2,1.51-1.9,1.42h-3.74v3h1.68l1.49-1.15,1.89,1.54Z"/><path class="cls-1" d="M396.67,22.25,416.26.19h2.64L399.31,22.25Z"/><path class="cls-1" d="M438,18.67V18h-4.44v.31l.1,1.83v.19c0,.65-.22,1.8-2.88,2.28-1-1-2.09-1.37-4.3-1.61V19.61c1.08.07,1.87.12,2.47.12,1.47,0,1.64-.24,1.64-.72V18h-7.35l-.62-1.65h8V15.19h-9.44l-.65-1.63h10.09V12.48h-7.13l-.63-1.61h7.76V9.55h-3.94v.58h-2.69V4.27l2.95.7h3.68V3.77h-8.5l-.7-1.71h9.2V.12h3V2.06h5.74L440.78,1l2,1.51L441,3.77h-7.49V5h4.32l.7-.7L441,5.33l-.77.79V9.94h-2.69V9.55h-4v1.32h4.71l.69-.72,2.52,1.16-.69.79v1.46h.14l1.2-.94L443.8,14l-1.53,1.2h-1.51v3.48ZM430.56,6.53h-3.94V8h3.94Zm7,0h-4V8h4Zm.41,6h-4.44v1.08H438Zm0,2.71h-4.44v1.16H438Z"/><path class="cls-1" d="M469.41,10.78A4.32,4.32,0,0,0,467,12.19a11.34,11.34,0,0,1-4.18-2,18.15,18.15,0,0,1-5.61,2.67l-.63-.8-.77,2-1.53-.26c.26-1.27.5-2.83.67-4h-1.08v8l.07,1.83v.21c0,.7-.21,2.11-2.73,2.5-.48-1-1.2-1.42-3-1.68V19.25c.77.07,1.37.1,1.8.1,1.13,0,1.32-.22,1.32-.7V17.16l.1-4.1a20.85,20.85,0,0,1-3.91,5.83l-1.23-.82a28.75,28.75,0,0,0,3.91-8.35h-2.78l-.67-1.78H452a12.41,12.41,0,0,0-3.24-3l1.1-1a16.67,16.67,0,0,1,2.31,1,21.42,21.42,0,0,0,1.36-2.06h-5.66L447.16,1h7.37l.82-.57L458,2.16s-1,.67-1.23.84c-1,.91-2.06,1.82-3.21,2.71.43.29.84.58,1.24.89l-1.68,1.34h2.28l.8-.72,2.08,1.45-.76.81-.7,1.78a15.63,15.63,0,0,0,4.39-2.67,10.5,10.5,0,0,1-1.68-3,18.5,18.5,0,0,1-1.77,1.87l-1.37-.72a16.17,16.17,0,0,0,3-6.69l3.17.65c-.24.55-.5,1.1-.79,1.63h4.1l1.52-1.13,2,1.51-1.85,1.42h-.29a11.87,11.87,0,0,1-2.52,4.27,14.79,14.79,0,0,0,5,1.2Zm-1.2,4.13c0,1.72-.24,4.63-.93,5.73A3.87,3.87,0,0,1,464,22.25c-.46-.84-1.25-1.34-2.83-1.75l.24-1.23a12,12,0,0,0,2.06.27c1.39,0,1.92-.79,2-4.13h-2.08c-.94,3.31-3.15,5.59-7.23,6.94l-1.08-1.25c3.12-1.39,4.8-3.22,5.52-5.69h-3.34l-.69-1.78h4.39a16.63,16.63,0,0,0,.1-1.92h2.88a18.53,18.53,0,0,1-.17,1.92h1.87l.75-.72,2.59,1.2ZM460.7,4.13l-.05.07a7.9,7.9,0,0,0,2.07,2.86,10.15,10.15,0,0,0,1.61-2.93Z"/><path class="cls-1" d="M480,14.4v-.67h-3a15.51,15.51,0,0,1-3.24,8.62l-1.47-.8c1.83-3.19,2.11-6.48,2.11-9.91,0-.67,0-1.34,0-2,0-1.89-.14-3.26-.29-4.72l3.17.79h3l.7-.79,2.4,1.15-.77.84V14.4Zm2.23-11.06h-8.59l-.74-1.9h7.68L482.13.26l2.09,1.56ZM480,7.46h-2.85c0,.72,0,1.44,0,2.31s0,1.46,0,2.18H480Zm9.55,14.91V9.58h-2.2c-.1,5.16-.82,9.17-5.36,12.67l-1.41-1c3.62-3.63,3.93-7.54,3.93-12.2V8.42c0-2.08-.09-5-.19-6.19l2.14.48A22.12,22.12,0,0,0,492.23.14l2.26,3a40.26,40.26,0,0,1-7.08,1.05V7.66h5l1.27-1.06,1.73,1.56-1.56,1.42H492.4V22.37Z"/><path class="cls-1" d="M497.78,22.25,517.37.19H520L500.42,22.25Z"/><path class="cls-1" d="M542.16,21.1H522.55L521.78,19h9.48V4.8H523.7l-.76-2.14h16.13L541,1.32l2.2,1.87L541,4.8H534.6V19h5.47l2-1.47,2.33,1.92Z"/><path class="cls-1" d="M556,14.07a32.65,32.65,0,0,1-7.17,4.84L547.35,16a27.51,27.51,0,0,0,3.19-.91V8.21h-2.08l-.67-1.8h2.75V.24h2.79V6.41h.29l1-.91,1.75,1.39-1.56,1.32h-1.49V14a19.86,19.86,0,0,0,2.26-1.18Zm6.55,5.8a14,14,0,0,1-3.67,2.21L557.77,21a11.66,11.66,0,0,0,5.78-6.53h-.74a15.67,15.67,0,0,1-7.61,6.44l-1.15-1a15.55,15.55,0,0,0,6-5.4h-.94a16.81,16.81,0,0,1-4.44,3.24l-1.12-1a13.7,13.7,0,0,0,4.89-5.16h-3.07l-.72-1.75H567.3l1.32-1,1.92,1.42-1.73,1.32h-7.27c-.27.41-.6.84-.94,1.27h6.12l.55-.55,2.5,1-.62.75a31.44,31.44,0,0,1-.41,5.18c-.36,1.9-1.58,3.07-3.91,3.15A3.82,3.82,0,0,0,562.4,21Zm2.52-11V8.52H559.4V9h-2.71V.46l3,.64h5.76l.81-.74,2.38,1-.72.72V8.88Zm0-6.14H559.4V4h5.71Zm0,2.83H559.4V6.89h5.71Zm1.16,8.9a11.35,11.35,0,0,1-3.56,5.33,9.46,9.46,0,0,0,1.61.17c1.76,0,1.95-1,2.16-5.5Z"/><path class="cls-1" d="M572.74,22.25,592.32.19H595L575.38,22.25Z"/><path class="cls-1" d="M619,20.52A6.06,6.06,0,0,0,616,22.13a9.91,9.91,0,0,1-7.75-6.24c-1.49,4-5,5.69-11.26,6.53l-1-1.73c8.81-1,10-5,10-10,0-.31,0-.58,0-.77h3.17c0,.43,0,1.06-.07,1.71,0,.14,0,.26,0,.38.41,5.18,5.07,6.77,10.37,7ZM602.07,9.91a15.9,15.9,0,0,0-4.36-5A14,14,0,0,0,601.26.17l3.55,1.32a20.42,20.42,0,0,1-4.49,3.33,24.45,24.45,0,0,1,4.44,2.6Zm-3.64,5.72a7,7,0,0,0,2.68-4.78l1.88,0c0,.55.09,1.11.09,1.64a10.47,10.47,0,0,1-1,4.75Zm9.74-5.93a14.83,14.83,0,0,0-4.32-4.76A14.83,14.83,0,0,0,607.43.17L611,1.46a21.55,21.55,0,0,1-4.57,3.34,24.6,24.6,0,0,1,4.44,2.45Zm6.29.09A15.76,15.76,0,0,0,610,4.92a14.06,14.06,0,0,0,3.6-4.75l3.55,1.29a21.39,21.39,0,0,1-4.49,3.34,24.53,24.53,0,0,1,4.47,2.5Zm-3.75,5.5a14.13,14.13,0,0,0,3.2-4.8l3.5,1.73A22.2,22.2,0,0,1,612,16.37Z"/><path class="cls-1" d="M643.06,14.11H622.88l-.7-1.82h9.51V10.9h-6.2l-.69-1.75h6.89V7.85h-7.16l-.65-1.63-2.08-1a4.68,4.68,0,0,0,2.47-4l1.94,0c0,.26,0,.52.08.76h5.37v-2H635v2h6.22l1-1L645,3l-1.13.58-2.13,1.9,1.27,1-1.8,1.32h-6.31v1.3h4l1.49-1,1.85,1.49-1.8,1.3h-5.59v1.39h6.62l1.51-1,1.88,1.51Zm-4.89,8.31v-.79h-9.63v.81h-3.07V15l3.31.67h9.6l.87-.88L642.1,16l-.81.94v5.47ZM639.7,5.23c.24-.48.43-.93.58-1.32H626.21a7.34,7.34,0,0,1-.6,2.16h6.08V4.61h3.19V6.07h4.77l.89-.62Zm-1.53,12.2h-9.63v2.4h9.63Z"/><path class="cls-1" d="M653.89,18.72v-1h-2v2.13h-2.64V.53l2.86.77h2l.72-.77,2.35,1.17-.67.8V18.72Zm0-15.62h-2V8.26h2Zm0,7h-2v5.84h2Zm14,10c0,.67-.22,1.94-2.74,2.37-.65-1-1.94-1.51-3.62-1.68V19.39c.86.08,1.51.12,2,.12,1.23,0,1.44-.24,1.44-.72V13.68h-7.61l-.72-1.77H665V10.08h2.83v1.83h.1l1.25-1.13L671,12.29l-1.53,1.39h-1.64V18l.08,1.8Zm1.53-10.64H657.39l-.69-1.77H662V5h-3.84l-.7-1.8H662v-3h2.93v3h2.16l1.32-1.08,1.87,1.46L668.63,5h-3.72V7.66h2.92l1.4-1.11L671,8.09Zm-7.51,9.41a15.08,15.08,0,0,0-3.62-3.72l1-1a22.77,22.77,0,0,1,4.71,1.9Z"/><path class="cls-1" d="M684.68,19.63c6.24-.64,8.54-4.6,8.54-8.73,0-3.51-2.18-6.89-7-6.89a8.05,8.05,0,0,0-8.54,8.09,4.89,4.89,0,0,0,2.47,4.41s3.43-4.63,4-9.65l-1.29-.6.45-1,2,.14,2.16.12c-.33,6.46-5.66,14.28-5.9,14.59a7.87,7.87,0,0,1-6.48-7.63A10.88,10.88,0,0,1,686.36,2.06c5.13,0,10.18,3.2,10.18,9,0,4.22-2.33,9.5-11.24,10.34Z"/><path class="cls-1" d="M703.39,22.37V9.91a13.93,13.93,0,0,1-1.53,1.95l-1.2-.75c1.89-2.85,3.07-6.91,3.67-11l3.12.79c-.43,1.37-.89,2.66-1.39,3.86V22.37ZM723.56,10.2a5,5,0,0,0-2.48,1.27,12.81,12.81,0,0,1-4.32-2,19,19,0,0,1-6.26,2.62l-.6-.77v7.75h-2.43V2.66h2.43V6.91A17,17,0,0,0,713,.1l3.14.69c-.21.48-.43,1-.67,1.42h4.59l1.48-1.13,2,1.63-1.78,1.35h-.33a14,14,0,0,1-2.64,3.74A19.29,19.29,0,0,0,724,9Zm-.41,7.56c-3.53,3.34-7.44,4.49-12.8,4.75l-.72-1.39c5.21-.67,8.36-2.06,10.64-4.92ZM709.9,7.39v3.29a18.29,18.29,0,0,0,5.16-2.74,10,10,0,0,1-1.61-2.49,14,14,0,0,1-2.54,2.61Zm9.62,4.37a15.47,15.47,0,0,1-7.92,3.72l-.84-1.25a11.82,11.82,0,0,0,6-3.81Zm1.9,2.88a18.65,18.65,0,0,1-9.75,4.25l-.84-1.3a13.81,13.81,0,0,0,7.85-4.51Zm-7-10.58-.08.12a7.52,7.52,0,0,0,2.16,2.42,9.12,9.12,0,0,0,1.64-2.54Z"/><path class="cls-1" d="M736.06,16.59a51,51,0,0,1-7.25,4.34L727.28,18c1-.24,2.09-.58,3.19-.91V10.42h-2l-.67-1.8h2.64V3.14h-2.26l-.67-1.8h5.79l1.27-1,1.7,1.51-1.65,1.32h-1.42V8.62h.17l1.17-1,1.56,1.44-1.63,1.32h-1.27v5.73c.89-.33,1.68-.64,2.26-.91Zm12.84,5.08H735.12l-.74-1.8h6.72V17.28h-4.32l-.65-1.77h5V12.87h-2.21v.76h-2.54V.29l2.86.84h7.1l.77-.89,2.42,1.3-.84,1V13.59h-2.59v-.72h-2.28v2.64h2.64l1.37-1.13,1.8,1.51-1.68,1.39h-4.13v2.59h3.55l1.44-1.15,1.83,1.56ZM741.17,2.9h-2.28V6h2.28Zm0,4.85h-2.28v3.31h2.28Zm4.9-4.85h-2.38V6h2.38Zm0,4.85h-2.38v3.31h2.38Z"/><path class="cls-1" d="M759.29,14a2.88,2.88,0,1,1,2.88-2.88A2.89,2.89,0,0,1,759.29,14Z"/><path class="cls-1" d="M770.84,22.37V9.91a14.74,14.74,0,0,1-1.54,1.95l-1.2-.75c1.9-2.85,3.07-6.91,3.67-11l3.12.79c-.43,1.37-.89,2.66-1.39,3.86V22.37ZM791,10.2a4.91,4.91,0,0,0-2.47,1.27,12.63,12.63,0,0,1-4.32-2,19.1,19.1,0,0,1-6.27,2.62l-.6-.77v7.75h-2.42V2.66h2.42V6.91A16.9,16.9,0,0,0,780.46.1l3.15.69c-.22.48-.44,1-.68,1.42h4.59L789,1.08,791,2.71l-1.78,1.35h-.33A14,14,0,0,1,786.2,7.8,19.27,19.27,0,0,0,791.41,9Zm-.41,7.56c-3.53,3.34-7.44,4.49-12.79,4.75l-.72-1.39c5.21-.67,8.35-2.06,10.63-4.92ZM777.34,7.39v3.29a18.16,18.16,0,0,0,5.16-2.74,10,10,0,0,1-1.61-2.49,13.74,13.74,0,0,1-2.54,2.61ZM787,11.76A15.54,15.54,0,0,1,779,15.48l-.83-1.25a11.83,11.83,0,0,0,6-3.81Zm1.89,2.88a18.62,18.62,0,0,1-9.74,4.25l-.84-1.3a13.88,13.88,0,0,0,7.85-4.51Zm-7-10.58-.07.12A7.3,7.3,0,0,0,784,6.6a9.31,9.31,0,0,0,1.63-2.54Z"/><path class="cls-1" d="M794.6,21.07a27,27,0,0,0,1.08-7l2.57.46a24.66,24.66,0,0,1-2.21,7Zm2.64-13a10.76,10.76,0,0,0-2.48-3.55l1-.89c.33.17.67.36,1,.55A17.91,17.91,0,0,0,798.27,0l3.05.89A28.73,28.73,0,0,1,798.05,5c.46.31.89.67,1.28,1Zm1.15,14.36.07-10c-1,.27-2,.48-2.78.6l-.82-2.5c.53,0,1.1,0,1.7,0a40.24,40.24,0,0,0,4.61-7.46l2.64,1.32a52.07,52.07,0,0,1-5.3,6c.91-.07,1.87-.19,2.83-.31a7.71,7.71,0,0,0-.5-1.29l1.08-.56A17.31,17.31,0,0,1,804.15,12L802,13.3a13.29,13.29,0,0,0-.29-1.73c-.29.1-.58.17-.86.26l.07,10.64Zm3.69-2.16a21.69,21.69,0,0,0-1-5.93l1.18-.41a19.56,19.56,0,0,1,2,4.82Zm14.17-5.45H803.79l-.67-1.63h2.93a7,7,0,0,0-1.47-2.31l1.25-.6a12.1,12.1,0,0,1,3,1.87l-2.28,1h2.33V10.06H804l-.62-1.56h5.57V7.34h-4.18l-.6-1.51h4.78V4.7H804.1l-.62-1.53H807A8.37,8.37,0,0,0,805.3.82l1.2-.65a13.73,13.73,0,0,1,3.58,1.92l-2,1.08h3.05l-.7-.46A8.11,8.11,0,0,0,812.21,0l3.34,1a14.29,14.29,0,0,1-3.29,2.14h2l1.34-1,1.85,1.32L815.84,4.7h-4.27V5.83h2l1.27-.91,1.78,1.22L815,7.34h-3.45V8.5h2.8l1.35-1,1.85,1.32-1.64,1.25h-4.36v3.17h1.29l-.91-.36a6.94,6.94,0,0,0,1.18-2.6l3.16.72a12.57,12.57,0,0,1-2.92,2.24h1.39l1.34-1,1.78,1.35Zm-3.08,7.51v-.65h-5.59v.67h-2.66v-7l2.93.77h5.66l.74-.77,2.48,1.11-.75.77v5.06Zm0-4.54h-5.59v2.24h5.59Z"/><path class="cls-1" d="M826.59,14a2.88,2.88,0,1,1,2.88-2.88A2.89,2.89,0,0,1,826.59,14Z"/><path class="cls-1" d="M840,14.07V3.79l-1.56-.45.5-1.32h4.28l0,12.05Zm.24,5.61c8.91-.74,10.83-5.13,10.83-10.46V8.9c0-.88,0-3.6,0-5.49L849.44,3l.5-1.32h4.32V9.72c0,6.24-3.12,11-13.08,11.81Z"/><path class="cls-1" d="M862,19.51A17,17,0,0,0,875.58,5.42h-13.7l-.72-2h15.22l.88-.88L880.82,4s-1.16,1-1.23,1.42a19.41,19.41,0,0,1-16.56,16Z"/><path class="cls-1" d="M895,12.31a18.24,18.24,0,0,1-9,8.52l-1.06-1.36a17.76,17.76,0,0,0,7.68-8.41h-6.14l-.63-1.72h9.1l0-1.4-1.32-.38.45-1.2h3.39l0,3H898l1.12-1,1.76,1.34-1.47,1.34h-1.94l.12,6.73c0,.52,0,1,0,1.48,0,1.25-.29,2.19-2.31,2.55-.77-1-1.51-1.25-3.45-1.49V18.91c.91.05,1.56.08,2,.08,1.08,0,1.12-.12,1.12-.39Z"/><path class="cls-1" d="M908.35,12.43l-.81-2.37h19.32v2.37Z"/><path class="cls-1" d="M947.16,21.48A18.94,18.94,0,0,0,946.1,18a107.36,107.36,0,0,1-15.24,3.26l-1.27-3.43c1.1,0,2.33-.05,3.62-.12a108.59,108.59,0,0,0,3.94-13.47l-1.35-.38.51-1.32h5.4a137.84,137.84,0,0,1-6.58,15c3.39-.26,7.06-.69,10.28-1.22a33.12,33.12,0,0,0-3.51-6.14l1.44-.82a37.74,37.74,0,0,1,7.39,9.86Z"/><path class="cls-1" d="M960.74,22.27c-1.4-3.74-3.2-8.37-4.54-12.67-1.18.41-2.31.84-3.31,1.2l-1.4-2c1-.27,2.45-.72,4.09-1.25-.29-1-.61-2.16-.85-3.17l-1.87-.21.29-1.2,4.27-.77a43.07,43.07,0,0,0,1,4.46A28.5,28.5,0,0,1,966.66,5c6.46,0,6.46,4.17,6.46,5,0,3.5-3.26,5.4-6.84,5.4a10,10,0,0,1-4.13-.87l.29-1.92a8,8,0,0,0,3.1.65c2.2,0,4.22-1.05,4.22-3.67,0-2.09-1.92-2.57-3.58-2.57-1.34,0-3.12.31-7.2,1.59A107.54,107.54,0,0,0,963.76,21Zm5.54-17.52a14,14,0,0,0-5.95-1.51H960V1.75a14.17,14.17,0,0,1,4.27-.55,14.43,14.43,0,0,1,2.09.14Z"/><path class="cls-1" d="M982.65,22.61A18,18,0,0,0,977.8,17l1.56-1.32a24.05,24.05,0,0,1,6.19,3.92Z"/><path class="cls-1" d="M35.85,53.52a6.06,6.06,0,0,0-2.91,1.61,9.91,9.91,0,0,1-7.75-6.24c-1.49,4-5,5.69-11.26,6.53l-1-1.73c8.81-1,10-5,10-10,0-.31,0-.58,0-.77h3.17c0,.43,0,1.06-.07,1.71,0,.14,0,.26,0,.38.41,5.18,5.07,6.77,10.37,7ZM19,42.91a15.9,15.9,0,0,0-4.36-5,14.14,14.14,0,0,0,3.55-4.75l3.55,1.32a20.42,20.42,0,0,1-4.49,3.33,24.45,24.45,0,0,1,4.44,2.6Zm-3.64,5.72A7,7,0,0,0,18,43.85l1.88,0c0,.55.09,1.11.09,1.64a10.47,10.47,0,0,1-1,4.75Zm9.74-5.93a14.83,14.83,0,0,0-4.32-4.76,14.83,14.83,0,0,0,3.58-4.77l3.52,1.29a21.24,21.24,0,0,1-4.56,3.34,24.6,24.6,0,0,1,4.44,2.45Zm6.29.09a15.76,15.76,0,0,0-4.44-4.87,14.06,14.06,0,0,0,3.6-4.75l3.55,1.29a21.65,21.65,0,0,1-4.49,3.34,24.53,24.53,0,0,1,4.47,2.5Zm-3.75,5.5a14.28,14.28,0,0,0,3.2-4.8l3.5,1.73a22.2,22.2,0,0,1-5.42,4.15Z"/><path class="cls-1" d="M60,47.11H39.78l-.7-1.82h9.5V43.9H42.39l-.69-1.75h6.88v-1.3H41.43l-.65-1.63-2.08-1a4.7,4.7,0,0,0,2.47-4l1.94,0c0,.26,0,.52.07.76h5.38v-2h3.29v2h6.22l1-1L61.88,36l-1.13.58-2.13,1.9,1.27,1-1.8,1.32H51.78v1.3h4l1.49-1,1.85,1.49-1.8,1.3H51.78v1.39H58.4l1.51-1,1.88,1.51Zm-4.89,8.31v-.79H45.44v.81H42.37V48l3.31.67h9.6l.87-.88L59,49l-.81.94v5.47ZM56.6,38.23c.24-.48.43-.93.58-1.32H43.11a7.34,7.34,0,0,1-.6,2.16h6.07V37.61h3.2v1.46h4.77l.89-.62Zm-1.53,12.2H45.44v2.4h9.63Z"/><path class="cls-1" d="M66.9,53.88c-.12-1.58-.17-3.19-.17-4.82a95.75,95.75,0,0,1,.82-12.12l-1.37-.41.45-1.3h4.25a70.13,70.13,0,0,0-1.13,12.41,45.57,45.57,0,0,0,.37,6.19Zm18.55-1a30.3,30.3,0,0,1-4.68.48c-3.48,0-7.75-1.22-8.23-6l1.68-1.54,1.15.84-.79,1.08c.22,2.21,3.67,2.69,5.83,2.69a20.88,20.88,0,0,0,5.83-.94ZM78,41.35a28,28,0,0,0,2.4-2.4l-6.07,0-.7-2.09h9.24l.84-.55,2,1.75c-1,.79-4.37,2.86-6.55,4.13Z"/><path class="cls-1" d="M91.85,55.37V43.06c-.53.69-1.06,1.32-1.56,1.85L89,44.11a28.24,28.24,0,0,0,4.32-11l3.31.79a29.76,29.76,0,0,1-2,4.8V55.37Zm18.41-14.14H99.07c0,1.54,0,3.84,0,4.54,0,3.65-1.06,7.25-3,9.41l-1.35-.53a17.41,17.41,0,0,0,1.71-8.42v-.44c0-1.27-.08-5.71-.17-6.89l2.78.63h9.84l1.3-1L112,39.89Zm-.05-4h-2.64v1.56h-2.64V37.27H102.6v1.56H100V37.27H96.82l-.67-1.73H100V33.29h2.64v2.25h2.33V33.29h2.64v2.25h1.1l1.42-1.1,1.8,1.49Zm.48,15.94c0,.82-.19,1.8-2.28,2.16a2,2,0,0,0-1.78-1.3V53c.34,0,.6,0,.82,0,.7,0,.79-.2.79-.72V50.86h-2v4H104v-4h-1.83v4.51H99.91V42l2.4.6h6.15l.6-.62,2.18,1.13-.6.72v7.49l0,1.65ZM104,44.11h-1.83v1.83H104Zm0,3.41h-1.83V49.3H104Zm4.22-3.41h-2v1.83h2Zm0,3.41h-2V49.3h2Z"/><path class="cls-1" d="M136.5,51.41c-1.28,1.22-4.18,3.36-6.84,3.36-2.93,0-4.3-1.66-4.3-4.2A9.81,9.81,0,0,1,125.5,49a10,10,0,0,0-5,2.74c-.41.45-1.7,2.13-2,2.52l-2.85-1.73c3.33-3.12,8.83-8.23,11.78-10.95-2.09,0-8.54,0-8.54,0l-.79-2H129.9l.91-.62,2.35,1.75a13.22,13.22,0,0,0-1.3.74,86.7,86.7,0,0,0-7.24,6,14.23,14.23,0,0,1,2-.72L128.33,48a6.65,6.65,0,0,0-.31,1.84c0,1.54.92,2.21,2.38,2.21.5,0,2.09,0,4.78-2.37Zm-4.85-13.78c-2.81,0-7.87-.14-11.14-1.27l.41-1.73a31.47,31.47,0,0,0,4.22.27,39.33,39.33,0,0,0,5.26-.36Z"/><path class="cls-1" d="M140,45.72a104.5,104.5,0,0,0,11.64-8.28l-7.73.1-.76-2L154,35.45l1.16-.84,2.56,1.82c-.55.34-.6.36-1.12.72-2.24,1.54-6.44,4.56-7.59,5.33a13.45,13.45,0,0,1,3.17-.33c4.51,0,7.58,2.27,7.58,5.85,0,5-5.71,6.79-9.6,6.79-4.17,0-7.41-2-7.41-4.27,0-1.63,1.53-2.85,3.76-2.85,2.43,0,5.12,1.48,5.12,4.51v.26c2.42-.45,4.8-1.7,4.8-4.63,0-2.47-2-3.82-4.88-3.82-2.52,0-5.23.34-9.09,3.65Zm9.24,6.51a2.59,2.59,0,0,0-2.66-2.76c-1.32,0-1.49.72-1.49,1.05,0,1.23,2.57,2,4.13,2.09C149.18,52.47,149.2,52.35,149.2,52.23Z"/><path class="cls-1" d="M178.37,48.89a39,39,0,0,0,2.4-5.23h-4.54v6.93l.08,1.95v.07c0,.7-.36,2.26-3.17,2.86-.89-1.06-2.19-1.61-4.68-1.88V52.08c1.2.07,2.09.1,2.73.1,1.61,0,1.88-.22,1.88-.72v-7.8h-9l-.74-1.95h11.49a21.77,21.77,0,0,0-6-2.93l1.08-1.34a42.29,42.29,0,0,1,4.94,1.15,22.82,22.82,0,0,0,3.08-2.28H166.13l-.72-1.92H180l1-.65,2.91,2.36s-1.66.55-2,.76c-1,.6-2.93,1.54-4.9,2.43.55.19,1.11.41,1.59.62l-2.16,1.8h5.45l1-.86,2.81,1.75-1,.72-4.37,6.22Z"/><path class="cls-1" d="M201.79,52.13a14,14,0,0,0,2.36.26,2.19,2.19,0,0,0,2.47-1.89,35.84,35.84,0,0,0,.74-7.32h-3.43c-.74,5-2.69,9.17-7.13,12.31l-1.34-1c4.61-4.15,5.76-9.84,5.78-15.8H198l-.63-1.6-1.58,3.24a11.49,11.49,0,0,1,2.42,6.33,4.14,4.14,0,0,1-3.65,4.42,2.8,2.8,0,0,0-1.7-1.34v5.68h-2.71V33.17l2.85.77h2.76l.75-.75L199,34.75l-.84.79-.61,1.25h4.85V33.24h3.12v3.55h3L210,35.62l2.13,1.56-1.89,1.48h-5.93c0,.92-.07,1.8-.14,2.67h3.4l.6-.63,2.72,1.11-.68.89c0,10.37-1.7,12.33-5.44,12.5a5.27,5.27,0,0,0-3.15-1.75Zm-8.9-16.39V48.43a4.2,4.2,0,0,0,.77.08,1.73,1.73,0,0,0,1.94-1.76c0-.12,0-.24,0-.38a8.51,8.51,0,0,0-1.89-4.8c.41-1.66.89-4.15,1.22-5.83Z"/><path class="cls-1" d="M218.2,47.07V36.79l-1.56-.45.5-1.32h4.27l0,12Zm.24,5.61c8.9-.74,10.82-5.13,10.82-10.46V41.9c0-.88,0-3.6,0-5.49L227.65,36l.51-1.32h4.32v8.09c0,6.24-3.12,11-13.08,11.81Z"/><path class="cls-1" d="M240.17,52.51c7.92-1.44,12.5-7.8,13.63-14.09H240.09l-.71-2h15.21l.89-.88L259,37s-1.15,1-1.22,1.42a19.41,19.41,0,0,1-16.56,16Z"/><path class="cls-1" d="M273.18,45.31a18.24,18.24,0,0,1-9,8.52l-1.05-1.36a17.81,17.81,0,0,0,7.68-8.41h-6.15L264,42.34h9.1l0-1.4-1.32-.38.46-1.2h3.38l.05,3h.55l1.13-1,1.75,1.34-1.46,1.34h-1.94l.12,6.73c0,.52,0,1,0,1.48,0,1.25-.29,2.19-2.3,2.55-.77-1-1.51-1.25-3.46-1.49V51.91c.91.05,1.56.08,2,.08,1.08,0,1.13-.12,1.13-.39Z"/><path class="cls-1" d="M286.57,45.43l-.82-2.37h19.32v2.37Z"/><path class="cls-1" d="M325.37,54.48A18.82,18.82,0,0,0,324.32,51a107.36,107.36,0,0,1-15.24,3.26l-1.28-3.43c1.11,0,2.33,0,3.63-.12a110.36,110.36,0,0,0,3.93-13.47L314,36.89l.5-1.32h5.4a139.34,139.34,0,0,1-6.57,15c3.38-.26,7-.69,10.27-1.22a33.14,33.14,0,0,0-3.5-6.14l1.44-.82A38.2,38.2,0,0,1,329,52.27Z"/><path class="cls-1" d="M346.75,39.29h-5.08A91.9,91.9,0,0,1,336,50.23l-3.12-.6a61.88,61.88,0,0,0,5.68-10.34h-4.72l-.68-2h6.15c.17-.48.31-.93.43-1.39l-1.42-.46.56-1.12h4.48a31.11,31.11,0,0,1-.93,3h2.76L346.9,36l1.8,1.78Zm5.33,14.54a12.23,12.23,0,0,0-3.24-2.92c-.45,2.08-2.06,3.79-5.33,3.79-2.54,0-5.18-1.25-5.18-3.6,0-1.9,1.92-3.55,5.71-3.55a17.07,17.07,0,0,1,2,.12V40.92h5l1.6-1.22,1.85,1.7-1.82,1.44H349v5.43a12.71,12.71,0,0,1,5,2.64Zm-8.64-4.44c-2,0-2.73.89-2.73,1.47,0,.86,1,1.56,2.35,1.56a2.74,2.74,0,0,0,3-2.62A9.12,9.12,0,0,0,343.44,49.39Z"/><path class="cls-1" d="M360.77,52a25.17,25.17,0,0,0,4.15.33c5,0,8.72-1.7,8.72-4.87,0-2.38-2.6-2.88-4.11-2.88-3,0-6,1.61-7.1,4l-3.17,0c.46-1.75,1.15-5.49,1.63-8.52l-1-.29.51-1.12h3.81c-.33,1.84-.91,4-1.25,5.64a17.12,17.12,0,0,1,7.28-1.66c1.77,0,7,.58,7,5.07,0,4.24-4.42,6.76-11,6.76a31.33,31.33,0,0,1-5.43-.5Zm10.44-13.57c-1.89-.84-6-1.36-10.22-1.41l0-1.73a71.12,71.12,0,0,1,8.93-.6l1.08,0Z"/><path class="cls-1" d="M387.72,55.61A18.1,18.1,0,0,0,382.88,50l1.56-1.32a24.22,24.22,0,0,1,6.19,3.92Z"/><path class="cls-1" d="M416.24,52.71c0,.62-.27,2.25-2.88,2.61-.84-1.13-2-1.58-4-1.8V52.18c.94,0,1.66.07,2.19.07,1.41,0,1.63-.19,1.63-.67V49.92h-8.38v5.45h-2.93V43.9a24.53,24.53,0,0,1-3.76,2.73l-1.23-1.12a23,23,0,0,0,6.36-7.28h-5.18l-.72-1.94h6.84a22.16,22.16,0,0,0,1-3.24l3.62.6a21.64,21.64,0,0,1-1.1,2.64h8.16l1.61-1.35,2.18,1.76-1.94,1.53H406.66a25.21,25.21,0,0,1-1.61,2.31h8.35l.8-.84L417,41l-.79.93v8.89l.07,1.82Zm-3.05-10.33h-8.38v1.93h8.38Zm0,3.77h-8.38v1.92h8.38Z"/><path class="cls-1" d="M443.94,36.17l-2.76,2.69-1.83-.36a19.44,19.44,0,0,0,.86-2.21h-5.8a14.18,14.18,0,0,1-2.91,2.47l-.65-.31.15.81a49.14,49.14,0,0,1-6.89,2.52l-1.27-2.61a47.2,47.2,0,0,0,7.29-1.11h0a11,11,0,0,0,2.71-5l3.46.57a12.37,12.37,0,0,1-.65,1.08h5.55l1.17-.91,2.71,1.61ZM432.89,53.55a33.55,33.55,0,0,1-9.14,2l-.86-1.32a23,23,0,0,0,7.24-2.62Zm-4-15.63a17.29,17.29,0,0,0-5.09-2.45l.79-1.15a32,32,0,0,1,6.05,1Zm9.72,14v-.38H429v.38h-2.81V42.36l2.95.7h9.75l.7-.68,2.52,1.13-.7.84v7.56Zm6.29-10.53a4.11,4.11,0,0,0-2,1.51c-2.67-.31-4.76-1.25-5.76-3.43-1.42,2.06-4.54,3.07-8.55,3.24l-.79-1.25c5.21-.65,7.06-2.38,7.08-4.54H438a3.19,3.19,0,0,1-.08.7c.75,2.35,3.25,2.61,7.21,2.69Zm-6.29,3.07H429v1h9.58Zm0,2.28H429v1.06h9.58Zm0,2.35H429v1.06h9.58Zm3.65,6.48a30.21,30.21,0,0,0-7.21-2.35L436,52a51.27,51.27,0,0,1,8.5,1Z"/><path class="cls-1" d="M451.94,55.37c0-3.48.12-7.39.24-10.22a15.58,15.58,0,0,1-2.74,4.68l-1.25-.6a38.11,38.11,0,0,0,3.56-9.46h-2.24L448.84,38h3.27V33.17h2.71V38H455l1.2-1,1.65,1.44-1.58,1.32h-1.44V41.3l.48-.31a10.41,10.41,0,0,1,2.33,2.79L456,45.72a12.91,12.91,0,0,0-1.17-3.43V55.37Zm13.87-.07v-1h-4.66v1h-2.73V46.8l-1.23.48-1.1-1.34A21.39,21.39,0,0,0,461.88,42a10.79,10.79,0,0,1-1.57-3,25.46,25.46,0,0,1-3,3.17L456,41.42a20.23,20.23,0,0,0,4.29-8.32l3.41.74a17.31,17.31,0,0,1-.91,1.68h3.1l.64-.65,3.08,1.42a3.38,3.38,0,0,0-1.06,1,17.59,17.59,0,0,1-3,4.59,19.71,19.71,0,0,0,5.77,1.6L471,44.62a5.16,5.16,0,0,0-2.48,1.48,13.43,13.43,0,0,1-4.94-2.35,20.24,20.24,0,0,1-4,2.5l1.8.46h4.69l.74-.72,2.54,1.17-.74.84v7.3Zm0-6.87h-4.66v4.18h4.66Zm-4.13-11.18-.33.48a6.77,6.77,0,0,0,1.94,2.69,14.13,14.13,0,0,0,1.87-3.17Z"/><path class="cls-1" d="M494.72,49.85h-3.14v1.46l0,1.76v.07c0,.62-.33,2-3,2.45-.89-1-2.18-1.49-4.22-1.76V52.47c1.08.07,1.89.12,2.49.12,1.46,0,1.68-.24,1.68-.7v-2h-14l-.72-1.78h14.71V46.92h3v1.15H493l1.54-1.17,2,1.49Zm-4.27-3.24v-.43H479.91V47h-2.76V37.75l3,.7h3.53V37h-8.79l-.69-1.75h9.48v-2h2.9v2h6.1l1.51-1.06,2,1.44L494.43,37h-7.85v1.44h4.08l.94-.84,2.3,1.13-.69.76v7.11Zm-7.87,7.66a13.65,13.65,0,0,0-4.78-3.05l.89-1.18a25.94,25.94,0,0,1,5.93,1.35Zm1.1-14.21h-3.77v1.41h3.77Zm0,3h-3.77v1.51h3.77Zm6.77-3h-3.87v1.41h3.87Zm0,3h-3.87v1.51h3.87Z"/><path class="cls-1" d="M501.18,55.3V33.48l2.91.77h3.48l.81-.77,2.38,1.13-.74.74v9.36H507.3v-.86h-3.36V55.3ZM507.3,36h-3.36v2.14h3.36Zm0,3.87h-3.36v2.23h3.36Zm13.59,12.89c0,1.37-1.32,2.3-2.78,2.49-.58-.91-2.16-1.53-4.28-1.8V52c1.13.07,2,.12,2.57.12,1.37,0,1.66-.19,1.66-.55V43.85h-3.51v.82h-2.71V33.48l2.86.77h3.64l.68-.79,2.54,1.08-.72.91V51.07l0,1.64ZM518.06,36h-3.51v2.14h3.51Zm0,3.87h-3.51v2.23h3.51Z"/><path class="cls-1" d="M532,52.92c0,.72-.22,2.07-2.78,2.45a3.59,3.59,0,0,0-2.81-1.73V52.3c.67.07,1.17.12,1.56.12.93,0,1.17-.24,1.17-.72V46.83a24.36,24.36,0,0,1-2.37,1l-1.28-2.69c1.2-.26,2.43-.58,3.65-1V39.86h-2.57l-.67-1.75h3.24V33.22h2.79v4.89H532l1.25-1,1.73,1.49-1.66,1.27h-1.39v3.37c.84-.34,1.65-.7,2.45-1.06l.45,1.39c-.84.55-1.82,1.2-2.9,1.8v5.47l.07,1.83Zm16.34.51A4.56,4.56,0,0,0,545.65,55a14.78,14.78,0,0,1-5.25-3,21.12,21.12,0,0,1-6.82,3.48l-1.2-1.51a18.12,18.12,0,0,0,6.41-3.72,17.8,17.8,0,0,1-2.74-5.69l1.68-.38a10.77,10.77,0,0,0,2.67,4.37,14.59,14.59,0,0,0,2.69-5.09h-7.56l-.72-1.92H539v-3h-4.16l-.72-1.92H539V33.24h2.9v3.34h2.62l1.41-1.13L547.89,37l-1.8,1.47h-4.18v3h2l.77-.72,2.59,1.56a4.23,4.23,0,0,0-1,1.12,18.61,18.61,0,0,1-3.86,6.61,16.5,16.5,0,0,0,6.21,2.06Z"/><path class="cls-1" d="M561,55.25V40.06h-3a23.93,23.93,0,0,1-1.65,2.71v12.6h-2.71l.09-9.41a21.2,21.2,0,0,1-1.8,1.75l-1.22-1A20.42,20.42,0,0,0,555,39.05l2.55.86L557,38.23H561v-5h2.59v5H565l1.2-.81,1.56,1.46-1.58,1.18h-2.55V55.25ZM551,39.74a15.55,15.55,0,0,0,3.84-6.67L558,34.15a21.73,21.73,0,0,1-5.72,6.55Zm5.69,12.41a45.55,45.55,0,0,0,1.47-10.51l2.52.24a38.85,38.85,0,0,1-2.57,10.66Zm8.11-14.37a11.24,11.24,0,0,0-1.1-3.75l1.08-.48a11,11,0,0,1,2.19,3Zm.32,13.49A41.78,41.78,0,0,0,564,42l1.27-.38a51.15,51.15,0,0,1,2.5,8.26Zm6.6,1.6c0,.63-.27,2.12-2.69,2.52a3.2,3.2,0,0,0-2.95-1.72V52.32c.72.07,1.27.1,1.65.1,1,0,1.18-.22,1.18-.67V41.9H567l-.62-1.84H571l1.34-1,1.73,1.51-1.61,1.34h-.76V51l.07,1.75Zm.17-16.37h-4.3l-.72-1.87h3.62l1.3-1,1.68,1.51Z"/><path class="cls-1" d="M593.23,55.44V54.36h-7.92v1.08H582.4V47.09c-1.22.46-2.47.89-3.77,1.3L577.46,47a68,68,0,0,0,10-4.42h-8.88L578,40.68h8.11V38h-5.71l-.65-1.82h6.36V33.26h3.12v2.91h1.68l1.46-1.2,2,1.46L592.51,38h-3.29v2.69h.91a29,29,0,0,0,6-5.93l3.21,1a38.7,38.7,0,0,1-5.32,4.9h2.25L598,39.41l2.11,1.65-2,1.49h-6.27a44.46,44.46,0,0,1-4.2,2.28h5.81l.87-.89L597,45.17l-.82.93v9.34Zm0-8.85h-7.92v2h7.92Zm0,3.76h-7.92v2.21h7.92Z"/><path class="cls-1" d="M626.79,53.07A8.34,8.34,0,0,0,624,54.63a16,16,0,0,1-7-4.42v5.18h-3l.29-4.84A19.75,19.75,0,0,1,604.88,55l-1-1.28a21,21,0,0,0,7.56-4.24h-6.19l-.68-1.8H614V46.44h3v1.23h5.67l1.68-1.3L626.41,48l-1.9,1.49h-5.93a20.67,20.67,0,0,0,8.6,2.42Zm-2.5-7.23H610.11v.75h-2.76V39.86a17.31,17.31,0,0,1-2.06,1.68l-1.32-1a18.45,18.45,0,0,0,4.77-7.44l3.53.77A22.35,22.35,0,0,1,611,35.78h3.72a11.21,11.21,0,0,0,1-2.56l3.72.64a17.84,17.84,0,0,1-2.35,1.92h5.14l1.25-1.08,2,1.52-1.59,1.17h-6.65v1.2h4l1.22-.89,1.75,1.37-1.56,1.08h-5.45v1.2h4.16l1.22-.91,1.75,1.39-1.56,1.08h-5.57v1.3h5.41L624,43.06l2,1.56Zm-9.81-8.45h-4.37v1.2h4.37Zm0,2.76h-4.37v1.2h4.37Zm0,2.76h-4.37v1.3h4.37Z"/><path class="cls-1" d="M648.66,55.32v-.91H634.52v1h-3v-22l3.22.82H648.9l.86-.91,2.71,1.29-.81.94v19.8Zm0-19.22H634.52V52.49h14.14Zm-2.95,13c0,.63-.32,2.09-2.91,2.6-.72-1-1.92-1.44-3.6-1.64V48.77c1,.07,1.7.1,2.23.1,1.25,0,1.35-.22,1.35-.7v-6.6H635.6l-.7-1.87h7.88V36.91h2.85V39.7h.17l1.23-1,1.6,1.49L647,41.57h-1.4v5.69l.08,1.82Zm-6.05-1.6a12,12,0,0,0-3-4.42l1.2-.91A18.19,18.19,0,0,1,642.15,45Z"/><path class="cls-1" d="M660.2,53.52V33.05H667v1.82h-4.83V53.52Z"/><path class="cls-1" d="M688.55,39.94a24.06,24.06,0,0,0,.62-2.43H675.56a7.66,7.66,0,0,1-1.1,3.75l-3.41-1.59a6.6,6.6,0,0,0,2.4-4.7v-.22l1.94,0a7.44,7.44,0,0,1,.12.76h5.16V33.17H684v2.37h6l1.18-1,2.76,1.77-1,.84-2.24,3.17Zm3.12,14.73H672.18l-.72-2h9.21V49.06h-6.81l-.72-2h15l1.68-1.42,2.09,1.8L690,49.06h-6v3.62h5.83l1.68-1.41,2.09,1.8Zm-19.95-9.84c4.56-1.25,6.1-3.14,6.46-6.5l3.21.41c-.67,3.91-2.9,6.65-8.59,7.53Zm20.19-4.13a7,7,0,0,0,0,.77,2.56,2.56,0,0,0,.7,2A2.87,2.87,0,0,1,690.51,45a22.28,22.28,0,0,1-3.07.19c-2.37,0-4.39,0-4.39-2.52V42.6l.05-4.13H686l0,3.6c0,.72.46.77,1.59.77,1.75,0,2.4,0,2.59-2.26Z"/><path class="cls-1" d="M699.25,52.51a17,17,0,0,0,13.63-14.09h-13.7l-.72-2h15.22l.48-.48a2.42,2.42,0,0,1-.12-.76A2.92,2.92,0,0,1,717,32.21a2.91,2.91,0,0,1,.12,5.81,1.59,1.59,0,0,0-.19.36,19.41,19.41,0,0,1-16.56,16Zm17.69-19a1.59,1.59,0,0,0-1.58,1.64,1.58,1.58,0,0,0,3.16,0A1.59,1.59,0,0,0,716.94,33.5Z"/><path class="cls-1" d="M739.15,54.15V52.27h-10.8v1.88h-3.24V38l-1.25-.36.5-1.32h4v.79h11l.87-.89,3,1.25-.76.89V54.15Zm0-15h-10.8v11h10.8Z"/><path class="cls-1" d="M749.08,55.23V53.4h4.83V34.75h2V55.23Z"/><path class="cls-1" d="M765.67,53.88c-.12-1.58-.17-3.19-.17-4.82a95.75,95.75,0,0,1,.82-12.12L765,36.53l.45-1.3h4.25a70.13,70.13,0,0,0-1.13,12.41,47.29,47.29,0,0,0,.36,6.19Zm18.55-1a30.3,30.3,0,0,1-4.68.48c-3.48,0-7.75-1.22-8.23-6L773,45.84l1.15.84-.79,1.08c.22,2.21,3.67,2.69,5.83,2.69a20.88,20.88,0,0,0,5.83-.94Zm-7.46-11.52a28,28,0,0,0,2.4-2.4l-6.08,0-.69-2.09h9.24l.84-.55,2,1.75c-1,.79-4.37,2.86-6.55,4.13Z"/><path class="cls-1" d="M801.32,49.68a2,2,0,0,0,2.16,1.87,3.91,3.91,0,0,0,3.82-3.79c0-.65-.19-3.65-5.06-3.65-.34,0-.7,0-1.06,0a15.81,15.81,0,0,0-2.47.46v4.56a5.71,5.71,0,0,1-2.45,4.94,28.58,28.58,0,0,1-4.44-1.85,3.34,3.34,0,0,1-1.8-2.83c0-2.21,2.73-4.65,5.76-5.95V40h-4.2l-.72-2h4.92c0-.67,0-1.18,0-1.82l-1.48-.41.45-1.32h4v3.55H801l1.66-1.25,2.16,1.66-2,1.63h-4v2.71a14,14,0,0,1,4-.6c5.9,0,7.85,3.58,7.85,5.79,0,3.33-3.53,6.14-6.87,6.14a4,4,0,0,1-4.32-3.91Zm-5.47-4.08c-1.49.82-3.38,2.45-3.38,3.65,0,1.37,2.32,1.73,2.42,1.73.67,0,1-1.51,1-2.09Zm14.69-4a8.14,8.14,0,0,0-5.45-2.81l.29-1.66c.36,0,.74,0,1.15,0a12.72,12.72,0,0,1,4.83.81Z"/><path class="cls-1" d="M817.23,55.37V42.94c-.63.69-1.25,1.37-1.92,2l-1.3-.8a27.92,27.92,0,0,0,4.92-11.06l3.6.91a37.14,37.14,0,0,1-2.42,5V55.37Zm17.62-.84H822l-.74-1.9H827V45.55h-5.74l-.72-2H827v-5.3c-1.59.22-3.2.38-4.76.5l-.67-1.58a39.33,39.33,0,0,0,11.64-3.74l2.14,3a49.61,49.61,0,0,1-5.14,1.25v5.85h3.39l1.58-1.17,2,1.63-1.92,1.51h-5v7.08h3l1.58-1.1,2,1.58Z"/><path class="cls-1" d="M858.35,54a40.07,40.07,0,0,1-4.94.24c-1.16,0-2.16,0-2.76-.08a4.86,4.86,0,0,1-4.78-4.68,56.53,56.53,0,0,1-.22-6.14l-4.27.57-1-1.92,5.25-.69c0-1.23,0-2.5-.14-3.77l-1.59-.72.44-1.2h4.29V37.1c0,1.3,0,2.6,0,3.82l6.45-.86c0-1.28.07-2.6.07-3.7l-1.41-.55.33-1.23h4c-.07.89-.09,3-.14,5.09l2.18-.29,1.35-1.32,2.21,1.56-1.49,1.54-4.3.58c-.14,3.5-.31,6.86-4,7.39a15.65,15.65,0,0,0-4-2.3l.57-1.64a10.58,10.58,0,0,0,3,.82c1.2,0,1.37-1.73,1.49-3.89l-6.43.86c0,1,0,1.93,0,2.77,0,5.13.77,5.8,4.42,5.8a49.17,49.17,0,0,0,6.28-.57Z"/><path class="cls-1" d="M879.39,54.87c-2-3.32-6.31-6.46-9.72-8.84A3.16,3.16,0,0,1,868,43.56a3.46,3.46,0,0,1,1.82-2.69c2.16-1.49,6.29-3.74,8.26-5.52l-.84-1.13,1.32-.76,4.46,2.64c-1.65,1.75-8.73,4.75-11.73,6.38a1.19,1.19,0,0,0-.72,1,1.09,1.09,0,0,0,.64.93c3.6,2,8.84,4.76,11.89,8Z"/><path class="cls-1" d="M889.19,53.69a94.9,94.9,0,0,0,4.61-14.4h-4l-.68-2h5.12c.09-.48.14-.93.21-1.39L893,35.45l.53-1.13H898c-.12.89-.32,1.87-.53,3h3.86L903,36l1.8,1.76-1.94,1.51H897a147.67,147.67,0,0,1-4.25,14.76Zm19.75,0a26.55,26.55,0,0,1-4.27.36c-2.95,0-6.33-.72-6.86-4.68l1.53-1.2,1.32.75-.74.84c.26,1.29,2.81,1.56,4.54,1.56a28.44,28.44,0,0,0,5.23-.65Zm-6.19-9.24A18.57,18.57,0,0,0,904.62,43l-4.53,0-.7-1.8h7.49l.79-.45,2.24,1.58c-1.88.94-4,1.87-5.74,2.86Zm4.11-5.76a13.7,13.7,0,0,0-2.76-3.58l1.17-.79a12.74,12.74,0,0,1,3.41,2.62Zm2.95-1.56a14.22,14.22,0,0,0-2.71-3.24l1.12-.74a12.65,12.65,0,0,1,3.39,2.18Z"/><path class="cls-1" d="M929.86,47.86a29.88,29.88,0,0,1-5.66-7.2h-9l-.72-2.07H923c-.46-.86-.89-1.68-1.25-2.45L920,35.69l.48-1.37h4a19.75,19.75,0,0,0,2,4.27H930l1.8-1.32L934.06,39l-2.16,1.71h-4.15a24.39,24.39,0,0,0,5,5.42Zm.65,6a28.92,28.92,0,0,1-4.35.28c-5.25,0-10.24-2-10.24-7.87,0-.24,0-.48,0-.72h3.7l.72,1.37c-.17,0-1.66.6-1.66.6v.07c0,2.91,4.73,3.72,7.27,3.72a26.85,26.85,0,0,0,5.4-.67Z"/><path class="cls-1" d="M949.13,47.52a14.16,14.16,0,0,0-1.08,5.33c0,.26,0,.5,0,.72a3.55,3.55,0,0,1-1.24.22c-1.85,0-4.11-1.25-5.43-4-1.08-2.24-1.3-5.43-1.3-8.55,0-1,0-2,0-2.93l-1.56-.57.51-1.32h4.32a39.69,39.69,0,0,0-.46,5.71c0,6.31,2,7.8,2.54,7.8.27,0,.51-.19.7-.62.26-.63.65-1.73,1.11-3Zm8.23,3v-.24a19.87,19.87,0,0,0-5.23-13.08l1.87-.82c3.63,3,6.46,7.68,6.6,12.51Z"/><path class="cls-1" d="M968.11,55.3a3.17,3.17,0,1,1,3.15-3.15A3.16,3.16,0,0,1,968.11,55.3Zm0-4.95a1.77,1.77,0,0,0-1.76,1.8,1.74,1.74,0,0,0,1.76,1.76,1.78,1.78,0,0,0,1.8-1.76A1.81,1.81,0,0,0,968.07,50.35Z"/></svg>