<?xml version="1.0" encoding="utf-8"?>
<!-- Generator: Adobe Illustrator 24.0.3, SVG Export Plug-In . SVG Version: 6.00 Build 0)  -->
<svg version="1.1" id="レイヤー_1" xmlns="http://www.w3.org/2000/svg" xmlns:xlink="http://www.w3.org/1999/xlink" x="0px"
	 y="0px" viewBox="0 0 1280 126.4" style="enable-background:new 0 0 1280 126.4;" xml:space="preserve">
<style type="text/css">
	.st0{fill:#FFFFFF;}
</style>
<path class="st0" d="M1205.3,44.1c-2.6-0.6-5.3-0.9-8.1-0.9c-17.1,0-31.3,12.3-34.2,28.5c-5.2-3.5-11.4-5.5-18.1-5.5
	c-1.6,0-3.2,0.1-4.8,0.4c0-0.5,0-0.9,0-1.4c0-25.6-20.7-46.2-46.2-46.2c-17.6,0-32.7,9.8-40.6,24.2c-7.2-4.2-15.5-6.6-24.4-6.6
	c-12.2,0-23.3,4.5-31.8,11.8c-4.3-13.1-16.7-22.5-31.2-22.5c-12.2,0-22.8,6.6-28.5,16.5c-4-0.8-8.2-1.2-12.4-1.2
	c-24.8,0-46.3,14.1-56.9,34.7c-8.2-12.8-22.6-21.3-38.9-21.3c-13,0-24.8,5.4-33.1,14.1c-3.9-2.2-8.3-3.4-13.1-3.4
	c-14.7,0-26.7,11.9-26.7,26.7c0,1.9,0.2,3.7,0.6,5.5c-5.6,2.2-10.6,5.5-15,9.5c-8.9-11.6-23-19.1-38.6-19.1
	c-11.4,0-21.9,3.9-30.2,10.5c-6.8-11.5-19.2-19-33.2-19c-15.8,0-29.4,9.4-35.5,22.9c-7.1-8.8-18-14.5-30.2-14.5
	c-3.8,0-7.6,0.6-11.1,1.6c-4.3-21.1-23-36.9-45.3-36.9c-9.2,0-17.8,2.7-25,7.3c-7.2-4.6-15.8-7.3-25-7.3c-5.9,0-11.6,1.1-16.8,3.1
	C440.5,35,419,21.1,394.4,21.1c-34.1,0-62.1,26.8-63.9,60.5c-10.5-7.5-23.3-11.9-37-11.9c-12.6,0-24.4,3.7-34.2,10
	c-6.5-17.1-23.1-29.3-42.4-29.3c-18.4,0-34.2,11-41.3,26.7c-7.3-8.3-18.1-13.5-30-13.5c-9.1,0-17.5,3.1-24.3,8.2
	c-7.2-12.6-20.7-21.1-36.1-21.1c-2.4,0-4.7,0.2-7,0.6C65,21.1,34.9,0,0,0v126.4h1280V0C1247.9,0,1219.9,17.9,1205.3,44.1z"/>
</svg>
