<svg id="レイヤー_1" data-name="レイヤー 1" xmlns="http://www.w3.org/2000/svg" viewBox="0 0 1280 121.6"><defs><style>.cls-1{fill:#fff;}</style></defs><title>top-cloud01</title><path class="cls-1" d="M1219,41.8a49.34,49.34,0,0,0-90.66,2.4,46.31,46.31,0,0,0-45.23-36.5,44.66,44.66,0,0,0-18.67,4,69,69,0,0,0-98.25,22.9A44.21,44.21,0,0,0,901,73.4a39.4,39.4,0,0,0,.7,7.7h-.4a37.1,37.1,0,0,0-29.15,14.1A20.61,20.61,0,0,0,858,89.5a20.36,20.36,0,0,0-12.08,4,46.15,46.15,0,0,0-64-.8,24.75,24.75,0,0,0-20.77-11.2,23.71,23.71,0,0,0-11,2.6,48.9,48.9,0,0,0-83.87-10.9,45.55,45.55,0,0,0-27.86-9.3,46.48,46.48,0,0,0-18,3.6A64,64,0,0,0,516.69,84a39.36,39.36,0,0,0-8.48-1,37.74,37.74,0,0,0-32.85,19.3,28.09,28.09,0,0,0-50.42-14.4,52.1,52.1,0,0,0-46.23-28,51.33,51.33,0,0,0-12.48,1.5A80.39,80.39,0,0,0,248.71,38.9a37.23,37.23,0,0,0-44.13.7,64.17,64.17,0,0,0-68-5.6A41.72,41.72,0,0,0,62.8,43.3,104.19,104.19,0,0,0,0,22.4v99.2H1280V22.4A105.23,105.23,0,0,0,1219,41.8Z"/></svg>